G04 #@! TF.GenerationSoftware,KiCad,Pcbnew,(5.1.8)-1*
G04 #@! TF.CreationDate,2020-12-06T14:54:54-05:00*
G04 #@! TF.ProjectId,Snowflakes,536e6f77-666c-4616-9b65-732e6b696361,rev?*
G04 #@! TF.SameCoordinates,Original*
G04 #@! TF.FileFunction,Legend,Top*
G04 #@! TF.FilePolarity,Positive*
%FSLAX46Y46*%
G04 Gerber Fmt 4.6, Leading zero omitted, Abs format (unit mm)*
G04 Created by KiCad (PCBNEW (5.1.8)-1) date 2020-12-06 14:54:54*
%MOMM*%
%LPD*%
G01*
G04 APERTURE LIST*
%ADD10C,0.010000*%
%ADD11C,0.120000*%
%ADD12C,0.100000*%
%ADD13C,0.150000*%
G04 APERTURE END LIST*
D10*
X100000000Y-100000000D02*
X132328189Y-144495935D01*
X100000000Y-100000000D02*
X47691892Y-83004065D01*
D11*
X142146618Y-89349451D02*
X141429083Y-86762103D01*
X141429083Y-86762103D02*
X139578912Y-87275201D01*
X139578912Y-87275201D02*
X140296447Y-89862548D01*
X123153296Y-136792614D02*
X125392279Y-135310664D01*
X125392279Y-135310664D02*
X124332560Y-133709603D01*
X124332560Y-133709603D02*
X122093577Y-135191554D01*
X72162906Y-133389635D02*
X74264209Y-135061087D01*
X74264209Y-135061087D02*
X75459437Y-133558479D01*
X75459437Y-133558479D02*
X73358134Y-131887028D01*
X59642434Y-83843315D02*
X58702127Y-86358280D01*
X58702127Y-86358280D02*
X60500538Y-87030678D01*
X60500538Y-87030678D02*
X61440845Y-84515713D01*
X138319263Y-83874092D02*
X139259570Y-86389057D01*
X140117674Y-83201694D02*
X138319263Y-83874092D01*
X141057981Y-85716659D02*
X140117674Y-83201694D01*
X127177953Y-131460605D02*
X125076650Y-133132057D01*
X128373181Y-132963213D02*
X127177953Y-131460605D01*
X126271878Y-134634664D02*
X128373181Y-132963213D01*
X78477635Y-135569630D02*
X76238652Y-134087680D01*
X77417916Y-137170691D02*
X78477635Y-135569630D01*
X75178933Y-135688740D02*
X77417916Y-137170691D01*
X59520495Y-90522635D02*
X60238030Y-87935287D01*
X57670324Y-90009537D02*
X59520495Y-90522635D01*
X58387859Y-87422190D02*
X57670324Y-90009537D01*
X100128553Y-58426039D02*
X102810998Y-58543157D01*
X100212302Y-56507866D02*
X100128553Y-58426039D01*
X102894747Y-56624984D02*
X100212302Y-56507866D01*
X99103350Y-56537745D02*
X96420905Y-56654863D01*
X96420905Y-56654863D02*
X96504654Y-58573036D01*
X96504654Y-58573036D02*
X99187099Y-58455918D01*
X147348272Y-85667076D02*
X146518562Y-83113489D01*
X146518562Y-83113489D02*
X144692533Y-83706802D01*
X144692533Y-83706802D02*
X145522244Y-86260389D01*
X128262842Y-140601766D02*
X130435052Y-139023562D01*
X130435052Y-139023562D02*
X129306505Y-137470250D01*
X129306505Y-137470250D02*
X127134294Y-139048453D01*
X70119124Y-139426195D02*
X72291335Y-141004398D01*
X72291335Y-141004398D02*
X73419882Y-139451086D01*
X73419882Y-139451086D02*
X71247672Y-137872882D01*
X53269762Y-83764963D02*
X52440051Y-86318550D01*
X52440051Y-86318550D02*
X54266080Y-86911863D01*
X54266080Y-86911863D02*
X55095790Y-84358276D01*
X104910158Y-62849738D02*
X102239867Y-62569080D01*
X102239867Y-62569080D02*
X102039172Y-64478562D01*
X102039172Y-64478562D02*
X104709464Y-64759220D01*
X134628149Y-85677191D02*
X133536061Y-83224322D01*
X133536061Y-83224322D02*
X131782054Y-84005256D01*
X131782054Y-84005256D02*
X132874142Y-86458126D01*
X135935594Y-89375280D02*
X135105884Y-86821693D01*
X135105884Y-86821693D02*
X133279855Y-87415006D01*
X133279855Y-87415006D02*
X134109566Y-89968593D01*
X136849320Y-93189775D02*
X136291077Y-90563449D01*
X136291077Y-90563449D02*
X134413034Y-90962640D01*
X134413034Y-90962640D02*
X134971277Y-93588966D01*
X124322488Y-128507336D02*
X126317831Y-126710720D01*
X126317831Y-126710720D02*
X125033101Y-125283882D01*
X125033101Y-125283882D02*
X123037757Y-127080498D01*
X121209419Y-130893562D02*
X123381629Y-129315358D01*
X123381629Y-129315358D02*
X122253082Y-127762046D01*
X122253082Y-127762046D02*
X120080871Y-129340249D01*
X117863975Y-132941311D02*
X120189253Y-131598811D01*
X120189253Y-131598811D02*
X119229253Y-129936043D01*
X119229253Y-129936043D02*
X116903975Y-131278543D01*
X80403975Y-131941311D02*
X82729253Y-133283811D01*
X82729253Y-133283811D02*
X83689253Y-131621043D01*
X83689253Y-131621043D02*
X81363975Y-130278543D01*
X77172547Y-129717991D02*
X79344758Y-131296194D01*
X79344758Y-131296194D02*
X80473305Y-129742882D01*
X80473305Y-129742882D02*
X78301095Y-128164678D01*
X74191223Y-127169074D02*
X76186567Y-128965690D01*
X76186567Y-128965690D02*
X77471297Y-127538852D01*
X77471297Y-127538852D02*
X75475954Y-125742236D01*
X63566503Y-91233480D02*
X63008260Y-93859806D01*
X63008260Y-93859806D02*
X64886303Y-94258997D01*
X64886303Y-94258997D02*
X65444546Y-91632671D01*
X64682440Y-87473167D02*
X63852729Y-90026754D01*
X63852729Y-90026754D02*
X65678758Y-90620067D01*
X65678758Y-90620067D02*
X66508468Y-88066480D01*
X66185324Y-83850100D02*
X65093236Y-86302970D01*
X65093236Y-86302970D02*
X66847243Y-87083904D01*
X66847243Y-87083904D02*
X67939331Y-84631035D01*
X97078886Y-62640682D02*
X94408594Y-62921340D01*
X94408594Y-62921340D02*
X94609289Y-64830822D01*
X94609289Y-64830822D02*
X97279580Y-64550164D01*
X100173157Y-70412489D02*
X102852859Y-70581081D01*
X100293715Y-68496277D02*
X100173157Y-70412489D01*
X102973417Y-68664870D02*
X100293715Y-68496277D01*
X103880090Y-70667497D02*
X106517531Y-71170616D01*
X104239862Y-68781506D02*
X103880090Y-70667497D01*
X106877303Y-69284625D02*
X104239862Y-68781506D01*
X125074344Y-84292420D02*
X126367852Y-86645303D01*
X126756852Y-83367453D02*
X125074344Y-84292420D01*
X128050361Y-85720336D02*
X126756852Y-83367453D01*
X126845308Y-87558927D02*
X127833722Y-90055377D01*
X128630479Y-86852128D02*
X126845308Y-87558927D01*
X129618893Y-89348578D02*
X128630479Y-86852128D01*
X128192904Y-91021638D02*
X128860636Y-93622283D01*
X130052583Y-90544153D02*
X128192904Y-91021638D01*
X130720316Y-93144799D02*
X130052583Y-90544153D01*
X129095881Y-94625943D02*
X129432401Y-97289771D01*
X131000742Y-94385303D02*
X129095881Y-94625943D01*
X131337261Y-97049131D02*
X131000742Y-94385303D01*
X122687195Y-118993209D02*
X120849186Y-120950489D01*
X124086815Y-120307539D02*
X122687195Y-118993209D01*
X122248806Y-122264820D02*
X124086815Y-120307539D01*
X120127820Y-121686902D02*
X118058992Y-123398385D01*
X121351674Y-123166287D02*
X120127820Y-121686902D01*
X119282846Y-124877771D02*
X121351674Y-123166287D01*
X117251016Y-124038578D02*
X114983995Y-125477273D01*
X118279803Y-125659688D02*
X117251016Y-124038578D01*
X116012783Y-127098383D02*
X118279803Y-125659688D01*
X114102153Y-126011153D02*
X111672693Y-127154370D01*
X114919650Y-127748421D02*
X114102153Y-126011153D01*
X112490189Y-128891638D02*
X114919650Y-127748421D01*
X88947114Y-127446029D02*
X86517653Y-126302812D01*
X88129617Y-129183297D02*
X88947114Y-127446029D01*
X85700157Y-128040080D02*
X88129617Y-129183297D01*
X85594369Y-125844315D02*
X83327349Y-124405620D01*
X84565582Y-127465425D02*
X85594369Y-125844315D01*
X82298561Y-126026730D02*
X84565582Y-127465425D01*
X82468811Y-123835021D02*
X80399983Y-122123537D01*
X81244957Y-125314406D02*
X82468811Y-123835021D01*
X79176129Y-123602923D02*
X81244957Y-125314406D01*
X79619729Y-121449834D02*
X77781720Y-119492553D01*
X78220109Y-122764164D02*
X79619729Y-121449834D01*
X76382100Y-120806884D02*
X78220109Y-122764164D01*
X70481746Y-97969370D02*
X70818265Y-95305542D01*
X68576885Y-97728730D02*
X70481746Y-97969370D01*
X68913405Y-95064902D02*
X68576885Y-97728730D01*
X70969011Y-94285764D02*
X71636744Y-91685118D01*
X69109332Y-93808279D02*
X70969011Y-94285764D01*
X69777064Y-91207634D02*
X69109332Y-93808279D01*
X71914113Y-90692274D02*
X72902527Y-88195824D01*
X70128942Y-89985475D02*
X71914113Y-90692274D01*
X71117356Y-87489025D02*
X70128942Y-89985475D01*
X73302145Y-87245573D02*
X74595654Y-84892690D01*
X71619637Y-86320606D02*
X73302145Y-87245573D01*
X72913145Y-83967723D02*
X71619637Y-86320606D01*
X92809602Y-71298972D02*
X95447043Y-70795853D01*
X92449830Y-69412981D02*
X92809602Y-71298972D01*
X95087271Y-68909862D02*
X92449830Y-69412981D01*
X99022637Y-68539289D02*
X96342935Y-68707881D01*
X96342935Y-68707881D02*
X96463493Y-70624093D01*
X96463493Y-70624093D02*
X99143195Y-70455500D01*
X104970509Y-75009890D02*
X102318566Y-74589863D01*
X102318566Y-74589863D02*
X102018212Y-76486225D01*
X102018212Y-76486225D02*
X104670155Y-76906251D01*
X108818629Y-76095118D02*
X106265042Y-75265407D01*
X106265042Y-75265407D02*
X105671729Y-77091436D01*
X105671729Y-77091436D02*
X108225316Y-77921146D01*
X121185358Y-85844004D02*
X119607154Y-83671794D01*
X119607154Y-83671794D02*
X118053842Y-84800341D01*
X118053842Y-84800341D02*
X119632045Y-86972552D01*
X123139017Y-89332409D02*
X121920052Y-86940056D01*
X121920052Y-86940056D02*
X120209320Y-87811718D01*
X120209320Y-87811718D02*
X121428284Y-90204070D01*
X125302979Y-97004867D02*
X124882953Y-94352924D01*
X124882953Y-94352924D02*
X122986591Y-94653278D01*
X122986591Y-94653278D02*
X123406618Y-97305221D01*
X125460000Y-101000000D02*
X125460000Y-98315000D01*
X125460000Y-98315000D02*
X123540000Y-98315000D01*
X123540000Y-98315000D02*
X123540000Y-101000000D01*
X120009787Y-115774030D02*
X121587990Y-113601819D01*
X121587990Y-113601819D02*
X120034678Y-112473272D01*
X120034678Y-112473272D02*
X118456474Y-114645482D01*
X117295832Y-118710045D02*
X119194413Y-116811464D01*
X119194413Y-116811464D02*
X117836768Y-115453819D01*
X117836768Y-115453819D02*
X115938187Y-117352400D01*
X114155996Y-121185358D02*
X116328206Y-119607154D01*
X116328206Y-119607154D02*
X115199659Y-118053842D01*
X115199659Y-118053842D02*
X113027448Y-119632045D01*
X110667591Y-123139017D02*
X113059944Y-121920052D01*
X113059944Y-121920052D02*
X112188282Y-120209320D01*
X112188282Y-120209320D02*
X109795930Y-121428284D01*
X106916516Y-124522916D02*
X109470103Y-123693206D01*
X109470103Y-123693206D02*
X108876790Y-121867177D01*
X108876790Y-121867177D02*
X106323203Y-122696888D01*
X91181371Y-123904882D02*
X93734958Y-124734593D01*
X93734958Y-124734593D02*
X94328271Y-122908564D01*
X94328271Y-122908564D02*
X91774684Y-122078854D01*
X87550396Y-122231036D02*
X89942748Y-123450000D01*
X89942748Y-123450000D02*
X90814410Y-121739268D01*
X90814410Y-121739268D02*
X88422057Y-120520303D01*
X84225970Y-120009787D02*
X86398181Y-121587990D01*
X86398181Y-121587990D02*
X87526728Y-120034678D01*
X87526728Y-120034678D02*
X85354518Y-118456474D01*
X81289955Y-117295832D02*
X83188536Y-119194413D01*
X83188536Y-119194413D02*
X84546181Y-117836768D01*
X84546181Y-117836768D02*
X82647600Y-115938187D01*
X78814642Y-114155996D02*
X80392846Y-116328206D01*
X80392846Y-116328206D02*
X81946158Y-115199659D01*
X81946158Y-115199659D02*
X80367955Y-113027448D01*
X74540000Y-99000000D02*
X74540000Y-101685000D01*
X74540000Y-101685000D02*
X76460000Y-101685000D01*
X76460000Y-101685000D02*
X76460000Y-99000000D01*
X75009890Y-95029491D02*
X74589863Y-97681434D01*
X74589863Y-97681434D02*
X76486225Y-97981788D01*
X76486225Y-97981788D02*
X76906251Y-95329845D01*
X76095118Y-91181371D02*
X75265407Y-93734958D01*
X75265407Y-93734958D02*
X77091436Y-94328271D01*
X77091436Y-94328271D02*
X77921146Y-91774684D01*
X77768964Y-87550396D02*
X76550000Y-89942748D01*
X76550000Y-89942748D02*
X78260732Y-90814410D01*
X78260732Y-90814410D02*
X79479697Y-88422057D01*
X79990213Y-84225970D02*
X78412010Y-86398181D01*
X78412010Y-86398181D02*
X79965322Y-87526728D01*
X79965322Y-87526728D02*
X81543526Y-85354518D01*
X93083484Y-75477084D02*
X90529897Y-76306794D01*
X90529897Y-76306794D02*
X91123210Y-78132823D01*
X91123210Y-78132823D02*
X93676797Y-77303112D01*
X97004867Y-74697021D02*
X94352924Y-75117047D01*
X94352924Y-75117047D02*
X94653278Y-77013409D01*
X94653278Y-77013409D02*
X97305221Y-76593382D01*
X100157659Y-82379956D02*
X102827951Y-82660614D01*
X100358354Y-80470474D02*
X100157659Y-82379956D01*
X103028645Y-80751132D02*
X100358354Y-80470474D01*
X103817627Y-82797775D02*
X106371214Y-83627485D01*
X104410940Y-80971746D02*
X103817627Y-82797775D01*
X106964527Y-81801457D02*
X104410940Y-80971746D01*
X107310747Y-83967414D02*
X109636025Y-85309914D01*
X108270747Y-82304646D02*
X107310747Y-83967414D01*
X110596025Y-83647146D02*
X108270747Y-82304646D01*
X110484352Y-85837754D02*
X112479695Y-87634370D01*
X111769082Y-84410916D02*
X110484352Y-85837754D01*
X113764426Y-86207532D02*
X111769082Y-84410916D01*
X113199740Y-88327052D02*
X114777943Y-90499263D01*
X114753052Y-87198505D02*
X113199740Y-88327052D01*
X116331256Y-89370715D02*
X114753052Y-87198505D01*
X115338236Y-91326515D02*
X116430324Y-93779385D01*
X117092243Y-90545581D02*
X115338236Y-91326515D01*
X118184331Y-92998450D02*
X117092243Y-90545581D01*
X116806378Y-94705050D02*
X117364621Y-97331376D01*
X118684421Y-94305859D02*
X116806378Y-94705050D01*
X119242664Y-96932185D02*
X118684421Y-94305859D01*
X117540000Y-98315000D02*
X117540000Y-101000000D01*
X119460000Y-98315000D02*
X117540000Y-98315000D01*
X119460000Y-101000000D02*
X119460000Y-98315000D01*
X117507041Y-101998592D02*
X116948798Y-104624918D01*
X119385084Y-102397783D02*
X117507041Y-101998592D01*
X118826841Y-105024109D02*
X119385084Y-102397783D01*
X116708939Y-105594836D02*
X115616851Y-108047705D01*
X118462946Y-106375770D02*
X116708939Y-105594836D01*
X117370858Y-108828640D02*
X118462946Y-106375770D01*
X115180577Y-108946560D02*
X113602373Y-111118770D01*
X116733889Y-110075107D02*
X115180577Y-108946560D01*
X115155686Y-112247318D02*
X116733889Y-110075107D01*
X112988751Y-111907275D02*
X110993407Y-113703891D01*
X114273481Y-113334113D02*
X112988751Y-111907275D01*
X112278138Y-115130729D02*
X114273481Y-113334113D01*
X110229253Y-114347586D02*
X107903975Y-115690086D01*
X111189253Y-116010354D02*
X110229253Y-114347586D01*
X108863975Y-117352854D02*
X111189253Y-116010354D01*
X107022689Y-116160837D02*
X104469102Y-116990548D01*
X107616002Y-117986866D02*
X107022689Y-116160837D01*
X105062415Y-118816576D02*
X107616002Y-117986866D01*
X103509199Y-117267784D02*
X100838908Y-117548442D01*
X103709894Y-119177266D02*
X103509199Y-117267784D01*
X101039602Y-119457924D02*
X103709894Y-119177266D01*
X99842341Y-117620044D02*
X97172049Y-117339386D01*
X99641646Y-119529526D02*
X99842341Y-117620044D01*
X96971355Y-119248868D02*
X99641646Y-119529526D01*
X96182373Y-117202225D02*
X93628786Y-116372515D01*
X95589060Y-119028254D02*
X96182373Y-117202225D01*
X93035473Y-118198543D02*
X95589060Y-119028254D01*
X92689253Y-116032586D02*
X90363975Y-114690086D01*
X91729253Y-117695354D02*
X92689253Y-116032586D01*
X89403975Y-116352854D02*
X91729253Y-117695354D01*
X89515648Y-114162246D02*
X87520305Y-112365630D01*
X88230918Y-115589084D02*
X89515648Y-114162246D01*
X86235574Y-113792468D02*
X88230918Y-115589084D01*
X86800260Y-111672948D02*
X85222057Y-109500737D01*
X85246948Y-112801495D02*
X86800260Y-111672948D01*
X83668744Y-110629285D02*
X85246948Y-112801495D01*
X84661764Y-108673485D02*
X83569676Y-106220615D01*
X82907757Y-109454419D02*
X84661764Y-108673485D01*
X81815669Y-107001550D02*
X82907757Y-109454419D01*
X83193622Y-105294950D02*
X82635379Y-102668624D01*
X81315579Y-105694141D02*
X83193622Y-105294950D01*
X80757336Y-103067815D02*
X81315579Y-105694141D01*
X82460000Y-101685000D02*
X82460000Y-99000000D01*
X80540000Y-101685000D02*
X82460000Y-101685000D01*
X80540000Y-99000000D02*
X80540000Y-101685000D01*
X82492959Y-98001408D02*
X83051202Y-95375082D01*
X80614916Y-97602217D02*
X82492959Y-98001408D01*
X81173159Y-94975891D02*
X80614916Y-97602217D01*
X83291061Y-94405164D02*
X84383149Y-91952295D01*
X81537054Y-93624230D02*
X83291061Y-94405164D01*
X82629142Y-91171360D02*
X81537054Y-93624230D01*
X84819423Y-91053440D02*
X86397627Y-88881230D01*
X83266111Y-89924893D02*
X84819423Y-91053440D01*
X84844314Y-87752682D02*
X83266111Y-89924893D01*
X87011249Y-88092725D02*
X89006593Y-86296109D01*
X85726519Y-86665887D02*
X87011249Y-88092725D01*
X87721862Y-84869271D02*
X85726519Y-86665887D01*
X89770747Y-85652414D02*
X92096025Y-84309914D01*
X88810747Y-83989646D02*
X89770747Y-85652414D01*
X91136025Y-82647146D02*
X88810747Y-83989646D01*
X92977311Y-83839163D02*
X95530898Y-83009452D01*
X92383998Y-82013134D02*
X92977311Y-83839163D01*
X94937585Y-81183424D02*
X92383998Y-82013134D01*
X98960398Y-80542076D02*
X96290106Y-80822734D01*
X96290106Y-80822734D02*
X96490801Y-82732216D01*
X96490801Y-82732216D02*
X99161092Y-82451558D01*
X98315000Y-64460000D02*
X101000000Y-64460000D01*
X98315000Y-62540000D02*
X98315000Y-64460000D01*
X101000000Y-62540000D02*
X98315000Y-62540000D01*
X98315000Y-52460000D02*
X101000000Y-52460000D01*
X98315000Y-50540000D02*
X98315000Y-52460000D01*
X101000000Y-50540000D02*
X98315000Y-50540000D01*
D12*
X96400000Y-103600000D02*
X96400000Y-103150000D01*
X96400000Y-103600000D02*
X96850000Y-103600000D01*
X103600000Y-103600000D02*
X103150000Y-103600000D01*
X103600000Y-103600000D02*
X103600000Y-103150000D01*
X103600000Y-96400000D02*
X103600000Y-96850000D01*
X103600000Y-96400000D02*
X103150000Y-96400000D01*
X96400000Y-96850000D02*
X95100000Y-96850000D01*
X96400000Y-96750000D02*
X96400000Y-96850000D01*
X96750000Y-96400000D02*
X96400000Y-96750000D01*
X96850000Y-96400000D02*
X96750000Y-96400000D01*
D11*
X98315000Y-76460000D02*
X101000000Y-76460000D01*
X98315000Y-74540000D02*
X98315000Y-76460000D01*
X101000000Y-74540000D02*
X98315000Y-74540000D01*
X76095118Y-91181371D02*
X75265407Y-93734958D01*
X75265407Y-93734958D02*
X77091436Y-94328271D01*
X77091436Y-94328271D02*
X77921146Y-91774684D01*
X124522916Y-93083484D02*
X123693206Y-90529897D01*
X123693206Y-90529897D02*
X121867177Y-91123210D01*
X121867177Y-91123210D02*
X122696888Y-93676797D01*
X84225970Y-120009787D02*
X86398181Y-121587990D01*
X86398181Y-121587990D02*
X87526728Y-120034678D01*
X87526728Y-120034678D02*
X85354518Y-118456474D01*
X114155996Y-121185358D02*
X116328206Y-119607154D01*
X116328206Y-119607154D02*
X115199659Y-118053842D01*
X115199659Y-118053842D02*
X113027448Y-119632045D01*
X91140000Y-101490000D02*
X92940000Y-101490000D01*
X92940000Y-98270000D02*
X90490000Y-98270000D01*
D13*
X141752038Y-87037478D02*
X142121830Y-86589012D01*
X141599330Y-86486832D02*
X142562960Y-86219594D01*
X142664766Y-86586691D01*
X142644330Y-86691191D01*
X142611168Y-86749804D01*
X142532119Y-86821143D01*
X142394458Y-86859320D01*
X142289958Y-86838884D01*
X142231345Y-86805722D01*
X142160007Y-86726673D01*
X142058202Y-86359576D01*
X142371327Y-87310481D02*
X142460407Y-87631691D01*
X141993825Y-87909335D02*
X141866568Y-87450463D01*
X142830199Y-87183225D01*
X142957455Y-87642096D01*
X142702194Y-88503547D02*
X142613114Y-88182337D01*
X142108355Y-88322319D02*
X143071986Y-88055081D01*
X143199242Y-88513952D01*
X143339224Y-89018711D02*
X143109788Y-89082339D01*
X143137935Y-88827452D02*
X143109788Y-89082339D01*
X143265191Y-89286324D01*
X142888063Y-88995580D02*
X143109788Y-89082339D01*
X142964417Y-89270903D01*
X143542834Y-89752906D02*
X143313399Y-89816534D01*
X143341545Y-89561647D02*
X143313399Y-89816534D01*
X143468801Y-90020518D01*
X143091673Y-89729775D02*
X143313399Y-89816534D01*
X143168027Y-90005098D01*
X123505856Y-137929209D02*
X122965066Y-137716099D01*
X123029349Y-138244601D02*
X122477412Y-137410715D01*
X122795083Y-137200454D01*
X122900784Y-137187597D01*
X122966775Y-137201023D01*
X123059049Y-137254158D01*
X123137898Y-137373285D01*
X123150754Y-137478985D01*
X123137328Y-137544977D01*
X123084193Y-137637251D01*
X122766522Y-137847513D01*
X123574125Y-137255867D02*
X123852087Y-137071888D01*
X124260324Y-137429837D02*
X123863235Y-137692664D01*
X123311298Y-136858778D01*
X123708387Y-136595951D01*
X124606555Y-136572516D02*
X124328593Y-136756495D01*
X124617703Y-137193293D02*
X124065766Y-136359407D01*
X124462855Y-136096580D01*
X124899652Y-135807470D02*
X125031066Y-136006014D01*
X124779956Y-136058010D02*
X125031066Y-136006014D01*
X125177044Y-135795183D01*
X125017070Y-136243698D02*
X125031066Y-136006014D01*
X125255323Y-136086001D01*
X125534994Y-135386946D02*
X125666407Y-135585491D01*
X125415298Y-135637486D02*
X125666407Y-135585491D01*
X125812386Y-135374659D01*
X125652412Y-135823174D02*
X125666407Y-135585491D01*
X125890665Y-135665478D01*
X71190887Y-134076166D02*
X71226453Y-133495991D01*
X70743683Y-133720443D02*
X71366197Y-132937835D01*
X71664334Y-133174984D01*
X71709224Y-133271538D01*
X71716848Y-133338448D01*
X71694828Y-133442626D01*
X71605897Y-133554427D01*
X71509343Y-133599318D01*
X71442432Y-133606941D01*
X71338255Y-133584921D01*
X71040118Y-133347773D01*
X71852370Y-133933020D02*
X72113239Y-134140525D01*
X71898961Y-134639394D02*
X71526291Y-134342958D01*
X72148805Y-133560350D01*
X72521476Y-133856785D01*
X72821313Y-134703753D02*
X72560444Y-134496248D01*
X72234365Y-134906186D02*
X72856879Y-134123577D01*
X73229550Y-134420013D01*
X73639488Y-134746092D02*
X73491270Y-134932427D01*
X73364222Y-134709675D02*
X73491270Y-134932427D01*
X73736892Y-135006111D01*
X73260894Y-134992565D02*
X73491270Y-134932427D01*
X73484497Y-135170426D01*
X74235760Y-135220389D02*
X74087543Y-135406724D01*
X73960494Y-135183972D02*
X74087543Y-135406724D01*
X74333165Y-135480408D01*
X73857167Y-135466862D02*
X74087543Y-135406724D01*
X74080770Y-135644723D01*
X58602712Y-85945667D02*
X58039942Y-86091126D01*
X58402593Y-86480908D02*
X57465921Y-86130701D01*
X57599334Y-85773873D01*
X57677290Y-85701343D01*
X57738570Y-85673416D01*
X57844454Y-85662166D01*
X57978264Y-85712195D01*
X58050794Y-85790152D01*
X58078721Y-85851432D01*
X58089971Y-85957315D01*
X57956559Y-86314143D01*
X58262163Y-85360794D02*
X58378899Y-85048570D01*
X58919566Y-85098202D02*
X58752801Y-85544236D01*
X57816129Y-85194029D01*
X57982894Y-84747994D01*
X58695753Y-84201105D02*
X58579017Y-84513329D01*
X59069655Y-84696771D02*
X58132983Y-84346563D01*
X58299748Y-83900529D01*
X58483190Y-83409891D02*
X58706208Y-83493274D01*
X58533618Y-83682938D02*
X58706208Y-83493274D01*
X58700383Y-83236904D01*
X58834592Y-83693790D02*
X58706208Y-83493274D01*
X58934651Y-83426170D01*
X58750015Y-82696236D02*
X58973032Y-82779619D01*
X58800443Y-82969283D02*
X58973032Y-82779619D01*
X58967208Y-82523249D01*
X59101416Y-82980135D02*
X58973032Y-82779619D01*
X59201476Y-82712515D01*
X140463401Y-83447874D02*
X140792699Y-82968885D01*
X140263282Y-82912633D02*
X141199954Y-82562426D01*
X141333367Y-82919253D01*
X141322116Y-83025137D01*
X141294189Y-83086417D01*
X141221659Y-83164373D01*
X141087849Y-83214403D01*
X140981965Y-83203152D01*
X140920685Y-83175226D01*
X140842729Y-83102695D01*
X140709317Y-82745868D01*
X141104127Y-83665863D02*
X141220863Y-83978087D01*
X140780255Y-84295340D02*
X140613490Y-83849305D01*
X141550162Y-83499098D01*
X141716927Y-83945132D01*
X141537717Y-84825553D02*
X141420982Y-84513329D01*
X140930344Y-84696771D02*
X141867016Y-84346563D01*
X142033781Y-84792598D01*
X142217223Y-85283235D02*
X141994206Y-85366618D01*
X142000030Y-85110248D02*
X141994206Y-85366618D01*
X142166796Y-85556282D01*
X141765763Y-85299514D02*
X141994206Y-85366618D01*
X141865822Y-85567135D01*
X142484048Y-85996890D02*
X142261031Y-86080273D01*
X142266855Y-85823903D02*
X142261031Y-86080273D01*
X142433620Y-86269937D01*
X142032588Y-86013169D02*
X142261031Y-86080273D01*
X142132647Y-86280790D01*
X126722157Y-135736205D02*
X126164852Y-135571039D01*
X126274952Y-136091928D02*
X125652437Y-135309320D01*
X125950574Y-135072171D01*
X126054752Y-135050151D01*
X126121662Y-135057775D01*
X126218216Y-135102665D01*
X126307147Y-135214466D01*
X126329167Y-135318644D01*
X126321544Y-135385555D01*
X126276653Y-135482109D01*
X125978517Y-135719257D01*
X126731481Y-135059475D02*
X126992351Y-134851971D01*
X127430231Y-135172978D02*
X127057560Y-135469413D01*
X126435046Y-134686805D01*
X126807716Y-134390369D01*
X127700425Y-134288743D02*
X127439555Y-134496248D01*
X127765634Y-134906186D02*
X127143120Y-134123577D01*
X127515790Y-133827142D01*
X127925728Y-133501063D02*
X128073946Y-133687398D01*
X127828323Y-133761082D02*
X128073946Y-133687398D01*
X128200994Y-133464646D01*
X128080719Y-133925397D02*
X128073946Y-133687398D01*
X128304321Y-133747536D01*
X128522001Y-133026766D02*
X128670218Y-133213101D01*
X128424596Y-133286785D02*
X128670218Y-133213101D01*
X128797267Y-132990349D01*
X128676991Y-133451100D02*
X128670218Y-133213101D01*
X128900594Y-133273239D01*
X74270448Y-136457377D02*
X74255313Y-135876309D01*
X73793942Y-136141984D02*
X74345879Y-135308098D01*
X74663550Y-135518360D01*
X74716685Y-135610634D01*
X74730111Y-135676626D01*
X74717254Y-135782326D01*
X74638406Y-135901453D01*
X74546132Y-135954588D01*
X74480140Y-135968014D01*
X74374440Y-135955157D01*
X74056769Y-135744896D01*
X74916937Y-136257124D02*
X75194899Y-136441103D01*
X75024916Y-136956748D02*
X74627828Y-136693921D01*
X75179765Y-135860035D01*
X75576853Y-136122862D01*
X75949368Y-136940474D02*
X75671406Y-136756495D01*
X75382296Y-137193293D02*
X75934233Y-136359407D01*
X76331321Y-136622234D01*
X76768119Y-136911344D02*
X76636705Y-137109888D01*
X76490726Y-136899057D02*
X76636705Y-137109888D01*
X76887815Y-137161884D01*
X76412448Y-137189875D02*
X76636705Y-137109888D01*
X76650701Y-137347572D01*
X77403460Y-137331867D02*
X77272047Y-137530411D01*
X77126068Y-137319580D02*
X77272047Y-137530411D01*
X77523156Y-137582407D01*
X77047789Y-137610399D02*
X77272047Y-137530411D01*
X77286042Y-137768095D01*
X57535326Y-89607160D02*
X56987375Y-89801113D01*
X57382618Y-90157806D02*
X56418988Y-89890567D01*
X56520793Y-89523470D01*
X56592131Y-89444421D01*
X56650744Y-89411260D01*
X56755244Y-89390824D01*
X56892905Y-89429001D01*
X56971954Y-89500339D01*
X57005116Y-89558952D01*
X57025552Y-89663452D01*
X56923746Y-90030549D01*
X57145098Y-89054193D02*
X57234177Y-88732983D01*
X57777113Y-88735304D02*
X57649856Y-89194175D01*
X56686226Y-88926937D01*
X56813482Y-88468065D01*
X57475964Y-87861127D02*
X57386885Y-88182337D01*
X57891644Y-88322319D02*
X56928013Y-88055081D01*
X57055269Y-87596209D01*
X57195251Y-87091450D02*
X57424687Y-87155078D01*
X57269285Y-87359063D02*
X57424687Y-87155078D01*
X57396541Y-86900191D01*
X57570059Y-87343642D02*
X57424687Y-87155078D01*
X57646413Y-87068319D01*
X57398862Y-86357256D02*
X57628297Y-86420884D01*
X57472895Y-86624868D02*
X57628297Y-86420884D01*
X57600151Y-86165997D01*
X57773669Y-86609448D02*
X57628297Y-86420884D01*
X57850023Y-86334125D01*
X100573999Y-56285812D02*
X100261754Y-55795535D01*
X100003114Y-56260886D02*
X100046733Y-55261838D01*
X100427323Y-55278455D01*
X100520393Y-55330183D01*
X100565890Y-55379834D01*
X100609310Y-55477058D01*
X100603078Y-55619780D01*
X100551350Y-55712850D01*
X100501699Y-55758347D01*
X100404475Y-55801766D01*
X100023885Y-55785149D01*
X101025010Y-55781195D02*
X101358026Y-55795735D01*
X101477899Y-56325277D02*
X101002162Y-56304506D01*
X101045782Y-55305458D01*
X101521519Y-55326229D01*
X102261927Y-55835200D02*
X101928911Y-55820660D01*
X101906063Y-56343971D02*
X101949682Y-55344923D01*
X102425420Y-55365694D01*
X102948731Y-55388542D02*
X102938345Y-55626411D01*
X102704631Y-55520878D02*
X102938345Y-55626411D01*
X103180368Y-55541649D01*
X102787315Y-55810474D02*
X102938345Y-55626411D01*
X103072758Y-55822937D01*
X103709910Y-55421776D02*
X103699525Y-55659644D01*
X103465810Y-55554111D02*
X103699525Y-55659644D01*
X103941547Y-55574883D01*
X103548495Y-55843708D02*
X103699525Y-55659644D01*
X103833937Y-55856171D01*
X96761872Y-56402130D02*
X96408085Y-55940933D01*
X96190987Y-56427055D02*
X96147368Y-55428007D01*
X96527957Y-55411390D01*
X96625182Y-55454810D01*
X96674833Y-55500306D01*
X96726561Y-55593377D01*
X96732792Y-55736098D01*
X96689373Y-55833322D01*
X96643876Y-55882973D01*
X96550806Y-55934701D01*
X96170216Y-55951318D01*
X97167187Y-55860125D02*
X97500203Y-55845585D01*
X97665773Y-56362665D02*
X97190035Y-56383436D01*
X97146416Y-55384388D01*
X97622153Y-55363617D01*
X98404104Y-55806120D02*
X98071088Y-55820660D01*
X98093936Y-56343971D02*
X98050317Y-55344923D01*
X98526054Y-55324152D01*
X99049365Y-55301303D02*
X99059750Y-55539172D01*
X98817728Y-55454410D02*
X99059750Y-55539172D01*
X99293465Y-55433639D01*
X98925338Y-55735698D02*
X99059750Y-55539172D01*
X99210780Y-55723235D01*
X99810545Y-55268069D02*
X99820930Y-55505938D01*
X99578907Y-55421176D02*
X99820930Y-55505938D01*
X100054644Y-55400405D01*
X99686517Y-55702464D02*
X99820930Y-55505938D01*
X99971960Y-55690002D01*
X146853221Y-83374516D02*
X147203099Y-82910346D01*
X146676640Y-82831055D02*
X147627696Y-82522038D01*
X147745417Y-82884345D01*
X147729559Y-82989637D01*
X147698986Y-83049640D01*
X147623124Y-83124359D01*
X147487259Y-83168504D01*
X147381967Y-83152646D01*
X147321963Y-83122073D01*
X147247245Y-83046211D01*
X147129524Y-82683904D01*
X147483829Y-83620245D02*
X147586835Y-83937264D01*
X147132808Y-84234995D02*
X146985657Y-83782111D01*
X147936713Y-83473094D01*
X148083864Y-83925978D01*
X147866422Y-84797744D02*
X147763416Y-84480725D01*
X147265244Y-84642591D02*
X148216300Y-84333574D01*
X148363451Y-84786458D01*
X148525317Y-85284630D02*
X148298875Y-85358206D01*
X148315876Y-85102334D02*
X148298875Y-85358206D01*
X148463027Y-85555218D01*
X148073576Y-85281201D02*
X148298875Y-85358206D01*
X148161867Y-85552931D01*
X148760759Y-86009245D02*
X148534317Y-86082820D01*
X148551318Y-85826948D02*
X148534317Y-86082820D01*
X148698469Y-86279832D01*
X148309018Y-86005816D02*
X148534317Y-86082820D01*
X148397308Y-86277546D01*
X128664644Y-141721899D02*
X128115074Y-141532581D01*
X128202349Y-142057776D02*
X127614563Y-141248759D01*
X127922760Y-141024841D01*
X128027799Y-141007386D01*
X128094314Y-141017921D01*
X128188818Y-141066981D01*
X128272787Y-141182554D01*
X128290242Y-141287593D01*
X128279707Y-141354108D01*
X128230648Y-141448612D01*
X127922451Y-141672530D01*
X128703478Y-141046220D02*
X128973150Y-140850292D01*
X129396612Y-141190093D02*
X129011366Y-141469991D01*
X128423580Y-140660974D01*
X128808827Y-140381076D01*
X129705118Y-140318486D02*
X129435446Y-140514415D01*
X129743333Y-140938185D02*
X129155548Y-140129168D01*
X129540794Y-139849271D01*
X129964565Y-139541383D02*
X130104514Y-139734006D01*
X129855911Y-139796906D02*
X130104514Y-139734006D01*
X130241158Y-139517008D01*
X130100899Y-139972074D02*
X130104514Y-139734006D01*
X130332047Y-139804135D01*
X130580959Y-139093547D02*
X130720908Y-139286170D01*
X130472305Y-139349069D02*
X130720908Y-139286170D01*
X130857551Y-139069172D01*
X130717293Y-139524238D02*
X130720908Y-139286170D01*
X130948441Y-139356299D01*
X69177976Y-140154472D02*
X69188202Y-139573297D01*
X68715681Y-139818594D02*
X69303466Y-139009577D01*
X69611663Y-139233496D01*
X69660723Y-139328000D01*
X69671257Y-139394514D01*
X69653802Y-139499553D01*
X69569833Y-139615127D01*
X69475329Y-139664187D01*
X69408815Y-139674721D01*
X69303776Y-139657266D01*
X68995579Y-139433348D01*
X69832585Y-139982609D02*
X70102258Y-140178537D01*
X69909944Y-140686277D02*
X69524698Y-140406380D01*
X70112483Y-139597363D01*
X70497729Y-139877260D01*
X70834225Y-140710343D02*
X70564553Y-140514415D01*
X70256666Y-140938185D02*
X70844451Y-140129168D01*
X71229697Y-140409066D01*
X71653468Y-140716954D02*
X71513519Y-140909577D01*
X71376875Y-140692579D02*
X71513519Y-140909577D01*
X71762122Y-140972476D01*
X71285986Y-140979706D02*
X71513519Y-140909577D01*
X71517134Y-141147645D01*
X72269862Y-141164790D02*
X72129913Y-141357413D01*
X71993269Y-141140415D02*
X72129913Y-141357413D01*
X72378516Y-141420313D01*
X71902380Y-141427542D02*
X72129913Y-141357413D01*
X72133528Y-141595481D01*
X52322733Y-85910666D02*
X51766843Y-86080534D01*
X52146152Y-86454127D02*
X51195095Y-86145110D01*
X51312816Y-85782803D01*
X51387534Y-85706941D01*
X51447538Y-85676368D01*
X51552830Y-85660510D01*
X51688695Y-85704655D01*
X51764557Y-85779374D01*
X51795130Y-85839377D01*
X51810988Y-85944669D01*
X51693267Y-86306976D01*
X51956996Y-85341205D02*
X52060002Y-85024186D01*
X52602319Y-85050187D02*
X52455169Y-85503071D01*
X51504112Y-85194054D01*
X51651263Y-84741170D01*
X52339589Y-84163706D02*
X52236583Y-84480725D01*
X52734755Y-84642591D02*
X51783699Y-84333574D01*
X51930850Y-83880690D01*
X52092716Y-83382517D02*
X52319158Y-83456093D01*
X52155006Y-83653105D02*
X52319158Y-83456093D01*
X52302157Y-83200221D01*
X52456166Y-83650818D02*
X52319158Y-83456093D01*
X52544457Y-83379088D01*
X52328157Y-82657903D02*
X52554599Y-82731478D01*
X52390447Y-82928490D02*
X52554599Y-82731478D01*
X52537598Y-82475606D01*
X52691608Y-82926204D02*
X52554599Y-82731478D01*
X52779898Y-82654474D01*
X102614445Y-62369521D02*
X102332713Y-61861096D01*
X102046146Y-62309790D02*
X102150675Y-61315269D01*
X102529540Y-61355089D01*
X102619279Y-61412402D01*
X102661660Y-61464738D01*
X102699063Y-61564432D01*
X102684130Y-61706506D01*
X102626817Y-61796245D01*
X102574481Y-61838626D01*
X102474787Y-61876029D01*
X102095922Y-61836209D01*
X103095421Y-61893379D02*
X103426929Y-61928222D01*
X103514250Y-62464094D02*
X103040668Y-62414319D01*
X103145197Y-61419797D01*
X103618779Y-61469572D01*
X104326734Y-62022795D02*
X103995227Y-61987952D01*
X103940474Y-62508892D02*
X104045002Y-61514370D01*
X104518584Y-61564146D01*
X105039524Y-61618899D02*
X105014636Y-61855690D01*
X104787801Y-61736086D02*
X105014636Y-61855690D01*
X105261382Y-61785861D01*
X104852652Y-62030190D02*
X105014636Y-61855690D01*
X105136801Y-62060055D01*
X105797255Y-61698540D02*
X105772367Y-61935330D01*
X105545532Y-61815726D02*
X105772367Y-61935330D01*
X106019113Y-61865502D01*
X105610383Y-62109831D02*
X105772367Y-61935330D01*
X105894532Y-62139696D01*
X133896172Y-83448937D02*
X134195615Y-82950738D01*
X133663751Y-82926911D02*
X134577297Y-82520174D01*
X134732244Y-82868191D01*
X134727479Y-82974564D01*
X134703345Y-83037435D01*
X134635709Y-83119674D01*
X134505203Y-83177779D01*
X134398830Y-83173014D01*
X134335959Y-83148880D01*
X134253720Y-83081244D01*
X134098773Y-82733227D01*
X134549012Y-83627404D02*
X134684591Y-83931919D01*
X134264172Y-84275478D02*
X134070488Y-83840456D01*
X134984034Y-83433720D01*
X135177718Y-83868741D01*
X135052591Y-84758460D02*
X134917012Y-84453945D01*
X134438488Y-84666997D02*
X135352033Y-84260261D01*
X135545718Y-84695282D01*
X135758770Y-85173806D02*
X135541259Y-85270648D01*
X135531421Y-85014401D02*
X135541259Y-85270648D01*
X135725106Y-85449422D01*
X135309145Y-85217615D02*
X135541259Y-85270648D01*
X135425356Y-85478628D01*
X136068665Y-85869841D02*
X135851154Y-85966683D01*
X135841316Y-85710435D02*
X135851154Y-85966683D01*
X136035000Y-86145457D01*
X135619040Y-85913650D02*
X135851154Y-85966683D01*
X135735250Y-86174663D01*
X135440543Y-87082720D02*
X135790421Y-86618550D01*
X135263962Y-86539259D02*
X136215018Y-86230242D01*
X136332739Y-86592549D01*
X136316881Y-86697841D01*
X136286308Y-86757844D01*
X136210446Y-86832563D01*
X136074581Y-86876708D01*
X135969289Y-86860850D01*
X135909285Y-86830277D01*
X135834567Y-86754415D01*
X135716846Y-86392108D01*
X136071151Y-87328449D02*
X136174157Y-87645468D01*
X135720130Y-87943199D02*
X135572979Y-87490315D01*
X136524035Y-87181298D01*
X136671186Y-87634182D01*
X136453744Y-88505948D02*
X136350738Y-88188929D01*
X135852566Y-88350795D02*
X136803622Y-88041778D01*
X136950773Y-88494662D01*
X137112639Y-88992834D02*
X136886197Y-89066410D01*
X136903198Y-88810538D02*
X136886197Y-89066410D01*
X137050349Y-89263422D01*
X136660898Y-88989405D02*
X136886197Y-89066410D01*
X136749189Y-89261135D01*
X137348081Y-89717449D02*
X137121639Y-89791024D01*
X137138640Y-89535152D02*
X137121639Y-89791024D01*
X137285791Y-89988036D01*
X136896340Y-89714020D02*
X137121639Y-89791024D01*
X136984630Y-89985750D01*
X136596620Y-90858027D02*
X136993100Y-90432972D01*
X136477813Y-90299086D02*
X137455960Y-90091174D01*
X137535165Y-90463801D01*
X137508388Y-90566859D01*
X137471710Y-90623338D01*
X137388453Y-90689718D01*
X137248718Y-90719419D01*
X137145660Y-90692642D01*
X137089181Y-90655964D01*
X137022802Y-90572708D01*
X136943597Y-90200080D01*
X137198088Y-91168327D02*
X137267392Y-91494376D01*
X136784730Y-91743018D02*
X136685725Y-91277233D01*
X137663872Y-91069321D01*
X137762878Y-91535106D01*
X137455502Y-92379367D02*
X137386198Y-92053318D01*
X136873835Y-92162224D02*
X137851983Y-91954312D01*
X137950988Y-92420097D01*
X138059894Y-92932460D02*
X137827002Y-92981962D01*
X137870656Y-92729269D02*
X137827002Y-92981962D01*
X137969662Y-93195054D01*
X137610987Y-92881829D02*
X137827002Y-92981962D01*
X137670390Y-93161300D01*
X138218303Y-93677715D02*
X137985411Y-93727218D01*
X138029065Y-93474524D02*
X137985411Y-93727218D01*
X138128071Y-93940309D01*
X137769396Y-93627085D02*
X137985411Y-93727218D01*
X137828799Y-93906555D01*
X124839175Y-129579333D02*
X124272826Y-129448498D01*
X124414520Y-129961694D02*
X123745390Y-129218549D01*
X124028493Y-128963642D01*
X124131132Y-128935303D01*
X124198383Y-128938827D01*
X124297498Y-128977740D01*
X124393088Y-129083903D01*
X124421426Y-129186542D01*
X124417902Y-129253794D01*
X124378990Y-129352908D01*
X124095887Y-129607815D01*
X124807168Y-128903297D02*
X125054883Y-128680253D01*
X125511544Y-128973929D02*
X125157665Y-129292563D01*
X124488535Y-128549418D01*
X124842413Y-128230784D01*
X125727252Y-128074849D02*
X125479537Y-128297893D01*
X125830034Y-128687159D02*
X125160904Y-127944014D01*
X125514782Y-127625381D01*
X125904049Y-127274884D02*
X126063365Y-127451823D01*
X125822700Y-127540364D02*
X126063365Y-127451823D01*
X126176578Y-127221730D01*
X126084655Y-127688964D02*
X126063365Y-127451823D01*
X126296982Y-127497784D01*
X126470254Y-126765070D02*
X126629571Y-126942009D01*
X126388905Y-127030550D02*
X126629571Y-126942009D01*
X126742784Y-126711917D01*
X126650861Y-127179151D02*
X126629571Y-126942009D01*
X126863188Y-126987970D01*
X121611221Y-132013695D02*
X121061651Y-131824377D01*
X121148926Y-132349572D02*
X120561140Y-131540555D01*
X120869337Y-131316637D01*
X120974376Y-131299182D01*
X121040891Y-131309717D01*
X121135395Y-131358777D01*
X121219364Y-131474350D01*
X121236819Y-131579389D01*
X121226284Y-131645904D01*
X121177225Y-131740408D01*
X120869028Y-131964326D01*
X121650055Y-131338016D02*
X121919727Y-131142088D01*
X122343189Y-131481889D02*
X121957943Y-131761787D01*
X121370157Y-130952770D01*
X121755404Y-130672872D01*
X122651695Y-130610282D02*
X122382023Y-130806211D01*
X122689910Y-131229981D02*
X122102125Y-130420964D01*
X122487371Y-130141067D01*
X122911142Y-129833179D02*
X123051091Y-130025802D01*
X122802488Y-130088702D02*
X123051091Y-130025802D01*
X123187735Y-129808804D01*
X123047476Y-130263870D02*
X123051091Y-130025802D01*
X123278624Y-130095931D01*
X123527536Y-129385343D02*
X123667485Y-129577966D01*
X123418882Y-129640865D02*
X123667485Y-129577966D01*
X123804128Y-129360968D01*
X123663870Y-129816034D02*
X123667485Y-129577966D01*
X123895018Y-129648095D01*
X118146489Y-134097309D02*
X117619719Y-133851582D01*
X117651618Y-134383023D02*
X117151618Y-133516997D01*
X117481532Y-133326521D01*
X117587820Y-133320142D01*
X117652869Y-133337571D01*
X117741728Y-133396240D01*
X117813156Y-133519958D01*
X117819536Y-133626246D01*
X117802106Y-133691295D01*
X117743437Y-133780154D01*
X117413523Y-133970630D01*
X118255738Y-133429390D02*
X118544414Y-133262724D01*
X118930036Y-133644928D02*
X118517643Y-133883023D01*
X118017643Y-133016997D01*
X118430036Y-132778902D01*
X119327960Y-132810343D02*
X119039285Y-132977010D01*
X119301190Y-133430642D02*
X118801190Y-132564616D01*
X119213583Y-132326521D01*
X119667215Y-132064616D02*
X119786263Y-132270813D01*
X119532447Y-132307382D02*
X119786263Y-132270813D01*
X119944840Y-132069287D01*
X119757783Y-132507199D02*
X119786263Y-132270813D01*
X120005219Y-132364342D01*
X120327044Y-131683664D02*
X120446092Y-131889861D01*
X120192276Y-131926430D02*
X120446092Y-131889861D01*
X120604669Y-131688334D01*
X120417612Y-132126246D02*
X120446092Y-131889861D01*
X120665048Y-131983389D01*
X79544108Y-132763975D02*
X79493529Y-132184916D01*
X79049237Y-132478261D02*
X79549237Y-131612236D01*
X79879151Y-131802712D01*
X79937820Y-131891570D01*
X79955250Y-131956619D01*
X79948870Y-132062907D01*
X79877442Y-132186625D01*
X79788583Y-132245294D01*
X79723535Y-132262724D01*
X79617247Y-132256344D01*
X79287332Y-132065868D01*
X80177167Y-132524629D02*
X80465842Y-132691295D01*
X80327655Y-133216356D02*
X79915262Y-132978261D01*
X80415262Y-132112236D01*
X80827655Y-132350331D01*
X81249389Y-133143676D02*
X80960714Y-132977010D01*
X80698809Y-133430642D02*
X81198809Y-132564616D01*
X81611202Y-132802712D01*
X82064834Y-133064616D02*
X81945787Y-133270813D01*
X81787209Y-133069287D02*
X81945787Y-133270813D01*
X82199602Y-133307382D01*
X81726831Y-133364342D02*
X81945787Y-133270813D01*
X81974267Y-133507199D01*
X82724663Y-133445569D02*
X82605616Y-133651765D01*
X82447038Y-133450239D02*
X82605616Y-133651765D01*
X82859431Y-133688334D01*
X82386660Y-133745294D02*
X82605616Y-133651765D01*
X82634096Y-133888151D01*
X76231399Y-130446268D02*
X76241625Y-129865093D01*
X75769104Y-130110390D02*
X76356889Y-129301373D01*
X76665086Y-129525292D01*
X76714146Y-129619796D01*
X76724680Y-129686310D01*
X76707225Y-129791349D01*
X76623256Y-129906923D01*
X76528752Y-129955983D01*
X76462238Y-129966517D01*
X76357199Y-129949062D01*
X76049002Y-129725144D01*
X76886008Y-130274405D02*
X77155681Y-130470333D01*
X76963367Y-130978073D02*
X76578121Y-130698176D01*
X77165906Y-129889159D01*
X77551152Y-130169056D01*
X77887648Y-131002139D02*
X77617976Y-130806211D01*
X77310089Y-131229981D02*
X77897874Y-130420964D01*
X78283120Y-130700862D01*
X78706891Y-131008750D02*
X78566942Y-131201373D01*
X78430298Y-130984375D02*
X78566942Y-131201373D01*
X78815545Y-131264272D01*
X78339409Y-131271502D02*
X78566942Y-131201373D01*
X78570557Y-131439441D01*
X79323285Y-131456586D02*
X79183336Y-131649209D01*
X79046692Y-131432211D02*
X79183336Y-131649209D01*
X79431939Y-131712109D01*
X78955803Y-131719338D02*
X79183336Y-131649209D01*
X79186951Y-131887277D01*
X73179105Y-127794985D02*
X73250023Y-127218063D01*
X72754451Y-127412625D02*
X73423581Y-126669480D01*
X73706684Y-126924387D01*
X73745596Y-127023501D01*
X73749121Y-127090752D01*
X73720782Y-127193391D01*
X73625192Y-127299555D01*
X73526077Y-127338467D01*
X73458826Y-127341992D01*
X73356187Y-127313653D01*
X73073084Y-127058746D01*
X73848092Y-127692489D02*
X74095807Y-127915532D01*
X73851474Y-128400389D02*
X73497595Y-128081755D01*
X74166726Y-127338610D01*
X74520605Y-127657244D01*
X74768176Y-128520936D02*
X74520462Y-128297893D01*
X74169965Y-128687159D02*
X74839095Y-127944014D01*
X75192974Y-128262648D01*
X75582240Y-128613145D02*
X75422923Y-128790084D01*
X75309711Y-128559992D02*
X75422923Y-128790084D01*
X75663589Y-128878625D01*
X75189306Y-128836045D02*
X75422923Y-128790084D01*
X75401633Y-129027226D01*
X76148446Y-129122959D02*
X75989129Y-129299898D01*
X75875916Y-129069805D02*
X75989129Y-129299898D01*
X76229795Y-129388439D01*
X75755512Y-129345859D02*
X75989129Y-129299898D01*
X75967839Y-129537039D01*
X62848948Y-93466421D02*
X62313860Y-93693464D01*
X62730142Y-94025362D02*
X61751994Y-93817450D01*
X61831198Y-93444823D01*
X61897578Y-93361566D01*
X61954057Y-93324888D01*
X62057114Y-93298111D01*
X62196850Y-93327813D01*
X62280106Y-93394192D01*
X62316784Y-93450671D01*
X62343561Y-93553729D01*
X62264357Y-93926357D01*
X62425690Y-92938308D02*
X62494994Y-92612259D01*
X63037059Y-92581430D02*
X62938053Y-93047214D01*
X61959906Y-92839303D01*
X62058911Y-92373518D01*
X62683105Y-91727268D02*
X62613801Y-92053318D01*
X63126164Y-92162224D02*
X62148016Y-91954312D01*
X62247022Y-91488528D01*
X62355928Y-90976164D02*
X62588820Y-91025667D01*
X62446161Y-91238758D02*
X62588820Y-91025667D01*
X62545166Y-90772974D01*
X62745432Y-91205005D02*
X62588820Y-91025667D01*
X62804836Y-90925534D01*
X62514337Y-90230909D02*
X62747229Y-90280412D01*
X62604569Y-90493503D02*
X62747229Y-90280412D01*
X62703575Y-90027719D01*
X62903841Y-90459750D02*
X62747229Y-90280412D01*
X62963245Y-90180279D01*
X63735411Y-89618870D02*
X63179521Y-89788738D01*
X63558830Y-90162331D02*
X62607773Y-89853314D01*
X62725494Y-89491007D01*
X62800212Y-89415145D01*
X62860216Y-89384572D01*
X62965508Y-89368714D01*
X63101373Y-89412859D01*
X63177235Y-89487578D01*
X63207808Y-89547581D01*
X63223666Y-89652873D01*
X63105945Y-90015180D01*
X63369674Y-89049409D02*
X63472680Y-88732390D01*
X64014997Y-88758391D02*
X63867847Y-89211275D01*
X62916790Y-88902258D01*
X63063941Y-88449374D01*
X63752267Y-87871910D02*
X63649261Y-88188929D01*
X64147433Y-88350795D02*
X63196377Y-88041778D01*
X63343528Y-87588894D01*
X63505394Y-87090721D02*
X63731836Y-87164297D01*
X63567684Y-87361309D02*
X63731836Y-87164297D01*
X63714835Y-86908425D01*
X63868844Y-87359022D02*
X63731836Y-87164297D01*
X63957135Y-87087292D01*
X63740835Y-86366107D02*
X63967277Y-86439682D01*
X63803125Y-86636694D02*
X63967277Y-86439682D01*
X63950276Y-86183810D01*
X64104286Y-86634408D02*
X63967277Y-86439682D01*
X64192576Y-86362678D01*
X65019196Y-85885058D02*
X64448595Y-85995889D01*
X64786775Y-86407084D02*
X63873229Y-86000347D01*
X64028176Y-85652330D01*
X64110415Y-85584694D01*
X64173286Y-85560560D01*
X64279659Y-85555795D01*
X64410165Y-85613900D01*
X64477801Y-85696139D01*
X64501935Y-85759010D01*
X64506700Y-85865383D01*
X64351753Y-86213400D01*
X64714987Y-85280486D02*
X64850566Y-84975971D01*
X65387195Y-85058517D02*
X65193511Y-85493539D01*
X64279966Y-85086802D01*
X64473650Y-84651780D01*
X65218566Y-84149430D02*
X65082987Y-84453945D01*
X65561511Y-84666997D02*
X64647966Y-84260261D01*
X64841650Y-83825239D01*
X65054702Y-83346715D02*
X65272213Y-83443557D01*
X65088367Y-83622331D02*
X65272213Y-83443557D01*
X65282051Y-83187310D01*
X65388116Y-83651538D02*
X65272213Y-83443557D01*
X65504327Y-83390525D01*
X65364597Y-82650681D02*
X65582108Y-82747523D01*
X65398261Y-82926297D02*
X65582108Y-82747523D01*
X65591945Y-82491275D01*
X65698011Y-82955503D02*
X65582108Y-82747523D01*
X65814222Y-82694490D01*
X94733496Y-62648264D02*
X94352213Y-62209525D01*
X94165198Y-62707994D02*
X94060669Y-61713472D01*
X94439535Y-61673652D01*
X94539229Y-61711055D01*
X94591564Y-61753436D01*
X94648878Y-61843174D01*
X94663810Y-61985249D01*
X94626407Y-62084943D01*
X94584027Y-62137279D01*
X94494288Y-62194592D01*
X94115422Y-62234412D01*
X95104967Y-62082526D02*
X95436474Y-62047683D01*
X95633302Y-62553690D02*
X95159720Y-62603466D01*
X95055191Y-61608944D01*
X95528773Y-61559168D01*
X96336279Y-61953109D02*
X96004772Y-61987952D01*
X96059525Y-62508892D02*
X95954997Y-61514370D01*
X96428579Y-61464595D01*
X96949519Y-61409842D02*
X96974406Y-61646633D01*
X96727660Y-61576804D02*
X96974406Y-61646633D01*
X97201242Y-61527029D01*
X96852242Y-61850998D02*
X96974406Y-61646633D01*
X97136391Y-61821133D01*
X97707250Y-61330201D02*
X97732137Y-61566992D01*
X97485391Y-61497163D02*
X97732137Y-61566992D01*
X97958973Y-61447388D01*
X97609973Y-61771357D02*
X97732137Y-61566992D01*
X97894122Y-61741492D01*
X100659607Y-68281208D02*
X100356832Y-67785027D01*
X100089306Y-68245328D02*
X100152096Y-67247301D01*
X100532297Y-67271221D01*
X100624357Y-67324726D01*
X100668892Y-67375242D01*
X100710437Y-67473282D01*
X100701467Y-67615857D01*
X100647962Y-67707917D01*
X100597447Y-67752452D01*
X100499407Y-67793997D01*
X100119206Y-67770077D01*
X101120223Y-67785342D02*
X101452899Y-67806273D01*
X101562584Y-68338019D02*
X101087333Y-68308118D01*
X101150123Y-67310092D01*
X101625374Y-67339992D01*
X102355875Y-67863083D02*
X102023200Y-67842153D01*
X101990309Y-68364929D02*
X102053100Y-67366902D01*
X102528351Y-67396802D01*
X103051127Y-67429693D02*
X103036176Y-67667318D01*
X102804531Y-67557318D02*
X103036176Y-67667318D01*
X103279782Y-67587218D01*
X102881641Y-67848448D02*
X103036176Y-67667318D01*
X103166792Y-67866388D01*
X103811528Y-67477533D02*
X103796578Y-67715158D01*
X103564932Y-67605158D02*
X103796578Y-67715158D01*
X104040183Y-67635058D01*
X103642042Y-67896289D02*
X103796578Y-67715158D01*
X103927193Y-67914229D01*
X104629824Y-68613991D02*
X104391625Y-68083775D01*
X104068517Y-68506916D02*
X104255899Y-67524629D01*
X104630103Y-67596012D01*
X104714732Y-67660633D01*
X104752584Y-67716332D01*
X104781514Y-67818806D01*
X104754745Y-67959133D01*
X104690124Y-68043761D01*
X104634425Y-68081614D01*
X104531951Y-68110543D01*
X104157747Y-68039160D01*
X105148957Y-68179766D02*
X105476386Y-68242226D01*
X105518561Y-68783526D02*
X105050805Y-68694297D01*
X105238186Y-67712010D01*
X105705942Y-67801239D01*
X106365122Y-68411762D02*
X106037693Y-68349301D01*
X105939541Y-68863833D02*
X106126922Y-67881545D01*
X106594678Y-67970774D01*
X107109209Y-68068927D02*
X107064595Y-68302805D01*
X106848563Y-68164639D02*
X107064595Y-68302805D01*
X107316318Y-68253868D01*
X106888576Y-68463138D02*
X107064595Y-68302805D01*
X107169230Y-68516676D01*
X107857619Y-68211693D02*
X107813004Y-68445571D01*
X107596972Y-68307405D02*
X107813004Y-68445571D01*
X108064728Y-68396635D01*
X107636986Y-68605905D02*
X107813004Y-68445571D01*
X107917639Y-68659442D01*
X127134496Y-83561146D02*
X127391200Y-83039637D01*
X126859208Y-83060399D02*
X127735515Y-82578645D01*
X127919040Y-82912477D01*
X127923192Y-83018875D01*
X127904404Y-83083545D01*
X127843887Y-83171155D01*
X127718700Y-83239977D01*
X127612302Y-83244129D01*
X127547632Y-83225341D01*
X127460022Y-83164824D01*
X127276497Y-82830993D01*
X127799979Y-83684359D02*
X127960564Y-83976461D01*
X127570368Y-84353995D02*
X127340962Y-83936706D01*
X128217268Y-83454952D01*
X128446675Y-83872241D01*
X128396436Y-84769310D02*
X128235852Y-84477208D01*
X127776834Y-84729555D02*
X128653141Y-84247801D01*
X128882547Y-84665090D01*
X129134894Y-85124108D02*
X128926250Y-85238811D01*
X128895004Y-84984285D02*
X128926250Y-85238811D01*
X129124411Y-85401574D01*
X128690512Y-85205387D02*
X128926250Y-85238811D01*
X128828156Y-85455760D01*
X129501945Y-85791770D02*
X129293300Y-85906473D01*
X129262055Y-85651947D02*
X129293300Y-85906473D01*
X129491461Y-86069236D01*
X129057563Y-85873049D02*
X129293300Y-85906473D01*
X129195207Y-86123422D01*
X128980868Y-87091625D02*
X129300910Y-86606402D01*
X128770511Y-86560324D02*
X129700287Y-86192200D01*
X129840525Y-86546400D01*
X129831310Y-86652480D01*
X129804564Y-86714285D01*
X129733544Y-86793619D01*
X129600719Y-86846209D01*
X129494639Y-86836993D01*
X129432834Y-86810248D01*
X129353499Y-86739227D01*
X129213261Y-86385027D01*
X129625661Y-87297274D02*
X129748369Y-87607199D01*
X129313933Y-87932851D02*
X129138635Y-87490101D01*
X130068412Y-87121976D01*
X130243709Y-87564727D01*
X130081434Y-88448425D02*
X129958726Y-88138500D01*
X129471700Y-88331327D02*
X130401477Y-87963202D01*
X130576774Y-88405953D01*
X130769601Y-88892979D02*
X130548226Y-88980628D01*
X130549127Y-88724193D02*
X130548226Y-88980628D01*
X130724425Y-89166944D01*
X130318537Y-88917921D02*
X130548226Y-88980628D01*
X130423715Y-89183572D01*
X131050077Y-89601380D02*
X130828702Y-89689029D01*
X130829603Y-89432594D02*
X130828702Y-89689029D01*
X131004901Y-89875345D01*
X130599012Y-89626323D02*
X130828702Y-89689029D01*
X130704191Y-89891973D01*
X130370192Y-90825678D02*
X130748526Y-90384393D01*
X130228084Y-90272202D02*
X131196667Y-90023512D01*
X131291406Y-90392496D01*
X131268968Y-90496584D01*
X131234687Y-90554550D01*
X131154284Y-90624357D01*
X131015915Y-90659885D01*
X130911826Y-90637446D01*
X130853861Y-90603166D01*
X130784053Y-90522762D01*
X130689314Y-90153778D01*
X130984127Y-91110519D02*
X131067024Y-91433380D01*
X130595198Y-91702015D02*
X130476774Y-91240785D01*
X131445357Y-90992095D01*
X131563781Y-91453325D01*
X131292029Y-92309717D02*
X131209132Y-91986856D01*
X130701779Y-92117122D02*
X131670362Y-91868432D01*
X131788786Y-92329662D01*
X131919052Y-92837015D02*
X131688437Y-92896227D01*
X131721471Y-92641927D02*
X131688437Y-92896227D01*
X131839895Y-93103158D01*
X131468418Y-92805228D02*
X131688437Y-92896227D01*
X131539472Y-93081966D01*
X132108530Y-93574983D02*
X131877915Y-93634195D01*
X131910949Y-93379896D02*
X131877915Y-93634195D01*
X132029373Y-93841126D01*
X131657896Y-93543196D02*
X131877915Y-93634195D01*
X131728950Y-93819934D01*
X131280562Y-94704414D02*
X131711220Y-94314027D01*
X131208943Y-94137492D02*
X132201057Y-94012158D01*
X132248803Y-94390107D01*
X132213496Y-94490562D01*
X132172221Y-94543774D01*
X132083702Y-94602954D01*
X131941972Y-94620859D01*
X131841516Y-94585552D01*
X131788304Y-94544276D01*
X131729124Y-94455758D01*
X131681378Y-94077809D01*
X131853955Y-95063956D02*
X131895733Y-95394660D01*
X131393958Y-95602042D02*
X131334276Y-95129606D01*
X132326391Y-95004273D01*
X132386073Y-95476709D01*
X132009130Y-96292288D02*
X131967352Y-95961583D01*
X131447673Y-96027234D02*
X132439787Y-95901901D01*
X132499470Y-96374336D01*
X132565121Y-96894015D02*
X132328903Y-96923857D01*
X132393549Y-96675702D02*
X132328903Y-96923857D01*
X132453231Y-97148138D01*
X132122024Y-96805999D02*
X132328903Y-96923857D01*
X132157833Y-97089460D01*
X132660613Y-97649912D02*
X132424395Y-97679753D01*
X132489041Y-97431599D02*
X132424395Y-97679753D01*
X132548723Y-97904035D01*
X132217516Y-97561896D02*
X132424395Y-97679753D01*
X132253325Y-97845357D01*
X122853383Y-123289823D02*
X122278072Y-123206837D01*
X122462213Y-123706376D02*
X121733244Y-123021829D01*
X121994024Y-122744127D01*
X122093932Y-122707299D01*
X122161242Y-122705183D01*
X122263265Y-122735666D01*
X122367403Y-122833458D01*
X122404232Y-122933366D01*
X122406347Y-123000676D01*
X122375865Y-123102699D01*
X122115085Y-123380401D01*
X122764919Y-122618835D02*
X122993102Y-122375846D01*
X123472735Y-122630280D02*
X123146760Y-122977408D01*
X122417791Y-122292861D01*
X122743766Y-121945733D01*
X123612454Y-121716303D02*
X123384271Y-121959292D01*
X123766112Y-122317865D02*
X123037143Y-121633317D01*
X123363118Y-121286190D01*
X123721691Y-120904349D02*
X123895254Y-121067336D01*
X123662841Y-121175705D02*
X123895254Y-121067336D01*
X123988816Y-120828577D01*
X123936313Y-121301865D02*
X123895254Y-121067336D01*
X124131898Y-121093588D01*
X124243250Y-120348944D02*
X124416814Y-120511932D01*
X124184401Y-120620301D02*
X124416814Y-120511932D01*
X124510376Y-120273173D01*
X124457873Y-120746460D02*
X124416814Y-120511932D01*
X124653458Y-120538183D01*
X119754189Y-125970465D02*
X119193816Y-125816028D01*
X119313896Y-126334707D02*
X118676472Y-125564194D01*
X118970001Y-125321366D01*
X119073736Y-125297350D01*
X119140781Y-125303687D01*
X119238179Y-125346716D01*
X119329240Y-125456789D01*
X119353256Y-125560525D01*
X119346918Y-125627570D01*
X119303889Y-125724968D01*
X119010360Y-125967796D01*
X119750520Y-125293681D02*
X120007358Y-125081206D01*
X120451320Y-125393748D02*
X120084409Y-125697283D01*
X119446985Y-124926770D01*
X119813896Y-124623234D01*
X120704489Y-124504489D02*
X120447651Y-124716964D01*
X120781540Y-125120566D02*
X120144116Y-124350053D01*
X120511027Y-124046518D01*
X120914629Y-123712629D02*
X121066397Y-123896084D01*
X120822234Y-123974470D02*
X121066397Y-123896084D01*
X121189145Y-123670934D01*
X121077738Y-124133909D02*
X121066397Y-123896084D01*
X121297884Y-123951788D01*
X121501687Y-123226972D02*
X121653455Y-123410428D01*
X121409292Y-123488813D02*
X121653455Y-123410428D01*
X121776203Y-123185278D01*
X121664795Y-123648253D02*
X121653455Y-123410428D01*
X121884942Y-123466132D01*
X116343458Y-128241535D02*
X115806860Y-128018083D01*
X115860985Y-128547722D02*
X115325158Y-127703394D01*
X115646807Y-127499269D01*
X115752734Y-127488444D01*
X115818456Y-127503135D01*
X115909693Y-127558032D01*
X115986240Y-127678650D01*
X115997065Y-127784578D01*
X115982374Y-127850299D01*
X115927478Y-127941536D01*
X115605829Y-128145661D01*
X116424641Y-127569628D02*
X116706084Y-127391019D01*
X117107374Y-127756739D02*
X116705313Y-128011895D01*
X116169486Y-127167567D01*
X116571547Y-126912412D01*
X117470000Y-126906223D02*
X117188557Y-127084832D01*
X117469228Y-127527099D02*
X116933402Y-126682771D01*
X117335462Y-126427616D01*
X117777729Y-126146945D02*
X117905307Y-126347975D01*
X117653246Y-126395141D02*
X117905307Y-126347975D01*
X118055307Y-126139985D01*
X117886751Y-126585346D02*
X117905307Y-126347975D01*
X118127988Y-126432253D01*
X118421027Y-125738696D02*
X118548605Y-125939726D01*
X118296543Y-125986892D02*
X118548605Y-125939726D01*
X118698604Y-125731736D01*
X118530049Y-126177097D02*
X118548605Y-125939726D01*
X118771285Y-126024004D01*
X112674982Y-130067222D02*
X112170621Y-129778278D01*
X112157938Y-130310524D02*
X111732159Y-129405697D01*
X112076855Y-129243496D01*
X112183304Y-129246032D01*
X112246666Y-129268844D01*
X112330303Y-129334743D01*
X112391129Y-129464004D01*
X112388592Y-129570453D01*
X112365781Y-129633815D01*
X112299882Y-129717453D01*
X111955186Y-129879654D01*
X112839738Y-129410788D02*
X113141347Y-129268861D01*
X113493635Y-129681993D02*
X113062765Y-129884745D01*
X112636986Y-128979918D01*
X113067856Y-128777166D01*
X113960000Y-128883633D02*
X113658391Y-129025559D01*
X113881418Y-129499516D02*
X113455639Y-128594689D01*
X113886509Y-128391937D01*
X114360466Y-128168910D02*
X114461842Y-128384345D01*
X114205856Y-128399547D02*
X114461842Y-128384345D01*
X114636726Y-128196795D01*
X114413682Y-128617518D02*
X114461842Y-128384345D01*
X114672204Y-128495867D01*
X115049858Y-127844506D02*
X115151234Y-128059941D01*
X114895248Y-128075143D02*
X115151234Y-128059941D01*
X115326118Y-127872391D01*
X115103074Y-128293115D02*
X115151234Y-128059941D01*
X115361596Y-128171464D01*
X84912145Y-128931810D02*
X84813288Y-128359014D01*
X84395101Y-128688508D02*
X84820880Y-127783681D01*
X85165576Y-127945882D01*
X85231475Y-128029520D01*
X85254287Y-128092882D01*
X85256823Y-128199331D01*
X85195998Y-128328592D01*
X85112360Y-128394491D01*
X85048998Y-128417303D01*
X84942549Y-128419839D01*
X84597853Y-128257638D01*
X85522955Y-128640330D02*
X85824564Y-128782257D01*
X85730798Y-129317039D02*
X85299928Y-129114287D01*
X85725707Y-128209460D01*
X86156577Y-128412212D01*
X86643217Y-129167485D02*
X86341608Y-129025559D01*
X86118581Y-129499516D02*
X86544360Y-128594689D01*
X86975230Y-128797441D01*
X87449187Y-129020468D02*
X87347811Y-129235903D01*
X87172927Y-129048353D02*
X87347811Y-129235903D01*
X87603797Y-129251105D01*
X87137450Y-129347426D02*
X87347811Y-129235903D01*
X87395972Y-129469077D01*
X88138579Y-129344872D02*
X88037203Y-129560307D01*
X87862319Y-129372757D02*
X88037203Y-129560307D01*
X88293189Y-129575509D01*
X87826842Y-129671829D02*
X88037203Y-129560307D01*
X88085364Y-129793480D01*
X81405000Y-126812665D02*
X81378713Y-126231995D01*
X80922527Y-126506478D02*
X81458354Y-125662150D01*
X81780003Y-125866274D01*
X81834899Y-125957512D01*
X81849590Y-126023233D01*
X81838765Y-126129161D01*
X81762218Y-126249779D01*
X81670981Y-126304676D01*
X81605259Y-126319367D01*
X81499331Y-126308541D01*
X81177683Y-126104417D01*
X82047526Y-126600038D02*
X82328969Y-126778647D01*
X82168916Y-127297460D02*
X81766855Y-127042305D01*
X82302682Y-126197977D01*
X82704743Y-126453132D01*
X83092884Y-127263442D02*
X82811442Y-127084833D01*
X82530771Y-127527100D02*
X83066597Y-126682772D01*
X83468658Y-126937928D01*
X83910925Y-127218599D02*
X83783348Y-127419630D01*
X83633348Y-127211640D02*
X83783348Y-127419630D01*
X84035409Y-127466795D01*
X83560667Y-127503907D02*
X83783348Y-127419630D01*
X83801904Y-127657001D01*
X84554223Y-127626848D02*
X84426645Y-127827879D01*
X84276646Y-127619889D02*
X84426645Y-127827879D01*
X84678707Y-127875044D01*
X84203965Y-127912156D02*
X84426645Y-127827879D01*
X84445201Y-128065250D01*
X78191109Y-124270667D02*
X78237807Y-123691282D01*
X77750816Y-123906425D02*
X78388240Y-123135912D01*
X78681769Y-123378740D01*
X78724797Y-123476138D01*
X78731135Y-123543183D01*
X78707119Y-123646919D01*
X78616058Y-123756992D01*
X78518660Y-123800021D01*
X78451616Y-123806358D01*
X78347880Y-123782342D01*
X78054351Y-123539514D01*
X78855218Y-124140247D02*
X79112056Y-124352722D01*
X78888240Y-124847384D02*
X78521329Y-124543849D01*
X79158753Y-123773336D01*
X79525664Y-124076871D01*
X79809187Y-124929439D02*
X79552349Y-124716964D01*
X79218460Y-125120566D02*
X79855884Y-124350053D01*
X80222795Y-124653588D01*
X80626397Y-124987477D02*
X80474630Y-125170932D01*
X80351881Y-124945782D02*
X80474630Y-125170932D01*
X80718792Y-125249318D01*
X80243142Y-125226636D02*
X80474630Y-125170932D01*
X80463289Y-125408757D01*
X81213455Y-125473133D02*
X81061687Y-125656589D01*
X80938939Y-125431439D02*
X81061687Y-125656589D01*
X81305850Y-125734974D01*
X80830200Y-125712293D02*
X81061687Y-125656589D01*
X81050347Y-125894414D01*
X75321158Y-121345907D02*
X75440103Y-120776943D01*
X74929988Y-120929354D02*
X75658956Y-120244807D01*
X75919736Y-120522509D01*
X75950218Y-120624532D01*
X75948103Y-120691842D01*
X75911275Y-120791750D01*
X75807137Y-120889543D01*
X75705114Y-120920025D01*
X75637803Y-120917910D01*
X75537895Y-120881081D01*
X75277116Y-120603379D01*
X75996376Y-121299750D02*
X76224558Y-121542740D01*
X75940510Y-122005450D02*
X75614535Y-121658323D01*
X76343503Y-120973775D01*
X76669478Y-121320903D01*
X76843910Y-122202283D02*
X76615728Y-121959293D01*
X76233887Y-122317866D02*
X76962856Y-121633318D01*
X77288830Y-121980446D01*
X77647403Y-122362287D02*
X77473839Y-122525274D01*
X77380277Y-122286516D02*
X77473839Y-122525274D01*
X77706252Y-122633643D01*
X77237195Y-122551526D02*
X77473839Y-122525274D01*
X77432780Y-122759803D01*
X78168962Y-122917692D02*
X77995398Y-123080679D01*
X77901837Y-122841920D02*
X77995398Y-123080679D01*
X78227811Y-123189048D01*
X77758755Y-123106931D02*
X77995398Y-123080679D01*
X77954340Y-123315207D01*
X68385215Y-97350054D02*
X67871002Y-97621077D01*
X68313596Y-97916977D02*
X67321482Y-97791644D01*
X67369228Y-97413695D01*
X67428408Y-97325177D01*
X67481619Y-97283901D01*
X67582075Y-97248594D01*
X67723806Y-97266499D01*
X67812324Y-97325679D01*
X67853600Y-97378891D01*
X67888907Y-97479346D01*
X67841161Y-97857295D01*
X67919250Y-96859212D02*
X67961028Y-96528507D01*
X68498612Y-96452427D02*
X68438930Y-96924862D01*
X67446815Y-96799529D01*
X67506497Y-96327094D01*
X68074425Y-95630879D02*
X68032647Y-95961584D01*
X68552326Y-96027235D02*
X67560212Y-95901902D01*
X67619894Y-95429466D01*
X67685545Y-94909787D02*
X67921763Y-94939628D01*
X67797434Y-95163909D02*
X67921763Y-94939628D01*
X67857117Y-94691474D01*
X68092832Y-95105232D02*
X67921763Y-94939628D01*
X68128642Y-94821771D01*
X67781037Y-94153890D02*
X68017255Y-94183731D01*
X67892926Y-94408013D02*
X68017255Y-94183731D01*
X67952609Y-93935577D01*
X68188324Y-94349335D02*
X68017255Y-94183731D01*
X68224134Y-94065874D01*
X68966634Y-93408567D02*
X68422507Y-93613005D01*
X68824525Y-93962043D02*
X67855942Y-93713353D01*
X67950681Y-93344369D01*
X68020489Y-93263966D01*
X68078454Y-93229685D01*
X68182542Y-93207247D01*
X68320911Y-93242774D01*
X68401315Y-93312582D01*
X68435596Y-93370547D01*
X68458034Y-93474636D01*
X68363295Y-93843620D01*
X68565862Y-92863194D02*
X68648758Y-92540333D01*
X69191639Y-92532230D02*
X69073215Y-92993460D01*
X68104632Y-92744770D01*
X68223056Y-92283540D01*
X68873764Y-91663996D02*
X68790867Y-91986857D01*
X69298220Y-92117123D02*
X68329637Y-91868433D01*
X68448061Y-91407203D01*
X68578327Y-90899850D02*
X68808942Y-90959062D01*
X68657484Y-91165992D02*
X68808942Y-90959062D01*
X68775908Y-90704762D01*
X68957907Y-91144800D02*
X68808942Y-90959062D01*
X69028961Y-90868062D01*
X68767805Y-90161882D02*
X68998420Y-90221094D01*
X68846962Y-90428024D02*
X68998420Y-90221094D01*
X68965386Y-89966794D01*
X69147385Y-90406832D02*
X68998420Y-90221094D01*
X69218439Y-90130094D01*
X70037466Y-89571029D02*
X69472007Y-89705657D01*
X69827109Y-90102330D02*
X68897333Y-89734205D01*
X69037570Y-89380005D01*
X69116905Y-89308984D01*
X69178710Y-89282239D01*
X69284790Y-89273023D01*
X69417615Y-89325613D01*
X69488635Y-89404947D01*
X69515381Y-89466752D01*
X69524596Y-89572832D01*
X69384358Y-89927032D01*
X69708208Y-88979726D02*
X69830916Y-88669801D01*
X70370531Y-88729803D02*
X70195234Y-89172553D01*
X69265457Y-88804429D01*
X69440755Y-88361678D01*
X70163981Y-87828574D02*
X70041273Y-88138500D01*
X70528299Y-88331327D02*
X69598522Y-87963202D01*
X69773820Y-87520452D01*
X69966647Y-87033426D02*
X70188022Y-87121075D01*
X70011823Y-87307391D02*
X70188022Y-87121075D01*
X70187121Y-86864640D01*
X70312533Y-87324019D02*
X70188022Y-87121075D01*
X70417712Y-87058368D01*
X70247123Y-86325025D02*
X70468498Y-86412674D01*
X70292299Y-86598989D02*
X70468498Y-86412674D01*
X70467597Y-86156239D01*
X70593009Y-86615618D02*
X70468498Y-86412674D01*
X70698187Y-86349967D01*
X71580826Y-85897964D02*
X71002952Y-85960659D01*
X71305538Y-86398710D02*
X70429231Y-85916957D01*
X70612756Y-85583125D01*
X70700367Y-85522608D01*
X70765036Y-85503820D01*
X70871435Y-85507973D01*
X70996621Y-85576794D01*
X71057138Y-85664405D01*
X71075927Y-85729074D01*
X71071774Y-85835473D01*
X70888249Y-86169304D01*
X71328274Y-85270056D02*
X71488858Y-84977954D01*
X72016698Y-85105115D02*
X71787292Y-85522404D01*
X70910985Y-85040650D01*
X71140391Y-84623361D01*
X71924731Y-84185105D02*
X71764146Y-84477208D01*
X72223164Y-84729555D02*
X71346857Y-84247801D01*
X71576264Y-83830512D01*
X71828611Y-83371494D02*
X72037255Y-83486198D01*
X71839094Y-83648961D02*
X72037255Y-83486198D01*
X72068501Y-83231672D01*
X72135349Y-83703147D02*
X72037255Y-83486198D01*
X72272993Y-83452774D01*
X72195661Y-82703832D02*
X72404306Y-82818535D01*
X72206145Y-82981299D02*
X72404306Y-82818535D01*
X72435551Y-82564010D01*
X72502399Y-83035485D02*
X72404306Y-82818535D01*
X72640043Y-82785111D01*
X92750742Y-69113674D02*
X92334084Y-68708379D01*
X92189435Y-69220749D02*
X92002054Y-68238462D01*
X92376258Y-68167079D01*
X92478732Y-68196008D01*
X92534431Y-68233861D01*
X92599052Y-68318489D01*
X92625821Y-68458816D01*
X92596891Y-68561290D01*
X92559039Y-68616989D01*
X92474410Y-68681610D01*
X92100206Y-68752993D01*
X93073570Y-68518837D02*
X93400999Y-68456376D01*
X93639478Y-68944139D02*
X93171722Y-69033368D01*
X92984341Y-68051081D01*
X93452097Y-67961852D01*
X94289735Y-68286841D02*
X93962306Y-68349301D01*
X94060458Y-68863833D02*
X93873077Y-67881545D01*
X94340833Y-67792316D01*
X94855364Y-67694164D02*
X94899979Y-67928042D01*
X94648255Y-67879105D02*
X94899979Y-67928042D01*
X95116011Y-67789876D01*
X94795344Y-68141913D02*
X94899979Y-67928042D01*
X95075997Y-68088375D01*
X95603774Y-67551397D02*
X95648388Y-67785275D01*
X95396664Y-67736339D02*
X95648388Y-67785275D01*
X95864420Y-67647109D01*
X95543753Y-67999146D02*
X95648388Y-67785275D01*
X95824407Y-67945609D01*
X96678987Y-68448649D02*
X96316412Y-67994329D01*
X96108686Y-68484530D02*
X96045896Y-67486503D01*
X96426097Y-67462583D01*
X96524137Y-67504128D01*
X96574652Y-67548663D01*
X96628157Y-67640723D01*
X96637127Y-67783298D01*
X96595582Y-67881339D01*
X96551047Y-67931854D01*
X96458987Y-67985359D01*
X96078786Y-68009279D01*
X97073823Y-67898963D02*
X97406498Y-67878033D01*
X97581964Y-68391839D02*
X97106713Y-68421739D01*
X97043923Y-67423713D01*
X97519173Y-67393812D01*
X98309475Y-67821223D02*
X97976799Y-67842153D01*
X98009690Y-68364929D02*
X97946899Y-67366902D01*
X98422150Y-67337002D01*
X98944926Y-67304112D02*
X98959876Y-67541737D01*
X98716271Y-67461637D02*
X98959876Y-67541737D01*
X99191521Y-67431737D01*
X98829261Y-67740807D02*
X98959876Y-67541737D01*
X99114411Y-67722867D01*
X99705327Y-67256271D02*
X99720277Y-67493897D01*
X99476672Y-67413797D02*
X99720277Y-67493897D01*
X99951923Y-67383896D01*
X99589662Y-67692967D02*
X99720277Y-67493897D01*
X99874813Y-67675027D01*
X102703075Y-74410182D02*
X102448338Y-73887709D01*
X102138681Y-74320790D02*
X102295116Y-73333102D01*
X102671378Y-73392696D01*
X102757994Y-73454628D01*
X102797578Y-73509110D01*
X102829712Y-73610624D01*
X102807364Y-73751723D01*
X102745433Y-73838339D01*
X102690951Y-73877923D01*
X102589436Y-73910057D01*
X102213174Y-73850463D01*
X103208312Y-73959864D02*
X103537541Y-74012009D01*
X103596698Y-74551718D02*
X103126370Y-74477225D01*
X103282804Y-73489537D01*
X103753132Y-73564029D01*
X104431164Y-74153545D02*
X104101934Y-74101400D01*
X104019993Y-74618761D02*
X104176427Y-73631073D01*
X104646755Y-73705565D01*
X105164115Y-73787507D02*
X105126869Y-74022671D01*
X104906604Y-73891359D02*
X105126869Y-74022671D01*
X105376931Y-73965852D01*
X104955974Y-74188454D02*
X105126869Y-74022671D01*
X105238170Y-74233150D01*
X105916640Y-73906695D02*
X105879393Y-74141859D01*
X105659128Y-74010547D02*
X105879393Y-74141859D01*
X106129456Y-74085040D01*
X105708498Y-74307642D02*
X105879393Y-74141859D01*
X105990695Y-74352338D01*
X106672925Y-75148089D02*
X106503057Y-74592199D01*
X106129464Y-74971508D02*
X106438481Y-74020451D01*
X106800788Y-74138172D01*
X106876650Y-74212890D01*
X106907223Y-74272894D01*
X106923081Y-74378186D01*
X106878936Y-74514051D01*
X106804217Y-74589913D01*
X106744214Y-74620486D01*
X106638922Y-74636344D01*
X106276615Y-74518623D01*
X107242386Y-74782352D02*
X107559405Y-74885358D01*
X107533404Y-75427675D02*
X107080520Y-75280525D01*
X107389537Y-74329468D01*
X107842421Y-74476619D01*
X108419885Y-75164945D02*
X108102866Y-75061939D01*
X107941000Y-75560111D02*
X108250017Y-74609055D01*
X108702901Y-74756206D01*
X109201074Y-74918072D02*
X109127498Y-75144514D01*
X108930486Y-74980362D02*
X109127498Y-75144514D01*
X109383370Y-75127513D01*
X108932773Y-75281522D02*
X109127498Y-75144514D01*
X109204503Y-75369813D01*
X109925688Y-75153513D02*
X109852113Y-75379955D01*
X109655101Y-75215803D02*
X109852113Y-75379955D01*
X110107985Y-75362954D01*
X109657387Y-75516964D02*
X109852113Y-75379955D01*
X109929117Y-75605254D01*
X120006096Y-83816628D02*
X120195414Y-83267058D01*
X119670219Y-83354333D02*
X120479236Y-82766547D01*
X120703154Y-83074744D01*
X120720609Y-83179783D01*
X120710074Y-83246298D01*
X120661014Y-83340802D01*
X120545441Y-83424771D01*
X120440402Y-83442226D01*
X120373887Y-83431691D01*
X120279383Y-83382632D01*
X120055465Y-83074435D01*
X120681775Y-83855462D02*
X120877703Y-84125134D01*
X120537902Y-84548596D02*
X120258004Y-84163350D01*
X121067021Y-83575564D01*
X121346919Y-83960811D01*
X121409509Y-84857102D02*
X121213580Y-84587430D01*
X120789810Y-84895317D02*
X121598827Y-84307532D01*
X121878724Y-84692778D01*
X122186612Y-85116549D02*
X121993989Y-85256498D01*
X121931089Y-85007895D02*
X121993989Y-85256498D01*
X122210987Y-85393142D01*
X121755921Y-85252883D02*
X121993989Y-85256498D01*
X121923860Y-85484031D01*
X122634448Y-85732943D02*
X122441825Y-85872892D01*
X122378926Y-85624289D02*
X122441825Y-85872892D01*
X122658823Y-86009535D01*
X122203757Y-85869277D02*
X122441825Y-85872892D01*
X122371696Y-86100425D01*
X122291425Y-87145516D02*
X122564384Y-86632328D01*
X122032002Y-86636370D02*
X122923009Y-86182379D01*
X123095958Y-86521810D01*
X123096766Y-86628287D01*
X123075956Y-86692334D01*
X123012716Y-86778000D01*
X122885430Y-86842856D01*
X122778953Y-86843664D01*
X122714906Y-86822854D01*
X122629240Y-86759615D01*
X122456291Y-86420184D01*
X122952711Y-87289572D02*
X123104041Y-87586574D01*
X122702179Y-87951665D02*
X122485993Y-87527376D01*
X123376999Y-87073386D01*
X123593185Y-87497675D01*
X123514794Y-88392723D02*
X123363464Y-88095721D01*
X122896746Y-88333525D02*
X123787753Y-87879535D01*
X124003939Y-88303823D01*
X124241743Y-88770541D02*
X124029599Y-88878634D01*
X124006364Y-88623253D02*
X124029599Y-88878634D01*
X124222549Y-89047541D01*
X123795027Y-88837822D02*
X124029599Y-88878634D01*
X123924739Y-89092395D01*
X124587641Y-89449403D02*
X124375496Y-89557496D01*
X124352261Y-89302115D02*
X124375496Y-89557496D01*
X124568447Y-89726403D01*
X124140925Y-89516684D02*
X124375496Y-89557496D01*
X124270637Y-89771257D01*
X125172659Y-94663089D02*
X125590842Y-94259367D01*
X125083268Y-94098695D02*
X126070956Y-93942261D01*
X126130550Y-94318523D01*
X126098416Y-94420038D01*
X126058832Y-94474520D01*
X125972216Y-94536451D01*
X125831118Y-94558799D01*
X125729603Y-94526665D01*
X125675121Y-94487081D01*
X125613190Y-94400465D01*
X125553595Y-94024203D01*
X125757063Y-95004442D02*
X125809208Y-95333671D01*
X125314195Y-95556711D02*
X125239702Y-95086384D01*
X126227391Y-94929949D01*
X126301883Y-95400277D01*
X125950743Y-96227294D02*
X125898599Y-95898065D01*
X125381238Y-95980006D02*
X126368926Y-95823572D01*
X126443419Y-96293900D01*
X126525361Y-96811260D02*
X126290197Y-96848507D01*
X126347016Y-96598444D02*
X126290197Y-96848507D01*
X126421509Y-97068772D01*
X126079718Y-96737205D02*
X126290197Y-96848507D01*
X126124414Y-97019402D01*
X126644549Y-97563785D02*
X126409385Y-97601031D01*
X126466204Y-97350969D02*
X126409385Y-97601031D01*
X126540697Y-97821296D01*
X126198906Y-97489730D02*
X126409385Y-97601031D01*
X126243602Y-97771926D01*
X126602380Y-101333333D02*
X126126190Y-101666666D01*
X126602380Y-101904761D02*
X125602380Y-101904761D01*
X125602380Y-101523809D01*
X125650000Y-101428571D01*
X125697619Y-101380952D01*
X125792857Y-101333333D01*
X125935714Y-101333333D01*
X126030952Y-101380952D01*
X126078571Y-101428571D01*
X126126190Y-101523809D01*
X126126190Y-101904761D01*
X126078571Y-100904761D02*
X126078571Y-100571428D01*
X126602380Y-100428571D02*
X126602380Y-100904761D01*
X125602380Y-100904761D01*
X125602380Y-100428571D01*
X126078571Y-99666666D02*
X126078571Y-100000000D01*
X126602380Y-100000000D02*
X125602380Y-100000000D01*
X125602380Y-99523809D01*
X125602380Y-99000000D02*
X125840476Y-99000000D01*
X125745238Y-99238095D02*
X125840476Y-99000000D01*
X125745238Y-98761904D01*
X126030952Y-99142857D02*
X125840476Y-99000000D01*
X126030952Y-98857142D01*
X125602380Y-98238095D02*
X125840476Y-98238095D01*
X125745238Y-98476190D02*
X125840476Y-98238095D01*
X125745238Y-98000000D01*
X126030952Y-98380952D02*
X125840476Y-98238095D01*
X126030952Y-98095238D01*
X120738064Y-116715177D02*
X120156889Y-116704951D01*
X120402186Y-117177472D02*
X119593169Y-116589687D01*
X119817088Y-116281490D01*
X119911592Y-116232430D01*
X119978106Y-116221896D01*
X120083145Y-116239351D01*
X120198719Y-116323320D01*
X120247779Y-116417824D01*
X120258313Y-116484338D01*
X120240858Y-116589377D01*
X120016940Y-116897574D01*
X120566201Y-116060568D02*
X120762129Y-115790895D01*
X121269869Y-115983209D02*
X120989972Y-116368455D01*
X120180955Y-115780670D01*
X120460852Y-115395424D01*
X121293935Y-115058928D02*
X121098007Y-115328600D01*
X121521777Y-115636487D02*
X120712760Y-115048702D01*
X120992658Y-114663456D01*
X121300546Y-114239685D02*
X121493169Y-114379634D01*
X121276171Y-114516278D02*
X121493169Y-114379634D01*
X121556068Y-114131031D01*
X121563298Y-114607167D02*
X121493169Y-114379634D01*
X121731237Y-114376019D01*
X121748382Y-113623291D02*
X121941005Y-113763240D01*
X121724007Y-113899884D02*
X121941005Y-113763240D01*
X122003905Y-113514637D01*
X122011134Y-113990773D02*
X121941005Y-113763240D01*
X122179073Y-113759625D01*
X117867914Y-119753532D02*
X117295494Y-119652517D01*
X117463853Y-120157593D02*
X116756746Y-119450486D01*
X117026120Y-119181112D01*
X117127136Y-119147441D01*
X117194479Y-119147441D01*
X117295494Y-119181112D01*
X117396510Y-119282128D01*
X117430181Y-119383143D01*
X117430181Y-119450486D01*
X117396510Y-119551502D01*
X117127136Y-119820876D01*
X117800571Y-119080097D02*
X118036273Y-118844395D01*
X118507677Y-119113769D02*
X118170960Y-119450486D01*
X117463853Y-118743380D01*
X117800571Y-118406662D01*
X118676036Y-118204632D02*
X118440334Y-118440334D01*
X118810723Y-118810723D02*
X118103616Y-118103616D01*
X118440334Y-117766899D01*
X118810723Y-117396510D02*
X118979082Y-117564868D01*
X118743380Y-117665884D02*
X118979082Y-117564868D01*
X119080097Y-117329166D01*
X119012754Y-117800571D02*
X118979082Y-117564868D01*
X119214784Y-117598540D01*
X119349471Y-116857762D02*
X119517830Y-117026120D01*
X119282128Y-117127136D02*
X119517830Y-117026120D01*
X119618845Y-116790418D01*
X119551502Y-117261823D02*
X119517830Y-117026120D01*
X119753532Y-117059792D01*
X114557798Y-122305491D02*
X114008228Y-122116173D01*
X114095503Y-122641368D02*
X113507717Y-121832351D01*
X113815914Y-121608433D01*
X113920953Y-121590978D01*
X113987468Y-121601513D01*
X114081972Y-121650573D01*
X114165941Y-121766146D01*
X114183396Y-121871185D01*
X114172861Y-121937700D01*
X114123802Y-122032204D01*
X113815605Y-122256122D01*
X114596632Y-121629812D02*
X114866304Y-121433884D01*
X115289766Y-121773685D02*
X114904520Y-122053583D01*
X114316734Y-121244566D01*
X114701981Y-120964668D01*
X115598272Y-120902078D02*
X115328600Y-121098007D01*
X115636487Y-121521777D02*
X115048702Y-120712760D01*
X115433948Y-120432863D01*
X115857719Y-120124975D02*
X115997668Y-120317598D01*
X115749065Y-120380498D02*
X115997668Y-120317598D01*
X116134312Y-120100600D01*
X115994053Y-120555666D02*
X115997668Y-120317598D01*
X116225201Y-120387727D01*
X116474113Y-119677139D02*
X116614062Y-119869762D01*
X116365459Y-119932661D02*
X116614062Y-119869762D01*
X116750705Y-119652764D01*
X116610447Y-120107830D02*
X116614062Y-119869762D01*
X116841595Y-119939891D01*
X110889218Y-124308216D02*
X110376030Y-124035257D01*
X110380072Y-124567639D02*
X109926081Y-123676632D01*
X110265512Y-123503683D01*
X110371989Y-123502875D01*
X110436036Y-123523685D01*
X110521702Y-123586925D01*
X110586558Y-123714211D01*
X110587366Y-123820688D01*
X110566556Y-123884735D01*
X110503317Y-123970401D01*
X110163886Y-124143350D01*
X111033274Y-123646930D02*
X111330276Y-123495600D01*
X111695367Y-123897462D02*
X111271078Y-124113648D01*
X110817088Y-123222642D01*
X111241377Y-123006456D01*
X112136425Y-123084847D02*
X111839423Y-123236177D01*
X112077227Y-123702895D02*
X111623237Y-122811888D01*
X112047525Y-122595702D01*
X112514243Y-122357898D02*
X112622336Y-122570042D01*
X112366955Y-122593277D02*
X112622336Y-122570042D01*
X112791243Y-122377092D01*
X112581524Y-122804614D02*
X112622336Y-122570042D01*
X112836097Y-122674902D01*
X113193105Y-122012000D02*
X113301198Y-122224145D01*
X113045817Y-122247380D02*
X113301198Y-122224145D01*
X113470105Y-122031194D01*
X113260386Y-122458716D02*
X113301198Y-122224145D01*
X113514959Y-122329004D01*
X106952512Y-125712390D02*
X106488342Y-125362512D01*
X106409051Y-125888971D02*
X106100034Y-124937915D01*
X106462341Y-124820194D01*
X106567633Y-124836052D01*
X106627636Y-124866625D01*
X106702355Y-124942487D01*
X106746500Y-125078352D01*
X106730642Y-125183644D01*
X106700069Y-125243648D01*
X106624207Y-125318366D01*
X106261900Y-125436087D01*
X107198241Y-125081782D02*
X107515260Y-124978776D01*
X107812991Y-125432803D02*
X107360107Y-125579954D01*
X107051090Y-124628898D01*
X107503974Y-124481747D01*
X108375740Y-124699189D02*
X108058721Y-124802195D01*
X108220587Y-125300367D02*
X107911570Y-124349311D01*
X108364454Y-124202160D01*
X108862626Y-124040294D02*
X108936202Y-124266736D01*
X108680330Y-124249735D02*
X108936202Y-124266736D01*
X109133214Y-124102584D01*
X108859197Y-124492035D02*
X108936202Y-124266736D01*
X109130927Y-124403744D01*
X109587241Y-123804852D02*
X109660816Y-124031294D01*
X109404944Y-124014293D02*
X109660816Y-124031294D01*
X109857828Y-123867142D01*
X109583812Y-124256593D02*
X109660816Y-124031294D01*
X109855542Y-124168303D01*
X90511337Y-124888345D02*
X90341469Y-124332455D01*
X89967876Y-124711764D02*
X90276893Y-123760707D01*
X90639200Y-123878428D01*
X90715062Y-123953146D01*
X90745635Y-124013150D01*
X90761493Y-124118442D01*
X90717348Y-124254307D01*
X90642629Y-124330169D01*
X90582626Y-124360742D01*
X90477334Y-124376600D01*
X90115027Y-124258879D01*
X91080798Y-124522608D02*
X91397817Y-124625614D01*
X91371816Y-125167931D02*
X90918932Y-125020781D01*
X91227949Y-124069724D01*
X91680833Y-124216875D01*
X92258297Y-124905201D02*
X91941278Y-124802195D01*
X91779412Y-125300367D02*
X92088429Y-124349311D01*
X92541313Y-124496462D01*
X93039486Y-124658328D02*
X92965910Y-124884770D01*
X92768898Y-124720618D02*
X92965910Y-124884770D01*
X93221782Y-124867769D01*
X92771185Y-125021778D02*
X92965910Y-124884770D01*
X93042915Y-125110069D01*
X93764100Y-124893769D02*
X93690525Y-125120211D01*
X93493513Y-124956059D02*
X93690525Y-125120211D01*
X93946397Y-125103210D01*
X93495799Y-125257220D02*
X93690525Y-125120211D01*
X93767529Y-125345510D01*
X86734763Y-123097574D02*
X86653947Y-122521955D01*
X86225617Y-122838151D02*
X86679607Y-121947145D01*
X87019038Y-122120093D01*
X87082277Y-122205759D01*
X87103088Y-122269807D01*
X87102279Y-122376283D01*
X87037423Y-122503570D01*
X86951757Y-122566809D01*
X86887710Y-122587619D01*
X86781234Y-122586811D01*
X86441803Y-122413862D01*
X87354428Y-122825424D02*
X87651430Y-122976754D01*
X87540912Y-123508328D02*
X87116623Y-123292142D01*
X87570614Y-122401135D01*
X87994902Y-122617321D01*
X88457579Y-123387507D02*
X88160576Y-123236177D01*
X87922772Y-123702895D02*
X88376762Y-122811888D01*
X88801051Y-123028074D01*
X89267769Y-123265879D02*
X89159676Y-123478023D01*
X88990769Y-123285073D02*
X89159676Y-123478023D01*
X89415057Y-123501258D01*
X88945915Y-123582883D02*
X89159676Y-123478023D01*
X89200488Y-123712595D01*
X89946631Y-123611776D02*
X89838538Y-123823921D01*
X89669631Y-123630970D02*
X89838538Y-123823921D01*
X90093920Y-123847156D01*
X89624777Y-123928781D02*
X89838538Y-123823921D01*
X89879350Y-124058492D01*
X83284822Y-120738064D02*
X83295048Y-120156889D01*
X82822527Y-120402186D02*
X83410312Y-119593169D01*
X83718509Y-119817088D01*
X83767569Y-119911592D01*
X83778103Y-119978106D01*
X83760648Y-120083145D01*
X83676679Y-120198719D01*
X83582175Y-120247779D01*
X83515661Y-120258313D01*
X83410622Y-120240858D01*
X83102425Y-120016940D01*
X83939431Y-120566201D02*
X84209104Y-120762129D01*
X84016790Y-121269869D02*
X83631544Y-120989972D01*
X84219329Y-120180955D01*
X84604575Y-120460852D01*
X84941071Y-121293935D02*
X84671399Y-121098007D01*
X84363512Y-121521777D02*
X84951297Y-120712760D01*
X85336543Y-120992658D01*
X85760314Y-121300546D02*
X85620365Y-121493169D01*
X85483721Y-121276171D02*
X85620365Y-121493169D01*
X85868968Y-121556068D01*
X85392832Y-121563298D02*
X85620365Y-121493169D01*
X85623980Y-121731237D01*
X86376708Y-121748382D02*
X86236759Y-121941005D01*
X86100115Y-121724007D02*
X86236759Y-121941005D01*
X86485362Y-122003905D01*
X86009226Y-122011134D02*
X86236759Y-121941005D01*
X86240374Y-122179073D01*
X80246467Y-117867914D02*
X80347482Y-117295494D01*
X79842406Y-117463853D02*
X80549513Y-116756746D01*
X80818887Y-117026120D01*
X80852558Y-117127136D01*
X80852558Y-117194479D01*
X80818887Y-117295494D01*
X80717871Y-117396510D01*
X80616856Y-117430181D01*
X80549513Y-117430181D01*
X80448497Y-117396510D01*
X80179123Y-117127136D01*
X80919902Y-117800571D02*
X81155604Y-118036273D01*
X80886230Y-118507677D02*
X80549513Y-118170960D01*
X81256619Y-117463853D01*
X81593337Y-117800571D01*
X81795367Y-118676036D02*
X81559665Y-118440334D01*
X81189276Y-118810723D02*
X81896383Y-118103616D01*
X82233100Y-118440334D01*
X82603489Y-118810723D02*
X82435131Y-118979082D01*
X82334115Y-118743380D02*
X82435131Y-118979082D01*
X82670833Y-119080097D01*
X82199428Y-119012754D02*
X82435131Y-118979082D01*
X82401459Y-119214784D01*
X83142237Y-119349471D02*
X82973879Y-119517830D01*
X82872863Y-119282128D02*
X82973879Y-119517830D01*
X83209581Y-119618845D01*
X82738176Y-119551502D02*
X82973879Y-119517830D01*
X82940207Y-119753532D01*
X77694508Y-114557798D02*
X77883826Y-114008228D01*
X77358631Y-114095503D02*
X78167648Y-113507717D01*
X78391566Y-113815914D01*
X78409021Y-113920953D01*
X78398486Y-113987468D01*
X78349426Y-114081972D01*
X78233853Y-114165941D01*
X78128814Y-114183396D01*
X78062299Y-114172861D01*
X77967795Y-114123802D01*
X77743877Y-113815605D01*
X78370187Y-114596632D02*
X78566115Y-114866304D01*
X78226314Y-115289766D02*
X77946416Y-114904520D01*
X78755433Y-114316734D01*
X79035331Y-114701981D01*
X79097921Y-115598272D02*
X78901992Y-115328600D01*
X78478222Y-115636487D02*
X79287239Y-115048702D01*
X79567136Y-115433948D01*
X79875024Y-115857719D02*
X79682401Y-115997668D01*
X79619501Y-115749065D02*
X79682401Y-115997668D01*
X79899399Y-116134312D01*
X79444333Y-115994053D02*
X79682401Y-115997668D01*
X79612272Y-116225201D01*
X80322860Y-116474113D02*
X80130237Y-116614062D01*
X80067338Y-116365459D02*
X80130237Y-116614062D01*
X80347235Y-116750705D01*
X79892169Y-116610447D02*
X80130237Y-116614062D01*
X80060108Y-116841595D01*
X74302380Y-101333333D02*
X73826190Y-101666666D01*
X74302380Y-101904761D02*
X73302380Y-101904761D01*
X73302380Y-101523809D01*
X73350000Y-101428571D01*
X73397619Y-101380952D01*
X73492857Y-101333333D01*
X73635714Y-101333333D01*
X73730952Y-101380952D01*
X73778571Y-101428571D01*
X73826190Y-101523809D01*
X73826190Y-101904761D01*
X73778571Y-100904761D02*
X73778571Y-100571428D01*
X74302380Y-100428571D02*
X74302380Y-100904761D01*
X73302380Y-100904761D01*
X73302380Y-100428571D01*
X73778571Y-99666666D02*
X73778571Y-100000000D01*
X74302380Y-100000000D02*
X73302380Y-100000000D01*
X73302380Y-99523809D01*
X73302380Y-99000000D02*
X73540476Y-99000000D01*
X73445238Y-99238095D02*
X73540476Y-99000000D01*
X73445238Y-98761904D01*
X73730952Y-99142857D02*
X73540476Y-99000000D01*
X73730952Y-98857142D01*
X73302380Y-98238095D02*
X73540476Y-98238095D01*
X73445238Y-98476190D02*
X73540476Y-98238095D01*
X73445238Y-98000000D01*
X73730952Y-98380952D02*
X73540476Y-98238095D01*
X73730952Y-98095238D01*
X74410182Y-97296924D02*
X73887709Y-97551661D01*
X74320790Y-97861318D02*
X73333102Y-97704883D01*
X73392696Y-97328621D01*
X73454628Y-97242005D01*
X73509110Y-97202421D01*
X73610624Y-97170287D01*
X73751723Y-97192635D01*
X73838339Y-97254566D01*
X73877923Y-97309048D01*
X73910057Y-97410563D01*
X73850463Y-97786825D01*
X73959864Y-96791687D02*
X74012009Y-96462458D01*
X74551718Y-96403301D02*
X74477225Y-96873629D01*
X73489537Y-96717195D01*
X73564029Y-96246867D01*
X74153545Y-95568835D02*
X74101400Y-95898065D01*
X74618761Y-95980006D02*
X73631073Y-95823572D01*
X73705565Y-95353244D01*
X73787507Y-94835884D02*
X74022671Y-94873130D01*
X73891359Y-95093395D02*
X74022671Y-94873130D01*
X73965852Y-94623068D01*
X74188454Y-95044025D02*
X74022671Y-94873130D01*
X74233150Y-94761829D01*
X73906695Y-94083359D02*
X74141859Y-94120606D01*
X74010547Y-94340871D02*
X74141859Y-94120606D01*
X74085040Y-93870543D01*
X74307642Y-94291501D02*
X74141859Y-94120606D01*
X74352338Y-94009304D01*
X75148089Y-93327074D02*
X74592199Y-93496942D01*
X74971508Y-93870535D02*
X74020451Y-93561518D01*
X74138172Y-93199211D01*
X74212890Y-93123349D01*
X74272894Y-93092776D01*
X74378186Y-93076918D01*
X74514051Y-93121063D01*
X74589913Y-93195782D01*
X74620486Y-93255785D01*
X74636344Y-93361077D01*
X74518623Y-93723384D01*
X74782352Y-92757613D02*
X74885358Y-92440594D01*
X75427675Y-92466595D02*
X75280525Y-92919479D01*
X74329468Y-92610462D01*
X74476619Y-92157578D01*
X75164945Y-91580114D02*
X75061939Y-91897133D01*
X75560111Y-92058999D02*
X74609055Y-91749982D01*
X74756206Y-91297098D01*
X74918072Y-90798925D02*
X75144514Y-90872501D01*
X74980362Y-91069513D02*
X75144514Y-90872501D01*
X75127513Y-90616629D01*
X75281522Y-91067226D02*
X75144514Y-90872501D01*
X75369813Y-90795496D01*
X75153513Y-90074311D02*
X75379955Y-90147886D01*
X75215803Y-90344898D02*
X75379955Y-90147886D01*
X75362954Y-89892014D01*
X75516964Y-90342612D02*
X75379955Y-90147886D01*
X75605254Y-90070882D01*
X76497932Y-89521534D02*
X75922313Y-89602350D01*
X76238509Y-90030680D02*
X75347503Y-89576690D01*
X75520451Y-89237259D01*
X75606117Y-89174020D01*
X75670165Y-89153209D01*
X75776641Y-89154018D01*
X75903928Y-89218874D01*
X75967167Y-89304540D01*
X75987977Y-89368587D01*
X75987169Y-89475063D01*
X75814220Y-89814494D01*
X76225782Y-88901869D02*
X76377112Y-88604867D01*
X76908686Y-88715385D02*
X76692500Y-89139674D01*
X75801493Y-88685683D01*
X76017679Y-88261395D01*
X76787865Y-87798718D02*
X76636535Y-88095721D01*
X77103253Y-88333525D02*
X76212246Y-87879535D01*
X76428432Y-87455246D01*
X76666237Y-86988528D02*
X76878381Y-87096621D01*
X76685431Y-87265528D02*
X76878381Y-87096621D01*
X76901616Y-86841240D01*
X76983241Y-87310382D02*
X76878381Y-87096621D01*
X77112953Y-87055809D01*
X77012134Y-86309666D02*
X77224279Y-86417759D01*
X77031328Y-86586666D02*
X77224279Y-86417759D01*
X77247514Y-86162377D01*
X77329139Y-86631520D02*
X77224279Y-86417759D01*
X77458850Y-86376947D01*
X78426476Y-85974007D02*
X77845301Y-85963781D01*
X78090598Y-86436302D02*
X77281581Y-85848517D01*
X77505500Y-85540320D01*
X77600004Y-85491260D01*
X77666518Y-85480726D01*
X77771557Y-85498181D01*
X77887131Y-85582150D01*
X77936191Y-85676654D01*
X77946725Y-85743168D01*
X77929270Y-85848207D01*
X77705352Y-86156404D01*
X78254613Y-85319398D02*
X78450541Y-85049725D01*
X78958281Y-85242039D02*
X78678384Y-85627285D01*
X77869367Y-85039500D01*
X78149264Y-84654254D01*
X78982347Y-84317758D02*
X78786419Y-84587430D01*
X79210189Y-84895317D02*
X78401172Y-84307532D01*
X78681070Y-83922286D01*
X78988958Y-83498515D02*
X79181581Y-83638464D01*
X78964583Y-83775108D02*
X79181581Y-83638464D01*
X79244480Y-83389861D01*
X79251710Y-83865997D02*
X79181581Y-83638464D01*
X79419649Y-83634849D01*
X79436794Y-82882121D02*
X79629417Y-83022070D01*
X79412419Y-83158714D02*
X79629417Y-83022070D01*
X79692317Y-82773467D01*
X79699546Y-83249603D02*
X79629417Y-83022070D01*
X79867485Y-83018455D01*
X90790924Y-75972134D02*
X90326754Y-75622256D01*
X90247463Y-76148715D02*
X89938446Y-75197659D01*
X90300753Y-75079938D01*
X90406045Y-75095796D01*
X90466048Y-75126369D01*
X90540767Y-75202231D01*
X90584912Y-75338096D01*
X90569054Y-75443388D01*
X90538481Y-75503392D01*
X90462619Y-75578110D01*
X90100312Y-75695831D01*
X91036653Y-75341526D02*
X91353672Y-75238520D01*
X91651403Y-75692547D02*
X91198519Y-75839698D01*
X90889502Y-74888642D01*
X91342386Y-74741491D01*
X92214152Y-74958933D02*
X91897133Y-75061939D01*
X92058999Y-75560111D02*
X91749982Y-74609055D01*
X92202866Y-74461904D01*
X92701038Y-74300038D02*
X92774614Y-74526480D01*
X92518742Y-74509479D02*
X92774614Y-74526480D01*
X92971626Y-74362328D01*
X92697609Y-74751779D02*
X92774614Y-74526480D01*
X92969339Y-74663488D01*
X93425653Y-74064596D02*
X93499228Y-74291038D01*
X93243356Y-74274037D02*
X93499228Y-74291038D01*
X93696240Y-74126886D01*
X93422224Y-74516337D02*
X93499228Y-74291038D01*
X93693954Y-74428047D01*
X94663089Y-74827340D02*
X94259367Y-74409157D01*
X94098695Y-74916731D02*
X93942261Y-73929043D01*
X94318523Y-73869449D01*
X94420038Y-73901583D01*
X94474520Y-73941167D01*
X94536451Y-74027783D01*
X94558799Y-74168881D01*
X94526665Y-74270396D01*
X94487081Y-74324878D01*
X94400465Y-74386809D01*
X94024203Y-74446404D01*
X95004442Y-74242936D02*
X95333671Y-74190791D01*
X95556711Y-74685804D02*
X95086384Y-74760297D01*
X94929949Y-73772608D01*
X95400277Y-73698116D01*
X96227294Y-74049256D02*
X95898065Y-74101400D01*
X95980006Y-74618761D02*
X95823572Y-73631073D01*
X96293900Y-73556580D01*
X96811260Y-73474638D02*
X96848507Y-73709802D01*
X96598444Y-73652983D02*
X96848507Y-73709802D01*
X97068772Y-73578490D01*
X96737205Y-73920281D02*
X96848507Y-73709802D01*
X97019402Y-73875585D01*
X97563785Y-73355450D02*
X97601031Y-73590614D01*
X97350969Y-73533795D02*
X97601031Y-73590614D01*
X97821296Y-73459302D01*
X97489730Y-73801093D02*
X97601031Y-73590614D01*
X97771926Y-73756397D01*
X100732932Y-80270915D02*
X100451200Y-79762490D01*
X100164633Y-80211184D02*
X100269162Y-79216663D01*
X100648027Y-79256483D01*
X100737766Y-79313796D01*
X100780147Y-79366132D01*
X100817550Y-79465826D01*
X100802617Y-79607900D01*
X100745304Y-79697639D01*
X100692968Y-79740020D01*
X100593274Y-79777423D01*
X100214409Y-79737603D01*
X101213908Y-79794773D02*
X101545416Y-79829616D01*
X101632737Y-80365488D02*
X101159155Y-80315713D01*
X101263684Y-79321191D01*
X101737266Y-79370966D01*
X102445221Y-79924189D02*
X102113714Y-79889346D01*
X102058961Y-80410286D02*
X102163489Y-79415764D01*
X102637071Y-79465540D01*
X103158011Y-79520293D02*
X103133123Y-79757084D01*
X102906288Y-79637480D02*
X103133123Y-79757084D01*
X103379869Y-79687255D01*
X102971139Y-79931584D02*
X103133123Y-79757084D01*
X103255288Y-79961449D01*
X103915742Y-79599934D02*
X103890854Y-79836724D01*
X103664019Y-79717120D02*
X103890854Y-79836724D01*
X104137600Y-79766896D01*
X103728870Y-80011225D02*
X103890854Y-79836724D01*
X104013019Y-80041090D01*
X104818823Y-80854428D02*
X104648955Y-80298538D01*
X104275362Y-80677847D02*
X104584379Y-79726790D01*
X104946686Y-79844511D01*
X105022548Y-79919229D01*
X105053121Y-79979233D01*
X105068979Y-80084525D01*
X105024834Y-80220390D01*
X104950115Y-80296252D01*
X104890112Y-80326825D01*
X104784820Y-80342683D01*
X104422513Y-80224962D01*
X105388284Y-80488691D02*
X105705303Y-80591697D01*
X105679302Y-81134014D02*
X105226418Y-80986864D01*
X105535435Y-80035807D01*
X105988319Y-80182958D01*
X106565783Y-80871284D02*
X106248764Y-80768278D01*
X106086898Y-81266450D02*
X106395915Y-80315394D01*
X106848799Y-80462545D01*
X107346972Y-80624411D02*
X107273396Y-80850853D01*
X107076384Y-80686701D02*
X107273396Y-80850853D01*
X107529268Y-80833852D01*
X107078671Y-80987861D02*
X107273396Y-80850853D01*
X107350401Y-81076152D01*
X108071586Y-80859852D02*
X107998011Y-81086294D01*
X107800999Y-80922142D02*
X107998011Y-81086294D01*
X108253883Y-81069293D01*
X107803285Y-81223303D02*
X107998011Y-81086294D01*
X108075015Y-81311593D01*
X108694108Y-82274694D02*
X108643529Y-81695635D01*
X108199237Y-81988980D02*
X108699237Y-81122955D01*
X109029151Y-81313431D01*
X109087820Y-81402289D01*
X109105250Y-81467338D01*
X109098870Y-81573626D01*
X109027442Y-81697344D01*
X108938583Y-81756013D01*
X108873535Y-81773443D01*
X108767247Y-81767063D01*
X108437332Y-81576587D01*
X109327167Y-82035348D02*
X109615842Y-82202014D01*
X109477655Y-82727075D02*
X109065262Y-82488980D01*
X109565262Y-81622955D01*
X109977655Y-81861050D01*
X110399389Y-82654395D02*
X110110714Y-82487729D01*
X109848809Y-82941361D02*
X110348809Y-82075335D01*
X110761202Y-82313431D01*
X111214834Y-82575335D02*
X111095787Y-82781532D01*
X110937209Y-82580006D02*
X111095787Y-82781532D01*
X111349602Y-82818101D01*
X110876831Y-82875061D02*
X111095787Y-82781532D01*
X111124267Y-83017918D01*
X111874663Y-82956288D02*
X111755616Y-83162484D01*
X111597038Y-82960958D02*
X111755616Y-83162484D01*
X112009431Y-83199053D01*
X111536660Y-83256013D02*
X111755616Y-83162484D01*
X111784096Y-83398870D01*
X112189420Y-84469641D02*
X112260338Y-83892719D01*
X111764766Y-84087281D02*
X112433896Y-83344136D01*
X112716999Y-83599043D01*
X112755911Y-83698157D01*
X112759436Y-83765408D01*
X112731097Y-83868047D01*
X112635507Y-83974211D01*
X112536392Y-84013123D01*
X112469141Y-84016648D01*
X112366502Y-83988309D01*
X112083399Y-83733402D01*
X112858407Y-84367145D02*
X113106122Y-84590188D01*
X112861789Y-85075045D02*
X112507910Y-84756411D01*
X113177041Y-84013266D01*
X113530920Y-84331900D01*
X113778491Y-85195592D02*
X113530777Y-84972549D01*
X113180280Y-85361815D02*
X113849410Y-84618670D01*
X114203289Y-84937304D01*
X114592555Y-85287801D02*
X114433238Y-85464740D01*
X114320026Y-85234648D02*
X114433238Y-85464740D01*
X114673904Y-85553281D01*
X114199621Y-85510701D02*
X114433238Y-85464740D01*
X114411948Y-85701882D01*
X115158761Y-85797615D02*
X114999444Y-85974554D01*
X114886231Y-85744461D02*
X114999444Y-85974554D01*
X115240110Y-86063095D01*
X114765827Y-86020515D02*
X114999444Y-85974554D01*
X114978154Y-86211695D01*
X115151994Y-87343339D02*
X115341312Y-86793769D01*
X114816117Y-86881044D02*
X115625134Y-86293258D01*
X115849052Y-86601455D01*
X115866507Y-86706494D01*
X115855972Y-86773009D01*
X115806912Y-86867513D01*
X115691339Y-86951482D01*
X115586300Y-86968937D01*
X115519785Y-86958402D01*
X115425281Y-86909343D01*
X115201363Y-86601146D01*
X115827673Y-87382173D02*
X116023601Y-87651845D01*
X115683800Y-88075307D02*
X115403902Y-87690061D01*
X116212919Y-87102275D01*
X116492817Y-87487522D01*
X116555407Y-88383813D02*
X116359478Y-88114141D01*
X115935708Y-88422028D02*
X116744725Y-87834243D01*
X117024622Y-88219489D01*
X117332510Y-88643260D02*
X117139887Y-88783209D01*
X117076987Y-88534606D02*
X117139887Y-88783209D01*
X117356885Y-88919853D01*
X116901819Y-88779594D02*
X117139887Y-88783209D01*
X117069758Y-89010742D01*
X117780346Y-89259654D02*
X117587723Y-89399603D01*
X117524824Y-89151000D02*
X117587723Y-89399603D01*
X117804721Y-89536246D01*
X117349655Y-89395988D02*
X117587723Y-89399603D01*
X117517594Y-89627136D01*
X117452354Y-90770196D02*
X117751797Y-90271997D01*
X117219933Y-90248170D02*
X118133479Y-89841433D01*
X118288426Y-90189450D01*
X118283661Y-90295823D01*
X118259527Y-90358694D01*
X118191891Y-90440933D01*
X118061385Y-90499038D01*
X117955012Y-90494273D01*
X117892141Y-90470139D01*
X117809902Y-90402503D01*
X117654955Y-90054486D01*
X118105194Y-90948663D02*
X118240773Y-91253178D01*
X117820354Y-91596737D02*
X117626670Y-91161715D01*
X118540216Y-90754979D01*
X118733900Y-91190000D01*
X118608773Y-92079719D02*
X118473194Y-91775204D01*
X117994670Y-91988256D02*
X118908215Y-91581520D01*
X119101900Y-92016541D01*
X119314952Y-92495065D02*
X119097441Y-92591907D01*
X119087603Y-92335660D02*
X119097441Y-92591907D01*
X119281288Y-92770681D01*
X118865327Y-92538874D02*
X119097441Y-92591907D01*
X118981538Y-92799887D01*
X119624847Y-93191100D02*
X119407336Y-93287942D01*
X119397498Y-93031694D02*
X119407336Y-93287942D01*
X119591182Y-93466716D01*
X119175222Y-93234909D02*
X119407336Y-93287942D01*
X119291432Y-93495922D01*
X118989964Y-94600437D02*
X119386444Y-94175382D01*
X118871157Y-94041496D02*
X119849304Y-93833584D01*
X119928509Y-94206211D01*
X119901732Y-94309269D01*
X119865054Y-94365748D01*
X119781797Y-94432128D01*
X119642062Y-94461829D01*
X119539004Y-94435052D01*
X119482525Y-94398374D01*
X119416146Y-94315118D01*
X119336941Y-93942490D01*
X119591432Y-94910737D02*
X119660736Y-95236786D01*
X119178074Y-95485428D02*
X119079069Y-95019643D01*
X120057216Y-94811731D01*
X120156222Y-95277516D01*
X119848846Y-96121777D02*
X119779542Y-95795728D01*
X119267179Y-95904634D02*
X120245327Y-95696722D01*
X120344332Y-96162507D01*
X120453238Y-96674870D02*
X120220346Y-96724372D01*
X120264000Y-96471679D02*
X120220346Y-96724372D01*
X120363006Y-96937464D01*
X120004331Y-96624239D02*
X120220346Y-96724372D01*
X120063734Y-96903710D01*
X120611647Y-97420125D02*
X120378755Y-97469628D01*
X120422409Y-97216934D02*
X120378755Y-97469628D01*
X120521415Y-97682719D01*
X120162740Y-97369495D02*
X120378755Y-97469628D01*
X120222143Y-97648965D01*
X120602380Y-101333333D02*
X120126190Y-101666666D01*
X120602380Y-101904761D02*
X119602380Y-101904761D01*
X119602380Y-101523809D01*
X119650000Y-101428571D01*
X119697619Y-101380952D01*
X119792857Y-101333333D01*
X119935714Y-101333333D01*
X120030952Y-101380952D01*
X120078571Y-101428571D01*
X120126190Y-101523809D01*
X120126190Y-101904761D01*
X120078571Y-100904761D02*
X120078571Y-100571428D01*
X120602380Y-100428571D02*
X120602380Y-100904761D01*
X119602380Y-100904761D01*
X119602380Y-100428571D01*
X120078571Y-99666666D02*
X120078571Y-100000000D01*
X120602380Y-100000000D02*
X119602380Y-100000000D01*
X119602380Y-99523809D01*
X119602380Y-99000000D02*
X119840476Y-99000000D01*
X119745238Y-99238095D02*
X119840476Y-99000000D01*
X119745238Y-98761904D01*
X120030952Y-99142857D02*
X119840476Y-99000000D01*
X120030952Y-98857142D01*
X119602380Y-98238095D02*
X119840476Y-98238095D01*
X119745238Y-98476190D02*
X119840476Y-98238095D01*
X119745238Y-98000000D01*
X120030952Y-98380952D02*
X119840476Y-98238095D01*
X120030952Y-98095238D01*
X119874954Y-105587672D02*
X119339866Y-105814715D01*
X119756148Y-106146613D02*
X118778000Y-105938701D01*
X118857204Y-105566074D01*
X118923584Y-105482817D01*
X118980063Y-105446139D01*
X119083120Y-105419362D01*
X119222856Y-105449064D01*
X119306112Y-105515443D01*
X119342790Y-105571922D01*
X119369567Y-105674980D01*
X119290363Y-106047608D01*
X119451696Y-105059559D02*
X119521000Y-104733510D01*
X120063065Y-104702681D02*
X119964059Y-105168465D01*
X118985912Y-104960554D01*
X119084917Y-104494769D01*
X119709111Y-103848519D02*
X119639807Y-104174569D01*
X120152170Y-104283475D02*
X119174022Y-104075563D01*
X119273028Y-103609779D01*
X119381934Y-103097415D02*
X119614826Y-103146918D01*
X119472167Y-103360009D02*
X119614826Y-103146918D01*
X119571172Y-102894225D01*
X119771438Y-103326256D02*
X119614826Y-103146918D01*
X119830842Y-103046785D01*
X119540343Y-102352160D02*
X119773235Y-102401663D01*
X119630575Y-102614754D02*
X119773235Y-102401663D01*
X119729581Y-102148970D01*
X119929847Y-102581001D02*
X119773235Y-102401663D01*
X119989251Y-102301530D01*
X118278896Y-109597802D02*
X117708295Y-109708633D01*
X118046475Y-110119828D02*
X117132929Y-109713091D01*
X117287876Y-109365074D01*
X117370115Y-109297438D01*
X117432986Y-109273304D01*
X117539359Y-109268539D01*
X117669865Y-109326644D01*
X117737501Y-109408883D01*
X117761635Y-109471754D01*
X117766400Y-109578127D01*
X117611453Y-109926144D01*
X117974687Y-108993230D02*
X118110266Y-108688715D01*
X118646895Y-108771261D02*
X118453211Y-109206283D01*
X117539666Y-108799546D01*
X117733350Y-108364524D01*
X118478266Y-107862174D02*
X118342687Y-108166689D01*
X118821211Y-108379741D02*
X117907666Y-107973005D01*
X118101350Y-107537983D01*
X118314402Y-107059459D02*
X118531913Y-107156301D01*
X118348067Y-107335075D02*
X118531913Y-107156301D01*
X118541751Y-106900054D01*
X118647816Y-107364282D02*
X118531913Y-107156301D01*
X118764027Y-107103269D01*
X118624297Y-106363425D02*
X118841808Y-106460267D01*
X118657961Y-106639041D02*
X118841808Y-106460267D01*
X118851645Y-106204019D01*
X118957711Y-106668247D02*
X118841808Y-106460267D01*
X119073922Y-106407234D01*
X115883963Y-113188465D02*
X115302788Y-113178239D01*
X115548085Y-113650760D02*
X114739068Y-113062975D01*
X114962987Y-112754778D01*
X115057491Y-112705718D01*
X115124005Y-112695184D01*
X115229044Y-112712639D01*
X115344618Y-112796608D01*
X115393678Y-112891112D01*
X115404212Y-112957626D01*
X115386757Y-113062665D01*
X115162839Y-113370862D01*
X115712100Y-112533856D02*
X115908028Y-112264183D01*
X116415768Y-112456497D02*
X116135871Y-112841743D01*
X115326854Y-112253958D01*
X115606751Y-111868712D01*
X116439834Y-111532216D02*
X116243906Y-111801888D01*
X116667676Y-112109775D02*
X115858659Y-111521990D01*
X116138557Y-111136744D01*
X116446445Y-110712973D02*
X116639068Y-110852922D01*
X116422070Y-110989566D02*
X116639068Y-110852922D01*
X116701967Y-110604319D01*
X116709197Y-111080455D02*
X116639068Y-110852922D01*
X116877136Y-110849307D01*
X116894281Y-110096579D02*
X117086904Y-110236528D01*
X116869906Y-110373172D02*
X117086904Y-110236528D01*
X117149804Y-109987925D01*
X117157033Y-110464061D02*
X117086904Y-110236528D01*
X117324972Y-110232913D01*
X112794825Y-116202726D02*
X112228476Y-116071891D01*
X112370170Y-116585087D02*
X111701040Y-115841942D01*
X111984143Y-115587035D01*
X112086782Y-115558696D01*
X112154033Y-115562220D01*
X112253148Y-115601133D01*
X112348738Y-115707296D01*
X112377076Y-115809935D01*
X112373552Y-115877187D01*
X112334640Y-115976301D01*
X112051537Y-116231208D01*
X112762818Y-115526690D02*
X113010533Y-115303646D01*
X113467194Y-115597322D02*
X113113315Y-115915956D01*
X112444185Y-115172811D01*
X112798063Y-114854177D01*
X113682902Y-114698242D02*
X113435187Y-114921286D01*
X113785684Y-115310552D02*
X113116554Y-114567407D01*
X113470432Y-114248774D01*
X113859699Y-113898277D02*
X114019015Y-114075216D01*
X113778350Y-114163757D02*
X114019015Y-114075216D01*
X114132228Y-113845123D01*
X114040305Y-114312357D02*
X114019015Y-114075216D01*
X114252632Y-114121177D01*
X114425904Y-113388463D02*
X114585221Y-113565402D01*
X114344555Y-113653943D02*
X114585221Y-113565402D01*
X114698434Y-113335310D01*
X114606511Y-113802544D02*
X114585221Y-113565402D01*
X114818838Y-113611363D01*
X109146489Y-118508852D02*
X108619719Y-118263125D01*
X108651618Y-118794566D02*
X108151618Y-117928540D01*
X108481532Y-117738064D01*
X108587820Y-117731685D01*
X108652869Y-117749114D01*
X108741728Y-117807783D01*
X108813156Y-117931501D01*
X108819536Y-118037789D01*
X108802106Y-118102838D01*
X108743437Y-118191697D01*
X108413523Y-118382173D01*
X109255738Y-117840933D02*
X109544414Y-117674267D01*
X109930036Y-118056471D02*
X109517643Y-118294566D01*
X109017643Y-117428540D01*
X109430036Y-117190445D01*
X110327960Y-117221886D02*
X110039285Y-117388553D01*
X110301190Y-117842185D02*
X109801190Y-116976159D01*
X110213583Y-116738064D01*
X110667215Y-116476159D02*
X110786263Y-116682356D01*
X110532447Y-116718925D02*
X110786263Y-116682356D01*
X110944840Y-116480830D01*
X110757783Y-116918742D02*
X110786263Y-116682356D01*
X111005219Y-116775885D01*
X111327044Y-116095207D02*
X111446092Y-116301404D01*
X111192276Y-116337973D02*
X111446092Y-116301404D01*
X111604669Y-116099877D01*
X111417612Y-116537789D02*
X111446092Y-116301404D01*
X111665048Y-116394932D01*
X105098411Y-120006050D02*
X104634241Y-119656172D01*
X104554950Y-120182631D02*
X104245933Y-119231575D01*
X104608240Y-119113854D01*
X104713532Y-119129712D01*
X104773535Y-119160285D01*
X104848254Y-119236147D01*
X104892399Y-119372012D01*
X104876541Y-119477304D01*
X104845968Y-119537308D01*
X104770106Y-119612026D01*
X104407799Y-119729747D01*
X105344140Y-119375442D02*
X105661159Y-119272436D01*
X105958890Y-119726463D02*
X105506006Y-119873614D01*
X105196989Y-118922558D01*
X105649873Y-118775407D01*
X106521639Y-118992849D02*
X106204620Y-119095855D01*
X106366486Y-119594027D02*
X106057469Y-118642971D01*
X106510353Y-118495820D01*
X107008525Y-118333954D02*
X107082101Y-118560396D01*
X106826229Y-118543395D02*
X107082101Y-118560396D01*
X107279113Y-118396244D01*
X107005096Y-118785695D02*
X107082101Y-118560396D01*
X107276826Y-118697404D01*
X107733140Y-118098512D02*
X107806715Y-118324954D01*
X107550843Y-118307953D02*
X107806715Y-118324954D01*
X108003727Y-118160802D01*
X107729711Y-118550253D02*
X107806715Y-118324954D01*
X108001441Y-118461963D01*
X100827506Y-120628890D02*
X100446223Y-120190151D01*
X100259208Y-120688620D02*
X100154679Y-119694098D01*
X100533545Y-119654278D01*
X100633239Y-119691681D01*
X100685574Y-119734062D01*
X100742888Y-119823800D01*
X100757820Y-119965875D01*
X100720417Y-120065569D01*
X100678037Y-120117905D01*
X100588298Y-120175218D01*
X100209432Y-120215038D01*
X101198977Y-120063152D02*
X101530484Y-120028309D01*
X101727312Y-120534316D02*
X101253730Y-120584092D01*
X101149201Y-119589570D01*
X101622783Y-119539794D01*
X102430289Y-119933735D02*
X102098782Y-119968578D01*
X102153535Y-120489518D02*
X102049007Y-119494996D01*
X102522589Y-119445221D01*
X103043529Y-119390468D02*
X103068416Y-119627259D01*
X102821670Y-119557430D02*
X103068416Y-119627259D01*
X103295252Y-119507655D01*
X102946252Y-119831624D02*
X103068416Y-119627259D01*
X103230401Y-119801759D01*
X103801260Y-119310827D02*
X103826147Y-119547618D01*
X103579401Y-119477789D02*
X103826147Y-119547618D01*
X104052983Y-119428014D01*
X103703983Y-119751983D02*
X103826147Y-119547618D01*
X103988132Y-119722118D01*
X96520436Y-120350147D02*
X96238704Y-119841722D01*
X95952137Y-120290416D02*
X96056666Y-119295895D01*
X96435531Y-119335715D01*
X96525270Y-119393028D01*
X96567651Y-119445364D01*
X96605054Y-119545058D01*
X96590121Y-119687132D01*
X96532808Y-119776871D01*
X96480472Y-119819252D01*
X96380778Y-119856655D01*
X96001913Y-119816835D01*
X97001412Y-119874005D02*
X97332920Y-119908848D01*
X97420241Y-120444720D02*
X96946659Y-120394945D01*
X97051188Y-119400423D01*
X97524770Y-119450198D01*
X98232725Y-120003421D02*
X97901218Y-119968578D01*
X97846465Y-120489518D02*
X97950993Y-119494996D01*
X98424575Y-119544772D01*
X98945515Y-119599525D02*
X98920627Y-119836316D01*
X98693792Y-119716712D02*
X98920627Y-119836316D01*
X99167373Y-119766487D01*
X98758643Y-120010816D02*
X98920627Y-119836316D01*
X99042792Y-120040681D01*
X99703246Y-119679166D02*
X99678358Y-119915956D01*
X99451523Y-119796352D02*
X99678358Y-119915956D01*
X99925104Y-119846128D01*
X99516374Y-120090457D02*
X99678358Y-119915956D01*
X99800523Y-120120322D01*
X92365439Y-119182006D02*
X92195571Y-118626116D01*
X91821978Y-119005425D02*
X92130995Y-118054368D01*
X92493302Y-118172089D01*
X92569164Y-118246807D01*
X92599737Y-118306811D01*
X92615595Y-118412103D01*
X92571450Y-118547968D01*
X92496731Y-118623830D01*
X92436728Y-118654403D01*
X92331436Y-118670261D01*
X91969129Y-118552540D01*
X92934900Y-118816269D02*
X93251919Y-118919275D01*
X93225918Y-119461592D02*
X92773034Y-119314442D01*
X93082051Y-118363385D01*
X93534935Y-118510536D01*
X94112399Y-119198862D02*
X93795380Y-119095856D01*
X93633514Y-119594028D02*
X93942531Y-118642972D01*
X94395415Y-118790123D01*
X94893588Y-118951989D02*
X94820012Y-119178431D01*
X94623000Y-119014279D02*
X94820012Y-119178431D01*
X95075884Y-119161430D01*
X94625287Y-119315439D02*
X94820012Y-119178431D01*
X94897017Y-119403730D01*
X95618202Y-119187430D02*
X95544627Y-119413872D01*
X95347615Y-119249720D02*
X95544627Y-119413872D01*
X95800499Y-119396871D01*
X95349901Y-119550881D02*
X95544627Y-119413872D01*
X95621631Y-119639171D01*
X88544108Y-117175518D02*
X88493529Y-116596459D01*
X88049237Y-116889804D02*
X88549237Y-116023779D01*
X88879151Y-116214255D01*
X88937820Y-116303113D01*
X88955250Y-116368162D01*
X88948870Y-116474450D01*
X88877442Y-116598168D01*
X88788583Y-116656837D01*
X88723535Y-116674267D01*
X88617247Y-116667887D01*
X88287332Y-116477411D01*
X89177167Y-116936172D02*
X89465842Y-117102838D01*
X89327655Y-117627899D02*
X88915262Y-117389804D01*
X89415262Y-116523779D01*
X89827655Y-116761874D01*
X90249389Y-117555219D02*
X89960714Y-117388553D01*
X89698809Y-117842185D02*
X90198809Y-116976159D01*
X90611202Y-117214255D01*
X91064834Y-117476159D02*
X90945787Y-117682356D01*
X90787209Y-117480830D02*
X90945787Y-117682356D01*
X91199602Y-117718925D01*
X90726831Y-117775885D02*
X90945787Y-117682356D01*
X90974267Y-117918742D01*
X91724663Y-117857112D02*
X91605616Y-118063308D01*
X91447038Y-117861782D02*
X91605616Y-118063308D01*
X91859431Y-118099877D01*
X91386660Y-118156837D02*
X91605616Y-118063308D01*
X91634096Y-118299694D01*
X85223456Y-114418379D02*
X85294374Y-113841457D01*
X84798802Y-114036019D02*
X85467932Y-113292874D01*
X85751035Y-113547781D01*
X85789947Y-113646895D01*
X85793472Y-113714146D01*
X85765133Y-113816785D01*
X85669543Y-113922949D01*
X85570428Y-113961861D01*
X85503177Y-113965386D01*
X85400538Y-113937047D01*
X85117435Y-113682140D01*
X85892443Y-114315883D02*
X86140158Y-114538926D01*
X85895825Y-115023783D02*
X85541946Y-114705149D01*
X86211077Y-113962004D01*
X86564956Y-114280638D01*
X86812527Y-115144330D02*
X86564813Y-114921287D01*
X86214316Y-115310553D02*
X86883446Y-114567408D01*
X87237325Y-114886042D01*
X87626591Y-115236539D02*
X87467274Y-115413478D01*
X87354062Y-115183386D02*
X87467274Y-115413478D01*
X87707940Y-115502019D01*
X87233657Y-115459439D02*
X87467274Y-115413478D01*
X87445984Y-115650620D01*
X88192797Y-115746353D02*
X88033480Y-115923292D01*
X87920267Y-115693199D02*
X88033480Y-115923292D01*
X88274146Y-116011833D01*
X87799863Y-115969253D02*
X88033480Y-115923292D01*
X88012190Y-116160433D01*
X82548610Y-111031087D02*
X82737928Y-110481517D01*
X82212733Y-110568792D02*
X83021750Y-109981006D01*
X83245668Y-110289203D01*
X83263123Y-110394242D01*
X83252588Y-110460757D01*
X83203528Y-110555261D01*
X83087955Y-110639230D01*
X82982916Y-110656685D01*
X82916401Y-110646150D01*
X82821897Y-110597091D01*
X82597979Y-110288894D01*
X83224289Y-111069921D02*
X83420217Y-111339593D01*
X83080416Y-111763055D02*
X82800518Y-111377809D01*
X83609535Y-110790023D01*
X83889433Y-111175270D01*
X83952023Y-112071561D02*
X83756094Y-111801889D01*
X83332324Y-112109776D02*
X84141341Y-111521991D01*
X84421238Y-111907237D01*
X84729126Y-112331008D02*
X84536503Y-112470957D01*
X84473603Y-112222354D02*
X84536503Y-112470957D01*
X84753501Y-112607601D01*
X84298435Y-112467342D02*
X84536503Y-112470957D01*
X84466374Y-112698490D01*
X85176962Y-112947402D02*
X84984339Y-113087351D01*
X84921440Y-112838748D02*
X84984339Y-113087351D01*
X85201337Y-113223994D01*
X84746271Y-113083736D02*
X84984339Y-113087351D01*
X84914210Y-113314884D01*
X80636472Y-107161682D02*
X80935915Y-106663483D01*
X80404051Y-106639656D02*
X81317597Y-106232919D01*
X81472544Y-106580936D01*
X81467779Y-106687309D01*
X81443645Y-106750180D01*
X81376009Y-106832419D01*
X81245503Y-106890524D01*
X81139130Y-106885759D01*
X81076259Y-106861625D01*
X80994020Y-106793989D01*
X80839073Y-106445972D01*
X81289312Y-107340149D02*
X81424891Y-107644664D01*
X81004472Y-107988223D02*
X80810788Y-107553201D01*
X81724334Y-107146465D01*
X81918018Y-107581486D01*
X81792891Y-108471205D02*
X81657312Y-108166690D01*
X81178788Y-108379742D02*
X82092333Y-107973006D01*
X82286018Y-108408027D01*
X82499070Y-108886551D02*
X82281559Y-108983393D01*
X82271721Y-108727146D02*
X82281559Y-108983393D01*
X82465406Y-109162167D01*
X82049445Y-108930360D02*
X82281559Y-108983393D01*
X82165656Y-109191373D01*
X82808965Y-109582586D02*
X82591454Y-109679428D01*
X82581616Y-109423180D02*
X82591454Y-109679428D01*
X82775300Y-109858202D01*
X82359340Y-109626395D02*
X82591454Y-109679428D01*
X82475550Y-109887408D01*
X79570614Y-102979279D02*
X79967094Y-102554224D01*
X79451807Y-102420338D02*
X80429954Y-102212426D01*
X80509159Y-102585053D01*
X80482382Y-102688111D01*
X80445704Y-102744590D01*
X80362447Y-102810970D01*
X80222712Y-102840671D01*
X80119654Y-102813894D01*
X80063175Y-102777216D01*
X79996796Y-102693960D01*
X79917591Y-102321332D01*
X80172082Y-103289579D02*
X80241386Y-103615628D01*
X79758724Y-103864270D02*
X79659719Y-103398485D01*
X80637866Y-103190573D01*
X80736872Y-103656358D01*
X80429496Y-104500619D02*
X80360192Y-104174570D01*
X79847829Y-104283476D02*
X80825977Y-104075564D01*
X80924982Y-104541349D01*
X81033888Y-105053712D02*
X80800996Y-105103214D01*
X80844650Y-104850521D02*
X80800996Y-105103214D01*
X80943656Y-105316306D01*
X80584981Y-105003081D02*
X80800996Y-105103214D01*
X80644384Y-105282552D01*
X81192297Y-105798967D02*
X80959405Y-105848470D01*
X81003059Y-105595776D02*
X80959405Y-105848470D01*
X81102065Y-106061561D01*
X80743390Y-105748337D02*
X80959405Y-105848470D01*
X80802793Y-106027807D01*
X80302380Y-101333333D02*
X79826190Y-101666666D01*
X80302380Y-101904761D02*
X79302380Y-101904761D01*
X79302380Y-101523809D01*
X79350000Y-101428571D01*
X79397619Y-101380952D01*
X79492857Y-101333333D01*
X79635714Y-101333333D01*
X79730952Y-101380952D01*
X79778571Y-101428571D01*
X79826190Y-101523809D01*
X79826190Y-101904761D01*
X79778571Y-100904761D02*
X79778571Y-100571428D01*
X80302380Y-100428571D02*
X80302380Y-100904761D01*
X79302380Y-100904761D01*
X79302380Y-100428571D01*
X79778571Y-99666666D02*
X79778571Y-100000000D01*
X80302380Y-100000000D02*
X79302380Y-100000000D01*
X79302380Y-99523809D01*
X79302380Y-99000000D02*
X79540476Y-99000000D01*
X79445238Y-99238095D02*
X79540476Y-99000000D01*
X79445238Y-98761904D01*
X79730952Y-99142857D02*
X79540476Y-99000000D01*
X79730952Y-98857142D01*
X79302380Y-98238095D02*
X79540476Y-98238095D01*
X79445238Y-98476190D02*
X79540476Y-98238095D01*
X79445238Y-98000000D01*
X79730952Y-98380952D02*
X79540476Y-98238095D01*
X79730952Y-98095238D01*
X80455604Y-97208832D02*
X79920516Y-97435875D01*
X80336798Y-97767773D02*
X79358650Y-97559861D01*
X79437854Y-97187234D01*
X79504234Y-97103977D01*
X79560713Y-97067299D01*
X79663770Y-97040522D01*
X79803506Y-97070224D01*
X79886762Y-97136603D01*
X79923440Y-97193082D01*
X79950217Y-97296140D01*
X79871013Y-97668768D01*
X80032346Y-96680719D02*
X80101650Y-96354670D01*
X80643715Y-96323841D02*
X80544709Y-96789625D01*
X79566562Y-96581714D01*
X79665567Y-96115929D01*
X80289761Y-95469679D02*
X80220457Y-95795729D01*
X80732820Y-95904635D02*
X79754672Y-95696723D01*
X79853678Y-95230939D01*
X79962584Y-94718575D02*
X80195476Y-94768078D01*
X80052817Y-94981169D02*
X80195476Y-94768078D01*
X80151822Y-94515385D01*
X80352088Y-94947416D02*
X80195476Y-94768078D01*
X80411492Y-94667945D01*
X80120993Y-93973320D02*
X80353885Y-94022823D01*
X80211225Y-94235914D02*
X80353885Y-94022823D01*
X80310231Y-93770130D01*
X80510497Y-94202161D02*
X80353885Y-94022823D01*
X80569901Y-93922690D01*
X81463014Y-93206318D02*
X80892413Y-93317149D01*
X81230593Y-93728344D02*
X80317047Y-93321607D01*
X80471994Y-92973590D01*
X80554233Y-92905954D01*
X80617104Y-92881820D01*
X80723477Y-92877055D01*
X80853983Y-92935160D01*
X80921619Y-93017399D01*
X80945753Y-93080270D01*
X80950518Y-93186643D01*
X80795571Y-93534660D01*
X81158805Y-92601746D02*
X81294384Y-92297231D01*
X81831013Y-92379777D02*
X81637329Y-92814799D01*
X80723784Y-92408062D01*
X80917468Y-91973040D01*
X81662384Y-91470690D02*
X81526805Y-91775205D01*
X82005329Y-91988257D02*
X81091784Y-91581521D01*
X81285468Y-91146499D01*
X81498520Y-90667975D02*
X81716031Y-90764817D01*
X81532185Y-90943591D02*
X81716031Y-90764817D01*
X81725869Y-90508570D01*
X81831934Y-90972798D02*
X81716031Y-90764817D01*
X81948145Y-90711785D01*
X81808415Y-89971941D02*
X82025926Y-90068783D01*
X81842079Y-90247557D02*
X82025926Y-90068783D01*
X82035763Y-89812535D01*
X82141829Y-90276763D02*
X82025926Y-90068783D01*
X82258040Y-90015750D01*
X83280577Y-89500719D02*
X82699402Y-89490493D01*
X82944699Y-89963014D02*
X82135682Y-89375229D01*
X82359601Y-89067032D01*
X82454105Y-89017972D01*
X82520619Y-89007438D01*
X82625658Y-89024893D01*
X82741232Y-89108862D01*
X82790292Y-89203366D01*
X82800826Y-89269880D01*
X82783371Y-89374919D01*
X82559453Y-89683116D01*
X83108714Y-88846110D02*
X83304642Y-88576437D01*
X83812382Y-88768751D02*
X83532485Y-89153997D01*
X82723468Y-88566212D01*
X83003365Y-88180966D01*
X83836448Y-87844470D02*
X83640520Y-88114142D01*
X84064290Y-88422029D02*
X83255273Y-87834244D01*
X83535171Y-87448998D01*
X83843059Y-87025227D02*
X84035682Y-87165176D01*
X83818684Y-87301820D02*
X84035682Y-87165176D01*
X84098581Y-86916573D01*
X84105811Y-87392709D02*
X84035682Y-87165176D01*
X84273750Y-87161561D01*
X84290895Y-86408833D02*
X84483518Y-86548782D01*
X84266520Y-86685426D02*
X84483518Y-86548782D01*
X84546418Y-86300179D01*
X84553647Y-86776315D02*
X84483518Y-86548782D01*
X84721586Y-86545167D01*
X85828859Y-86253990D02*
X85262510Y-86123155D01*
X85404204Y-86636351D02*
X84735074Y-85893206D01*
X85018177Y-85638299D01*
X85120816Y-85609960D01*
X85188067Y-85613484D01*
X85287182Y-85652397D01*
X85382772Y-85758560D01*
X85411110Y-85861199D01*
X85407586Y-85928451D01*
X85368674Y-86027565D01*
X85085571Y-86282472D01*
X85796852Y-85577954D02*
X86044567Y-85354910D01*
X86501228Y-85648586D02*
X86147349Y-85967220D01*
X85478219Y-85224075D01*
X85832097Y-84905441D01*
X86716936Y-84749506D02*
X86469221Y-84972550D01*
X86819718Y-85361816D02*
X86150588Y-84618671D01*
X86504466Y-84300038D01*
X86893733Y-83949541D02*
X87053049Y-84126480D01*
X86812384Y-84215021D02*
X87053049Y-84126480D01*
X87166262Y-83896387D01*
X87074339Y-84363621D02*
X87053049Y-84126480D01*
X87286666Y-84172441D01*
X87459938Y-83439727D02*
X87619255Y-83616666D01*
X87378589Y-83705207D02*
X87619255Y-83616666D01*
X87732468Y-83386574D01*
X87640545Y-83853808D02*
X87619255Y-83616666D01*
X87852872Y-83662627D01*
X88996489Y-83608028D02*
X88469719Y-83362301D01*
X88501618Y-83893742D02*
X88001618Y-83027716D01*
X88331532Y-82837240D01*
X88437820Y-82830861D01*
X88502869Y-82848290D01*
X88591728Y-82906959D01*
X88663156Y-83030677D01*
X88669536Y-83136965D01*
X88652106Y-83202014D01*
X88593437Y-83290873D01*
X88263523Y-83481349D01*
X89105738Y-82940109D02*
X89394414Y-82773443D01*
X89780036Y-83155647D02*
X89367643Y-83393742D01*
X88867643Y-82527716D01*
X89280036Y-82289621D01*
X90177960Y-82321062D02*
X89889285Y-82487729D01*
X90151190Y-82941361D02*
X89651190Y-82075335D01*
X90063583Y-81837240D01*
X90517215Y-81575335D02*
X90636263Y-81781532D01*
X90382447Y-81818101D02*
X90636263Y-81781532D01*
X90794840Y-81580006D01*
X90607783Y-82017918D02*
X90636263Y-81781532D01*
X90855219Y-81875061D01*
X91177044Y-81194383D02*
X91296092Y-81400580D01*
X91042276Y-81437149D02*
X91296092Y-81400580D01*
X91454669Y-81199053D01*
X91267612Y-81636965D02*
X91296092Y-81400580D01*
X91515048Y-81494108D01*
X92645025Y-81678474D02*
X92180855Y-81328596D01*
X92101564Y-81855055D02*
X91792547Y-80903999D01*
X92154854Y-80786278D01*
X92260146Y-80802136D01*
X92320149Y-80832709D01*
X92394868Y-80908571D01*
X92439013Y-81044436D01*
X92423155Y-81149728D01*
X92392582Y-81209732D01*
X92316720Y-81284450D01*
X91954413Y-81402171D01*
X92890754Y-81047866D02*
X93207773Y-80944860D01*
X93505504Y-81398887D02*
X93052620Y-81546038D01*
X92743603Y-80594982D01*
X93196487Y-80447831D01*
X94068253Y-80665273D02*
X93751234Y-80768279D01*
X93913100Y-81266451D02*
X93604083Y-80315395D01*
X94056967Y-80168244D01*
X94555139Y-80006378D02*
X94628715Y-80232820D01*
X94372843Y-80215819D02*
X94628715Y-80232820D01*
X94825727Y-80068668D01*
X94551710Y-80458119D02*
X94628715Y-80232820D01*
X94823440Y-80369828D01*
X95279754Y-79770936D02*
X95353329Y-79997378D01*
X95097457Y-79980377D02*
X95353329Y-79997378D01*
X95550341Y-79833226D01*
X95276325Y-80222677D02*
X95353329Y-79997378D01*
X95548055Y-80134387D01*
X96615008Y-80549658D02*
X96233725Y-80110919D01*
X96046710Y-80609388D02*
X95942181Y-79614866D01*
X96321047Y-79575046D01*
X96420741Y-79612449D01*
X96473076Y-79654830D01*
X96530390Y-79744568D01*
X96545322Y-79886643D01*
X96507919Y-79986337D01*
X96465539Y-80038673D01*
X96375800Y-80095986D01*
X95996934Y-80135806D01*
X96986479Y-79983920D02*
X97317986Y-79949077D01*
X97514814Y-80455084D02*
X97041232Y-80504860D01*
X96936703Y-79510338D01*
X97410285Y-79460562D01*
X98217791Y-79854503D02*
X97886284Y-79889346D01*
X97941037Y-80410286D02*
X97836509Y-79415764D01*
X98310091Y-79365989D01*
X98831031Y-79311236D02*
X98855918Y-79548027D01*
X98609172Y-79478198D02*
X98855918Y-79548027D01*
X99082754Y-79428423D01*
X98733754Y-79752392D02*
X98855918Y-79548027D01*
X99017903Y-79722527D01*
X99588762Y-79231595D02*
X99613649Y-79468386D01*
X99366903Y-79398557D02*
X99613649Y-79468386D01*
X99840485Y-79348782D01*
X99491485Y-79672751D02*
X99613649Y-79468386D01*
X99775634Y-79642886D01*
X98666666Y-62302380D02*
X98333333Y-61826190D01*
X98095238Y-62302380D02*
X98095238Y-61302380D01*
X98476190Y-61302380D01*
X98571428Y-61350000D01*
X98619047Y-61397619D01*
X98666666Y-61492857D01*
X98666666Y-61635714D01*
X98619047Y-61730952D01*
X98571428Y-61778571D01*
X98476190Y-61826190D01*
X98095238Y-61826190D01*
X99095238Y-61778571D02*
X99428571Y-61778571D01*
X99571428Y-62302380D02*
X99095238Y-62302380D01*
X99095238Y-61302380D01*
X99571428Y-61302380D01*
X100333333Y-61778571D02*
X100000000Y-61778571D01*
X100000000Y-62302380D02*
X100000000Y-61302380D01*
X100476190Y-61302380D01*
X101000000Y-61302380D02*
X101000000Y-61540476D01*
X100761904Y-61445238D02*
X101000000Y-61540476D01*
X101238095Y-61445238D01*
X100857142Y-61730952D02*
X101000000Y-61540476D01*
X101142857Y-61730952D01*
X101761904Y-61302380D02*
X101761904Y-61540476D01*
X101523809Y-61445238D02*
X101761904Y-61540476D01*
X102000000Y-61445238D01*
X101619047Y-61730952D02*
X101761904Y-61540476D01*
X101904761Y-61730952D01*
X98666666Y-50302380D02*
X98333333Y-49826190D01*
X98095238Y-50302380D02*
X98095238Y-49302380D01*
X98476190Y-49302380D01*
X98571428Y-49350000D01*
X98619047Y-49397619D01*
X98666666Y-49492857D01*
X98666666Y-49635714D01*
X98619047Y-49730952D01*
X98571428Y-49778571D01*
X98476190Y-49826190D01*
X98095238Y-49826190D01*
X99095238Y-49778571D02*
X99428571Y-49778571D01*
X99571428Y-50302380D02*
X99095238Y-50302380D01*
X99095238Y-49302380D01*
X99571428Y-49302380D01*
X100333333Y-49778571D02*
X100000000Y-49778571D01*
X100000000Y-50302380D02*
X100000000Y-49302380D01*
X100476190Y-49302380D01*
X101000000Y-49302380D02*
X101000000Y-49540476D01*
X100761904Y-49445238D02*
X101000000Y-49540476D01*
X101238095Y-49445238D01*
X100857142Y-49730952D02*
X101000000Y-49540476D01*
X101142857Y-49730952D01*
X101761904Y-49302380D02*
X101761904Y-49540476D01*
X101523809Y-49445238D02*
X101761904Y-49540476D01*
X102000000Y-49445238D01*
X101619047Y-49730952D02*
X101761904Y-49540476D01*
X101904761Y-49730952D01*
X98666666Y-94202380D02*
X98333333Y-93726190D01*
X98095238Y-94202380D02*
X98095238Y-93202380D01*
X98476190Y-93202380D01*
X98571428Y-93250000D01*
X98619047Y-93297619D01*
X98666666Y-93392857D01*
X98666666Y-93535714D01*
X98619047Y-93630952D01*
X98571428Y-93678571D01*
X98476190Y-93726190D01*
X98095238Y-93726190D01*
X99095238Y-93678571D02*
X99428571Y-93678571D01*
X99571428Y-94202380D02*
X99095238Y-94202380D01*
X99095238Y-93202380D01*
X99571428Y-93202380D01*
X100333333Y-93678571D02*
X100000000Y-93678571D01*
X100000000Y-94202380D02*
X100000000Y-93202380D01*
X100476190Y-93202380D01*
X101000000Y-93202380D02*
X101000000Y-93440476D01*
X100761904Y-93345238D02*
X101000000Y-93440476D01*
X101238095Y-93345238D01*
X100857142Y-93630952D02*
X101000000Y-93440476D01*
X101142857Y-93630952D01*
X101761904Y-93202380D02*
X101761904Y-93440476D01*
X101523809Y-93345238D02*
X101761904Y-93440476D01*
X102000000Y-93345238D01*
X101619047Y-93630952D02*
X101761904Y-93440476D01*
X101904761Y-93630952D01*
X98666666Y-74302380D02*
X98333333Y-73826190D01*
X98095238Y-74302380D02*
X98095238Y-73302380D01*
X98476190Y-73302380D01*
X98571428Y-73350000D01*
X98619047Y-73397619D01*
X98666666Y-73492857D01*
X98666666Y-73635714D01*
X98619047Y-73730952D01*
X98571428Y-73778571D01*
X98476190Y-73826190D01*
X98095238Y-73826190D01*
X99095238Y-73778571D02*
X99428571Y-73778571D01*
X99571428Y-74302380D02*
X99095238Y-74302380D01*
X99095238Y-73302380D01*
X99571428Y-73302380D01*
X100333333Y-73778571D02*
X100000000Y-73778571D01*
X100000000Y-74302380D02*
X100000000Y-73302380D01*
X100476190Y-73302380D01*
X101000000Y-73302380D02*
X101000000Y-73540476D01*
X100761904Y-73445238D02*
X101000000Y-73540476D01*
X101238095Y-73445238D01*
X100857142Y-73730952D02*
X101000000Y-73540476D01*
X101142857Y-73730952D01*
X101761904Y-73302380D02*
X101761904Y-73540476D01*
X101523809Y-73445238D02*
X101761904Y-73540476D01*
X102000000Y-73445238D01*
X101619047Y-73730952D02*
X101761904Y-73540476D01*
X101904761Y-73730952D01*
X75148089Y-93327074D02*
X74592199Y-93496942D01*
X74971508Y-93870535D02*
X74020451Y-93561518D01*
X74138172Y-93199211D01*
X74212890Y-93123349D01*
X74272894Y-93092776D01*
X74378186Y-93076918D01*
X74514051Y-93121063D01*
X74589913Y-93195782D01*
X74620486Y-93255785D01*
X74636344Y-93361077D01*
X74518623Y-93723384D01*
X74782352Y-92757613D02*
X74885358Y-92440594D01*
X75427675Y-92466595D02*
X75280525Y-92919479D01*
X74329468Y-92610462D01*
X74476619Y-92157578D01*
X75164945Y-91580114D02*
X75061939Y-91897133D01*
X75560111Y-92058999D02*
X74609055Y-91749982D01*
X74756206Y-91297098D01*
X74918072Y-90798925D02*
X75144514Y-90872501D01*
X74980362Y-91069513D02*
X75144514Y-90872501D01*
X75127513Y-90616629D01*
X75281522Y-91067226D02*
X75144514Y-90872501D01*
X75369813Y-90795496D01*
X75153513Y-90074311D02*
X75379955Y-90147886D01*
X75215803Y-90344898D02*
X75379955Y-90147886D01*
X75362954Y-89892014D01*
X75516964Y-90342612D02*
X75379955Y-90147886D01*
X75605254Y-90070882D01*
X124027865Y-90790924D02*
X124377743Y-90326754D01*
X123851284Y-90247463D02*
X124802340Y-89938446D01*
X124920061Y-90300753D01*
X124904203Y-90406045D01*
X124873630Y-90466048D01*
X124797768Y-90540767D01*
X124661903Y-90584912D01*
X124556611Y-90569054D01*
X124496607Y-90538481D01*
X124421889Y-90462619D01*
X124304168Y-90100312D01*
X124658473Y-91036653D02*
X124761479Y-91353672D01*
X124307452Y-91651403D02*
X124160301Y-91198519D01*
X125111357Y-90889502D01*
X125258508Y-91342386D01*
X125041066Y-92214152D02*
X124938060Y-91897133D01*
X124439888Y-92058999D02*
X125390944Y-91749982D01*
X125538095Y-92202866D01*
X125699961Y-92701038D02*
X125473519Y-92774614D01*
X125490520Y-92518742D02*
X125473519Y-92774614D01*
X125637671Y-92971626D01*
X125248220Y-92697609D02*
X125473519Y-92774614D01*
X125336511Y-92969339D01*
X125935403Y-93425653D02*
X125708961Y-93499228D01*
X125725962Y-93243356D02*
X125708961Y-93499228D01*
X125873113Y-93696240D01*
X125483662Y-93422224D02*
X125708961Y-93499228D01*
X125571952Y-93693954D01*
X83284822Y-120738064D02*
X83295048Y-120156889D01*
X82822527Y-120402186D02*
X83410312Y-119593169D01*
X83718509Y-119817088D01*
X83767569Y-119911592D01*
X83778103Y-119978106D01*
X83760648Y-120083145D01*
X83676679Y-120198719D01*
X83582175Y-120247779D01*
X83515661Y-120258313D01*
X83410622Y-120240858D01*
X83102425Y-120016940D01*
X83939431Y-120566201D02*
X84209104Y-120762129D01*
X84016790Y-121269869D02*
X83631544Y-120989972D01*
X84219329Y-120180955D01*
X84604575Y-120460852D01*
X84941071Y-121293935D02*
X84671399Y-121098007D01*
X84363512Y-121521777D02*
X84951297Y-120712760D01*
X85336543Y-120992658D01*
X85760314Y-121300546D02*
X85620365Y-121493169D01*
X85483721Y-121276171D02*
X85620365Y-121493169D01*
X85868968Y-121556068D01*
X85392832Y-121563298D02*
X85620365Y-121493169D01*
X85623980Y-121731237D01*
X86376708Y-121748382D02*
X86236759Y-121941005D01*
X86100115Y-121724007D02*
X86236759Y-121941005D01*
X86485362Y-122003905D01*
X86009226Y-122011134D02*
X86236759Y-121941005D01*
X86240374Y-122179073D01*
X114557798Y-122305491D02*
X114008228Y-122116173D01*
X114095503Y-122641368D02*
X113507717Y-121832351D01*
X113815914Y-121608433D01*
X113920953Y-121590978D01*
X113987468Y-121601513D01*
X114081972Y-121650573D01*
X114165941Y-121766146D01*
X114183396Y-121871185D01*
X114172861Y-121937700D01*
X114123802Y-122032204D01*
X113815605Y-122256122D01*
X114596632Y-121629812D02*
X114866304Y-121433884D01*
X115289766Y-121773685D02*
X114904520Y-122053583D01*
X114316734Y-121244566D01*
X114701981Y-120964668D01*
X115598272Y-120902078D02*
X115328600Y-121098007D01*
X115636487Y-121521777D02*
X115048702Y-120712760D01*
X115433948Y-120432863D01*
X115857719Y-120124975D02*
X115997668Y-120317598D01*
X115749065Y-120380498D02*
X115997668Y-120317598D01*
X116134312Y-120100600D01*
X115994053Y-120555666D02*
X115997668Y-120317598D01*
X116225201Y-120387727D01*
X116474113Y-119677139D02*
X116614062Y-119869762D01*
X116365459Y-119932661D02*
X116614062Y-119869762D01*
X116750705Y-119652764D01*
X116610447Y-120107830D02*
X116614062Y-119869762D01*
X116841595Y-119939891D01*
X98666666Y-50522380D02*
X98333333Y-50046190D01*
X98095238Y-50522380D02*
X98095238Y-49522380D01*
X98476190Y-49522380D01*
X98571428Y-49570000D01*
X98619047Y-49617619D01*
X98666666Y-49712857D01*
X98666666Y-49855714D01*
X98619047Y-49950952D01*
X98571428Y-49998571D01*
X98476190Y-50046190D01*
X98095238Y-50046190D01*
X99095238Y-49998571D02*
X99428571Y-49998571D01*
X99571428Y-50522380D02*
X99095238Y-50522380D01*
X99095238Y-49522380D01*
X99571428Y-49522380D01*
X100333333Y-49998571D02*
X100000000Y-49998571D01*
X100000000Y-50522380D02*
X100000000Y-49522380D01*
X100476190Y-49522380D01*
X101000000Y-49522380D02*
X101000000Y-49760476D01*
X100761904Y-49665238D02*
X101000000Y-49760476D01*
X101238095Y-49665238D01*
X100857142Y-49950952D02*
X101000000Y-49760476D01*
X101142857Y-49950952D01*
X101761904Y-49522380D02*
X101761904Y-49760476D01*
X101523809Y-49665238D02*
X101761904Y-49760476D01*
X102000000Y-49665238D01*
X101619047Y-49950952D02*
X101761904Y-49760476D01*
X101904761Y-49950952D01*
X90706666Y-97432380D02*
X90373333Y-96956190D01*
X90135238Y-97432380D02*
X90135238Y-96432380D01*
X90516190Y-96432380D01*
X90611428Y-96480000D01*
X90659047Y-96527619D01*
X90706666Y-96622857D01*
X90706666Y-96765714D01*
X90659047Y-96860952D01*
X90611428Y-96908571D01*
X90516190Y-96956190D01*
X90135238Y-96956190D01*
X91135238Y-96908571D02*
X91468571Y-96908571D01*
X91611428Y-97432380D02*
X91135238Y-97432380D01*
X91135238Y-96432380D01*
X91611428Y-96432380D01*
X92373333Y-96908571D02*
X92040000Y-96908571D01*
X92040000Y-97432380D02*
X92040000Y-96432380D01*
X92516190Y-96432380D01*
X93040000Y-96432380D02*
X93040000Y-96670476D01*
X92801904Y-96575238D02*
X93040000Y-96670476D01*
X93278095Y-96575238D01*
X92897142Y-96860952D02*
X93040000Y-96670476D01*
X93182857Y-96860952D01*
X93801904Y-96432380D02*
X93801904Y-96670476D01*
X93563809Y-96575238D02*
X93801904Y-96670476D01*
X94040000Y-96575238D01*
X93659047Y-96860952D02*
X93801904Y-96670476D01*
X93944761Y-96860952D01*
M02*
