G04 #@! TF.GenerationSoftware,KiCad,Pcbnew,(5.1.9)-1*
G04 #@! TF.CreationDate,2021-01-19T13:28:18-05:00*
G04 #@! TF.ProjectId,Star,53746172-2e6b-4696-9361-645f70636258,rev?*
G04 #@! TF.SameCoordinates,Original*
G04 #@! TF.FileFunction,Copper,L3,Inr*
G04 #@! TF.FilePolarity,Positive*
%FSLAX46Y46*%
G04 Gerber Fmt 4.6, Leading zero omitted, Abs format (unit mm)*
G04 Created by KiCad (PCBNEW (5.1.9)-1) date 2021-01-19 13:28:18*
%MOMM*%
%LPD*%
G01*
G04 APERTURE LIST*
G04 #@! TA.AperFunction,WasherPad*
%ADD10O,1.950000X1.400000*%
G04 #@! TD*
G04 #@! TA.AperFunction,ViaPad*
%ADD11C,0.457200*%
G04 #@! TD*
G04 #@! TA.AperFunction,Conductor*
%ADD12C,0.127000*%
G04 #@! TD*
G04 #@! TA.AperFunction,Conductor*
%ADD13C,0.254000*%
G04 #@! TD*
G04 #@! TA.AperFunction,Conductor*
%ADD14C,0.100000*%
G04 #@! TD*
G04 APERTURE END LIST*
D10*
X110640000Y-88825000D03*
X110640000Y-95975000D03*
D11*
X82250000Y-103780000D03*
X79930000Y-103990000D03*
X79930000Y-101930000D03*
X100390000Y-103100000D03*
X103050000Y-100400000D03*
X109670000Y-106270000D03*
X92440000Y-102400000D03*
X102000000Y-96900000D03*
X84180000Y-96525000D03*
X84180000Y-95255000D03*
X85450000Y-95255000D03*
X86720000Y-95255000D03*
X93705000Y-96525000D03*
X93705000Y-95255000D03*
X91800000Y-95255000D03*
X89895000Y-97160000D03*
X96724232Y-99036121D03*
X90530000Y-99700000D03*
X91800000Y-99700000D03*
X93070000Y-99700000D03*
X94340000Y-99700000D03*
X94340000Y-98430000D03*
X91800000Y-98430000D03*
X82260000Y-96230000D03*
X79960000Y-98120000D03*
X79960000Y-95950000D03*
X104250000Y-102000000D03*
X87990000Y-99700000D03*
X84180000Y-99700000D03*
X86720000Y-99700000D03*
X85450000Y-99700000D03*
X84180000Y-98430000D03*
X101300000Y-92550000D03*
X134690000Y-93620000D03*
X123140000Y-97240000D03*
X93380000Y-71570000D03*
X93760000Y-83910000D03*
X81690000Y-85610000D03*
X103500000Y-95750000D03*
X124850000Y-124900000D03*
X100880000Y-51480000D03*
X100984249Y-69502767D03*
X101001412Y-81503350D03*
X79660000Y-116190000D03*
X83763281Y-109396719D03*
X69530000Y-98060000D03*
X113930000Y-110080000D03*
X118210000Y-114310000D03*
X120500000Y-112400000D03*
X119200000Y-129550000D03*
X117150000Y-115650000D03*
X54910000Y-86330000D03*
X70190000Y-90280000D03*
X124360000Y-133540000D03*
X111400000Y-120420000D03*
X82880000Y-100960000D03*
X113790000Y-83520000D03*
X107850000Y-84510000D03*
X107300000Y-71600000D03*
X100500000Y-98000000D03*
X78400000Y-131050000D03*
X145230000Y-86330000D03*
X130530000Y-91170000D03*
X128390000Y-137750000D03*
X71410000Y-137620000D03*
X75270000Y-132980000D03*
X98800000Y-105460000D03*
X94170659Y-122740659D03*
X126165975Y-139314245D03*
X129920000Y-89220000D03*
X113739123Y-87690877D03*
X95290000Y-65150000D03*
X75000000Y-84840000D03*
X82099186Y-94150814D03*
X93155945Y-105194055D03*
X80110000Y-132300000D03*
X88670000Y-120370000D03*
X129010000Y-96670000D03*
X117900814Y-94159186D03*
X87800000Y-87700000D03*
X84500000Y-87210000D03*
X86181758Y-87621758D03*
X86021244Y-85971960D03*
X86050000Y-100500000D03*
X68470000Y-84280000D03*
X92860000Y-77980000D03*
X83020000Y-115670000D03*
X77620000Y-127090000D03*
X117210000Y-100960000D03*
X125699055Y-98819055D03*
X94235945Y-106256587D03*
X115340000Y-107890000D03*
X100030000Y-76810000D03*
X99060000Y-62220000D03*
X121260762Y-104638401D03*
X95250000Y-95350000D03*
X98500000Y-76850000D03*
X111550000Y-126750000D03*
X96950000Y-98000000D03*
X78750000Y-104850000D03*
X121100000Y-85230000D03*
X120090000Y-83880000D03*
X116670000Y-119540000D03*
X110760000Y-113400000D03*
X87610000Y-126430000D03*
X96300000Y-95700000D03*
X77700000Y-93550000D03*
X104285749Y-108065135D03*
X104250000Y-102800000D03*
X107850000Y-108050000D03*
X99600000Y-96900000D03*
D12*
X96550000Y-102000000D02*
X95750000Y-101200000D01*
X104250000Y-102000000D02*
X96550000Y-102000000D01*
X105111951Y-101138049D02*
X104250000Y-102000000D01*
D13*
X98779718Y-49822254D02*
X98930414Y-50047787D01*
X99122213Y-50239586D01*
X99347746Y-50390282D01*
X99598344Y-50494083D01*
X99864377Y-50547000D01*
X100135623Y-50547000D01*
X100401656Y-50494083D01*
X100652254Y-50390282D01*
X100877787Y-50239586D01*
X101069586Y-50047787D01*
X101220282Y-49822254D01*
X101220623Y-49821431D01*
X112033686Y-83101153D01*
X112042125Y-83128976D01*
X112051302Y-83146147D01*
X112059115Y-83164009D01*
X112066551Y-83174677D01*
X112072673Y-83186133D01*
X112085026Y-83201186D01*
X112096171Y-83217177D01*
X112105545Y-83226190D01*
X112113784Y-83236230D01*
X112128834Y-83248582D01*
X112142888Y-83262095D01*
X112153841Y-83269106D01*
X112163879Y-83277345D01*
X112181053Y-83286526D01*
X112197469Y-83297034D01*
X112209574Y-83301772D01*
X112221032Y-83307897D01*
X112239670Y-83313552D01*
X112257818Y-83320655D01*
X112270613Y-83322940D01*
X112283049Y-83326713D01*
X112302441Y-83328624D01*
X112321616Y-83332048D01*
X112350714Y-83331477D01*
X113345710Y-83331516D01*
X113325946Y-83379231D01*
X113307400Y-83472468D01*
X113307400Y-83567532D01*
X113325946Y-83660769D01*
X113362326Y-83748597D01*
X113415140Y-83827640D01*
X113482360Y-83894860D01*
X113561403Y-83947674D01*
X113649231Y-83984054D01*
X113742468Y-84002600D01*
X113837532Y-84002600D01*
X113930769Y-83984054D01*
X114018597Y-83947674D01*
X114097640Y-83894860D01*
X114160032Y-83832468D01*
X119607400Y-83832468D01*
X119607400Y-83927532D01*
X119625946Y-84020769D01*
X119662326Y-84108597D01*
X119715140Y-84187640D01*
X119782360Y-84254860D01*
X119861403Y-84307674D01*
X119949231Y-84344054D01*
X120042468Y-84362600D01*
X120137532Y-84362600D01*
X120230769Y-84344054D01*
X120318597Y-84307674D01*
X120397640Y-84254860D01*
X120464860Y-84187640D01*
X120517674Y-84108597D01*
X120554054Y-84020769D01*
X120572600Y-83927532D01*
X120572600Y-83832468D01*
X120554054Y-83739231D01*
X120517674Y-83651403D01*
X120464860Y-83572360D01*
X120397640Y-83505140D01*
X120318597Y-83452326D01*
X120230769Y-83415946D01*
X120137532Y-83397400D01*
X120042468Y-83397400D01*
X119949231Y-83415946D01*
X119861403Y-83452326D01*
X119782360Y-83505140D01*
X119715140Y-83572360D01*
X119662326Y-83651403D01*
X119625946Y-83739231D01*
X119607400Y-83832468D01*
X114160032Y-83832468D01*
X114164860Y-83827640D01*
X114217674Y-83748597D01*
X114254054Y-83660769D01*
X114272600Y-83567532D01*
X114272600Y-83472468D01*
X114254054Y-83379231D01*
X114234304Y-83331552D01*
X151295675Y-83333024D01*
X121701033Y-104836587D01*
X121724816Y-104779170D01*
X121743362Y-104685933D01*
X121743362Y-104590869D01*
X121724816Y-104497632D01*
X121688436Y-104409804D01*
X121635622Y-104330761D01*
X121568402Y-104263541D01*
X121489359Y-104210727D01*
X121401531Y-104174347D01*
X121308294Y-104155801D01*
X121213230Y-104155801D01*
X121119993Y-104174347D01*
X121032165Y-104210727D01*
X120953122Y-104263541D01*
X120885902Y-104330761D01*
X120833088Y-104409804D01*
X120796708Y-104497632D01*
X120778162Y-104590869D01*
X120778162Y-104685933D01*
X120796708Y-104779170D01*
X120833088Y-104866998D01*
X120885902Y-104946041D01*
X120953122Y-105013261D01*
X121032165Y-105066075D01*
X121119993Y-105102455D01*
X121213230Y-105121001D01*
X121308294Y-105121001D01*
X121310097Y-105120642D01*
X119789470Y-106225535D01*
X119765572Y-106242191D01*
X119752069Y-106256236D01*
X119737506Y-106269177D01*
X119729663Y-106279539D01*
X119720655Y-106288908D01*
X119710150Y-106305319D01*
X119698393Y-106320852D01*
X119692722Y-106332545D01*
X119685716Y-106343490D01*
X119678616Y-106361631D01*
X119670113Y-106379163D01*
X119666832Y-106391737D01*
X119662096Y-106403839D01*
X119658671Y-106423021D01*
X119653753Y-106441871D01*
X119652988Y-106454844D01*
X119650704Y-106467637D01*
X119651086Y-106487114D01*
X119649940Y-106506564D01*
X119651721Y-106519436D01*
X119651976Y-106532431D01*
X119656153Y-106551467D01*
X119658822Y-106570760D01*
X119668358Y-106598255D01*
X131702406Y-143634658D01*
X126362418Y-139755238D01*
X126394572Y-139741919D01*
X126473615Y-139689105D01*
X126540835Y-139621885D01*
X126593649Y-139542842D01*
X126630029Y-139455014D01*
X126648575Y-139361777D01*
X126648575Y-139266713D01*
X126630029Y-139173476D01*
X126593649Y-139085648D01*
X126540835Y-139006605D01*
X126473615Y-138939385D01*
X126394572Y-138886571D01*
X126306744Y-138850191D01*
X126213507Y-138831645D01*
X126118443Y-138831645D01*
X126025206Y-138850191D01*
X125937378Y-138886571D01*
X125858335Y-138939385D01*
X125791115Y-139006605D01*
X125738301Y-139085648D01*
X125701921Y-139173476D01*
X125684207Y-139262529D01*
X123536797Y-137702468D01*
X127907400Y-137702468D01*
X127907400Y-137797532D01*
X127925946Y-137890769D01*
X127962326Y-137978597D01*
X128015140Y-138057640D01*
X128082360Y-138124860D01*
X128161403Y-138177674D01*
X128249231Y-138214054D01*
X128342468Y-138232600D01*
X128437532Y-138232600D01*
X128530769Y-138214054D01*
X128618597Y-138177674D01*
X128697640Y-138124860D01*
X128764860Y-138057640D01*
X128817674Y-137978597D01*
X128854054Y-137890769D01*
X128872600Y-137797532D01*
X128872600Y-137702468D01*
X128854054Y-137609231D01*
X128817674Y-137521403D01*
X128764860Y-137442360D01*
X128697640Y-137375140D01*
X128618597Y-137322326D01*
X128530769Y-137285946D01*
X128437532Y-137267400D01*
X128342468Y-137267400D01*
X128249231Y-137285946D01*
X128161403Y-137322326D01*
X128082360Y-137375140D01*
X128015140Y-137442360D01*
X127962326Y-137521403D01*
X127925946Y-137609231D01*
X127907400Y-137702468D01*
X123536797Y-137702468D01*
X117741768Y-133492468D01*
X123877400Y-133492468D01*
X123877400Y-133587532D01*
X123895946Y-133680769D01*
X123932326Y-133768597D01*
X123985140Y-133847640D01*
X124052360Y-133914860D01*
X124131403Y-133967674D01*
X124219231Y-134004054D01*
X124312468Y-134022600D01*
X124407532Y-134022600D01*
X124500769Y-134004054D01*
X124588597Y-133967674D01*
X124667640Y-133914860D01*
X124734860Y-133847640D01*
X124787674Y-133768597D01*
X124824054Y-133680769D01*
X124842600Y-133587532D01*
X124842600Y-133492468D01*
X124824054Y-133399231D01*
X124787674Y-133311403D01*
X124734860Y-133232360D01*
X124667640Y-133165140D01*
X124588597Y-133112326D01*
X124500769Y-133075946D01*
X124407532Y-133057400D01*
X124312468Y-133057400D01*
X124219231Y-133075946D01*
X124131403Y-133112326D01*
X124052360Y-133165140D01*
X123985140Y-133232360D01*
X123932326Y-133311403D01*
X123895946Y-133399231D01*
X123877400Y-133492468D01*
X117741768Y-133492468D01*
X112249567Y-129502468D01*
X118717400Y-129502468D01*
X118717400Y-129597532D01*
X118735946Y-129690769D01*
X118772326Y-129778597D01*
X118825140Y-129857640D01*
X118892360Y-129924860D01*
X118971403Y-129977674D01*
X119059231Y-130014054D01*
X119152468Y-130032600D01*
X119247532Y-130032600D01*
X119340769Y-130014054D01*
X119428597Y-129977674D01*
X119507640Y-129924860D01*
X119574860Y-129857640D01*
X119627674Y-129778597D01*
X119664054Y-129690769D01*
X119682600Y-129597532D01*
X119682600Y-129502468D01*
X119664054Y-129409231D01*
X119627674Y-129321403D01*
X119574860Y-129242360D01*
X119507640Y-129175140D01*
X119428597Y-129122326D01*
X119340769Y-129085946D01*
X119247532Y-129067400D01*
X119152468Y-129067400D01*
X119059231Y-129085946D01*
X118971403Y-129122326D01*
X118892360Y-129175140D01*
X118825140Y-129242360D01*
X118772326Y-129321403D01*
X118735946Y-129409231D01*
X118717400Y-129502468D01*
X112249567Y-129502468D01*
X108395391Y-126702468D01*
X111067400Y-126702468D01*
X111067400Y-126797532D01*
X111085946Y-126890769D01*
X111122326Y-126978597D01*
X111175140Y-127057640D01*
X111242360Y-127124860D01*
X111321403Y-127177674D01*
X111409231Y-127214054D01*
X111502468Y-127232600D01*
X111597532Y-127232600D01*
X111690769Y-127214054D01*
X111778597Y-127177674D01*
X111857640Y-127124860D01*
X111924860Y-127057640D01*
X111977674Y-126978597D01*
X112014054Y-126890769D01*
X112032600Y-126797532D01*
X112032600Y-126702468D01*
X112014054Y-126609231D01*
X111977674Y-126521403D01*
X111924860Y-126442360D01*
X111857640Y-126375140D01*
X111778597Y-126322326D01*
X111690769Y-126285946D01*
X111597532Y-126267400D01*
X111502468Y-126267400D01*
X111409231Y-126285946D01*
X111321403Y-126322326D01*
X111242360Y-126375140D01*
X111175140Y-126442360D01*
X111122326Y-126521403D01*
X111085946Y-126609231D01*
X111067400Y-126702468D01*
X108395391Y-126702468D01*
X105848882Y-124852468D01*
X124367400Y-124852468D01*
X124367400Y-124947532D01*
X124385946Y-125040769D01*
X124422326Y-125128597D01*
X124475140Y-125207640D01*
X124542360Y-125274860D01*
X124621403Y-125327674D01*
X124709231Y-125364054D01*
X124802468Y-125382600D01*
X124897532Y-125382600D01*
X124990769Y-125364054D01*
X125078597Y-125327674D01*
X125157640Y-125274860D01*
X125224860Y-125207640D01*
X125277674Y-125128597D01*
X125314054Y-125040769D01*
X125332600Y-124947532D01*
X125332600Y-124852468D01*
X125314054Y-124759231D01*
X125277674Y-124671403D01*
X125224860Y-124592360D01*
X125157640Y-124525140D01*
X125078597Y-124472326D01*
X124990769Y-124435946D01*
X124897532Y-124417400D01*
X124802468Y-124417400D01*
X124709231Y-124435946D01*
X124621403Y-124472326D01*
X124542360Y-124525140D01*
X124475140Y-124592360D01*
X124422326Y-124671403D01*
X124385946Y-124759231D01*
X124367400Y-124852468D01*
X105848882Y-124852468D01*
X100195957Y-120745705D01*
X100172743Y-120728132D01*
X100155213Y-120719628D01*
X100138393Y-120709771D01*
X100126120Y-120705516D01*
X100114434Y-120699847D01*
X100095575Y-120694925D01*
X100077162Y-120688541D01*
X100064295Y-120686762D01*
X100051728Y-120683482D01*
X100032273Y-120682334D01*
X100012965Y-120679664D01*
X100000000Y-120680429D01*
X99987034Y-120679664D01*
X99967726Y-120682334D01*
X99948272Y-120683482D01*
X99935706Y-120686762D01*
X99922837Y-120688541D01*
X99904421Y-120694926D01*
X99885566Y-120699847D01*
X99873883Y-120705514D01*
X99861606Y-120709771D01*
X99844784Y-120719630D01*
X99827257Y-120728132D01*
X99804069Y-120745686D01*
X68297592Y-143634660D01*
X70267349Y-137572468D01*
X70927400Y-137572468D01*
X70927400Y-137667532D01*
X70945946Y-137760769D01*
X70982326Y-137848597D01*
X71035140Y-137927640D01*
X71102360Y-137994860D01*
X71181403Y-138047674D01*
X71269231Y-138084054D01*
X71362468Y-138102600D01*
X71457532Y-138102600D01*
X71550769Y-138084054D01*
X71638597Y-138047674D01*
X71717640Y-137994860D01*
X71784860Y-137927640D01*
X71837674Y-137848597D01*
X71874054Y-137760769D01*
X71892600Y-137667532D01*
X71892600Y-137572468D01*
X71874054Y-137479231D01*
X71837674Y-137391403D01*
X71784860Y-137312360D01*
X71717640Y-137245140D01*
X71638597Y-137192326D01*
X71550769Y-137155946D01*
X71457532Y-137137400D01*
X71362468Y-137137400D01*
X71269231Y-137155946D01*
X71181403Y-137192326D01*
X71102360Y-137245140D01*
X71035140Y-137312360D01*
X70982326Y-137391403D01*
X70945946Y-137479231D01*
X70927400Y-137572468D01*
X70267349Y-137572468D01*
X71775000Y-132932468D01*
X74787400Y-132932468D01*
X74787400Y-133027532D01*
X74805946Y-133120769D01*
X74842326Y-133208597D01*
X74895140Y-133287640D01*
X74962360Y-133354860D01*
X75041403Y-133407674D01*
X75129231Y-133444054D01*
X75222468Y-133462600D01*
X75317532Y-133462600D01*
X75410769Y-133444054D01*
X75498597Y-133407674D01*
X75577640Y-133354860D01*
X75644860Y-133287640D01*
X75697674Y-133208597D01*
X75734054Y-133120769D01*
X75752600Y-133027532D01*
X75752600Y-132932468D01*
X75734054Y-132839231D01*
X75697674Y-132751403D01*
X75644860Y-132672360D01*
X75577640Y-132605140D01*
X75498597Y-132552326D01*
X75410769Y-132515946D01*
X75317532Y-132497400D01*
X75222468Y-132497400D01*
X75129231Y-132515946D01*
X75041403Y-132552326D01*
X74962360Y-132605140D01*
X74895140Y-132672360D01*
X74842326Y-132751403D01*
X74805946Y-132839231D01*
X74787400Y-132932468D01*
X71775000Y-132932468D01*
X71995948Y-132252468D01*
X79627400Y-132252468D01*
X79627400Y-132347532D01*
X79645946Y-132440769D01*
X79682326Y-132528597D01*
X79735140Y-132607640D01*
X79802360Y-132674860D01*
X79881403Y-132727674D01*
X79969231Y-132764054D01*
X80062468Y-132782600D01*
X80157532Y-132782600D01*
X80250769Y-132764054D01*
X80338597Y-132727674D01*
X80417640Y-132674860D01*
X80484860Y-132607640D01*
X80537674Y-132528597D01*
X80574054Y-132440769D01*
X80592600Y-132347532D01*
X80592600Y-132252468D01*
X80574054Y-132159231D01*
X80537674Y-132071403D01*
X80484860Y-131992360D01*
X80417640Y-131925140D01*
X80338597Y-131872326D01*
X80250769Y-131835946D01*
X80157532Y-131817400D01*
X80062468Y-131817400D01*
X79969231Y-131835946D01*
X79881403Y-131872326D01*
X79802360Y-131925140D01*
X79735140Y-131992360D01*
X79682326Y-132071403D01*
X79645946Y-132159231D01*
X79627400Y-132252468D01*
X71995948Y-132252468D01*
X72402104Y-131002468D01*
X77917400Y-131002468D01*
X77917400Y-131097532D01*
X77935946Y-131190769D01*
X77972326Y-131278597D01*
X78025140Y-131357640D01*
X78092360Y-131424860D01*
X78171403Y-131477674D01*
X78259231Y-131514054D01*
X78352468Y-131532600D01*
X78447532Y-131532600D01*
X78540769Y-131514054D01*
X78628597Y-131477674D01*
X78707640Y-131424860D01*
X78774860Y-131357640D01*
X78827674Y-131278597D01*
X78864054Y-131190769D01*
X78882600Y-131097532D01*
X78882600Y-131002468D01*
X78864054Y-130909231D01*
X78827674Y-130821403D01*
X78774860Y-130742360D01*
X78707640Y-130675140D01*
X78628597Y-130622326D01*
X78540769Y-130585946D01*
X78447532Y-130567400D01*
X78352468Y-130567400D01*
X78259231Y-130585946D01*
X78171403Y-130622326D01*
X78092360Y-130675140D01*
X78025140Y-130742360D01*
X77972326Y-130821403D01*
X77935946Y-130909231D01*
X77917400Y-131002468D01*
X72402104Y-131002468D01*
X73688807Y-127042468D01*
X77137400Y-127042468D01*
X77137400Y-127137532D01*
X77155946Y-127230769D01*
X77192326Y-127318597D01*
X77245140Y-127397640D01*
X77312360Y-127464860D01*
X77391403Y-127517674D01*
X77479231Y-127554054D01*
X77572468Y-127572600D01*
X77667532Y-127572600D01*
X77760769Y-127554054D01*
X77848597Y-127517674D01*
X77927640Y-127464860D01*
X77994860Y-127397640D01*
X78047674Y-127318597D01*
X78084054Y-127230769D01*
X78102600Y-127137532D01*
X78102600Y-127042468D01*
X78084054Y-126949231D01*
X78047674Y-126861403D01*
X77994860Y-126782360D01*
X77927640Y-126715140D01*
X77848597Y-126662326D01*
X77760769Y-126625946D01*
X77667532Y-126607400D01*
X77572468Y-126607400D01*
X77479231Y-126625946D01*
X77391403Y-126662326D01*
X77312360Y-126715140D01*
X77245140Y-126782360D01*
X77192326Y-126861403D01*
X77155946Y-126949231D01*
X77137400Y-127042468D01*
X73688807Y-127042468D01*
X73903257Y-126382468D01*
X87127400Y-126382468D01*
X87127400Y-126477532D01*
X87145946Y-126570769D01*
X87182326Y-126658597D01*
X87235140Y-126737640D01*
X87302360Y-126804860D01*
X87381403Y-126857674D01*
X87469231Y-126894054D01*
X87562468Y-126912600D01*
X87657532Y-126912600D01*
X87750769Y-126894054D01*
X87838597Y-126857674D01*
X87917640Y-126804860D01*
X87984860Y-126737640D01*
X88037674Y-126658597D01*
X88074054Y-126570769D01*
X88092600Y-126477532D01*
X88092600Y-126382468D01*
X88074054Y-126289231D01*
X88037674Y-126201403D01*
X87984860Y-126122360D01*
X87917640Y-126055140D01*
X87838597Y-126002326D01*
X87750769Y-125965946D01*
X87657532Y-125947400D01*
X87562468Y-125947400D01*
X87469231Y-125965946D01*
X87381403Y-126002326D01*
X87302360Y-126055140D01*
X87235140Y-126122360D01*
X87182326Y-126201403D01*
X87145946Y-126289231D01*
X87127400Y-126382468D01*
X73903257Y-126382468D01*
X75102015Y-122693127D01*
X93688059Y-122693127D01*
X93688059Y-122788191D01*
X93706605Y-122881428D01*
X93742985Y-122969256D01*
X93795799Y-123048299D01*
X93863019Y-123115519D01*
X93942062Y-123168333D01*
X94029890Y-123204713D01*
X94123127Y-123223259D01*
X94218191Y-123223259D01*
X94311428Y-123204713D01*
X94399256Y-123168333D01*
X94478299Y-123115519D01*
X94545519Y-123048299D01*
X94598333Y-122969256D01*
X94634713Y-122881428D01*
X94653259Y-122788191D01*
X94653259Y-122693127D01*
X94634713Y-122599890D01*
X94598333Y-122512062D01*
X94545519Y-122433019D01*
X94478299Y-122365799D01*
X94399256Y-122312985D01*
X94311428Y-122276605D01*
X94218191Y-122258059D01*
X94123127Y-122258059D01*
X94029890Y-122276605D01*
X93942062Y-122312985D01*
X93863019Y-122365799D01*
X93795799Y-122433019D01*
X93742985Y-122512062D01*
X93706605Y-122599890D01*
X93688059Y-122693127D01*
X75102015Y-122693127D01*
X75872302Y-120322468D01*
X88187400Y-120322468D01*
X88187400Y-120417532D01*
X88205946Y-120510769D01*
X88242326Y-120598597D01*
X88295140Y-120677640D01*
X88362360Y-120744860D01*
X88441403Y-120797674D01*
X88529231Y-120834054D01*
X88622468Y-120852600D01*
X88717532Y-120852600D01*
X88810769Y-120834054D01*
X88898597Y-120797674D01*
X88977640Y-120744860D01*
X89044860Y-120677640D01*
X89097674Y-120598597D01*
X89134054Y-120510769D01*
X89152600Y-120417532D01*
X89152600Y-120372468D01*
X110917400Y-120372468D01*
X110917400Y-120467532D01*
X110935946Y-120560769D01*
X110972326Y-120648597D01*
X111025140Y-120727640D01*
X111092360Y-120794860D01*
X111171403Y-120847674D01*
X111259231Y-120884054D01*
X111352468Y-120902600D01*
X111447532Y-120902600D01*
X111540769Y-120884054D01*
X111628597Y-120847674D01*
X111707640Y-120794860D01*
X111774860Y-120727640D01*
X111827674Y-120648597D01*
X111864054Y-120560769D01*
X111882600Y-120467532D01*
X111882600Y-120372468D01*
X111864054Y-120279231D01*
X111827674Y-120191403D01*
X111774860Y-120112360D01*
X111707640Y-120045140D01*
X111628597Y-119992326D01*
X111540769Y-119955946D01*
X111447532Y-119937400D01*
X111352468Y-119937400D01*
X111259231Y-119955946D01*
X111171403Y-119992326D01*
X111092360Y-120045140D01*
X111025140Y-120112360D01*
X110972326Y-120191403D01*
X110935946Y-120279231D01*
X110917400Y-120372468D01*
X89152600Y-120372468D01*
X89152600Y-120322468D01*
X89134054Y-120229231D01*
X89097674Y-120141403D01*
X89044860Y-120062360D01*
X88977640Y-119995140D01*
X88898597Y-119942326D01*
X88810769Y-119905946D01*
X88717532Y-119887400D01*
X88622468Y-119887400D01*
X88529231Y-119905946D01*
X88441403Y-119942326D01*
X88362360Y-119995140D01*
X88295140Y-120062360D01*
X88242326Y-120141403D01*
X88205946Y-120229231D01*
X88187400Y-120322468D01*
X75872302Y-120322468D01*
X76141989Y-119492468D01*
X116187400Y-119492468D01*
X116187400Y-119587532D01*
X116205946Y-119680769D01*
X116242326Y-119768597D01*
X116295140Y-119847640D01*
X116362360Y-119914860D01*
X116441403Y-119967674D01*
X116529231Y-120004054D01*
X116622468Y-120022600D01*
X116717532Y-120022600D01*
X116810769Y-120004054D01*
X116898597Y-119967674D01*
X116977640Y-119914860D01*
X117044860Y-119847640D01*
X117097674Y-119768597D01*
X117134054Y-119680769D01*
X117152600Y-119587532D01*
X117152600Y-119492468D01*
X117134054Y-119399231D01*
X117097674Y-119311403D01*
X117044860Y-119232360D01*
X116977640Y-119165140D01*
X116898597Y-119112326D01*
X116810769Y-119075946D01*
X116717532Y-119057400D01*
X116622468Y-119057400D01*
X116529231Y-119075946D01*
X116441403Y-119112326D01*
X116362360Y-119165140D01*
X116295140Y-119232360D01*
X116242326Y-119311403D01*
X116205946Y-119399231D01*
X116187400Y-119492468D01*
X76141989Y-119492468D01*
X77230489Y-116142468D01*
X79177400Y-116142468D01*
X79177400Y-116237532D01*
X79195946Y-116330769D01*
X79232326Y-116418597D01*
X79285140Y-116497640D01*
X79352360Y-116564860D01*
X79431403Y-116617674D01*
X79519231Y-116654054D01*
X79612468Y-116672600D01*
X79707532Y-116672600D01*
X79800769Y-116654054D01*
X79888597Y-116617674D01*
X79967640Y-116564860D01*
X80034860Y-116497640D01*
X80087674Y-116418597D01*
X80124054Y-116330769D01*
X80142600Y-116237532D01*
X80142600Y-116142468D01*
X80124054Y-116049231D01*
X80087674Y-115961403D01*
X80034860Y-115882360D01*
X79967640Y-115815140D01*
X79888597Y-115762326D01*
X79800769Y-115725946D01*
X79707532Y-115707400D01*
X79612468Y-115707400D01*
X79519231Y-115725946D01*
X79431403Y-115762326D01*
X79352360Y-115815140D01*
X79285140Y-115882360D01*
X79232326Y-115961403D01*
X79195946Y-116049231D01*
X79177400Y-116142468D01*
X77230489Y-116142468D01*
X77399449Y-115622468D01*
X82537400Y-115622468D01*
X82537400Y-115717532D01*
X82555946Y-115810769D01*
X82592326Y-115898597D01*
X82645140Y-115977640D01*
X82712360Y-116044860D01*
X82791403Y-116097674D01*
X82879231Y-116134054D01*
X82972468Y-116152600D01*
X83067532Y-116152600D01*
X83160769Y-116134054D01*
X83248597Y-116097674D01*
X83327640Y-116044860D01*
X83394860Y-115977640D01*
X83447674Y-115898597D01*
X83484054Y-115810769D01*
X83502600Y-115717532D01*
X83502600Y-115622468D01*
X83498622Y-115602468D01*
X116667400Y-115602468D01*
X116667400Y-115697532D01*
X116685946Y-115790769D01*
X116722326Y-115878597D01*
X116775140Y-115957640D01*
X116842360Y-116024860D01*
X116921403Y-116077674D01*
X117009231Y-116114054D01*
X117102468Y-116132600D01*
X117197532Y-116132600D01*
X117290769Y-116114054D01*
X117378597Y-116077674D01*
X117457640Y-116024860D01*
X117524860Y-115957640D01*
X117577674Y-115878597D01*
X117614054Y-115790769D01*
X117632600Y-115697532D01*
X117632600Y-115602468D01*
X117614054Y-115509231D01*
X117577674Y-115421403D01*
X117524860Y-115342360D01*
X117457640Y-115275140D01*
X117378597Y-115222326D01*
X117290769Y-115185946D01*
X117197532Y-115167400D01*
X117102468Y-115167400D01*
X117009231Y-115185946D01*
X116921403Y-115222326D01*
X116842360Y-115275140D01*
X116775140Y-115342360D01*
X116722326Y-115421403D01*
X116685946Y-115509231D01*
X116667400Y-115602468D01*
X83498622Y-115602468D01*
X83484054Y-115529231D01*
X83447674Y-115441403D01*
X83394860Y-115362360D01*
X83327640Y-115295140D01*
X83248597Y-115242326D01*
X83160769Y-115205946D01*
X83067532Y-115187400D01*
X82972468Y-115187400D01*
X82879231Y-115205946D01*
X82791403Y-115242326D01*
X82712360Y-115295140D01*
X82645140Y-115362360D01*
X82592326Y-115441403D01*
X82555946Y-115529231D01*
X82537400Y-115622468D01*
X77399449Y-115622468D01*
X77841346Y-114262468D01*
X117727400Y-114262468D01*
X117727400Y-114357532D01*
X117745946Y-114450769D01*
X117782326Y-114538597D01*
X117835140Y-114617640D01*
X117902360Y-114684860D01*
X117981403Y-114737674D01*
X118069231Y-114774054D01*
X118162468Y-114792600D01*
X118257532Y-114792600D01*
X118350769Y-114774054D01*
X118438597Y-114737674D01*
X118517640Y-114684860D01*
X118584860Y-114617640D01*
X118637674Y-114538597D01*
X118674054Y-114450769D01*
X118692600Y-114357532D01*
X118692600Y-114262468D01*
X118674054Y-114169231D01*
X118637674Y-114081403D01*
X118584860Y-114002360D01*
X118517640Y-113935140D01*
X118438597Y-113882326D01*
X118350769Y-113845946D01*
X118257532Y-113827400D01*
X118162468Y-113827400D01*
X118069231Y-113845946D01*
X117981403Y-113882326D01*
X117902360Y-113935140D01*
X117835140Y-114002360D01*
X117782326Y-114081403D01*
X117745946Y-114169231D01*
X117727400Y-114262468D01*
X77841346Y-114262468D01*
X78137028Y-113352468D01*
X110277400Y-113352468D01*
X110277400Y-113447532D01*
X110295946Y-113540769D01*
X110332326Y-113628597D01*
X110385140Y-113707640D01*
X110452360Y-113774860D01*
X110531403Y-113827674D01*
X110619231Y-113864054D01*
X110712468Y-113882600D01*
X110807532Y-113882600D01*
X110900769Y-113864054D01*
X110988597Y-113827674D01*
X111067640Y-113774860D01*
X111134860Y-113707640D01*
X111187674Y-113628597D01*
X111224054Y-113540769D01*
X111242600Y-113447532D01*
X111242600Y-113352468D01*
X111224054Y-113259231D01*
X111187674Y-113171403D01*
X111134860Y-113092360D01*
X111067640Y-113025140D01*
X110988597Y-112972326D01*
X110900769Y-112935946D01*
X110807532Y-112917400D01*
X110712468Y-112917400D01*
X110619231Y-112935946D01*
X110531403Y-112972326D01*
X110452360Y-113025140D01*
X110385140Y-113092360D01*
X110332326Y-113171403D01*
X110295946Y-113259231D01*
X110277400Y-113352468D01*
X78137028Y-113352468D01*
X78461953Y-112352468D01*
X120017400Y-112352468D01*
X120017400Y-112447532D01*
X120035946Y-112540769D01*
X120072326Y-112628597D01*
X120125140Y-112707640D01*
X120192360Y-112774860D01*
X120271403Y-112827674D01*
X120359231Y-112864054D01*
X120452468Y-112882600D01*
X120547532Y-112882600D01*
X120640769Y-112864054D01*
X120728597Y-112827674D01*
X120807640Y-112774860D01*
X120874860Y-112707640D01*
X120927674Y-112628597D01*
X120964054Y-112540769D01*
X120982600Y-112447532D01*
X120982600Y-112352468D01*
X120964054Y-112259231D01*
X120927674Y-112171403D01*
X120874860Y-112092360D01*
X120807640Y-112025140D01*
X120728597Y-111972326D01*
X120640769Y-111935946D01*
X120547532Y-111917400D01*
X120452468Y-111917400D01*
X120359231Y-111935946D01*
X120271403Y-111972326D01*
X120192360Y-112025140D01*
X120125140Y-112092360D01*
X120072326Y-112171403D01*
X120035946Y-112259231D01*
X120017400Y-112352468D01*
X78461953Y-112352468D01*
X79215779Y-110032468D01*
X113447400Y-110032468D01*
X113447400Y-110127532D01*
X113465946Y-110220769D01*
X113502326Y-110308597D01*
X113555140Y-110387640D01*
X113622360Y-110454860D01*
X113701403Y-110507674D01*
X113789231Y-110544054D01*
X113882468Y-110562600D01*
X113977532Y-110562600D01*
X114070769Y-110544054D01*
X114158597Y-110507674D01*
X114237640Y-110454860D01*
X114304860Y-110387640D01*
X114357674Y-110308597D01*
X114394054Y-110220769D01*
X114412600Y-110127532D01*
X114412600Y-110032468D01*
X114394054Y-109939231D01*
X114357674Y-109851403D01*
X114304860Y-109772360D01*
X114237640Y-109705140D01*
X114158597Y-109652326D01*
X114070769Y-109615946D01*
X113977532Y-109597400D01*
X113882468Y-109597400D01*
X113789231Y-109615946D01*
X113701403Y-109652326D01*
X113622360Y-109705140D01*
X113555140Y-109772360D01*
X113502326Y-109851403D01*
X113465946Y-109939231D01*
X113447400Y-110032468D01*
X79215779Y-110032468D01*
X79437795Y-109349187D01*
X83280681Y-109349187D01*
X83280681Y-109444251D01*
X83299227Y-109537488D01*
X83335607Y-109625316D01*
X83388421Y-109704359D01*
X83455641Y-109771579D01*
X83534684Y-109824393D01*
X83622512Y-109860773D01*
X83715749Y-109879319D01*
X83810813Y-109879319D01*
X83904050Y-109860773D01*
X83991878Y-109824393D01*
X84070921Y-109771579D01*
X84138141Y-109704359D01*
X84190955Y-109625316D01*
X84227335Y-109537488D01*
X84245881Y-109444251D01*
X84245881Y-109349187D01*
X84227335Y-109255950D01*
X84190955Y-109168122D01*
X84138141Y-109089079D01*
X84070921Y-109021859D01*
X83991878Y-108969045D01*
X83904050Y-108932665D01*
X83810813Y-108914119D01*
X83715749Y-108914119D01*
X83622512Y-108932665D01*
X83534684Y-108969045D01*
X83455641Y-109021859D01*
X83388421Y-109089079D01*
X83335607Y-109168122D01*
X83299227Y-109255950D01*
X83280681Y-109349187D01*
X79437795Y-109349187D01*
X79870460Y-108017603D01*
X103803149Y-108017603D01*
X103803149Y-108112667D01*
X103821695Y-108205904D01*
X103858075Y-108293732D01*
X103910889Y-108372775D01*
X103978109Y-108439995D01*
X104057152Y-108492809D01*
X104144980Y-108529189D01*
X104238217Y-108547735D01*
X104333281Y-108547735D01*
X104426518Y-108529189D01*
X104514346Y-108492809D01*
X104593389Y-108439995D01*
X104660609Y-108372775D01*
X104713423Y-108293732D01*
X104749803Y-108205904D01*
X104768349Y-108112667D01*
X104768349Y-108017603D01*
X104765339Y-108002468D01*
X107367400Y-108002468D01*
X107367400Y-108097532D01*
X107385946Y-108190769D01*
X107422326Y-108278597D01*
X107475140Y-108357640D01*
X107542360Y-108424860D01*
X107621403Y-108477674D01*
X107709231Y-108514054D01*
X107802468Y-108532600D01*
X107897532Y-108532600D01*
X107990769Y-108514054D01*
X108078597Y-108477674D01*
X108157640Y-108424860D01*
X108224860Y-108357640D01*
X108277674Y-108278597D01*
X108314054Y-108190769D01*
X108332600Y-108097532D01*
X108332600Y-108002468D01*
X108314054Y-107909231D01*
X108286400Y-107842468D01*
X114857400Y-107842468D01*
X114857400Y-107937532D01*
X114875946Y-108030769D01*
X114912326Y-108118597D01*
X114965140Y-108197640D01*
X115032360Y-108264860D01*
X115111403Y-108317674D01*
X115199231Y-108354054D01*
X115292468Y-108372600D01*
X115387532Y-108372600D01*
X115480769Y-108354054D01*
X115568597Y-108317674D01*
X115647640Y-108264860D01*
X115714860Y-108197640D01*
X115767674Y-108118597D01*
X115804054Y-108030769D01*
X115822600Y-107937532D01*
X115822600Y-107842468D01*
X115804054Y-107749231D01*
X115767674Y-107661403D01*
X115714860Y-107582360D01*
X115647640Y-107515140D01*
X115568597Y-107462326D01*
X115480769Y-107425946D01*
X115387532Y-107407400D01*
X115292468Y-107407400D01*
X115199231Y-107425946D01*
X115111403Y-107462326D01*
X115032360Y-107515140D01*
X114965140Y-107582360D01*
X114912326Y-107661403D01*
X114875946Y-107749231D01*
X114857400Y-107842468D01*
X108286400Y-107842468D01*
X108277674Y-107821403D01*
X108224860Y-107742360D01*
X108157640Y-107675140D01*
X108078597Y-107622326D01*
X107990769Y-107585946D01*
X107897532Y-107567400D01*
X107802468Y-107567400D01*
X107709231Y-107585946D01*
X107621403Y-107622326D01*
X107542360Y-107675140D01*
X107475140Y-107742360D01*
X107422326Y-107821403D01*
X107385946Y-107909231D01*
X107367400Y-108002468D01*
X104765339Y-108002468D01*
X104749803Y-107924366D01*
X104713423Y-107836538D01*
X104660609Y-107757495D01*
X104593389Y-107690275D01*
X104514346Y-107637461D01*
X104426518Y-107601081D01*
X104333281Y-107582535D01*
X104238217Y-107582535D01*
X104144980Y-107601081D01*
X104057152Y-107637461D01*
X103978109Y-107690275D01*
X103910889Y-107757495D01*
X103858075Y-107836538D01*
X103821695Y-107924366D01*
X103803149Y-108017603D01*
X79870460Y-108017603D01*
X80331632Y-106598286D01*
X80341178Y-106570760D01*
X80343848Y-106551465D01*
X80348024Y-106532432D01*
X80348279Y-106519435D01*
X80350060Y-106506564D01*
X80348914Y-106487114D01*
X80349296Y-106467637D01*
X80347012Y-106454844D01*
X80346247Y-106441870D01*
X80341329Y-106423018D01*
X80337904Y-106403839D01*
X80333168Y-106391739D01*
X80329887Y-106379162D01*
X80321382Y-106361626D01*
X80314284Y-106343490D01*
X80307281Y-106332551D01*
X80301607Y-106320851D01*
X80289840Y-106305305D01*
X80279344Y-106288909D01*
X80270345Y-106279550D01*
X80262494Y-106269177D01*
X80247915Y-106256221D01*
X80234427Y-106242192D01*
X80210596Y-106225582D01*
X80187851Y-106209055D01*
X93753345Y-106209055D01*
X93753345Y-106304119D01*
X93771891Y-106397356D01*
X93808271Y-106485184D01*
X93861085Y-106564227D01*
X93928305Y-106631447D01*
X94007348Y-106684261D01*
X94095176Y-106720641D01*
X94188413Y-106739187D01*
X94283477Y-106739187D01*
X94376714Y-106720641D01*
X94464542Y-106684261D01*
X94543585Y-106631447D01*
X94610805Y-106564227D01*
X94663619Y-106485184D01*
X94699999Y-106397356D01*
X94718545Y-106304119D01*
X94718545Y-106222468D01*
X109187400Y-106222468D01*
X109187400Y-106317532D01*
X109205946Y-106410769D01*
X109242326Y-106498597D01*
X109295140Y-106577640D01*
X109362360Y-106644860D01*
X109441403Y-106697674D01*
X109529231Y-106734054D01*
X109622468Y-106752600D01*
X109717532Y-106752600D01*
X109810769Y-106734054D01*
X109898597Y-106697674D01*
X109977640Y-106644860D01*
X110044860Y-106577640D01*
X110097674Y-106498597D01*
X110134054Y-106410769D01*
X110152600Y-106317532D01*
X110152600Y-106222468D01*
X110134054Y-106129231D01*
X110097674Y-106041403D01*
X110044860Y-105962360D01*
X109977640Y-105895140D01*
X109898597Y-105842326D01*
X109810769Y-105805946D01*
X109717532Y-105787400D01*
X109622468Y-105787400D01*
X109529231Y-105805946D01*
X109441403Y-105842326D01*
X109362360Y-105895140D01*
X109295140Y-105962360D01*
X109242326Y-106041403D01*
X109205946Y-106129231D01*
X109187400Y-106222468D01*
X94718545Y-106222468D01*
X94718545Y-106209055D01*
X94699999Y-106115818D01*
X94663619Y-106027990D01*
X94610805Y-105948947D01*
X94543585Y-105881727D01*
X94464542Y-105828913D01*
X94376714Y-105792533D01*
X94283477Y-105773987D01*
X94188413Y-105773987D01*
X94095176Y-105792533D01*
X94007348Y-105828913D01*
X93928305Y-105881727D01*
X93861085Y-105948947D01*
X93808271Y-106027990D01*
X93771891Y-106115818D01*
X93753345Y-106209055D01*
X80187851Y-106209055D01*
X78932373Y-105296821D01*
X78978597Y-105277674D01*
X79057640Y-105224860D01*
X79124860Y-105157640D01*
X79132288Y-105146523D01*
X92673345Y-105146523D01*
X92673345Y-105241587D01*
X92691891Y-105334824D01*
X92728271Y-105422652D01*
X92781085Y-105501695D01*
X92848305Y-105568915D01*
X92927348Y-105621729D01*
X93015176Y-105658109D01*
X93108413Y-105676655D01*
X93203477Y-105676655D01*
X93296714Y-105658109D01*
X93384542Y-105621729D01*
X93463585Y-105568915D01*
X93530805Y-105501695D01*
X93583619Y-105422652D01*
X93587837Y-105412468D01*
X98317400Y-105412468D01*
X98317400Y-105507532D01*
X98335946Y-105600769D01*
X98372326Y-105688597D01*
X98425140Y-105767640D01*
X98492360Y-105834860D01*
X98571403Y-105887674D01*
X98659231Y-105924054D01*
X98752468Y-105942600D01*
X98847532Y-105942600D01*
X98940769Y-105924054D01*
X99028597Y-105887674D01*
X99107640Y-105834860D01*
X99174860Y-105767640D01*
X99227674Y-105688597D01*
X99264054Y-105600769D01*
X99282600Y-105507532D01*
X99282600Y-105412468D01*
X99264054Y-105319231D01*
X99227674Y-105231403D01*
X99174860Y-105152360D01*
X99107640Y-105085140D01*
X99028597Y-105032326D01*
X98940769Y-104995946D01*
X98847532Y-104977400D01*
X98752468Y-104977400D01*
X98659231Y-104995946D01*
X98571403Y-105032326D01*
X98492360Y-105085140D01*
X98425140Y-105152360D01*
X98372326Y-105231403D01*
X98335946Y-105319231D01*
X98317400Y-105412468D01*
X93587837Y-105412468D01*
X93619999Y-105334824D01*
X93638545Y-105241587D01*
X93638545Y-105146523D01*
X93619999Y-105053286D01*
X93583619Y-104965458D01*
X93530805Y-104886415D01*
X93463585Y-104819195D01*
X93384542Y-104766381D01*
X93296714Y-104730001D01*
X93203477Y-104711455D01*
X93108413Y-104711455D01*
X93015176Y-104730001D01*
X92927348Y-104766381D01*
X92848305Y-104819195D01*
X92781085Y-104886415D01*
X92728271Y-104965458D01*
X92691891Y-105053286D01*
X92673345Y-105146523D01*
X79132288Y-105146523D01*
X79177674Y-105078597D01*
X79214054Y-104990769D01*
X79232600Y-104897532D01*
X79232600Y-104802468D01*
X79214054Y-104709231D01*
X79177674Y-104621403D01*
X79124860Y-104542360D01*
X79057640Y-104475140D01*
X78978597Y-104422326D01*
X78890769Y-104385946D01*
X78797532Y-104367400D01*
X78702468Y-104367400D01*
X78609231Y-104385946D01*
X78521403Y-104422326D01*
X78442360Y-104475140D01*
X78375140Y-104542360D01*
X78322326Y-104621403D01*
X78285946Y-104709231D01*
X78267400Y-104802468D01*
X78267400Y-104813650D01*
X77068421Y-103942468D01*
X79447400Y-103942468D01*
X79447400Y-104037532D01*
X79465946Y-104130769D01*
X79502326Y-104218597D01*
X79555140Y-104297640D01*
X79622360Y-104364860D01*
X79701403Y-104417674D01*
X79789231Y-104454054D01*
X79882468Y-104472600D01*
X79977532Y-104472600D01*
X80070769Y-104454054D01*
X80158597Y-104417674D01*
X80237640Y-104364860D01*
X80304860Y-104297640D01*
X80357674Y-104218597D01*
X80394054Y-104130769D01*
X80412600Y-104037532D01*
X80412600Y-103942468D01*
X80394054Y-103849231D01*
X80357674Y-103761403D01*
X80338341Y-103732468D01*
X81767400Y-103732468D01*
X81767400Y-103827532D01*
X81785946Y-103920769D01*
X81822326Y-104008597D01*
X81875140Y-104087640D01*
X81942360Y-104154860D01*
X82021403Y-104207674D01*
X82109231Y-104244054D01*
X82202468Y-104262600D01*
X82297532Y-104262600D01*
X82390769Y-104244054D01*
X82478597Y-104207674D01*
X82557640Y-104154860D01*
X82624860Y-104087640D01*
X82677674Y-104008597D01*
X82714054Y-103920769D01*
X82732600Y-103827532D01*
X82732600Y-103732468D01*
X82714054Y-103639231D01*
X82677674Y-103551403D01*
X82624860Y-103472360D01*
X82557640Y-103405140D01*
X82478597Y-103352326D01*
X82390769Y-103315946D01*
X82297532Y-103297400D01*
X82202468Y-103297400D01*
X82109231Y-103315946D01*
X82021403Y-103352326D01*
X81942360Y-103405140D01*
X81875140Y-103472360D01*
X81822326Y-103551403D01*
X81785946Y-103639231D01*
X81767400Y-103732468D01*
X80338341Y-103732468D01*
X80304860Y-103682360D01*
X80237640Y-103615140D01*
X80158597Y-103562326D01*
X80070769Y-103525946D01*
X79977532Y-103507400D01*
X79882468Y-103507400D01*
X79789231Y-103525946D01*
X79701403Y-103562326D01*
X79622360Y-103615140D01*
X79555140Y-103682360D01*
X79502326Y-103761403D01*
X79465946Y-103849231D01*
X79447400Y-103942468D01*
X77068421Y-103942468D01*
X75843544Y-103052468D01*
X99907400Y-103052468D01*
X99907400Y-103147532D01*
X99925946Y-103240769D01*
X99962326Y-103328597D01*
X100015140Y-103407640D01*
X100082360Y-103474860D01*
X100161403Y-103527674D01*
X100249231Y-103564054D01*
X100342468Y-103582600D01*
X100437532Y-103582600D01*
X100530769Y-103564054D01*
X100618597Y-103527674D01*
X100697640Y-103474860D01*
X100764860Y-103407640D01*
X100817674Y-103328597D01*
X100854054Y-103240769D01*
X100872600Y-103147532D01*
X100872600Y-103052468D01*
X100854054Y-102959231D01*
X100817674Y-102871403D01*
X100764860Y-102792360D01*
X100724968Y-102752468D01*
X103767400Y-102752468D01*
X103767400Y-102847532D01*
X103785946Y-102940769D01*
X103822326Y-103028597D01*
X103875140Y-103107640D01*
X103942360Y-103174860D01*
X104021403Y-103227674D01*
X104109231Y-103264054D01*
X104202468Y-103282600D01*
X104297532Y-103282600D01*
X104390769Y-103264054D01*
X104478597Y-103227674D01*
X104557640Y-103174860D01*
X104624860Y-103107640D01*
X104677674Y-103028597D01*
X104714054Y-102940769D01*
X104732600Y-102847532D01*
X104732600Y-102752468D01*
X104714054Y-102659231D01*
X104677674Y-102571403D01*
X104624860Y-102492360D01*
X104557640Y-102425140D01*
X104478597Y-102372326D01*
X104390769Y-102335946D01*
X104297532Y-102317400D01*
X104202468Y-102317400D01*
X104109231Y-102335946D01*
X104021403Y-102372326D01*
X103942360Y-102425140D01*
X103875140Y-102492360D01*
X103822326Y-102571403D01*
X103785946Y-102659231D01*
X103767400Y-102752468D01*
X100724968Y-102752468D01*
X100697640Y-102725140D01*
X100618597Y-102672326D01*
X100530769Y-102635946D01*
X100437532Y-102617400D01*
X100342468Y-102617400D01*
X100249231Y-102635946D01*
X100161403Y-102672326D01*
X100082360Y-102725140D01*
X100015140Y-102792360D01*
X99962326Y-102871403D01*
X99925946Y-102959231D01*
X99907400Y-103052468D01*
X75843544Y-103052468D01*
X74233312Y-101882468D01*
X79447400Y-101882468D01*
X79447400Y-101977532D01*
X79465946Y-102070769D01*
X79502326Y-102158597D01*
X79555140Y-102237640D01*
X79622360Y-102304860D01*
X79701403Y-102357674D01*
X79789231Y-102394054D01*
X79882468Y-102412600D01*
X79977532Y-102412600D01*
X80070769Y-102394054D01*
X80158597Y-102357674D01*
X80166388Y-102352468D01*
X91957400Y-102352468D01*
X91957400Y-102447532D01*
X91975946Y-102540769D01*
X92012326Y-102628597D01*
X92065140Y-102707640D01*
X92132360Y-102774860D01*
X92211403Y-102827674D01*
X92299231Y-102864054D01*
X92392468Y-102882600D01*
X92487532Y-102882600D01*
X92580769Y-102864054D01*
X92668597Y-102827674D01*
X92747640Y-102774860D01*
X92814860Y-102707640D01*
X92867674Y-102628597D01*
X92904054Y-102540769D01*
X92922600Y-102447532D01*
X92922600Y-102352468D01*
X92904054Y-102259231D01*
X92867674Y-102171403D01*
X92814860Y-102092360D01*
X92747640Y-102025140D01*
X92668597Y-101972326D01*
X92580769Y-101935946D01*
X92487532Y-101917400D01*
X92392468Y-101917400D01*
X92299231Y-101935946D01*
X92211403Y-101972326D01*
X92132360Y-102025140D01*
X92065140Y-102092360D01*
X92012326Y-102171403D01*
X91975946Y-102259231D01*
X91957400Y-102352468D01*
X80166388Y-102352468D01*
X80237640Y-102304860D01*
X80304860Y-102237640D01*
X80357674Y-102158597D01*
X80394054Y-102070769D01*
X80412600Y-101977532D01*
X80412600Y-101882468D01*
X80394054Y-101789231D01*
X80357674Y-101701403D01*
X80304860Y-101622360D01*
X80237640Y-101555140D01*
X80158597Y-101502326D01*
X80070769Y-101465946D01*
X79977532Y-101447400D01*
X79882468Y-101447400D01*
X79789231Y-101465946D01*
X79701403Y-101502326D01*
X79622360Y-101555140D01*
X79555140Y-101622360D01*
X79502326Y-101701403D01*
X79465946Y-101789231D01*
X79447400Y-101882468D01*
X74233312Y-101882468D01*
X72898333Y-100912468D01*
X82397400Y-100912468D01*
X82397400Y-101007532D01*
X82415946Y-101100769D01*
X82452326Y-101188597D01*
X82505140Y-101267640D01*
X82572360Y-101334860D01*
X82651403Y-101387674D01*
X82739231Y-101424054D01*
X82832468Y-101442600D01*
X82927532Y-101442600D01*
X83020769Y-101424054D01*
X83108597Y-101387674D01*
X83187640Y-101334860D01*
X83254860Y-101267640D01*
X83307674Y-101188597D01*
X83344054Y-101100769D01*
X83362600Y-101007532D01*
X83362600Y-100912468D01*
X83344054Y-100819231D01*
X83307674Y-100731403D01*
X83254860Y-100652360D01*
X83187640Y-100585140D01*
X83108597Y-100532326D01*
X83020769Y-100495946D01*
X82927532Y-100477400D01*
X82832468Y-100477400D01*
X82739231Y-100495946D01*
X82651403Y-100532326D01*
X82572360Y-100585140D01*
X82505140Y-100652360D01*
X82452326Y-100731403D01*
X82415946Y-100819231D01*
X82397400Y-100912468D01*
X72898333Y-100912468D01*
X72265251Y-100452468D01*
X85567400Y-100452468D01*
X85567400Y-100547532D01*
X85585946Y-100640769D01*
X85622326Y-100728597D01*
X85675140Y-100807640D01*
X85742360Y-100874860D01*
X85821403Y-100927674D01*
X85909231Y-100964054D01*
X86002468Y-100982600D01*
X86097532Y-100982600D01*
X86190769Y-100964054D01*
X86278597Y-100927674D01*
X86301354Y-100912468D01*
X116727400Y-100912468D01*
X116727400Y-101007532D01*
X116745946Y-101100769D01*
X116782326Y-101188597D01*
X116835140Y-101267640D01*
X116902360Y-101334860D01*
X116981403Y-101387674D01*
X117069231Y-101424054D01*
X117162468Y-101442600D01*
X117257532Y-101442600D01*
X117350769Y-101424054D01*
X117438597Y-101387674D01*
X117517640Y-101334860D01*
X117584860Y-101267640D01*
X117637674Y-101188597D01*
X117674054Y-101100769D01*
X117692600Y-101007532D01*
X117692600Y-100912468D01*
X117674054Y-100819231D01*
X117637674Y-100731403D01*
X117584860Y-100652360D01*
X117517640Y-100585140D01*
X117438597Y-100532326D01*
X117350769Y-100495946D01*
X117257532Y-100477400D01*
X117162468Y-100477400D01*
X117069231Y-100495946D01*
X116981403Y-100532326D01*
X116902360Y-100585140D01*
X116835140Y-100652360D01*
X116782326Y-100731403D01*
X116745946Y-100819231D01*
X116727400Y-100912468D01*
X86301354Y-100912468D01*
X86357640Y-100874860D01*
X86424860Y-100807640D01*
X86477674Y-100728597D01*
X86514054Y-100640769D01*
X86532600Y-100547532D01*
X86532600Y-100452468D01*
X86514054Y-100359231D01*
X86511253Y-100352468D01*
X102567400Y-100352468D01*
X102567400Y-100447532D01*
X102585946Y-100540769D01*
X102622326Y-100628597D01*
X102675140Y-100707640D01*
X102742360Y-100774860D01*
X102821403Y-100827674D01*
X102909231Y-100864054D01*
X103002468Y-100882600D01*
X103097532Y-100882600D01*
X103190769Y-100864054D01*
X103278597Y-100827674D01*
X103357640Y-100774860D01*
X103424860Y-100707640D01*
X103477674Y-100628597D01*
X103514054Y-100540769D01*
X103532600Y-100447532D01*
X103532600Y-100352468D01*
X103514054Y-100259231D01*
X103477674Y-100171403D01*
X103424860Y-100092360D01*
X103357640Y-100025140D01*
X103278597Y-99972326D01*
X103190769Y-99935946D01*
X103097532Y-99917400D01*
X103002468Y-99917400D01*
X102909231Y-99935946D01*
X102821403Y-99972326D01*
X102742360Y-100025140D01*
X102675140Y-100092360D01*
X102622326Y-100171403D01*
X102585946Y-100259231D01*
X102567400Y-100352468D01*
X86511253Y-100352468D01*
X86477674Y-100271403D01*
X86424860Y-100192360D01*
X86357640Y-100125140D01*
X86278597Y-100072326D01*
X86190769Y-100035946D01*
X86097532Y-100017400D01*
X86002468Y-100017400D01*
X85909231Y-100035946D01*
X85821403Y-100072326D01*
X85742360Y-100125140D01*
X85675140Y-100192360D01*
X85622326Y-100271403D01*
X85585946Y-100359231D01*
X85567400Y-100452468D01*
X72265251Y-100452468D01*
X71164237Y-99652468D01*
X90047400Y-99652468D01*
X90047400Y-99747532D01*
X90065946Y-99840769D01*
X90102326Y-99928597D01*
X90155140Y-100007640D01*
X90222360Y-100074860D01*
X90301403Y-100127674D01*
X90389231Y-100164054D01*
X90482468Y-100182600D01*
X90577532Y-100182600D01*
X90670769Y-100164054D01*
X90758597Y-100127674D01*
X90837640Y-100074860D01*
X90904860Y-100007640D01*
X90957674Y-99928597D01*
X90994054Y-99840769D01*
X91012600Y-99747532D01*
X91012600Y-99652468D01*
X91317400Y-99652468D01*
X91317400Y-99747532D01*
X91335946Y-99840769D01*
X91372326Y-99928597D01*
X91425140Y-100007640D01*
X91492360Y-100074860D01*
X91571403Y-100127674D01*
X91659231Y-100164054D01*
X91752468Y-100182600D01*
X91847532Y-100182600D01*
X91940769Y-100164054D01*
X92028597Y-100127674D01*
X92107640Y-100074860D01*
X92174860Y-100007640D01*
X92227674Y-99928597D01*
X92264054Y-99840769D01*
X92282600Y-99747532D01*
X92282600Y-99652468D01*
X92587400Y-99652468D01*
X92587400Y-99747532D01*
X92605946Y-99840769D01*
X92642326Y-99928597D01*
X92695140Y-100007640D01*
X92762360Y-100074860D01*
X92841403Y-100127674D01*
X92929231Y-100164054D01*
X93022468Y-100182600D01*
X93117532Y-100182600D01*
X93210769Y-100164054D01*
X93298597Y-100127674D01*
X93377640Y-100074860D01*
X93444860Y-100007640D01*
X93497674Y-99928597D01*
X93534054Y-99840769D01*
X93552600Y-99747532D01*
X93552600Y-99652468D01*
X93857400Y-99652468D01*
X93857400Y-99747532D01*
X93875946Y-99840769D01*
X93912326Y-99928597D01*
X93965140Y-100007640D01*
X94032360Y-100074860D01*
X94111403Y-100127674D01*
X94199231Y-100164054D01*
X94292468Y-100182600D01*
X94387532Y-100182600D01*
X94480769Y-100164054D01*
X94568597Y-100127674D01*
X94647640Y-100074860D01*
X94714860Y-100007640D01*
X94767674Y-99928597D01*
X94804054Y-99840769D01*
X94822600Y-99747532D01*
X94822600Y-99652468D01*
X94804054Y-99559231D01*
X94767674Y-99471403D01*
X94714860Y-99392360D01*
X94647640Y-99325140D01*
X94568597Y-99272326D01*
X94480769Y-99235946D01*
X94387532Y-99217400D01*
X94292468Y-99217400D01*
X94199231Y-99235946D01*
X94111403Y-99272326D01*
X94032360Y-99325140D01*
X93965140Y-99392360D01*
X93912326Y-99471403D01*
X93875946Y-99559231D01*
X93857400Y-99652468D01*
X93552600Y-99652468D01*
X93534054Y-99559231D01*
X93497674Y-99471403D01*
X93444860Y-99392360D01*
X93377640Y-99325140D01*
X93298597Y-99272326D01*
X93210769Y-99235946D01*
X93117532Y-99217400D01*
X93022468Y-99217400D01*
X92929231Y-99235946D01*
X92841403Y-99272326D01*
X92762360Y-99325140D01*
X92695140Y-99392360D01*
X92642326Y-99471403D01*
X92605946Y-99559231D01*
X92587400Y-99652468D01*
X92282600Y-99652468D01*
X92264054Y-99559231D01*
X92227674Y-99471403D01*
X92174860Y-99392360D01*
X92107640Y-99325140D01*
X92028597Y-99272326D01*
X91940769Y-99235946D01*
X91847532Y-99217400D01*
X91752468Y-99217400D01*
X91659231Y-99235946D01*
X91571403Y-99272326D01*
X91492360Y-99325140D01*
X91425140Y-99392360D01*
X91372326Y-99471403D01*
X91335946Y-99559231D01*
X91317400Y-99652468D01*
X91012600Y-99652468D01*
X90994054Y-99559231D01*
X90957674Y-99471403D01*
X90904860Y-99392360D01*
X90837640Y-99325140D01*
X90758597Y-99272326D01*
X90670769Y-99235946D01*
X90577532Y-99217400D01*
X90482468Y-99217400D01*
X90389231Y-99235946D01*
X90301403Y-99272326D01*
X90222360Y-99325140D01*
X90155140Y-99392360D01*
X90102326Y-99471403D01*
X90065946Y-99559231D01*
X90047400Y-99652468D01*
X71164237Y-99652468D01*
X70250562Y-98988589D01*
X96241632Y-98988589D01*
X96241632Y-99083653D01*
X96260178Y-99176890D01*
X96296558Y-99264718D01*
X96349372Y-99343761D01*
X96416592Y-99410981D01*
X96495635Y-99463795D01*
X96583463Y-99500175D01*
X96676700Y-99518721D01*
X96771764Y-99518721D01*
X96865001Y-99500175D01*
X96952829Y-99463795D01*
X97031872Y-99410981D01*
X97099092Y-99343761D01*
X97151906Y-99264718D01*
X97188286Y-99176890D01*
X97206832Y-99083653D01*
X97206832Y-98988589D01*
X97188286Y-98895352D01*
X97151906Y-98807524D01*
X97127852Y-98771523D01*
X125216455Y-98771523D01*
X125216455Y-98866587D01*
X125235001Y-98959824D01*
X125271381Y-99047652D01*
X125324195Y-99126695D01*
X125391415Y-99193915D01*
X125470458Y-99246729D01*
X125558286Y-99283109D01*
X125651523Y-99301655D01*
X125746587Y-99301655D01*
X125839824Y-99283109D01*
X125927652Y-99246729D01*
X126006695Y-99193915D01*
X126073915Y-99126695D01*
X126126729Y-99047652D01*
X126163109Y-98959824D01*
X126181655Y-98866587D01*
X126181655Y-98771523D01*
X126163109Y-98678286D01*
X126126729Y-98590458D01*
X126073915Y-98511415D01*
X126006695Y-98444195D01*
X125927652Y-98391381D01*
X125839824Y-98355001D01*
X125746587Y-98336455D01*
X125651523Y-98336455D01*
X125558286Y-98355001D01*
X125470458Y-98391381D01*
X125391415Y-98444195D01*
X125324195Y-98511415D01*
X125271381Y-98590458D01*
X125235001Y-98678286D01*
X125216455Y-98771523D01*
X97127852Y-98771523D01*
X97099092Y-98728481D01*
X97031872Y-98661261D01*
X96952829Y-98608447D01*
X96865001Y-98572067D01*
X96771764Y-98553521D01*
X96676700Y-98553521D01*
X96583463Y-98572067D01*
X96495635Y-98608447D01*
X96416592Y-98661261D01*
X96349372Y-98728481D01*
X96296558Y-98807524D01*
X96260178Y-98895352D01*
X96241632Y-98988589D01*
X70250562Y-98988589D01*
X69624032Y-98533351D01*
X69670769Y-98524054D01*
X69758597Y-98487674D01*
X69837640Y-98434860D01*
X69890032Y-98382468D01*
X91317400Y-98382468D01*
X91317400Y-98477532D01*
X91335946Y-98570769D01*
X91372326Y-98658597D01*
X91425140Y-98737640D01*
X91492360Y-98804860D01*
X91571403Y-98857674D01*
X91659231Y-98894054D01*
X91752468Y-98912600D01*
X91847532Y-98912600D01*
X91940769Y-98894054D01*
X92028597Y-98857674D01*
X92107640Y-98804860D01*
X92174860Y-98737640D01*
X92227674Y-98658597D01*
X92264054Y-98570769D01*
X92282600Y-98477532D01*
X92282600Y-98382468D01*
X93857400Y-98382468D01*
X93857400Y-98477532D01*
X93875946Y-98570769D01*
X93912326Y-98658597D01*
X93965140Y-98737640D01*
X94032360Y-98804860D01*
X94111403Y-98857674D01*
X94199231Y-98894054D01*
X94292468Y-98912600D01*
X94387532Y-98912600D01*
X94480769Y-98894054D01*
X94568597Y-98857674D01*
X94647640Y-98804860D01*
X94714860Y-98737640D01*
X94767674Y-98658597D01*
X94804054Y-98570769D01*
X94822600Y-98477532D01*
X94822600Y-98382468D01*
X94804054Y-98289231D01*
X94767674Y-98201403D01*
X94714860Y-98122360D01*
X94647640Y-98055140D01*
X94568597Y-98002326D01*
X94480769Y-97965946D01*
X94413011Y-97952468D01*
X96467400Y-97952468D01*
X96467400Y-98047532D01*
X96485946Y-98140769D01*
X96522326Y-98228597D01*
X96575140Y-98307640D01*
X96642360Y-98374860D01*
X96721403Y-98427674D01*
X96809231Y-98464054D01*
X96902468Y-98482600D01*
X96997532Y-98482600D01*
X97090769Y-98464054D01*
X97178597Y-98427674D01*
X97257640Y-98374860D01*
X97324860Y-98307640D01*
X97377674Y-98228597D01*
X97414054Y-98140769D01*
X97432600Y-98047532D01*
X97432600Y-97952468D01*
X100017400Y-97952468D01*
X100017400Y-98047532D01*
X100035946Y-98140769D01*
X100072326Y-98228597D01*
X100125140Y-98307640D01*
X100192360Y-98374860D01*
X100271403Y-98427674D01*
X100359231Y-98464054D01*
X100452468Y-98482600D01*
X100547532Y-98482600D01*
X100640769Y-98464054D01*
X100728597Y-98427674D01*
X100807640Y-98374860D01*
X100874860Y-98307640D01*
X100927674Y-98228597D01*
X100964054Y-98140769D01*
X100982600Y-98047532D01*
X100982600Y-97952468D01*
X100964054Y-97859231D01*
X100927674Y-97771403D01*
X100874860Y-97692360D01*
X100807640Y-97625140D01*
X100728597Y-97572326D01*
X100640769Y-97535946D01*
X100547532Y-97517400D01*
X100452468Y-97517400D01*
X100359231Y-97535946D01*
X100271403Y-97572326D01*
X100192360Y-97625140D01*
X100125140Y-97692360D01*
X100072326Y-97771403D01*
X100035946Y-97859231D01*
X100017400Y-97952468D01*
X97432600Y-97952468D01*
X97414054Y-97859231D01*
X97377674Y-97771403D01*
X97324860Y-97692360D01*
X97257640Y-97625140D01*
X97178597Y-97572326D01*
X97090769Y-97535946D01*
X96997532Y-97517400D01*
X96902468Y-97517400D01*
X96809231Y-97535946D01*
X96721403Y-97572326D01*
X96642360Y-97625140D01*
X96575140Y-97692360D01*
X96522326Y-97771403D01*
X96485946Y-97859231D01*
X96467400Y-97952468D01*
X94413011Y-97952468D01*
X94387532Y-97947400D01*
X94292468Y-97947400D01*
X94199231Y-97965946D01*
X94111403Y-98002326D01*
X94032360Y-98055140D01*
X93965140Y-98122360D01*
X93912326Y-98201403D01*
X93875946Y-98289231D01*
X93857400Y-98382468D01*
X92282600Y-98382468D01*
X92264054Y-98289231D01*
X92227674Y-98201403D01*
X92174860Y-98122360D01*
X92107640Y-98055140D01*
X92028597Y-98002326D01*
X91940769Y-97965946D01*
X91847532Y-97947400D01*
X91752468Y-97947400D01*
X91659231Y-97965946D01*
X91571403Y-98002326D01*
X91492360Y-98055140D01*
X91425140Y-98122360D01*
X91372326Y-98201403D01*
X91335946Y-98289231D01*
X91317400Y-98382468D01*
X69890032Y-98382468D01*
X69904860Y-98367640D01*
X69957674Y-98288597D01*
X69994054Y-98200769D01*
X70012600Y-98107532D01*
X70012600Y-98012468D01*
X69994054Y-97919231D01*
X69957674Y-97831403D01*
X69904860Y-97752360D01*
X69837640Y-97685140D01*
X69758597Y-97632326D01*
X69670769Y-97595946D01*
X69577532Y-97577400D01*
X69482468Y-97577400D01*
X69389231Y-97595946D01*
X69301403Y-97632326D01*
X69222360Y-97685140D01*
X69155140Y-97752360D01*
X69102326Y-97831403D01*
X69065946Y-97919231D01*
X69047400Y-98012468D01*
X69047400Y-98107532D01*
X69048990Y-98115523D01*
X67668520Y-97112468D01*
X89412400Y-97112468D01*
X89412400Y-97207532D01*
X89430946Y-97300769D01*
X89467326Y-97388597D01*
X89520140Y-97467640D01*
X89587360Y-97534860D01*
X89666403Y-97587674D01*
X89754231Y-97624054D01*
X89847468Y-97642600D01*
X89942532Y-97642600D01*
X90035769Y-97624054D01*
X90123597Y-97587674D01*
X90202640Y-97534860D01*
X90269860Y-97467640D01*
X90322674Y-97388597D01*
X90359054Y-97300769D01*
X90377600Y-97207532D01*
X90377600Y-97112468D01*
X90359054Y-97019231D01*
X90322674Y-96931403D01*
X90269860Y-96852360D01*
X90202640Y-96785140D01*
X90123597Y-96732326D01*
X90035769Y-96695946D01*
X89942532Y-96677400D01*
X89847468Y-96677400D01*
X89754231Y-96695946D01*
X89666403Y-96732326D01*
X89587360Y-96785140D01*
X89520140Y-96852360D01*
X89467326Y-96931403D01*
X89430946Y-97019231D01*
X89412400Y-97112468D01*
X67668520Y-97112468D01*
X66794590Y-96477468D01*
X83697400Y-96477468D01*
X83697400Y-96572532D01*
X83715946Y-96665769D01*
X83752326Y-96753597D01*
X83805140Y-96832640D01*
X83872360Y-96899860D01*
X83951403Y-96952674D01*
X84039231Y-96989054D01*
X84132468Y-97007600D01*
X84227532Y-97007600D01*
X84320769Y-96989054D01*
X84408597Y-96952674D01*
X84487640Y-96899860D01*
X84554860Y-96832640D01*
X84607674Y-96753597D01*
X84644054Y-96665769D01*
X84662600Y-96572532D01*
X84662600Y-96477468D01*
X93222400Y-96477468D01*
X93222400Y-96572532D01*
X93240946Y-96665769D01*
X93277326Y-96753597D01*
X93330140Y-96832640D01*
X93397360Y-96899860D01*
X93476403Y-96952674D01*
X93564231Y-96989054D01*
X93657468Y-97007600D01*
X93752532Y-97007600D01*
X93845769Y-96989054D01*
X93933597Y-96952674D01*
X94012640Y-96899860D01*
X94060032Y-96852468D01*
X99117400Y-96852468D01*
X99117400Y-96947532D01*
X99135946Y-97040769D01*
X99172326Y-97128597D01*
X99225140Y-97207640D01*
X99292360Y-97274860D01*
X99371403Y-97327674D01*
X99459231Y-97364054D01*
X99552468Y-97382600D01*
X99647532Y-97382600D01*
X99740769Y-97364054D01*
X99828597Y-97327674D01*
X99907640Y-97274860D01*
X99974860Y-97207640D01*
X100027674Y-97128597D01*
X100064054Y-97040769D01*
X100082600Y-96947532D01*
X100082600Y-96852468D01*
X101517400Y-96852468D01*
X101517400Y-96947532D01*
X101535946Y-97040769D01*
X101572326Y-97128597D01*
X101625140Y-97207640D01*
X101692360Y-97274860D01*
X101771403Y-97327674D01*
X101859231Y-97364054D01*
X101952468Y-97382600D01*
X102047532Y-97382600D01*
X102140769Y-97364054D01*
X102228597Y-97327674D01*
X102307640Y-97274860D01*
X102374860Y-97207640D01*
X102384997Y-97192468D01*
X122657400Y-97192468D01*
X122657400Y-97287532D01*
X122675946Y-97380769D01*
X122712326Y-97468597D01*
X122765140Y-97547640D01*
X122832360Y-97614860D01*
X122911403Y-97667674D01*
X122999231Y-97704054D01*
X123092468Y-97722600D01*
X123187532Y-97722600D01*
X123280769Y-97704054D01*
X123368597Y-97667674D01*
X123447640Y-97614860D01*
X123514860Y-97547640D01*
X123567674Y-97468597D01*
X123604054Y-97380769D01*
X123622600Y-97287532D01*
X123622600Y-97192468D01*
X123604054Y-97099231D01*
X123567674Y-97011403D01*
X123514860Y-96932360D01*
X123447640Y-96865140D01*
X123368597Y-96812326D01*
X123280769Y-96775946D01*
X123187532Y-96757400D01*
X123092468Y-96757400D01*
X122999231Y-96775946D01*
X122911403Y-96812326D01*
X122832360Y-96865140D01*
X122765140Y-96932360D01*
X122712326Y-97011403D01*
X122675946Y-97099231D01*
X122657400Y-97192468D01*
X102384997Y-97192468D01*
X102427674Y-97128597D01*
X102464054Y-97040769D01*
X102482600Y-96947532D01*
X102482600Y-96852468D01*
X102464054Y-96759231D01*
X102427674Y-96671403D01*
X102374860Y-96592360D01*
X102307640Y-96525140D01*
X102228597Y-96472326D01*
X102140769Y-96435946D01*
X102047532Y-96417400D01*
X101952468Y-96417400D01*
X101859231Y-96435946D01*
X101771403Y-96472326D01*
X101692360Y-96525140D01*
X101625140Y-96592360D01*
X101572326Y-96671403D01*
X101535946Y-96759231D01*
X101517400Y-96852468D01*
X100082600Y-96852468D01*
X100064054Y-96759231D01*
X100027674Y-96671403D01*
X99974860Y-96592360D01*
X99907640Y-96525140D01*
X99828597Y-96472326D01*
X99740769Y-96435946D01*
X99647532Y-96417400D01*
X99552468Y-96417400D01*
X99459231Y-96435946D01*
X99371403Y-96472326D01*
X99292360Y-96525140D01*
X99225140Y-96592360D01*
X99172326Y-96671403D01*
X99135946Y-96759231D01*
X99117400Y-96852468D01*
X94060032Y-96852468D01*
X94079860Y-96832640D01*
X94132674Y-96753597D01*
X94169054Y-96665769D01*
X94187600Y-96572532D01*
X94187600Y-96477468D01*
X94169054Y-96384231D01*
X94132674Y-96296403D01*
X94079860Y-96217360D01*
X94012640Y-96150140D01*
X93933597Y-96097326D01*
X93845769Y-96060946D01*
X93752532Y-96042400D01*
X93657468Y-96042400D01*
X93564231Y-96060946D01*
X93476403Y-96097326D01*
X93397360Y-96150140D01*
X93330140Y-96217360D01*
X93277326Y-96296403D01*
X93240946Y-96384231D01*
X93222400Y-96477468D01*
X84662600Y-96477468D01*
X84644054Y-96384231D01*
X84607674Y-96296403D01*
X84554860Y-96217360D01*
X84487640Y-96150140D01*
X84408597Y-96097326D01*
X84320769Y-96060946D01*
X84227532Y-96042400D01*
X84132468Y-96042400D01*
X84039231Y-96060946D01*
X83951403Y-96097326D01*
X83872360Y-96150140D01*
X83805140Y-96217360D01*
X83752326Y-96296403D01*
X83715946Y-96384231D01*
X83697400Y-96477468D01*
X66794590Y-96477468D01*
X65046731Y-95207468D01*
X83697400Y-95207468D01*
X83697400Y-95302532D01*
X83715946Y-95395769D01*
X83752326Y-95483597D01*
X83805140Y-95562640D01*
X83872360Y-95629860D01*
X83951403Y-95682674D01*
X84039231Y-95719054D01*
X84132468Y-95737600D01*
X84227532Y-95737600D01*
X84320769Y-95719054D01*
X84408597Y-95682674D01*
X84487640Y-95629860D01*
X84554860Y-95562640D01*
X84607674Y-95483597D01*
X84644054Y-95395769D01*
X84662600Y-95302532D01*
X84662600Y-95207468D01*
X84967400Y-95207468D01*
X84967400Y-95302532D01*
X84985946Y-95395769D01*
X85022326Y-95483597D01*
X85075140Y-95562640D01*
X85142360Y-95629860D01*
X85221403Y-95682674D01*
X85309231Y-95719054D01*
X85402468Y-95737600D01*
X85497532Y-95737600D01*
X85590769Y-95719054D01*
X85678597Y-95682674D01*
X85757640Y-95629860D01*
X85824860Y-95562640D01*
X85877674Y-95483597D01*
X85914054Y-95395769D01*
X85932600Y-95302532D01*
X85932600Y-95207468D01*
X86237400Y-95207468D01*
X86237400Y-95302532D01*
X86255946Y-95395769D01*
X86292326Y-95483597D01*
X86345140Y-95562640D01*
X86412360Y-95629860D01*
X86491403Y-95682674D01*
X86579231Y-95719054D01*
X86672468Y-95737600D01*
X86767532Y-95737600D01*
X86860769Y-95719054D01*
X86948597Y-95682674D01*
X87027640Y-95629860D01*
X87094860Y-95562640D01*
X87147674Y-95483597D01*
X87184054Y-95395769D01*
X87202600Y-95302532D01*
X87202600Y-95207468D01*
X91317400Y-95207468D01*
X91317400Y-95302532D01*
X91335946Y-95395769D01*
X91372326Y-95483597D01*
X91425140Y-95562640D01*
X91492360Y-95629860D01*
X91571403Y-95682674D01*
X91659231Y-95719054D01*
X91752468Y-95737600D01*
X91847532Y-95737600D01*
X91940769Y-95719054D01*
X92028597Y-95682674D01*
X92107640Y-95629860D01*
X92174860Y-95562640D01*
X92227674Y-95483597D01*
X92264054Y-95395769D01*
X92282600Y-95302532D01*
X92282600Y-95207468D01*
X93222400Y-95207468D01*
X93222400Y-95302532D01*
X93240946Y-95395769D01*
X93277326Y-95483597D01*
X93330140Y-95562640D01*
X93397360Y-95629860D01*
X93476403Y-95682674D01*
X93564231Y-95719054D01*
X93657468Y-95737600D01*
X93752532Y-95737600D01*
X93845769Y-95719054D01*
X93933597Y-95682674D01*
X94012640Y-95629860D01*
X94079860Y-95562640D01*
X94132674Y-95483597D01*
X94169054Y-95395769D01*
X94187600Y-95302532D01*
X94187600Y-95302468D01*
X94767400Y-95302468D01*
X94767400Y-95397532D01*
X94785946Y-95490769D01*
X94822326Y-95578597D01*
X94875140Y-95657640D01*
X94942360Y-95724860D01*
X95021403Y-95777674D01*
X95109231Y-95814054D01*
X95202468Y-95832600D01*
X95297532Y-95832600D01*
X95390769Y-95814054D01*
X95478597Y-95777674D01*
X95557640Y-95724860D01*
X95624860Y-95657640D01*
X95628315Y-95652468D01*
X95817400Y-95652468D01*
X95817400Y-95747532D01*
X95835946Y-95840769D01*
X95872326Y-95928597D01*
X95925140Y-96007640D01*
X95992360Y-96074860D01*
X96071403Y-96127674D01*
X96159231Y-96164054D01*
X96252468Y-96182600D01*
X96347532Y-96182600D01*
X96440769Y-96164054D01*
X96528597Y-96127674D01*
X96607640Y-96074860D01*
X96674860Y-96007640D01*
X96727674Y-95928597D01*
X96764054Y-95840769D01*
X96782600Y-95747532D01*
X96782600Y-95702468D01*
X103017400Y-95702468D01*
X103017400Y-95797532D01*
X103035946Y-95890769D01*
X103072326Y-95978597D01*
X103125140Y-96057640D01*
X103192360Y-96124860D01*
X103271403Y-96177674D01*
X103359231Y-96214054D01*
X103452468Y-96232600D01*
X103547532Y-96232600D01*
X103640769Y-96214054D01*
X103728597Y-96177674D01*
X103807640Y-96124860D01*
X103874860Y-96057640D01*
X103927674Y-95978597D01*
X103929163Y-95975000D01*
X109406385Y-95975000D01*
X109424805Y-96162017D01*
X109479355Y-96341846D01*
X109567941Y-96507578D01*
X109687157Y-96652843D01*
X109832422Y-96772059D01*
X109998154Y-96860645D01*
X110177983Y-96915195D01*
X110318144Y-96929000D01*
X110961856Y-96929000D01*
X111102017Y-96915195D01*
X111281846Y-96860645D01*
X111447578Y-96772059D01*
X111592843Y-96652843D01*
X111617771Y-96622468D01*
X128527400Y-96622468D01*
X128527400Y-96717532D01*
X128545946Y-96810769D01*
X128582326Y-96898597D01*
X128635140Y-96977640D01*
X128702360Y-97044860D01*
X128781403Y-97097674D01*
X128869231Y-97134054D01*
X128962468Y-97152600D01*
X129057532Y-97152600D01*
X129150769Y-97134054D01*
X129238597Y-97097674D01*
X129317640Y-97044860D01*
X129384860Y-96977640D01*
X129437674Y-96898597D01*
X129474054Y-96810769D01*
X129492600Y-96717532D01*
X129492600Y-96622468D01*
X129474054Y-96529231D01*
X129437674Y-96441403D01*
X129384860Y-96362360D01*
X129317640Y-96295140D01*
X129238597Y-96242326D01*
X129150769Y-96205946D01*
X129057532Y-96187400D01*
X128962468Y-96187400D01*
X128869231Y-96205946D01*
X128781403Y-96242326D01*
X128702360Y-96295140D01*
X128635140Y-96362360D01*
X128582326Y-96441403D01*
X128545946Y-96529231D01*
X128527400Y-96622468D01*
X111617771Y-96622468D01*
X111712059Y-96507578D01*
X111800645Y-96341846D01*
X111855195Y-96162017D01*
X111873615Y-95975000D01*
X111855195Y-95787983D01*
X111800645Y-95608154D01*
X111712059Y-95442422D01*
X111592843Y-95297157D01*
X111447578Y-95177941D01*
X111281846Y-95089355D01*
X111102017Y-95034805D01*
X110961856Y-95021000D01*
X110318144Y-95021000D01*
X110177983Y-95034805D01*
X109998154Y-95089355D01*
X109832422Y-95177941D01*
X109687157Y-95297157D01*
X109567941Y-95442422D01*
X109479355Y-95608154D01*
X109424805Y-95787983D01*
X109406385Y-95975000D01*
X103929163Y-95975000D01*
X103964054Y-95890769D01*
X103982600Y-95797532D01*
X103982600Y-95702468D01*
X103964054Y-95609231D01*
X103927674Y-95521403D01*
X103874860Y-95442360D01*
X103807640Y-95375140D01*
X103728597Y-95322326D01*
X103640769Y-95285946D01*
X103547532Y-95267400D01*
X103452468Y-95267400D01*
X103359231Y-95285946D01*
X103271403Y-95322326D01*
X103192360Y-95375140D01*
X103125140Y-95442360D01*
X103072326Y-95521403D01*
X103035946Y-95609231D01*
X103017400Y-95702468D01*
X96782600Y-95702468D01*
X96782600Y-95652468D01*
X96764054Y-95559231D01*
X96727674Y-95471403D01*
X96674860Y-95392360D01*
X96607640Y-95325140D01*
X96528597Y-95272326D01*
X96440769Y-95235946D01*
X96347532Y-95217400D01*
X96252468Y-95217400D01*
X96159231Y-95235946D01*
X96071403Y-95272326D01*
X95992360Y-95325140D01*
X95925140Y-95392360D01*
X95872326Y-95471403D01*
X95835946Y-95559231D01*
X95817400Y-95652468D01*
X95628315Y-95652468D01*
X95677674Y-95578597D01*
X95714054Y-95490769D01*
X95732600Y-95397532D01*
X95732600Y-95302468D01*
X95714054Y-95209231D01*
X95677674Y-95121403D01*
X95624860Y-95042360D01*
X95557640Y-94975140D01*
X95478597Y-94922326D01*
X95390769Y-94885946D01*
X95297532Y-94867400D01*
X95202468Y-94867400D01*
X95109231Y-94885946D01*
X95021403Y-94922326D01*
X94942360Y-94975140D01*
X94875140Y-95042360D01*
X94822326Y-95121403D01*
X94785946Y-95209231D01*
X94767400Y-95302468D01*
X94187600Y-95302468D01*
X94187600Y-95207468D01*
X94169054Y-95114231D01*
X94132674Y-95026403D01*
X94079860Y-94947360D01*
X94012640Y-94880140D01*
X93933597Y-94827326D01*
X93845769Y-94790946D01*
X93752532Y-94772400D01*
X93657468Y-94772400D01*
X93564231Y-94790946D01*
X93476403Y-94827326D01*
X93397360Y-94880140D01*
X93330140Y-94947360D01*
X93277326Y-95026403D01*
X93240946Y-95114231D01*
X93222400Y-95207468D01*
X92282600Y-95207468D01*
X92264054Y-95114231D01*
X92227674Y-95026403D01*
X92174860Y-94947360D01*
X92107640Y-94880140D01*
X92028597Y-94827326D01*
X91940769Y-94790946D01*
X91847532Y-94772400D01*
X91752468Y-94772400D01*
X91659231Y-94790946D01*
X91571403Y-94827326D01*
X91492360Y-94880140D01*
X91425140Y-94947360D01*
X91372326Y-95026403D01*
X91335946Y-95114231D01*
X91317400Y-95207468D01*
X87202600Y-95207468D01*
X87184054Y-95114231D01*
X87147674Y-95026403D01*
X87094860Y-94947360D01*
X87027640Y-94880140D01*
X86948597Y-94827326D01*
X86860769Y-94790946D01*
X86767532Y-94772400D01*
X86672468Y-94772400D01*
X86579231Y-94790946D01*
X86491403Y-94827326D01*
X86412360Y-94880140D01*
X86345140Y-94947360D01*
X86292326Y-95026403D01*
X86255946Y-95114231D01*
X86237400Y-95207468D01*
X85932600Y-95207468D01*
X85914054Y-95114231D01*
X85877674Y-95026403D01*
X85824860Y-94947360D01*
X85757640Y-94880140D01*
X85678597Y-94827326D01*
X85590769Y-94790946D01*
X85497532Y-94772400D01*
X85402468Y-94772400D01*
X85309231Y-94790946D01*
X85221403Y-94827326D01*
X85142360Y-94880140D01*
X85075140Y-94947360D01*
X85022326Y-95026403D01*
X84985946Y-95114231D01*
X84967400Y-95207468D01*
X84662600Y-95207468D01*
X84644054Y-95114231D01*
X84607674Y-95026403D01*
X84554860Y-94947360D01*
X84487640Y-94880140D01*
X84408597Y-94827326D01*
X84320769Y-94790946D01*
X84227532Y-94772400D01*
X84132468Y-94772400D01*
X84039231Y-94790946D01*
X83951403Y-94827326D01*
X83872360Y-94880140D01*
X83805140Y-94947360D01*
X83752326Y-95026403D01*
X83715946Y-95114231D01*
X83697400Y-95207468D01*
X65046731Y-95207468D01*
X63527076Y-94103282D01*
X81616586Y-94103282D01*
X81616586Y-94198346D01*
X81635132Y-94291583D01*
X81671512Y-94379411D01*
X81724326Y-94458454D01*
X81791546Y-94525674D01*
X81870589Y-94578488D01*
X81958417Y-94614868D01*
X82051654Y-94633414D01*
X82146718Y-94633414D01*
X82239955Y-94614868D01*
X82327783Y-94578488D01*
X82406826Y-94525674D01*
X82474046Y-94458454D01*
X82526860Y-94379411D01*
X82563240Y-94291583D01*
X82581786Y-94198346D01*
X82581786Y-94111654D01*
X117418214Y-94111654D01*
X117418214Y-94206718D01*
X117436760Y-94299955D01*
X117473140Y-94387783D01*
X117525954Y-94466826D01*
X117593174Y-94534046D01*
X117672217Y-94586860D01*
X117760045Y-94623240D01*
X117853282Y-94641786D01*
X117948346Y-94641786D01*
X118041583Y-94623240D01*
X118129411Y-94586860D01*
X118208454Y-94534046D01*
X118275674Y-94466826D01*
X118328488Y-94387783D01*
X118364868Y-94299955D01*
X118383414Y-94206718D01*
X118383414Y-94111654D01*
X118364868Y-94018417D01*
X118328488Y-93930589D01*
X118275674Y-93851546D01*
X118208454Y-93784326D01*
X118129411Y-93731512D01*
X118041583Y-93695132D01*
X117948346Y-93676586D01*
X117853282Y-93676586D01*
X117760045Y-93695132D01*
X117672217Y-93731512D01*
X117593174Y-93784326D01*
X117525954Y-93851546D01*
X117473140Y-93930589D01*
X117436760Y-94018417D01*
X117418214Y-94111654D01*
X82581786Y-94111654D01*
X82581786Y-94103282D01*
X82563240Y-94010045D01*
X82526860Y-93922217D01*
X82474046Y-93843174D01*
X82406826Y-93775954D01*
X82327783Y-93723140D01*
X82239955Y-93686760D01*
X82146718Y-93668214D01*
X82051654Y-93668214D01*
X81958417Y-93686760D01*
X81870589Y-93723140D01*
X81791546Y-93775954D01*
X81724326Y-93843174D01*
X81671512Y-93922217D01*
X81635132Y-94010045D01*
X81616586Y-94103282D01*
X63527076Y-94103282D01*
X62700195Y-93502468D01*
X77217400Y-93502468D01*
X77217400Y-93597532D01*
X77235946Y-93690769D01*
X77272326Y-93778597D01*
X77325140Y-93857640D01*
X77392360Y-93924860D01*
X77471403Y-93977674D01*
X77559231Y-94014054D01*
X77652468Y-94032600D01*
X77747532Y-94032600D01*
X77840769Y-94014054D01*
X77928597Y-93977674D01*
X78007640Y-93924860D01*
X78074860Y-93857640D01*
X78127674Y-93778597D01*
X78164054Y-93690769D01*
X78182600Y-93597532D01*
X78182600Y-93572468D01*
X134207400Y-93572468D01*
X134207400Y-93667532D01*
X134225946Y-93760769D01*
X134262326Y-93848597D01*
X134315140Y-93927640D01*
X134382360Y-93994860D01*
X134461403Y-94047674D01*
X134549231Y-94084054D01*
X134642468Y-94102600D01*
X134737532Y-94102600D01*
X134830769Y-94084054D01*
X134918597Y-94047674D01*
X134997640Y-93994860D01*
X135064860Y-93927640D01*
X135117674Y-93848597D01*
X135154054Y-93760769D01*
X135172600Y-93667532D01*
X135172600Y-93572468D01*
X135154054Y-93479231D01*
X135117674Y-93391403D01*
X135064860Y-93312360D01*
X134997640Y-93245140D01*
X134918597Y-93192326D01*
X134830769Y-93155946D01*
X134737532Y-93137400D01*
X134642468Y-93137400D01*
X134549231Y-93155946D01*
X134461403Y-93192326D01*
X134382360Y-93245140D01*
X134315140Y-93312360D01*
X134262326Y-93391403D01*
X134225946Y-93479231D01*
X134207400Y-93572468D01*
X78182600Y-93572468D01*
X78182600Y-93502468D01*
X78164054Y-93409231D01*
X78127674Y-93321403D01*
X78074860Y-93242360D01*
X78007640Y-93175140D01*
X77928597Y-93122326D01*
X77840769Y-93085946D01*
X77747532Y-93067400D01*
X77652468Y-93067400D01*
X77559231Y-93085946D01*
X77471403Y-93122326D01*
X77392360Y-93175140D01*
X77325140Y-93242360D01*
X77272326Y-93321403D01*
X77235946Y-93409231D01*
X77217400Y-93502468D01*
X62700195Y-93502468D01*
X59424680Y-91122468D01*
X130047400Y-91122468D01*
X130047400Y-91217532D01*
X130065946Y-91310769D01*
X130102326Y-91398597D01*
X130155140Y-91477640D01*
X130222360Y-91544860D01*
X130301403Y-91597674D01*
X130389231Y-91634054D01*
X130482468Y-91652600D01*
X130577532Y-91652600D01*
X130670769Y-91634054D01*
X130758597Y-91597674D01*
X130837640Y-91544860D01*
X130904860Y-91477640D01*
X130957674Y-91398597D01*
X130994054Y-91310769D01*
X131012600Y-91217532D01*
X131012600Y-91122468D01*
X130994054Y-91029231D01*
X130957674Y-90941403D01*
X130904860Y-90862360D01*
X130837640Y-90795140D01*
X130758597Y-90742326D01*
X130670769Y-90705946D01*
X130577532Y-90687400D01*
X130482468Y-90687400D01*
X130389231Y-90705946D01*
X130301403Y-90742326D01*
X130222360Y-90795140D01*
X130155140Y-90862360D01*
X130102326Y-90941403D01*
X130065946Y-91029231D01*
X130047400Y-91122468D01*
X59424680Y-91122468D01*
X58199802Y-90232468D01*
X69707400Y-90232468D01*
X69707400Y-90327532D01*
X69725946Y-90420769D01*
X69762326Y-90508597D01*
X69815140Y-90587640D01*
X69882360Y-90654860D01*
X69961403Y-90707674D01*
X70049231Y-90744054D01*
X70142468Y-90762600D01*
X70237532Y-90762600D01*
X70330769Y-90744054D01*
X70418597Y-90707674D01*
X70497640Y-90654860D01*
X70564860Y-90587640D01*
X70617674Y-90508597D01*
X70654054Y-90420769D01*
X70672600Y-90327532D01*
X70672600Y-90232468D01*
X70654054Y-90139231D01*
X70617674Y-90051403D01*
X70564860Y-89972360D01*
X70497640Y-89905140D01*
X70418597Y-89852326D01*
X70330769Y-89815946D01*
X70237532Y-89797400D01*
X70142468Y-89797400D01*
X70049231Y-89815946D01*
X69961403Y-89852326D01*
X69882360Y-89905140D01*
X69815140Y-89972360D01*
X69762326Y-90051403D01*
X69725946Y-90139231D01*
X69707400Y-90232468D01*
X58199802Y-90232468D01*
X56262751Y-88825000D01*
X109406385Y-88825000D01*
X109424805Y-89012017D01*
X109479355Y-89191846D01*
X109567941Y-89357578D01*
X109687157Y-89502843D01*
X109832422Y-89622059D01*
X109998154Y-89710645D01*
X110177983Y-89765195D01*
X110318144Y-89779000D01*
X110961856Y-89779000D01*
X111102017Y-89765195D01*
X111281846Y-89710645D01*
X111447578Y-89622059D01*
X111592843Y-89502843D01*
X111712059Y-89357578D01*
X111800645Y-89191846D01*
X111806523Y-89172468D01*
X129437400Y-89172468D01*
X129437400Y-89267532D01*
X129455946Y-89360769D01*
X129492326Y-89448597D01*
X129545140Y-89527640D01*
X129612360Y-89594860D01*
X129691403Y-89647674D01*
X129779231Y-89684054D01*
X129872468Y-89702600D01*
X129967532Y-89702600D01*
X130060769Y-89684054D01*
X130148597Y-89647674D01*
X130227640Y-89594860D01*
X130294860Y-89527640D01*
X130347674Y-89448597D01*
X130384054Y-89360769D01*
X130402600Y-89267532D01*
X130402600Y-89172468D01*
X130384054Y-89079231D01*
X130347674Y-88991403D01*
X130294860Y-88912360D01*
X130227640Y-88845140D01*
X130148597Y-88792326D01*
X130060769Y-88755946D01*
X129967532Y-88737400D01*
X129872468Y-88737400D01*
X129779231Y-88755946D01*
X129691403Y-88792326D01*
X129612360Y-88845140D01*
X129545140Y-88912360D01*
X129492326Y-88991403D01*
X129455946Y-89079231D01*
X129437400Y-89172468D01*
X111806523Y-89172468D01*
X111855195Y-89012017D01*
X111873615Y-88825000D01*
X111855195Y-88637983D01*
X111800645Y-88458154D01*
X111712059Y-88292422D01*
X111592843Y-88147157D01*
X111447578Y-88027941D01*
X111281846Y-87939355D01*
X111102017Y-87884805D01*
X110961856Y-87871000D01*
X110318144Y-87871000D01*
X110177983Y-87884805D01*
X109998154Y-87939355D01*
X109832422Y-88027941D01*
X109687157Y-88147157D01*
X109567941Y-88292422D01*
X109479355Y-88458154D01*
X109424805Y-88637983D01*
X109406385Y-88825000D01*
X56262751Y-88825000D01*
X53974663Y-87162468D01*
X84017400Y-87162468D01*
X84017400Y-87257532D01*
X84035946Y-87350769D01*
X84072326Y-87438597D01*
X84125140Y-87517640D01*
X84192360Y-87584860D01*
X84271403Y-87637674D01*
X84359231Y-87674054D01*
X84452468Y-87692600D01*
X84547532Y-87692600D01*
X84640769Y-87674054D01*
X84728597Y-87637674D01*
X84807640Y-87584860D01*
X84818274Y-87574226D01*
X85699158Y-87574226D01*
X85699158Y-87669290D01*
X85717704Y-87762527D01*
X85754084Y-87850355D01*
X85806898Y-87929398D01*
X85874118Y-87996618D01*
X85953161Y-88049432D01*
X86040989Y-88085812D01*
X86134226Y-88104358D01*
X86229290Y-88104358D01*
X86322527Y-88085812D01*
X86410355Y-88049432D01*
X86489398Y-87996618D01*
X86556618Y-87929398D01*
X86609432Y-87850355D01*
X86645812Y-87762527D01*
X86664358Y-87669290D01*
X86664358Y-87652468D01*
X87317400Y-87652468D01*
X87317400Y-87747532D01*
X87335946Y-87840769D01*
X87372326Y-87928597D01*
X87425140Y-88007640D01*
X87492360Y-88074860D01*
X87571403Y-88127674D01*
X87659231Y-88164054D01*
X87752468Y-88182600D01*
X87847532Y-88182600D01*
X87940769Y-88164054D01*
X88028597Y-88127674D01*
X88107640Y-88074860D01*
X88174860Y-88007640D01*
X88227674Y-87928597D01*
X88264054Y-87840769D01*
X88282600Y-87747532D01*
X88282600Y-87652468D01*
X88280786Y-87643345D01*
X113256523Y-87643345D01*
X113256523Y-87738409D01*
X113275069Y-87831646D01*
X113311449Y-87919474D01*
X113364263Y-87998517D01*
X113431483Y-88065737D01*
X113510526Y-88118551D01*
X113598354Y-88154931D01*
X113691591Y-88173477D01*
X113786655Y-88173477D01*
X113879892Y-88154931D01*
X113967720Y-88118551D01*
X114046763Y-88065737D01*
X114113983Y-87998517D01*
X114166797Y-87919474D01*
X114203177Y-87831646D01*
X114221723Y-87738409D01*
X114221723Y-87643345D01*
X114203177Y-87550108D01*
X114166797Y-87462280D01*
X114113983Y-87383237D01*
X114046763Y-87316017D01*
X113967720Y-87263203D01*
X113879892Y-87226823D01*
X113786655Y-87208277D01*
X113691591Y-87208277D01*
X113598354Y-87226823D01*
X113510526Y-87263203D01*
X113431483Y-87316017D01*
X113364263Y-87383237D01*
X113311449Y-87462280D01*
X113275069Y-87550108D01*
X113256523Y-87643345D01*
X88280786Y-87643345D01*
X88264054Y-87559231D01*
X88227674Y-87471403D01*
X88174860Y-87392360D01*
X88107640Y-87325140D01*
X88028597Y-87272326D01*
X87940769Y-87235946D01*
X87847532Y-87217400D01*
X87752468Y-87217400D01*
X87659231Y-87235946D01*
X87571403Y-87272326D01*
X87492360Y-87325140D01*
X87425140Y-87392360D01*
X87372326Y-87471403D01*
X87335946Y-87559231D01*
X87317400Y-87652468D01*
X86664358Y-87652468D01*
X86664358Y-87574226D01*
X86645812Y-87480989D01*
X86609432Y-87393161D01*
X86556618Y-87314118D01*
X86489398Y-87246898D01*
X86410355Y-87194084D01*
X86322527Y-87157704D01*
X86229290Y-87139158D01*
X86134226Y-87139158D01*
X86040989Y-87157704D01*
X85953161Y-87194084D01*
X85874118Y-87246898D01*
X85806898Y-87314118D01*
X85754084Y-87393161D01*
X85717704Y-87480989D01*
X85699158Y-87574226D01*
X84818274Y-87574226D01*
X84874860Y-87517640D01*
X84927674Y-87438597D01*
X84964054Y-87350769D01*
X84982600Y-87257532D01*
X84982600Y-87162468D01*
X84964054Y-87069231D01*
X84927674Y-86981403D01*
X84874860Y-86902360D01*
X84807640Y-86835140D01*
X84728597Y-86782326D01*
X84640769Y-86745946D01*
X84547532Y-86727400D01*
X84452468Y-86727400D01*
X84359231Y-86745946D01*
X84271403Y-86782326D01*
X84192360Y-86835140D01*
X84125140Y-86902360D01*
X84072326Y-86981403D01*
X84035946Y-87069231D01*
X84017400Y-87162468D01*
X53974663Y-87162468D01*
X52763547Y-86282468D01*
X54427400Y-86282468D01*
X54427400Y-86377532D01*
X54445946Y-86470769D01*
X54482326Y-86558597D01*
X54535140Y-86637640D01*
X54602360Y-86704860D01*
X54681403Y-86757674D01*
X54769231Y-86794054D01*
X54862468Y-86812600D01*
X54957532Y-86812600D01*
X55050769Y-86794054D01*
X55138597Y-86757674D01*
X55217640Y-86704860D01*
X55284860Y-86637640D01*
X55337674Y-86558597D01*
X55374054Y-86470769D01*
X55392600Y-86377532D01*
X55392600Y-86282468D01*
X55374054Y-86189231D01*
X55337674Y-86101403D01*
X55284860Y-86022360D01*
X55217640Y-85955140D01*
X55138597Y-85902326D01*
X55050769Y-85865946D01*
X54957532Y-85847400D01*
X54862468Y-85847400D01*
X54769231Y-85865946D01*
X54681403Y-85902326D01*
X54602360Y-85955140D01*
X54535140Y-86022360D01*
X54482326Y-86101403D01*
X54445946Y-86189231D01*
X54427400Y-86282468D01*
X52763547Y-86282468D01*
X51772636Y-85562468D01*
X81207400Y-85562468D01*
X81207400Y-85657532D01*
X81225946Y-85750769D01*
X81262326Y-85838597D01*
X81315140Y-85917640D01*
X81382360Y-85984860D01*
X81461403Y-86037674D01*
X81549231Y-86074054D01*
X81642468Y-86092600D01*
X81737532Y-86092600D01*
X81830769Y-86074054D01*
X81918597Y-86037674D01*
X81997640Y-85984860D01*
X82058072Y-85924428D01*
X85538644Y-85924428D01*
X85538644Y-86019492D01*
X85557190Y-86112729D01*
X85593570Y-86200557D01*
X85646384Y-86279600D01*
X85713604Y-86346820D01*
X85792647Y-86399634D01*
X85880475Y-86436014D01*
X85973712Y-86454560D01*
X86068776Y-86454560D01*
X86162013Y-86436014D01*
X86249841Y-86399634D01*
X86328884Y-86346820D01*
X86393236Y-86282468D01*
X144747400Y-86282468D01*
X144747400Y-86377532D01*
X144765946Y-86470769D01*
X144802326Y-86558597D01*
X144855140Y-86637640D01*
X144922360Y-86704860D01*
X145001403Y-86757674D01*
X145089231Y-86794054D01*
X145182468Y-86812600D01*
X145277532Y-86812600D01*
X145370769Y-86794054D01*
X145458597Y-86757674D01*
X145537640Y-86704860D01*
X145604860Y-86637640D01*
X145657674Y-86558597D01*
X145694054Y-86470769D01*
X145712600Y-86377532D01*
X145712600Y-86282468D01*
X145694054Y-86189231D01*
X145657674Y-86101403D01*
X145604860Y-86022360D01*
X145537640Y-85955140D01*
X145458597Y-85902326D01*
X145370769Y-85865946D01*
X145277532Y-85847400D01*
X145182468Y-85847400D01*
X145089231Y-85865946D01*
X145001403Y-85902326D01*
X144922360Y-85955140D01*
X144855140Y-86022360D01*
X144802326Y-86101403D01*
X144765946Y-86189231D01*
X144747400Y-86282468D01*
X86393236Y-86282468D01*
X86396104Y-86279600D01*
X86448918Y-86200557D01*
X86485298Y-86112729D01*
X86503844Y-86019492D01*
X86503844Y-85924428D01*
X86485298Y-85831191D01*
X86448918Y-85743363D01*
X86396104Y-85664320D01*
X86328884Y-85597100D01*
X86249841Y-85544286D01*
X86162013Y-85507906D01*
X86068776Y-85489360D01*
X85973712Y-85489360D01*
X85880475Y-85507906D01*
X85792647Y-85544286D01*
X85713604Y-85597100D01*
X85646384Y-85664320D01*
X85593570Y-85743363D01*
X85557190Y-85831191D01*
X85538644Y-85924428D01*
X82058072Y-85924428D01*
X82064860Y-85917640D01*
X82117674Y-85838597D01*
X82154054Y-85750769D01*
X82172600Y-85657532D01*
X82172600Y-85562468D01*
X82154054Y-85469231D01*
X82117674Y-85381403D01*
X82064860Y-85302360D01*
X81997640Y-85235140D01*
X81918810Y-85182468D01*
X120617400Y-85182468D01*
X120617400Y-85277532D01*
X120635946Y-85370769D01*
X120672326Y-85458597D01*
X120725140Y-85537640D01*
X120792360Y-85604860D01*
X120871403Y-85657674D01*
X120959231Y-85694054D01*
X121052468Y-85712600D01*
X121147532Y-85712600D01*
X121240769Y-85694054D01*
X121328597Y-85657674D01*
X121407640Y-85604860D01*
X121474860Y-85537640D01*
X121527674Y-85458597D01*
X121564054Y-85370769D01*
X121582600Y-85277532D01*
X121582600Y-85182468D01*
X121564054Y-85089231D01*
X121527674Y-85001403D01*
X121474860Y-84922360D01*
X121407640Y-84855140D01*
X121328597Y-84802326D01*
X121240769Y-84765946D01*
X121147532Y-84747400D01*
X121052468Y-84747400D01*
X120959231Y-84765946D01*
X120871403Y-84802326D01*
X120792360Y-84855140D01*
X120725140Y-84922360D01*
X120672326Y-85001403D01*
X120635946Y-85089231D01*
X120617400Y-85182468D01*
X81918810Y-85182468D01*
X81918597Y-85182326D01*
X81830769Y-85145946D01*
X81737532Y-85127400D01*
X81642468Y-85127400D01*
X81549231Y-85145946D01*
X81461403Y-85182326D01*
X81382360Y-85235140D01*
X81315140Y-85302360D01*
X81262326Y-85381403D01*
X81225946Y-85469231D01*
X81207400Y-85562468D01*
X51772636Y-85562468D01*
X50712910Y-84792468D01*
X74517400Y-84792468D01*
X74517400Y-84887532D01*
X74535946Y-84980769D01*
X74572326Y-85068597D01*
X74625140Y-85147640D01*
X74692360Y-85214860D01*
X74771403Y-85267674D01*
X74859231Y-85304054D01*
X74952468Y-85322600D01*
X75047532Y-85322600D01*
X75140769Y-85304054D01*
X75228597Y-85267674D01*
X75307640Y-85214860D01*
X75374860Y-85147640D01*
X75427674Y-85068597D01*
X75464054Y-84980769D01*
X75482600Y-84887532D01*
X75482600Y-84792468D01*
X75464054Y-84699231D01*
X75427674Y-84611403D01*
X75374860Y-84532360D01*
X75307640Y-84465140D01*
X75303642Y-84462468D01*
X107367400Y-84462468D01*
X107367400Y-84557532D01*
X107385946Y-84650769D01*
X107422326Y-84738597D01*
X107475140Y-84817640D01*
X107542360Y-84884860D01*
X107621403Y-84937674D01*
X107709231Y-84974054D01*
X107802468Y-84992600D01*
X107897532Y-84992600D01*
X107990769Y-84974054D01*
X108078597Y-84937674D01*
X108157640Y-84884860D01*
X108224860Y-84817640D01*
X108277674Y-84738597D01*
X108314054Y-84650769D01*
X108332600Y-84557532D01*
X108332600Y-84462468D01*
X108314054Y-84369231D01*
X108277674Y-84281403D01*
X108224860Y-84202360D01*
X108157640Y-84135140D01*
X108078597Y-84082326D01*
X107990769Y-84045946D01*
X107897532Y-84027400D01*
X107802468Y-84027400D01*
X107709231Y-84045946D01*
X107621403Y-84082326D01*
X107542360Y-84135140D01*
X107475140Y-84202360D01*
X107422326Y-84281403D01*
X107385946Y-84369231D01*
X107367400Y-84462468D01*
X75303642Y-84462468D01*
X75228597Y-84412326D01*
X75140769Y-84375946D01*
X75047532Y-84357400D01*
X74952468Y-84357400D01*
X74859231Y-84375946D01*
X74771403Y-84412326D01*
X74692360Y-84465140D01*
X74625140Y-84532360D01*
X74572326Y-84611403D01*
X74535946Y-84699231D01*
X74517400Y-84792468D01*
X50712910Y-84792468D01*
X49942200Y-84232468D01*
X67987400Y-84232468D01*
X67987400Y-84327532D01*
X68005946Y-84420769D01*
X68042326Y-84508597D01*
X68095140Y-84587640D01*
X68162360Y-84654860D01*
X68241403Y-84707674D01*
X68329231Y-84744054D01*
X68422468Y-84762600D01*
X68517532Y-84762600D01*
X68610769Y-84744054D01*
X68698597Y-84707674D01*
X68777640Y-84654860D01*
X68844860Y-84587640D01*
X68897674Y-84508597D01*
X68934054Y-84420769D01*
X68952600Y-84327532D01*
X68952600Y-84232468D01*
X68934054Y-84139231D01*
X68897674Y-84051403D01*
X68844860Y-83972360D01*
X68777640Y-83905140D01*
X68713776Y-83862468D01*
X93277400Y-83862468D01*
X93277400Y-83957532D01*
X93295946Y-84050769D01*
X93332326Y-84138597D01*
X93385140Y-84217640D01*
X93452360Y-84284860D01*
X93531403Y-84337674D01*
X93619231Y-84374054D01*
X93712468Y-84392600D01*
X93807532Y-84392600D01*
X93900769Y-84374054D01*
X93988597Y-84337674D01*
X94067640Y-84284860D01*
X94134860Y-84217640D01*
X94187674Y-84138597D01*
X94224054Y-84050769D01*
X94242600Y-83957532D01*
X94242600Y-83862468D01*
X94224054Y-83769231D01*
X94187674Y-83681403D01*
X94134860Y-83602360D01*
X94067640Y-83535140D01*
X93988597Y-83482326D01*
X93900769Y-83445946D01*
X93807532Y-83427400D01*
X93712468Y-83427400D01*
X93619231Y-83445946D01*
X93531403Y-83482326D01*
X93452360Y-83535140D01*
X93385140Y-83602360D01*
X93332326Y-83681403D01*
X93295946Y-83769231D01*
X93277400Y-83862468D01*
X68713776Y-83862468D01*
X68698597Y-83852326D01*
X68610769Y-83815946D01*
X68517532Y-83797400D01*
X68422468Y-83797400D01*
X68329231Y-83815946D01*
X68241403Y-83852326D01*
X68162360Y-83905140D01*
X68095140Y-83972360D01*
X68042326Y-84051403D01*
X68005946Y-84139231D01*
X67987400Y-84232468D01*
X49942200Y-84232468D01*
X48704324Y-83333024D01*
X87647341Y-83331477D01*
X87676444Y-83332049D01*
X87695624Y-83328625D01*
X87715027Y-83326713D01*
X87727457Y-83322942D01*
X87740243Y-83320659D01*
X87758395Y-83313555D01*
X87777044Y-83307897D01*
X87788498Y-83301774D01*
X87800592Y-83297041D01*
X87817008Y-83286534D01*
X87834197Y-83277345D01*
X87844235Y-83269106D01*
X87855175Y-83262104D01*
X87869228Y-83248594D01*
X87884292Y-83236230D01*
X87892530Y-83226192D01*
X87901894Y-83217189D01*
X87913038Y-83201201D01*
X87925403Y-83186133D01*
X87931526Y-83174676D01*
X87938952Y-83164022D01*
X87946764Y-83146164D01*
X87955950Y-83128976D01*
X87964403Y-83101108D01*
X88499064Y-81455818D01*
X100518812Y-81455818D01*
X100518812Y-81550882D01*
X100537358Y-81644119D01*
X100573738Y-81731947D01*
X100626552Y-81810990D01*
X100693772Y-81878210D01*
X100772815Y-81931024D01*
X100860643Y-81967404D01*
X100953880Y-81985950D01*
X101048944Y-81985950D01*
X101142181Y-81967404D01*
X101230009Y-81931024D01*
X101309052Y-81878210D01*
X101376272Y-81810990D01*
X101429086Y-81731947D01*
X101465466Y-81644119D01*
X101484012Y-81550882D01*
X101484012Y-81455818D01*
X101465466Y-81362581D01*
X101429086Y-81274753D01*
X101376272Y-81195710D01*
X101309052Y-81128490D01*
X101230009Y-81075676D01*
X101142181Y-81039296D01*
X101048944Y-81020750D01*
X100953880Y-81020750D01*
X100860643Y-81039296D01*
X100772815Y-81075676D01*
X100693772Y-81128490D01*
X100626552Y-81195710D01*
X100573738Y-81274753D01*
X100537358Y-81362581D01*
X100518812Y-81455818D01*
X88499064Y-81455818D01*
X89644030Y-77932468D01*
X92377400Y-77932468D01*
X92377400Y-78027532D01*
X92395946Y-78120769D01*
X92432326Y-78208597D01*
X92485140Y-78287640D01*
X92552360Y-78354860D01*
X92631403Y-78407674D01*
X92719231Y-78444054D01*
X92812468Y-78462600D01*
X92907532Y-78462600D01*
X93000769Y-78444054D01*
X93088597Y-78407674D01*
X93167640Y-78354860D01*
X93234860Y-78287640D01*
X93287674Y-78208597D01*
X93324054Y-78120769D01*
X93342600Y-78027532D01*
X93342600Y-77932468D01*
X93324054Y-77839231D01*
X93287674Y-77751403D01*
X93234860Y-77672360D01*
X93167640Y-77605140D01*
X93088597Y-77552326D01*
X93000769Y-77515946D01*
X92907532Y-77497400D01*
X92812468Y-77497400D01*
X92719231Y-77515946D01*
X92631403Y-77552326D01*
X92552360Y-77605140D01*
X92485140Y-77672360D01*
X92432326Y-77751403D01*
X92395946Y-77839231D01*
X92377400Y-77932468D01*
X89644030Y-77932468D01*
X90011240Y-76802468D01*
X98017400Y-76802468D01*
X98017400Y-76897532D01*
X98035946Y-76990769D01*
X98072326Y-77078597D01*
X98125140Y-77157640D01*
X98192360Y-77224860D01*
X98271403Y-77277674D01*
X98359231Y-77314054D01*
X98452468Y-77332600D01*
X98547532Y-77332600D01*
X98640769Y-77314054D01*
X98728597Y-77277674D01*
X98807640Y-77224860D01*
X98874860Y-77157640D01*
X98927674Y-77078597D01*
X98964054Y-76990769D01*
X98982600Y-76897532D01*
X98982600Y-76802468D01*
X98974644Y-76762468D01*
X99547400Y-76762468D01*
X99547400Y-76857532D01*
X99565946Y-76950769D01*
X99602326Y-77038597D01*
X99655140Y-77117640D01*
X99722360Y-77184860D01*
X99801403Y-77237674D01*
X99889231Y-77274054D01*
X99982468Y-77292600D01*
X100077532Y-77292600D01*
X100170769Y-77274054D01*
X100258597Y-77237674D01*
X100337640Y-77184860D01*
X100404860Y-77117640D01*
X100457674Y-77038597D01*
X100494054Y-76950769D01*
X100512600Y-76857532D01*
X100512600Y-76762468D01*
X100494054Y-76669231D01*
X100457674Y-76581403D01*
X100404860Y-76502360D01*
X100337640Y-76435140D01*
X100258597Y-76382326D01*
X100170769Y-76345946D01*
X100077532Y-76327400D01*
X99982468Y-76327400D01*
X99889231Y-76345946D01*
X99801403Y-76382326D01*
X99722360Y-76435140D01*
X99655140Y-76502360D01*
X99602326Y-76581403D01*
X99565946Y-76669231D01*
X99547400Y-76762468D01*
X98974644Y-76762468D01*
X98964054Y-76709231D01*
X98927674Y-76621403D01*
X98874860Y-76542360D01*
X98807640Y-76475140D01*
X98728597Y-76422326D01*
X98640769Y-76385946D01*
X98547532Y-76367400D01*
X98452468Y-76367400D01*
X98359231Y-76385946D01*
X98271403Y-76422326D01*
X98192360Y-76475140D01*
X98125140Y-76542360D01*
X98072326Y-76621403D01*
X98035946Y-76709231D01*
X98017400Y-76802468D01*
X90011240Y-76802468D01*
X91727056Y-71522468D01*
X92897400Y-71522468D01*
X92897400Y-71617532D01*
X92915946Y-71710769D01*
X92952326Y-71798597D01*
X93005140Y-71877640D01*
X93072360Y-71944860D01*
X93151403Y-71997674D01*
X93239231Y-72034054D01*
X93332468Y-72052600D01*
X93427532Y-72052600D01*
X93520769Y-72034054D01*
X93608597Y-71997674D01*
X93687640Y-71944860D01*
X93754860Y-71877640D01*
X93807674Y-71798597D01*
X93844054Y-71710769D01*
X93862600Y-71617532D01*
X93862600Y-71552468D01*
X106817400Y-71552468D01*
X106817400Y-71647532D01*
X106835946Y-71740769D01*
X106872326Y-71828597D01*
X106925140Y-71907640D01*
X106992360Y-71974860D01*
X107071403Y-72027674D01*
X107159231Y-72064054D01*
X107252468Y-72082600D01*
X107347532Y-72082600D01*
X107440769Y-72064054D01*
X107528597Y-72027674D01*
X107607640Y-71974860D01*
X107674860Y-71907640D01*
X107727674Y-71828597D01*
X107764054Y-71740769D01*
X107782600Y-71647532D01*
X107782600Y-71552468D01*
X107764054Y-71459231D01*
X107727674Y-71371403D01*
X107674860Y-71292360D01*
X107607640Y-71225140D01*
X107528597Y-71172326D01*
X107440769Y-71135946D01*
X107347532Y-71117400D01*
X107252468Y-71117400D01*
X107159231Y-71135946D01*
X107071403Y-71172326D01*
X106992360Y-71225140D01*
X106925140Y-71292360D01*
X106872326Y-71371403D01*
X106835946Y-71459231D01*
X106817400Y-71552468D01*
X93862600Y-71552468D01*
X93862600Y-71522468D01*
X93844054Y-71429231D01*
X93807674Y-71341403D01*
X93754860Y-71262360D01*
X93687640Y-71195140D01*
X93608597Y-71142326D01*
X93520769Y-71105946D01*
X93427532Y-71087400D01*
X93332468Y-71087400D01*
X93239231Y-71105946D01*
X93151403Y-71142326D01*
X93072360Y-71195140D01*
X93005140Y-71262360D01*
X92952326Y-71341403D01*
X92915946Y-71429231D01*
X92897400Y-71522468D01*
X91727056Y-71522468D01*
X92398834Y-69455235D01*
X100501649Y-69455235D01*
X100501649Y-69550299D01*
X100520195Y-69643536D01*
X100556575Y-69731364D01*
X100609389Y-69810407D01*
X100676609Y-69877627D01*
X100755652Y-69930441D01*
X100843480Y-69966821D01*
X100936717Y-69985367D01*
X101031781Y-69985367D01*
X101125018Y-69966821D01*
X101212846Y-69930441D01*
X101291889Y-69877627D01*
X101359109Y-69810407D01*
X101411923Y-69731364D01*
X101448303Y-69643536D01*
X101466849Y-69550299D01*
X101466849Y-69455235D01*
X101448303Y-69361998D01*
X101411923Y-69274170D01*
X101359109Y-69195127D01*
X101291889Y-69127907D01*
X101212846Y-69075093D01*
X101125018Y-69038713D01*
X101031781Y-69020167D01*
X100936717Y-69020167D01*
X100843480Y-69038713D01*
X100755652Y-69075093D01*
X100676609Y-69127907D01*
X100609389Y-69195127D01*
X100556575Y-69274170D01*
X100520195Y-69361998D01*
X100501649Y-69455235D01*
X92398834Y-69455235D01*
X93813332Y-65102468D01*
X94807400Y-65102468D01*
X94807400Y-65197532D01*
X94825946Y-65290769D01*
X94862326Y-65378597D01*
X94915140Y-65457640D01*
X94982360Y-65524860D01*
X95061403Y-65577674D01*
X95149231Y-65614054D01*
X95242468Y-65632600D01*
X95337532Y-65632600D01*
X95430769Y-65614054D01*
X95518597Y-65577674D01*
X95597640Y-65524860D01*
X95664860Y-65457640D01*
X95717674Y-65378597D01*
X95754054Y-65290769D01*
X95772600Y-65197532D01*
X95772600Y-65102468D01*
X95754054Y-65009231D01*
X95717674Y-64921403D01*
X95664860Y-64842360D01*
X95597640Y-64775140D01*
X95518597Y-64722326D01*
X95430769Y-64685946D01*
X95337532Y-64667400D01*
X95242468Y-64667400D01*
X95149231Y-64685946D01*
X95061403Y-64722326D01*
X94982360Y-64775140D01*
X94915140Y-64842360D01*
X94862326Y-64921403D01*
X94825946Y-65009231D01*
X94807400Y-65102468D01*
X93813332Y-65102468D01*
X94765480Y-62172468D01*
X98577400Y-62172468D01*
X98577400Y-62267532D01*
X98595946Y-62360769D01*
X98632326Y-62448597D01*
X98685140Y-62527640D01*
X98752360Y-62594860D01*
X98831403Y-62647674D01*
X98919231Y-62684054D01*
X99012468Y-62702600D01*
X99107532Y-62702600D01*
X99200769Y-62684054D01*
X99288597Y-62647674D01*
X99367640Y-62594860D01*
X99434860Y-62527640D01*
X99487674Y-62448597D01*
X99524054Y-62360769D01*
X99542600Y-62267532D01*
X99542600Y-62172468D01*
X99524054Y-62079231D01*
X99487674Y-61991403D01*
X99434860Y-61912360D01*
X99367640Y-61845140D01*
X99288597Y-61792326D01*
X99200769Y-61755946D01*
X99107532Y-61737400D01*
X99012468Y-61737400D01*
X98919231Y-61755946D01*
X98831403Y-61792326D01*
X98752360Y-61845140D01*
X98685140Y-61912360D01*
X98632326Y-61991403D01*
X98595946Y-62079231D01*
X98577400Y-62172468D01*
X94765480Y-62172468D01*
X98255606Y-51432468D01*
X100397400Y-51432468D01*
X100397400Y-51527532D01*
X100415946Y-51620769D01*
X100452326Y-51708597D01*
X100505140Y-51787640D01*
X100572360Y-51854860D01*
X100651403Y-51907674D01*
X100739231Y-51944054D01*
X100832468Y-51962600D01*
X100927532Y-51962600D01*
X101020769Y-51944054D01*
X101108597Y-51907674D01*
X101187640Y-51854860D01*
X101254860Y-51787640D01*
X101307674Y-51708597D01*
X101344054Y-51620769D01*
X101362600Y-51527532D01*
X101362600Y-51432468D01*
X101344054Y-51339231D01*
X101307674Y-51251403D01*
X101254860Y-51172360D01*
X101187640Y-51105140D01*
X101108597Y-51052326D01*
X101020769Y-51015946D01*
X100927532Y-50997400D01*
X100832468Y-50997400D01*
X100739231Y-51015946D01*
X100651403Y-51052326D01*
X100572360Y-51105140D01*
X100505140Y-51172360D01*
X100452326Y-51251403D01*
X100415946Y-51339231D01*
X100397400Y-51432468D01*
X98255606Y-51432468D01*
X98779243Y-49821108D01*
X98779718Y-49822254D01*
G04 #@! TA.AperFunction,Conductor*
D14*
G36*
X98779718Y-49822254D02*
G01*
X98930414Y-50047787D01*
X99122213Y-50239586D01*
X99347746Y-50390282D01*
X99598344Y-50494083D01*
X99864377Y-50547000D01*
X100135623Y-50547000D01*
X100401656Y-50494083D01*
X100652254Y-50390282D01*
X100877787Y-50239586D01*
X101069586Y-50047787D01*
X101220282Y-49822254D01*
X101220623Y-49821431D01*
X112033686Y-83101153D01*
X112042125Y-83128976D01*
X112051302Y-83146147D01*
X112059115Y-83164009D01*
X112066551Y-83174677D01*
X112072673Y-83186133D01*
X112085026Y-83201186D01*
X112096171Y-83217177D01*
X112105545Y-83226190D01*
X112113784Y-83236230D01*
X112128834Y-83248582D01*
X112142888Y-83262095D01*
X112153841Y-83269106D01*
X112163879Y-83277345D01*
X112181053Y-83286526D01*
X112197469Y-83297034D01*
X112209574Y-83301772D01*
X112221032Y-83307897D01*
X112239670Y-83313552D01*
X112257818Y-83320655D01*
X112270613Y-83322940D01*
X112283049Y-83326713D01*
X112302441Y-83328624D01*
X112321616Y-83332048D01*
X112350714Y-83331477D01*
X113345710Y-83331516D01*
X113325946Y-83379231D01*
X113307400Y-83472468D01*
X113307400Y-83567532D01*
X113325946Y-83660769D01*
X113362326Y-83748597D01*
X113415140Y-83827640D01*
X113482360Y-83894860D01*
X113561403Y-83947674D01*
X113649231Y-83984054D01*
X113742468Y-84002600D01*
X113837532Y-84002600D01*
X113930769Y-83984054D01*
X114018597Y-83947674D01*
X114097640Y-83894860D01*
X114160032Y-83832468D01*
X119607400Y-83832468D01*
X119607400Y-83927532D01*
X119625946Y-84020769D01*
X119662326Y-84108597D01*
X119715140Y-84187640D01*
X119782360Y-84254860D01*
X119861403Y-84307674D01*
X119949231Y-84344054D01*
X120042468Y-84362600D01*
X120137532Y-84362600D01*
X120230769Y-84344054D01*
X120318597Y-84307674D01*
X120397640Y-84254860D01*
X120464860Y-84187640D01*
X120517674Y-84108597D01*
X120554054Y-84020769D01*
X120572600Y-83927532D01*
X120572600Y-83832468D01*
X120554054Y-83739231D01*
X120517674Y-83651403D01*
X120464860Y-83572360D01*
X120397640Y-83505140D01*
X120318597Y-83452326D01*
X120230769Y-83415946D01*
X120137532Y-83397400D01*
X120042468Y-83397400D01*
X119949231Y-83415946D01*
X119861403Y-83452326D01*
X119782360Y-83505140D01*
X119715140Y-83572360D01*
X119662326Y-83651403D01*
X119625946Y-83739231D01*
X119607400Y-83832468D01*
X114160032Y-83832468D01*
X114164860Y-83827640D01*
X114217674Y-83748597D01*
X114254054Y-83660769D01*
X114272600Y-83567532D01*
X114272600Y-83472468D01*
X114254054Y-83379231D01*
X114234304Y-83331552D01*
X151295675Y-83333024D01*
X121701033Y-104836587D01*
X121724816Y-104779170D01*
X121743362Y-104685933D01*
X121743362Y-104590869D01*
X121724816Y-104497632D01*
X121688436Y-104409804D01*
X121635622Y-104330761D01*
X121568402Y-104263541D01*
X121489359Y-104210727D01*
X121401531Y-104174347D01*
X121308294Y-104155801D01*
X121213230Y-104155801D01*
X121119993Y-104174347D01*
X121032165Y-104210727D01*
X120953122Y-104263541D01*
X120885902Y-104330761D01*
X120833088Y-104409804D01*
X120796708Y-104497632D01*
X120778162Y-104590869D01*
X120778162Y-104685933D01*
X120796708Y-104779170D01*
X120833088Y-104866998D01*
X120885902Y-104946041D01*
X120953122Y-105013261D01*
X121032165Y-105066075D01*
X121119993Y-105102455D01*
X121213230Y-105121001D01*
X121308294Y-105121001D01*
X121310097Y-105120642D01*
X119789470Y-106225535D01*
X119765572Y-106242191D01*
X119752069Y-106256236D01*
X119737506Y-106269177D01*
X119729663Y-106279539D01*
X119720655Y-106288908D01*
X119710150Y-106305319D01*
X119698393Y-106320852D01*
X119692722Y-106332545D01*
X119685716Y-106343490D01*
X119678616Y-106361631D01*
X119670113Y-106379163D01*
X119666832Y-106391737D01*
X119662096Y-106403839D01*
X119658671Y-106423021D01*
X119653753Y-106441871D01*
X119652988Y-106454844D01*
X119650704Y-106467637D01*
X119651086Y-106487114D01*
X119649940Y-106506564D01*
X119651721Y-106519436D01*
X119651976Y-106532431D01*
X119656153Y-106551467D01*
X119658822Y-106570760D01*
X119668358Y-106598255D01*
X131702406Y-143634658D01*
X126362418Y-139755238D01*
X126394572Y-139741919D01*
X126473615Y-139689105D01*
X126540835Y-139621885D01*
X126593649Y-139542842D01*
X126630029Y-139455014D01*
X126648575Y-139361777D01*
X126648575Y-139266713D01*
X126630029Y-139173476D01*
X126593649Y-139085648D01*
X126540835Y-139006605D01*
X126473615Y-138939385D01*
X126394572Y-138886571D01*
X126306744Y-138850191D01*
X126213507Y-138831645D01*
X126118443Y-138831645D01*
X126025206Y-138850191D01*
X125937378Y-138886571D01*
X125858335Y-138939385D01*
X125791115Y-139006605D01*
X125738301Y-139085648D01*
X125701921Y-139173476D01*
X125684207Y-139262529D01*
X123536797Y-137702468D01*
X127907400Y-137702468D01*
X127907400Y-137797532D01*
X127925946Y-137890769D01*
X127962326Y-137978597D01*
X128015140Y-138057640D01*
X128082360Y-138124860D01*
X128161403Y-138177674D01*
X128249231Y-138214054D01*
X128342468Y-138232600D01*
X128437532Y-138232600D01*
X128530769Y-138214054D01*
X128618597Y-138177674D01*
X128697640Y-138124860D01*
X128764860Y-138057640D01*
X128817674Y-137978597D01*
X128854054Y-137890769D01*
X128872600Y-137797532D01*
X128872600Y-137702468D01*
X128854054Y-137609231D01*
X128817674Y-137521403D01*
X128764860Y-137442360D01*
X128697640Y-137375140D01*
X128618597Y-137322326D01*
X128530769Y-137285946D01*
X128437532Y-137267400D01*
X128342468Y-137267400D01*
X128249231Y-137285946D01*
X128161403Y-137322326D01*
X128082360Y-137375140D01*
X128015140Y-137442360D01*
X127962326Y-137521403D01*
X127925946Y-137609231D01*
X127907400Y-137702468D01*
X123536797Y-137702468D01*
X117741768Y-133492468D01*
X123877400Y-133492468D01*
X123877400Y-133587532D01*
X123895946Y-133680769D01*
X123932326Y-133768597D01*
X123985140Y-133847640D01*
X124052360Y-133914860D01*
X124131403Y-133967674D01*
X124219231Y-134004054D01*
X124312468Y-134022600D01*
X124407532Y-134022600D01*
X124500769Y-134004054D01*
X124588597Y-133967674D01*
X124667640Y-133914860D01*
X124734860Y-133847640D01*
X124787674Y-133768597D01*
X124824054Y-133680769D01*
X124842600Y-133587532D01*
X124842600Y-133492468D01*
X124824054Y-133399231D01*
X124787674Y-133311403D01*
X124734860Y-133232360D01*
X124667640Y-133165140D01*
X124588597Y-133112326D01*
X124500769Y-133075946D01*
X124407532Y-133057400D01*
X124312468Y-133057400D01*
X124219231Y-133075946D01*
X124131403Y-133112326D01*
X124052360Y-133165140D01*
X123985140Y-133232360D01*
X123932326Y-133311403D01*
X123895946Y-133399231D01*
X123877400Y-133492468D01*
X117741768Y-133492468D01*
X112249567Y-129502468D01*
X118717400Y-129502468D01*
X118717400Y-129597532D01*
X118735946Y-129690769D01*
X118772326Y-129778597D01*
X118825140Y-129857640D01*
X118892360Y-129924860D01*
X118971403Y-129977674D01*
X119059231Y-130014054D01*
X119152468Y-130032600D01*
X119247532Y-130032600D01*
X119340769Y-130014054D01*
X119428597Y-129977674D01*
X119507640Y-129924860D01*
X119574860Y-129857640D01*
X119627674Y-129778597D01*
X119664054Y-129690769D01*
X119682600Y-129597532D01*
X119682600Y-129502468D01*
X119664054Y-129409231D01*
X119627674Y-129321403D01*
X119574860Y-129242360D01*
X119507640Y-129175140D01*
X119428597Y-129122326D01*
X119340769Y-129085946D01*
X119247532Y-129067400D01*
X119152468Y-129067400D01*
X119059231Y-129085946D01*
X118971403Y-129122326D01*
X118892360Y-129175140D01*
X118825140Y-129242360D01*
X118772326Y-129321403D01*
X118735946Y-129409231D01*
X118717400Y-129502468D01*
X112249567Y-129502468D01*
X108395391Y-126702468D01*
X111067400Y-126702468D01*
X111067400Y-126797532D01*
X111085946Y-126890769D01*
X111122326Y-126978597D01*
X111175140Y-127057640D01*
X111242360Y-127124860D01*
X111321403Y-127177674D01*
X111409231Y-127214054D01*
X111502468Y-127232600D01*
X111597532Y-127232600D01*
X111690769Y-127214054D01*
X111778597Y-127177674D01*
X111857640Y-127124860D01*
X111924860Y-127057640D01*
X111977674Y-126978597D01*
X112014054Y-126890769D01*
X112032600Y-126797532D01*
X112032600Y-126702468D01*
X112014054Y-126609231D01*
X111977674Y-126521403D01*
X111924860Y-126442360D01*
X111857640Y-126375140D01*
X111778597Y-126322326D01*
X111690769Y-126285946D01*
X111597532Y-126267400D01*
X111502468Y-126267400D01*
X111409231Y-126285946D01*
X111321403Y-126322326D01*
X111242360Y-126375140D01*
X111175140Y-126442360D01*
X111122326Y-126521403D01*
X111085946Y-126609231D01*
X111067400Y-126702468D01*
X108395391Y-126702468D01*
X105848882Y-124852468D01*
X124367400Y-124852468D01*
X124367400Y-124947532D01*
X124385946Y-125040769D01*
X124422326Y-125128597D01*
X124475140Y-125207640D01*
X124542360Y-125274860D01*
X124621403Y-125327674D01*
X124709231Y-125364054D01*
X124802468Y-125382600D01*
X124897532Y-125382600D01*
X124990769Y-125364054D01*
X125078597Y-125327674D01*
X125157640Y-125274860D01*
X125224860Y-125207640D01*
X125277674Y-125128597D01*
X125314054Y-125040769D01*
X125332600Y-124947532D01*
X125332600Y-124852468D01*
X125314054Y-124759231D01*
X125277674Y-124671403D01*
X125224860Y-124592360D01*
X125157640Y-124525140D01*
X125078597Y-124472326D01*
X124990769Y-124435946D01*
X124897532Y-124417400D01*
X124802468Y-124417400D01*
X124709231Y-124435946D01*
X124621403Y-124472326D01*
X124542360Y-124525140D01*
X124475140Y-124592360D01*
X124422326Y-124671403D01*
X124385946Y-124759231D01*
X124367400Y-124852468D01*
X105848882Y-124852468D01*
X100195957Y-120745705D01*
X100172743Y-120728132D01*
X100155213Y-120719628D01*
X100138393Y-120709771D01*
X100126120Y-120705516D01*
X100114434Y-120699847D01*
X100095575Y-120694925D01*
X100077162Y-120688541D01*
X100064295Y-120686762D01*
X100051728Y-120683482D01*
X100032273Y-120682334D01*
X100012965Y-120679664D01*
X100000000Y-120680429D01*
X99987034Y-120679664D01*
X99967726Y-120682334D01*
X99948272Y-120683482D01*
X99935706Y-120686762D01*
X99922837Y-120688541D01*
X99904421Y-120694926D01*
X99885566Y-120699847D01*
X99873883Y-120705514D01*
X99861606Y-120709771D01*
X99844784Y-120719630D01*
X99827257Y-120728132D01*
X99804069Y-120745686D01*
X68297592Y-143634660D01*
X70267349Y-137572468D01*
X70927400Y-137572468D01*
X70927400Y-137667532D01*
X70945946Y-137760769D01*
X70982326Y-137848597D01*
X71035140Y-137927640D01*
X71102360Y-137994860D01*
X71181403Y-138047674D01*
X71269231Y-138084054D01*
X71362468Y-138102600D01*
X71457532Y-138102600D01*
X71550769Y-138084054D01*
X71638597Y-138047674D01*
X71717640Y-137994860D01*
X71784860Y-137927640D01*
X71837674Y-137848597D01*
X71874054Y-137760769D01*
X71892600Y-137667532D01*
X71892600Y-137572468D01*
X71874054Y-137479231D01*
X71837674Y-137391403D01*
X71784860Y-137312360D01*
X71717640Y-137245140D01*
X71638597Y-137192326D01*
X71550769Y-137155946D01*
X71457532Y-137137400D01*
X71362468Y-137137400D01*
X71269231Y-137155946D01*
X71181403Y-137192326D01*
X71102360Y-137245140D01*
X71035140Y-137312360D01*
X70982326Y-137391403D01*
X70945946Y-137479231D01*
X70927400Y-137572468D01*
X70267349Y-137572468D01*
X71775000Y-132932468D01*
X74787400Y-132932468D01*
X74787400Y-133027532D01*
X74805946Y-133120769D01*
X74842326Y-133208597D01*
X74895140Y-133287640D01*
X74962360Y-133354860D01*
X75041403Y-133407674D01*
X75129231Y-133444054D01*
X75222468Y-133462600D01*
X75317532Y-133462600D01*
X75410769Y-133444054D01*
X75498597Y-133407674D01*
X75577640Y-133354860D01*
X75644860Y-133287640D01*
X75697674Y-133208597D01*
X75734054Y-133120769D01*
X75752600Y-133027532D01*
X75752600Y-132932468D01*
X75734054Y-132839231D01*
X75697674Y-132751403D01*
X75644860Y-132672360D01*
X75577640Y-132605140D01*
X75498597Y-132552326D01*
X75410769Y-132515946D01*
X75317532Y-132497400D01*
X75222468Y-132497400D01*
X75129231Y-132515946D01*
X75041403Y-132552326D01*
X74962360Y-132605140D01*
X74895140Y-132672360D01*
X74842326Y-132751403D01*
X74805946Y-132839231D01*
X74787400Y-132932468D01*
X71775000Y-132932468D01*
X71995948Y-132252468D01*
X79627400Y-132252468D01*
X79627400Y-132347532D01*
X79645946Y-132440769D01*
X79682326Y-132528597D01*
X79735140Y-132607640D01*
X79802360Y-132674860D01*
X79881403Y-132727674D01*
X79969231Y-132764054D01*
X80062468Y-132782600D01*
X80157532Y-132782600D01*
X80250769Y-132764054D01*
X80338597Y-132727674D01*
X80417640Y-132674860D01*
X80484860Y-132607640D01*
X80537674Y-132528597D01*
X80574054Y-132440769D01*
X80592600Y-132347532D01*
X80592600Y-132252468D01*
X80574054Y-132159231D01*
X80537674Y-132071403D01*
X80484860Y-131992360D01*
X80417640Y-131925140D01*
X80338597Y-131872326D01*
X80250769Y-131835946D01*
X80157532Y-131817400D01*
X80062468Y-131817400D01*
X79969231Y-131835946D01*
X79881403Y-131872326D01*
X79802360Y-131925140D01*
X79735140Y-131992360D01*
X79682326Y-132071403D01*
X79645946Y-132159231D01*
X79627400Y-132252468D01*
X71995948Y-132252468D01*
X72402104Y-131002468D01*
X77917400Y-131002468D01*
X77917400Y-131097532D01*
X77935946Y-131190769D01*
X77972326Y-131278597D01*
X78025140Y-131357640D01*
X78092360Y-131424860D01*
X78171403Y-131477674D01*
X78259231Y-131514054D01*
X78352468Y-131532600D01*
X78447532Y-131532600D01*
X78540769Y-131514054D01*
X78628597Y-131477674D01*
X78707640Y-131424860D01*
X78774860Y-131357640D01*
X78827674Y-131278597D01*
X78864054Y-131190769D01*
X78882600Y-131097532D01*
X78882600Y-131002468D01*
X78864054Y-130909231D01*
X78827674Y-130821403D01*
X78774860Y-130742360D01*
X78707640Y-130675140D01*
X78628597Y-130622326D01*
X78540769Y-130585946D01*
X78447532Y-130567400D01*
X78352468Y-130567400D01*
X78259231Y-130585946D01*
X78171403Y-130622326D01*
X78092360Y-130675140D01*
X78025140Y-130742360D01*
X77972326Y-130821403D01*
X77935946Y-130909231D01*
X77917400Y-131002468D01*
X72402104Y-131002468D01*
X73688807Y-127042468D01*
X77137400Y-127042468D01*
X77137400Y-127137532D01*
X77155946Y-127230769D01*
X77192326Y-127318597D01*
X77245140Y-127397640D01*
X77312360Y-127464860D01*
X77391403Y-127517674D01*
X77479231Y-127554054D01*
X77572468Y-127572600D01*
X77667532Y-127572600D01*
X77760769Y-127554054D01*
X77848597Y-127517674D01*
X77927640Y-127464860D01*
X77994860Y-127397640D01*
X78047674Y-127318597D01*
X78084054Y-127230769D01*
X78102600Y-127137532D01*
X78102600Y-127042468D01*
X78084054Y-126949231D01*
X78047674Y-126861403D01*
X77994860Y-126782360D01*
X77927640Y-126715140D01*
X77848597Y-126662326D01*
X77760769Y-126625946D01*
X77667532Y-126607400D01*
X77572468Y-126607400D01*
X77479231Y-126625946D01*
X77391403Y-126662326D01*
X77312360Y-126715140D01*
X77245140Y-126782360D01*
X77192326Y-126861403D01*
X77155946Y-126949231D01*
X77137400Y-127042468D01*
X73688807Y-127042468D01*
X73903257Y-126382468D01*
X87127400Y-126382468D01*
X87127400Y-126477532D01*
X87145946Y-126570769D01*
X87182326Y-126658597D01*
X87235140Y-126737640D01*
X87302360Y-126804860D01*
X87381403Y-126857674D01*
X87469231Y-126894054D01*
X87562468Y-126912600D01*
X87657532Y-126912600D01*
X87750769Y-126894054D01*
X87838597Y-126857674D01*
X87917640Y-126804860D01*
X87984860Y-126737640D01*
X88037674Y-126658597D01*
X88074054Y-126570769D01*
X88092600Y-126477532D01*
X88092600Y-126382468D01*
X88074054Y-126289231D01*
X88037674Y-126201403D01*
X87984860Y-126122360D01*
X87917640Y-126055140D01*
X87838597Y-126002326D01*
X87750769Y-125965946D01*
X87657532Y-125947400D01*
X87562468Y-125947400D01*
X87469231Y-125965946D01*
X87381403Y-126002326D01*
X87302360Y-126055140D01*
X87235140Y-126122360D01*
X87182326Y-126201403D01*
X87145946Y-126289231D01*
X87127400Y-126382468D01*
X73903257Y-126382468D01*
X75102015Y-122693127D01*
X93688059Y-122693127D01*
X93688059Y-122788191D01*
X93706605Y-122881428D01*
X93742985Y-122969256D01*
X93795799Y-123048299D01*
X93863019Y-123115519D01*
X93942062Y-123168333D01*
X94029890Y-123204713D01*
X94123127Y-123223259D01*
X94218191Y-123223259D01*
X94311428Y-123204713D01*
X94399256Y-123168333D01*
X94478299Y-123115519D01*
X94545519Y-123048299D01*
X94598333Y-122969256D01*
X94634713Y-122881428D01*
X94653259Y-122788191D01*
X94653259Y-122693127D01*
X94634713Y-122599890D01*
X94598333Y-122512062D01*
X94545519Y-122433019D01*
X94478299Y-122365799D01*
X94399256Y-122312985D01*
X94311428Y-122276605D01*
X94218191Y-122258059D01*
X94123127Y-122258059D01*
X94029890Y-122276605D01*
X93942062Y-122312985D01*
X93863019Y-122365799D01*
X93795799Y-122433019D01*
X93742985Y-122512062D01*
X93706605Y-122599890D01*
X93688059Y-122693127D01*
X75102015Y-122693127D01*
X75872302Y-120322468D01*
X88187400Y-120322468D01*
X88187400Y-120417532D01*
X88205946Y-120510769D01*
X88242326Y-120598597D01*
X88295140Y-120677640D01*
X88362360Y-120744860D01*
X88441403Y-120797674D01*
X88529231Y-120834054D01*
X88622468Y-120852600D01*
X88717532Y-120852600D01*
X88810769Y-120834054D01*
X88898597Y-120797674D01*
X88977640Y-120744860D01*
X89044860Y-120677640D01*
X89097674Y-120598597D01*
X89134054Y-120510769D01*
X89152600Y-120417532D01*
X89152600Y-120372468D01*
X110917400Y-120372468D01*
X110917400Y-120467532D01*
X110935946Y-120560769D01*
X110972326Y-120648597D01*
X111025140Y-120727640D01*
X111092360Y-120794860D01*
X111171403Y-120847674D01*
X111259231Y-120884054D01*
X111352468Y-120902600D01*
X111447532Y-120902600D01*
X111540769Y-120884054D01*
X111628597Y-120847674D01*
X111707640Y-120794860D01*
X111774860Y-120727640D01*
X111827674Y-120648597D01*
X111864054Y-120560769D01*
X111882600Y-120467532D01*
X111882600Y-120372468D01*
X111864054Y-120279231D01*
X111827674Y-120191403D01*
X111774860Y-120112360D01*
X111707640Y-120045140D01*
X111628597Y-119992326D01*
X111540769Y-119955946D01*
X111447532Y-119937400D01*
X111352468Y-119937400D01*
X111259231Y-119955946D01*
X111171403Y-119992326D01*
X111092360Y-120045140D01*
X111025140Y-120112360D01*
X110972326Y-120191403D01*
X110935946Y-120279231D01*
X110917400Y-120372468D01*
X89152600Y-120372468D01*
X89152600Y-120322468D01*
X89134054Y-120229231D01*
X89097674Y-120141403D01*
X89044860Y-120062360D01*
X88977640Y-119995140D01*
X88898597Y-119942326D01*
X88810769Y-119905946D01*
X88717532Y-119887400D01*
X88622468Y-119887400D01*
X88529231Y-119905946D01*
X88441403Y-119942326D01*
X88362360Y-119995140D01*
X88295140Y-120062360D01*
X88242326Y-120141403D01*
X88205946Y-120229231D01*
X88187400Y-120322468D01*
X75872302Y-120322468D01*
X76141989Y-119492468D01*
X116187400Y-119492468D01*
X116187400Y-119587532D01*
X116205946Y-119680769D01*
X116242326Y-119768597D01*
X116295140Y-119847640D01*
X116362360Y-119914860D01*
X116441403Y-119967674D01*
X116529231Y-120004054D01*
X116622468Y-120022600D01*
X116717532Y-120022600D01*
X116810769Y-120004054D01*
X116898597Y-119967674D01*
X116977640Y-119914860D01*
X117044860Y-119847640D01*
X117097674Y-119768597D01*
X117134054Y-119680769D01*
X117152600Y-119587532D01*
X117152600Y-119492468D01*
X117134054Y-119399231D01*
X117097674Y-119311403D01*
X117044860Y-119232360D01*
X116977640Y-119165140D01*
X116898597Y-119112326D01*
X116810769Y-119075946D01*
X116717532Y-119057400D01*
X116622468Y-119057400D01*
X116529231Y-119075946D01*
X116441403Y-119112326D01*
X116362360Y-119165140D01*
X116295140Y-119232360D01*
X116242326Y-119311403D01*
X116205946Y-119399231D01*
X116187400Y-119492468D01*
X76141989Y-119492468D01*
X77230489Y-116142468D01*
X79177400Y-116142468D01*
X79177400Y-116237532D01*
X79195946Y-116330769D01*
X79232326Y-116418597D01*
X79285140Y-116497640D01*
X79352360Y-116564860D01*
X79431403Y-116617674D01*
X79519231Y-116654054D01*
X79612468Y-116672600D01*
X79707532Y-116672600D01*
X79800769Y-116654054D01*
X79888597Y-116617674D01*
X79967640Y-116564860D01*
X80034860Y-116497640D01*
X80087674Y-116418597D01*
X80124054Y-116330769D01*
X80142600Y-116237532D01*
X80142600Y-116142468D01*
X80124054Y-116049231D01*
X80087674Y-115961403D01*
X80034860Y-115882360D01*
X79967640Y-115815140D01*
X79888597Y-115762326D01*
X79800769Y-115725946D01*
X79707532Y-115707400D01*
X79612468Y-115707400D01*
X79519231Y-115725946D01*
X79431403Y-115762326D01*
X79352360Y-115815140D01*
X79285140Y-115882360D01*
X79232326Y-115961403D01*
X79195946Y-116049231D01*
X79177400Y-116142468D01*
X77230489Y-116142468D01*
X77399449Y-115622468D01*
X82537400Y-115622468D01*
X82537400Y-115717532D01*
X82555946Y-115810769D01*
X82592326Y-115898597D01*
X82645140Y-115977640D01*
X82712360Y-116044860D01*
X82791403Y-116097674D01*
X82879231Y-116134054D01*
X82972468Y-116152600D01*
X83067532Y-116152600D01*
X83160769Y-116134054D01*
X83248597Y-116097674D01*
X83327640Y-116044860D01*
X83394860Y-115977640D01*
X83447674Y-115898597D01*
X83484054Y-115810769D01*
X83502600Y-115717532D01*
X83502600Y-115622468D01*
X83498622Y-115602468D01*
X116667400Y-115602468D01*
X116667400Y-115697532D01*
X116685946Y-115790769D01*
X116722326Y-115878597D01*
X116775140Y-115957640D01*
X116842360Y-116024860D01*
X116921403Y-116077674D01*
X117009231Y-116114054D01*
X117102468Y-116132600D01*
X117197532Y-116132600D01*
X117290769Y-116114054D01*
X117378597Y-116077674D01*
X117457640Y-116024860D01*
X117524860Y-115957640D01*
X117577674Y-115878597D01*
X117614054Y-115790769D01*
X117632600Y-115697532D01*
X117632600Y-115602468D01*
X117614054Y-115509231D01*
X117577674Y-115421403D01*
X117524860Y-115342360D01*
X117457640Y-115275140D01*
X117378597Y-115222326D01*
X117290769Y-115185946D01*
X117197532Y-115167400D01*
X117102468Y-115167400D01*
X117009231Y-115185946D01*
X116921403Y-115222326D01*
X116842360Y-115275140D01*
X116775140Y-115342360D01*
X116722326Y-115421403D01*
X116685946Y-115509231D01*
X116667400Y-115602468D01*
X83498622Y-115602468D01*
X83484054Y-115529231D01*
X83447674Y-115441403D01*
X83394860Y-115362360D01*
X83327640Y-115295140D01*
X83248597Y-115242326D01*
X83160769Y-115205946D01*
X83067532Y-115187400D01*
X82972468Y-115187400D01*
X82879231Y-115205946D01*
X82791403Y-115242326D01*
X82712360Y-115295140D01*
X82645140Y-115362360D01*
X82592326Y-115441403D01*
X82555946Y-115529231D01*
X82537400Y-115622468D01*
X77399449Y-115622468D01*
X77841346Y-114262468D01*
X117727400Y-114262468D01*
X117727400Y-114357532D01*
X117745946Y-114450769D01*
X117782326Y-114538597D01*
X117835140Y-114617640D01*
X117902360Y-114684860D01*
X117981403Y-114737674D01*
X118069231Y-114774054D01*
X118162468Y-114792600D01*
X118257532Y-114792600D01*
X118350769Y-114774054D01*
X118438597Y-114737674D01*
X118517640Y-114684860D01*
X118584860Y-114617640D01*
X118637674Y-114538597D01*
X118674054Y-114450769D01*
X118692600Y-114357532D01*
X118692600Y-114262468D01*
X118674054Y-114169231D01*
X118637674Y-114081403D01*
X118584860Y-114002360D01*
X118517640Y-113935140D01*
X118438597Y-113882326D01*
X118350769Y-113845946D01*
X118257532Y-113827400D01*
X118162468Y-113827400D01*
X118069231Y-113845946D01*
X117981403Y-113882326D01*
X117902360Y-113935140D01*
X117835140Y-114002360D01*
X117782326Y-114081403D01*
X117745946Y-114169231D01*
X117727400Y-114262468D01*
X77841346Y-114262468D01*
X78137028Y-113352468D01*
X110277400Y-113352468D01*
X110277400Y-113447532D01*
X110295946Y-113540769D01*
X110332326Y-113628597D01*
X110385140Y-113707640D01*
X110452360Y-113774860D01*
X110531403Y-113827674D01*
X110619231Y-113864054D01*
X110712468Y-113882600D01*
X110807532Y-113882600D01*
X110900769Y-113864054D01*
X110988597Y-113827674D01*
X111067640Y-113774860D01*
X111134860Y-113707640D01*
X111187674Y-113628597D01*
X111224054Y-113540769D01*
X111242600Y-113447532D01*
X111242600Y-113352468D01*
X111224054Y-113259231D01*
X111187674Y-113171403D01*
X111134860Y-113092360D01*
X111067640Y-113025140D01*
X110988597Y-112972326D01*
X110900769Y-112935946D01*
X110807532Y-112917400D01*
X110712468Y-112917400D01*
X110619231Y-112935946D01*
X110531403Y-112972326D01*
X110452360Y-113025140D01*
X110385140Y-113092360D01*
X110332326Y-113171403D01*
X110295946Y-113259231D01*
X110277400Y-113352468D01*
X78137028Y-113352468D01*
X78461953Y-112352468D01*
X120017400Y-112352468D01*
X120017400Y-112447532D01*
X120035946Y-112540769D01*
X120072326Y-112628597D01*
X120125140Y-112707640D01*
X120192360Y-112774860D01*
X120271403Y-112827674D01*
X120359231Y-112864054D01*
X120452468Y-112882600D01*
X120547532Y-112882600D01*
X120640769Y-112864054D01*
X120728597Y-112827674D01*
X120807640Y-112774860D01*
X120874860Y-112707640D01*
X120927674Y-112628597D01*
X120964054Y-112540769D01*
X120982600Y-112447532D01*
X120982600Y-112352468D01*
X120964054Y-112259231D01*
X120927674Y-112171403D01*
X120874860Y-112092360D01*
X120807640Y-112025140D01*
X120728597Y-111972326D01*
X120640769Y-111935946D01*
X120547532Y-111917400D01*
X120452468Y-111917400D01*
X120359231Y-111935946D01*
X120271403Y-111972326D01*
X120192360Y-112025140D01*
X120125140Y-112092360D01*
X120072326Y-112171403D01*
X120035946Y-112259231D01*
X120017400Y-112352468D01*
X78461953Y-112352468D01*
X79215779Y-110032468D01*
X113447400Y-110032468D01*
X113447400Y-110127532D01*
X113465946Y-110220769D01*
X113502326Y-110308597D01*
X113555140Y-110387640D01*
X113622360Y-110454860D01*
X113701403Y-110507674D01*
X113789231Y-110544054D01*
X113882468Y-110562600D01*
X113977532Y-110562600D01*
X114070769Y-110544054D01*
X114158597Y-110507674D01*
X114237640Y-110454860D01*
X114304860Y-110387640D01*
X114357674Y-110308597D01*
X114394054Y-110220769D01*
X114412600Y-110127532D01*
X114412600Y-110032468D01*
X114394054Y-109939231D01*
X114357674Y-109851403D01*
X114304860Y-109772360D01*
X114237640Y-109705140D01*
X114158597Y-109652326D01*
X114070769Y-109615946D01*
X113977532Y-109597400D01*
X113882468Y-109597400D01*
X113789231Y-109615946D01*
X113701403Y-109652326D01*
X113622360Y-109705140D01*
X113555140Y-109772360D01*
X113502326Y-109851403D01*
X113465946Y-109939231D01*
X113447400Y-110032468D01*
X79215779Y-110032468D01*
X79437795Y-109349187D01*
X83280681Y-109349187D01*
X83280681Y-109444251D01*
X83299227Y-109537488D01*
X83335607Y-109625316D01*
X83388421Y-109704359D01*
X83455641Y-109771579D01*
X83534684Y-109824393D01*
X83622512Y-109860773D01*
X83715749Y-109879319D01*
X83810813Y-109879319D01*
X83904050Y-109860773D01*
X83991878Y-109824393D01*
X84070921Y-109771579D01*
X84138141Y-109704359D01*
X84190955Y-109625316D01*
X84227335Y-109537488D01*
X84245881Y-109444251D01*
X84245881Y-109349187D01*
X84227335Y-109255950D01*
X84190955Y-109168122D01*
X84138141Y-109089079D01*
X84070921Y-109021859D01*
X83991878Y-108969045D01*
X83904050Y-108932665D01*
X83810813Y-108914119D01*
X83715749Y-108914119D01*
X83622512Y-108932665D01*
X83534684Y-108969045D01*
X83455641Y-109021859D01*
X83388421Y-109089079D01*
X83335607Y-109168122D01*
X83299227Y-109255950D01*
X83280681Y-109349187D01*
X79437795Y-109349187D01*
X79870460Y-108017603D01*
X103803149Y-108017603D01*
X103803149Y-108112667D01*
X103821695Y-108205904D01*
X103858075Y-108293732D01*
X103910889Y-108372775D01*
X103978109Y-108439995D01*
X104057152Y-108492809D01*
X104144980Y-108529189D01*
X104238217Y-108547735D01*
X104333281Y-108547735D01*
X104426518Y-108529189D01*
X104514346Y-108492809D01*
X104593389Y-108439995D01*
X104660609Y-108372775D01*
X104713423Y-108293732D01*
X104749803Y-108205904D01*
X104768349Y-108112667D01*
X104768349Y-108017603D01*
X104765339Y-108002468D01*
X107367400Y-108002468D01*
X107367400Y-108097532D01*
X107385946Y-108190769D01*
X107422326Y-108278597D01*
X107475140Y-108357640D01*
X107542360Y-108424860D01*
X107621403Y-108477674D01*
X107709231Y-108514054D01*
X107802468Y-108532600D01*
X107897532Y-108532600D01*
X107990769Y-108514054D01*
X108078597Y-108477674D01*
X108157640Y-108424860D01*
X108224860Y-108357640D01*
X108277674Y-108278597D01*
X108314054Y-108190769D01*
X108332600Y-108097532D01*
X108332600Y-108002468D01*
X108314054Y-107909231D01*
X108286400Y-107842468D01*
X114857400Y-107842468D01*
X114857400Y-107937532D01*
X114875946Y-108030769D01*
X114912326Y-108118597D01*
X114965140Y-108197640D01*
X115032360Y-108264860D01*
X115111403Y-108317674D01*
X115199231Y-108354054D01*
X115292468Y-108372600D01*
X115387532Y-108372600D01*
X115480769Y-108354054D01*
X115568597Y-108317674D01*
X115647640Y-108264860D01*
X115714860Y-108197640D01*
X115767674Y-108118597D01*
X115804054Y-108030769D01*
X115822600Y-107937532D01*
X115822600Y-107842468D01*
X115804054Y-107749231D01*
X115767674Y-107661403D01*
X115714860Y-107582360D01*
X115647640Y-107515140D01*
X115568597Y-107462326D01*
X115480769Y-107425946D01*
X115387532Y-107407400D01*
X115292468Y-107407400D01*
X115199231Y-107425946D01*
X115111403Y-107462326D01*
X115032360Y-107515140D01*
X114965140Y-107582360D01*
X114912326Y-107661403D01*
X114875946Y-107749231D01*
X114857400Y-107842468D01*
X108286400Y-107842468D01*
X108277674Y-107821403D01*
X108224860Y-107742360D01*
X108157640Y-107675140D01*
X108078597Y-107622326D01*
X107990769Y-107585946D01*
X107897532Y-107567400D01*
X107802468Y-107567400D01*
X107709231Y-107585946D01*
X107621403Y-107622326D01*
X107542360Y-107675140D01*
X107475140Y-107742360D01*
X107422326Y-107821403D01*
X107385946Y-107909231D01*
X107367400Y-108002468D01*
X104765339Y-108002468D01*
X104749803Y-107924366D01*
X104713423Y-107836538D01*
X104660609Y-107757495D01*
X104593389Y-107690275D01*
X104514346Y-107637461D01*
X104426518Y-107601081D01*
X104333281Y-107582535D01*
X104238217Y-107582535D01*
X104144980Y-107601081D01*
X104057152Y-107637461D01*
X103978109Y-107690275D01*
X103910889Y-107757495D01*
X103858075Y-107836538D01*
X103821695Y-107924366D01*
X103803149Y-108017603D01*
X79870460Y-108017603D01*
X80331632Y-106598286D01*
X80341178Y-106570760D01*
X80343848Y-106551465D01*
X80348024Y-106532432D01*
X80348279Y-106519435D01*
X80350060Y-106506564D01*
X80348914Y-106487114D01*
X80349296Y-106467637D01*
X80347012Y-106454844D01*
X80346247Y-106441870D01*
X80341329Y-106423018D01*
X80337904Y-106403839D01*
X80333168Y-106391739D01*
X80329887Y-106379162D01*
X80321382Y-106361626D01*
X80314284Y-106343490D01*
X80307281Y-106332551D01*
X80301607Y-106320851D01*
X80289840Y-106305305D01*
X80279344Y-106288909D01*
X80270345Y-106279550D01*
X80262494Y-106269177D01*
X80247915Y-106256221D01*
X80234427Y-106242192D01*
X80210596Y-106225582D01*
X80187851Y-106209055D01*
X93753345Y-106209055D01*
X93753345Y-106304119D01*
X93771891Y-106397356D01*
X93808271Y-106485184D01*
X93861085Y-106564227D01*
X93928305Y-106631447D01*
X94007348Y-106684261D01*
X94095176Y-106720641D01*
X94188413Y-106739187D01*
X94283477Y-106739187D01*
X94376714Y-106720641D01*
X94464542Y-106684261D01*
X94543585Y-106631447D01*
X94610805Y-106564227D01*
X94663619Y-106485184D01*
X94699999Y-106397356D01*
X94718545Y-106304119D01*
X94718545Y-106222468D01*
X109187400Y-106222468D01*
X109187400Y-106317532D01*
X109205946Y-106410769D01*
X109242326Y-106498597D01*
X109295140Y-106577640D01*
X109362360Y-106644860D01*
X109441403Y-106697674D01*
X109529231Y-106734054D01*
X109622468Y-106752600D01*
X109717532Y-106752600D01*
X109810769Y-106734054D01*
X109898597Y-106697674D01*
X109977640Y-106644860D01*
X110044860Y-106577640D01*
X110097674Y-106498597D01*
X110134054Y-106410769D01*
X110152600Y-106317532D01*
X110152600Y-106222468D01*
X110134054Y-106129231D01*
X110097674Y-106041403D01*
X110044860Y-105962360D01*
X109977640Y-105895140D01*
X109898597Y-105842326D01*
X109810769Y-105805946D01*
X109717532Y-105787400D01*
X109622468Y-105787400D01*
X109529231Y-105805946D01*
X109441403Y-105842326D01*
X109362360Y-105895140D01*
X109295140Y-105962360D01*
X109242326Y-106041403D01*
X109205946Y-106129231D01*
X109187400Y-106222468D01*
X94718545Y-106222468D01*
X94718545Y-106209055D01*
X94699999Y-106115818D01*
X94663619Y-106027990D01*
X94610805Y-105948947D01*
X94543585Y-105881727D01*
X94464542Y-105828913D01*
X94376714Y-105792533D01*
X94283477Y-105773987D01*
X94188413Y-105773987D01*
X94095176Y-105792533D01*
X94007348Y-105828913D01*
X93928305Y-105881727D01*
X93861085Y-105948947D01*
X93808271Y-106027990D01*
X93771891Y-106115818D01*
X93753345Y-106209055D01*
X80187851Y-106209055D01*
X78932373Y-105296821D01*
X78978597Y-105277674D01*
X79057640Y-105224860D01*
X79124860Y-105157640D01*
X79132288Y-105146523D01*
X92673345Y-105146523D01*
X92673345Y-105241587D01*
X92691891Y-105334824D01*
X92728271Y-105422652D01*
X92781085Y-105501695D01*
X92848305Y-105568915D01*
X92927348Y-105621729D01*
X93015176Y-105658109D01*
X93108413Y-105676655D01*
X93203477Y-105676655D01*
X93296714Y-105658109D01*
X93384542Y-105621729D01*
X93463585Y-105568915D01*
X93530805Y-105501695D01*
X93583619Y-105422652D01*
X93587837Y-105412468D01*
X98317400Y-105412468D01*
X98317400Y-105507532D01*
X98335946Y-105600769D01*
X98372326Y-105688597D01*
X98425140Y-105767640D01*
X98492360Y-105834860D01*
X98571403Y-105887674D01*
X98659231Y-105924054D01*
X98752468Y-105942600D01*
X98847532Y-105942600D01*
X98940769Y-105924054D01*
X99028597Y-105887674D01*
X99107640Y-105834860D01*
X99174860Y-105767640D01*
X99227674Y-105688597D01*
X99264054Y-105600769D01*
X99282600Y-105507532D01*
X99282600Y-105412468D01*
X99264054Y-105319231D01*
X99227674Y-105231403D01*
X99174860Y-105152360D01*
X99107640Y-105085140D01*
X99028597Y-105032326D01*
X98940769Y-104995946D01*
X98847532Y-104977400D01*
X98752468Y-104977400D01*
X98659231Y-104995946D01*
X98571403Y-105032326D01*
X98492360Y-105085140D01*
X98425140Y-105152360D01*
X98372326Y-105231403D01*
X98335946Y-105319231D01*
X98317400Y-105412468D01*
X93587837Y-105412468D01*
X93619999Y-105334824D01*
X93638545Y-105241587D01*
X93638545Y-105146523D01*
X93619999Y-105053286D01*
X93583619Y-104965458D01*
X93530805Y-104886415D01*
X93463585Y-104819195D01*
X93384542Y-104766381D01*
X93296714Y-104730001D01*
X93203477Y-104711455D01*
X93108413Y-104711455D01*
X93015176Y-104730001D01*
X92927348Y-104766381D01*
X92848305Y-104819195D01*
X92781085Y-104886415D01*
X92728271Y-104965458D01*
X92691891Y-105053286D01*
X92673345Y-105146523D01*
X79132288Y-105146523D01*
X79177674Y-105078597D01*
X79214054Y-104990769D01*
X79232600Y-104897532D01*
X79232600Y-104802468D01*
X79214054Y-104709231D01*
X79177674Y-104621403D01*
X79124860Y-104542360D01*
X79057640Y-104475140D01*
X78978597Y-104422326D01*
X78890769Y-104385946D01*
X78797532Y-104367400D01*
X78702468Y-104367400D01*
X78609231Y-104385946D01*
X78521403Y-104422326D01*
X78442360Y-104475140D01*
X78375140Y-104542360D01*
X78322326Y-104621403D01*
X78285946Y-104709231D01*
X78267400Y-104802468D01*
X78267400Y-104813650D01*
X77068421Y-103942468D01*
X79447400Y-103942468D01*
X79447400Y-104037532D01*
X79465946Y-104130769D01*
X79502326Y-104218597D01*
X79555140Y-104297640D01*
X79622360Y-104364860D01*
X79701403Y-104417674D01*
X79789231Y-104454054D01*
X79882468Y-104472600D01*
X79977532Y-104472600D01*
X80070769Y-104454054D01*
X80158597Y-104417674D01*
X80237640Y-104364860D01*
X80304860Y-104297640D01*
X80357674Y-104218597D01*
X80394054Y-104130769D01*
X80412600Y-104037532D01*
X80412600Y-103942468D01*
X80394054Y-103849231D01*
X80357674Y-103761403D01*
X80338341Y-103732468D01*
X81767400Y-103732468D01*
X81767400Y-103827532D01*
X81785946Y-103920769D01*
X81822326Y-104008597D01*
X81875140Y-104087640D01*
X81942360Y-104154860D01*
X82021403Y-104207674D01*
X82109231Y-104244054D01*
X82202468Y-104262600D01*
X82297532Y-104262600D01*
X82390769Y-104244054D01*
X82478597Y-104207674D01*
X82557640Y-104154860D01*
X82624860Y-104087640D01*
X82677674Y-104008597D01*
X82714054Y-103920769D01*
X82732600Y-103827532D01*
X82732600Y-103732468D01*
X82714054Y-103639231D01*
X82677674Y-103551403D01*
X82624860Y-103472360D01*
X82557640Y-103405140D01*
X82478597Y-103352326D01*
X82390769Y-103315946D01*
X82297532Y-103297400D01*
X82202468Y-103297400D01*
X82109231Y-103315946D01*
X82021403Y-103352326D01*
X81942360Y-103405140D01*
X81875140Y-103472360D01*
X81822326Y-103551403D01*
X81785946Y-103639231D01*
X81767400Y-103732468D01*
X80338341Y-103732468D01*
X80304860Y-103682360D01*
X80237640Y-103615140D01*
X80158597Y-103562326D01*
X80070769Y-103525946D01*
X79977532Y-103507400D01*
X79882468Y-103507400D01*
X79789231Y-103525946D01*
X79701403Y-103562326D01*
X79622360Y-103615140D01*
X79555140Y-103682360D01*
X79502326Y-103761403D01*
X79465946Y-103849231D01*
X79447400Y-103942468D01*
X77068421Y-103942468D01*
X75843544Y-103052468D01*
X99907400Y-103052468D01*
X99907400Y-103147532D01*
X99925946Y-103240769D01*
X99962326Y-103328597D01*
X100015140Y-103407640D01*
X100082360Y-103474860D01*
X100161403Y-103527674D01*
X100249231Y-103564054D01*
X100342468Y-103582600D01*
X100437532Y-103582600D01*
X100530769Y-103564054D01*
X100618597Y-103527674D01*
X100697640Y-103474860D01*
X100764860Y-103407640D01*
X100817674Y-103328597D01*
X100854054Y-103240769D01*
X100872600Y-103147532D01*
X100872600Y-103052468D01*
X100854054Y-102959231D01*
X100817674Y-102871403D01*
X100764860Y-102792360D01*
X100724968Y-102752468D01*
X103767400Y-102752468D01*
X103767400Y-102847532D01*
X103785946Y-102940769D01*
X103822326Y-103028597D01*
X103875140Y-103107640D01*
X103942360Y-103174860D01*
X104021403Y-103227674D01*
X104109231Y-103264054D01*
X104202468Y-103282600D01*
X104297532Y-103282600D01*
X104390769Y-103264054D01*
X104478597Y-103227674D01*
X104557640Y-103174860D01*
X104624860Y-103107640D01*
X104677674Y-103028597D01*
X104714054Y-102940769D01*
X104732600Y-102847532D01*
X104732600Y-102752468D01*
X104714054Y-102659231D01*
X104677674Y-102571403D01*
X104624860Y-102492360D01*
X104557640Y-102425140D01*
X104478597Y-102372326D01*
X104390769Y-102335946D01*
X104297532Y-102317400D01*
X104202468Y-102317400D01*
X104109231Y-102335946D01*
X104021403Y-102372326D01*
X103942360Y-102425140D01*
X103875140Y-102492360D01*
X103822326Y-102571403D01*
X103785946Y-102659231D01*
X103767400Y-102752468D01*
X100724968Y-102752468D01*
X100697640Y-102725140D01*
X100618597Y-102672326D01*
X100530769Y-102635946D01*
X100437532Y-102617400D01*
X100342468Y-102617400D01*
X100249231Y-102635946D01*
X100161403Y-102672326D01*
X100082360Y-102725140D01*
X100015140Y-102792360D01*
X99962326Y-102871403D01*
X99925946Y-102959231D01*
X99907400Y-103052468D01*
X75843544Y-103052468D01*
X74233312Y-101882468D01*
X79447400Y-101882468D01*
X79447400Y-101977532D01*
X79465946Y-102070769D01*
X79502326Y-102158597D01*
X79555140Y-102237640D01*
X79622360Y-102304860D01*
X79701403Y-102357674D01*
X79789231Y-102394054D01*
X79882468Y-102412600D01*
X79977532Y-102412600D01*
X80070769Y-102394054D01*
X80158597Y-102357674D01*
X80166388Y-102352468D01*
X91957400Y-102352468D01*
X91957400Y-102447532D01*
X91975946Y-102540769D01*
X92012326Y-102628597D01*
X92065140Y-102707640D01*
X92132360Y-102774860D01*
X92211403Y-102827674D01*
X92299231Y-102864054D01*
X92392468Y-102882600D01*
X92487532Y-102882600D01*
X92580769Y-102864054D01*
X92668597Y-102827674D01*
X92747640Y-102774860D01*
X92814860Y-102707640D01*
X92867674Y-102628597D01*
X92904054Y-102540769D01*
X92922600Y-102447532D01*
X92922600Y-102352468D01*
X92904054Y-102259231D01*
X92867674Y-102171403D01*
X92814860Y-102092360D01*
X92747640Y-102025140D01*
X92668597Y-101972326D01*
X92580769Y-101935946D01*
X92487532Y-101917400D01*
X92392468Y-101917400D01*
X92299231Y-101935946D01*
X92211403Y-101972326D01*
X92132360Y-102025140D01*
X92065140Y-102092360D01*
X92012326Y-102171403D01*
X91975946Y-102259231D01*
X91957400Y-102352468D01*
X80166388Y-102352468D01*
X80237640Y-102304860D01*
X80304860Y-102237640D01*
X80357674Y-102158597D01*
X80394054Y-102070769D01*
X80412600Y-101977532D01*
X80412600Y-101882468D01*
X80394054Y-101789231D01*
X80357674Y-101701403D01*
X80304860Y-101622360D01*
X80237640Y-101555140D01*
X80158597Y-101502326D01*
X80070769Y-101465946D01*
X79977532Y-101447400D01*
X79882468Y-101447400D01*
X79789231Y-101465946D01*
X79701403Y-101502326D01*
X79622360Y-101555140D01*
X79555140Y-101622360D01*
X79502326Y-101701403D01*
X79465946Y-101789231D01*
X79447400Y-101882468D01*
X74233312Y-101882468D01*
X72898333Y-100912468D01*
X82397400Y-100912468D01*
X82397400Y-101007532D01*
X82415946Y-101100769D01*
X82452326Y-101188597D01*
X82505140Y-101267640D01*
X82572360Y-101334860D01*
X82651403Y-101387674D01*
X82739231Y-101424054D01*
X82832468Y-101442600D01*
X82927532Y-101442600D01*
X83020769Y-101424054D01*
X83108597Y-101387674D01*
X83187640Y-101334860D01*
X83254860Y-101267640D01*
X83307674Y-101188597D01*
X83344054Y-101100769D01*
X83362600Y-101007532D01*
X83362600Y-100912468D01*
X83344054Y-100819231D01*
X83307674Y-100731403D01*
X83254860Y-100652360D01*
X83187640Y-100585140D01*
X83108597Y-100532326D01*
X83020769Y-100495946D01*
X82927532Y-100477400D01*
X82832468Y-100477400D01*
X82739231Y-100495946D01*
X82651403Y-100532326D01*
X82572360Y-100585140D01*
X82505140Y-100652360D01*
X82452326Y-100731403D01*
X82415946Y-100819231D01*
X82397400Y-100912468D01*
X72898333Y-100912468D01*
X72265251Y-100452468D01*
X85567400Y-100452468D01*
X85567400Y-100547532D01*
X85585946Y-100640769D01*
X85622326Y-100728597D01*
X85675140Y-100807640D01*
X85742360Y-100874860D01*
X85821403Y-100927674D01*
X85909231Y-100964054D01*
X86002468Y-100982600D01*
X86097532Y-100982600D01*
X86190769Y-100964054D01*
X86278597Y-100927674D01*
X86301354Y-100912468D01*
X116727400Y-100912468D01*
X116727400Y-101007532D01*
X116745946Y-101100769D01*
X116782326Y-101188597D01*
X116835140Y-101267640D01*
X116902360Y-101334860D01*
X116981403Y-101387674D01*
X117069231Y-101424054D01*
X117162468Y-101442600D01*
X117257532Y-101442600D01*
X117350769Y-101424054D01*
X117438597Y-101387674D01*
X117517640Y-101334860D01*
X117584860Y-101267640D01*
X117637674Y-101188597D01*
X117674054Y-101100769D01*
X117692600Y-101007532D01*
X117692600Y-100912468D01*
X117674054Y-100819231D01*
X117637674Y-100731403D01*
X117584860Y-100652360D01*
X117517640Y-100585140D01*
X117438597Y-100532326D01*
X117350769Y-100495946D01*
X117257532Y-100477400D01*
X117162468Y-100477400D01*
X117069231Y-100495946D01*
X116981403Y-100532326D01*
X116902360Y-100585140D01*
X116835140Y-100652360D01*
X116782326Y-100731403D01*
X116745946Y-100819231D01*
X116727400Y-100912468D01*
X86301354Y-100912468D01*
X86357640Y-100874860D01*
X86424860Y-100807640D01*
X86477674Y-100728597D01*
X86514054Y-100640769D01*
X86532600Y-100547532D01*
X86532600Y-100452468D01*
X86514054Y-100359231D01*
X86511253Y-100352468D01*
X102567400Y-100352468D01*
X102567400Y-100447532D01*
X102585946Y-100540769D01*
X102622326Y-100628597D01*
X102675140Y-100707640D01*
X102742360Y-100774860D01*
X102821403Y-100827674D01*
X102909231Y-100864054D01*
X103002468Y-100882600D01*
X103097532Y-100882600D01*
X103190769Y-100864054D01*
X103278597Y-100827674D01*
X103357640Y-100774860D01*
X103424860Y-100707640D01*
X103477674Y-100628597D01*
X103514054Y-100540769D01*
X103532600Y-100447532D01*
X103532600Y-100352468D01*
X103514054Y-100259231D01*
X103477674Y-100171403D01*
X103424860Y-100092360D01*
X103357640Y-100025140D01*
X103278597Y-99972326D01*
X103190769Y-99935946D01*
X103097532Y-99917400D01*
X103002468Y-99917400D01*
X102909231Y-99935946D01*
X102821403Y-99972326D01*
X102742360Y-100025140D01*
X102675140Y-100092360D01*
X102622326Y-100171403D01*
X102585946Y-100259231D01*
X102567400Y-100352468D01*
X86511253Y-100352468D01*
X86477674Y-100271403D01*
X86424860Y-100192360D01*
X86357640Y-100125140D01*
X86278597Y-100072326D01*
X86190769Y-100035946D01*
X86097532Y-100017400D01*
X86002468Y-100017400D01*
X85909231Y-100035946D01*
X85821403Y-100072326D01*
X85742360Y-100125140D01*
X85675140Y-100192360D01*
X85622326Y-100271403D01*
X85585946Y-100359231D01*
X85567400Y-100452468D01*
X72265251Y-100452468D01*
X71164237Y-99652468D01*
X90047400Y-99652468D01*
X90047400Y-99747532D01*
X90065946Y-99840769D01*
X90102326Y-99928597D01*
X90155140Y-100007640D01*
X90222360Y-100074860D01*
X90301403Y-100127674D01*
X90389231Y-100164054D01*
X90482468Y-100182600D01*
X90577532Y-100182600D01*
X90670769Y-100164054D01*
X90758597Y-100127674D01*
X90837640Y-100074860D01*
X90904860Y-100007640D01*
X90957674Y-99928597D01*
X90994054Y-99840769D01*
X91012600Y-99747532D01*
X91012600Y-99652468D01*
X91317400Y-99652468D01*
X91317400Y-99747532D01*
X91335946Y-99840769D01*
X91372326Y-99928597D01*
X91425140Y-100007640D01*
X91492360Y-100074860D01*
X91571403Y-100127674D01*
X91659231Y-100164054D01*
X91752468Y-100182600D01*
X91847532Y-100182600D01*
X91940769Y-100164054D01*
X92028597Y-100127674D01*
X92107640Y-100074860D01*
X92174860Y-100007640D01*
X92227674Y-99928597D01*
X92264054Y-99840769D01*
X92282600Y-99747532D01*
X92282600Y-99652468D01*
X92587400Y-99652468D01*
X92587400Y-99747532D01*
X92605946Y-99840769D01*
X92642326Y-99928597D01*
X92695140Y-100007640D01*
X92762360Y-100074860D01*
X92841403Y-100127674D01*
X92929231Y-100164054D01*
X93022468Y-100182600D01*
X93117532Y-100182600D01*
X93210769Y-100164054D01*
X93298597Y-100127674D01*
X93377640Y-100074860D01*
X93444860Y-100007640D01*
X93497674Y-99928597D01*
X93534054Y-99840769D01*
X93552600Y-99747532D01*
X93552600Y-99652468D01*
X93857400Y-99652468D01*
X93857400Y-99747532D01*
X93875946Y-99840769D01*
X93912326Y-99928597D01*
X93965140Y-100007640D01*
X94032360Y-100074860D01*
X94111403Y-100127674D01*
X94199231Y-100164054D01*
X94292468Y-100182600D01*
X94387532Y-100182600D01*
X94480769Y-100164054D01*
X94568597Y-100127674D01*
X94647640Y-100074860D01*
X94714860Y-100007640D01*
X94767674Y-99928597D01*
X94804054Y-99840769D01*
X94822600Y-99747532D01*
X94822600Y-99652468D01*
X94804054Y-99559231D01*
X94767674Y-99471403D01*
X94714860Y-99392360D01*
X94647640Y-99325140D01*
X94568597Y-99272326D01*
X94480769Y-99235946D01*
X94387532Y-99217400D01*
X94292468Y-99217400D01*
X94199231Y-99235946D01*
X94111403Y-99272326D01*
X94032360Y-99325140D01*
X93965140Y-99392360D01*
X93912326Y-99471403D01*
X93875946Y-99559231D01*
X93857400Y-99652468D01*
X93552600Y-99652468D01*
X93534054Y-99559231D01*
X93497674Y-99471403D01*
X93444860Y-99392360D01*
X93377640Y-99325140D01*
X93298597Y-99272326D01*
X93210769Y-99235946D01*
X93117532Y-99217400D01*
X93022468Y-99217400D01*
X92929231Y-99235946D01*
X92841403Y-99272326D01*
X92762360Y-99325140D01*
X92695140Y-99392360D01*
X92642326Y-99471403D01*
X92605946Y-99559231D01*
X92587400Y-99652468D01*
X92282600Y-99652468D01*
X92264054Y-99559231D01*
X92227674Y-99471403D01*
X92174860Y-99392360D01*
X92107640Y-99325140D01*
X92028597Y-99272326D01*
X91940769Y-99235946D01*
X91847532Y-99217400D01*
X91752468Y-99217400D01*
X91659231Y-99235946D01*
X91571403Y-99272326D01*
X91492360Y-99325140D01*
X91425140Y-99392360D01*
X91372326Y-99471403D01*
X91335946Y-99559231D01*
X91317400Y-99652468D01*
X91012600Y-99652468D01*
X90994054Y-99559231D01*
X90957674Y-99471403D01*
X90904860Y-99392360D01*
X90837640Y-99325140D01*
X90758597Y-99272326D01*
X90670769Y-99235946D01*
X90577532Y-99217400D01*
X90482468Y-99217400D01*
X90389231Y-99235946D01*
X90301403Y-99272326D01*
X90222360Y-99325140D01*
X90155140Y-99392360D01*
X90102326Y-99471403D01*
X90065946Y-99559231D01*
X90047400Y-99652468D01*
X71164237Y-99652468D01*
X70250562Y-98988589D01*
X96241632Y-98988589D01*
X96241632Y-99083653D01*
X96260178Y-99176890D01*
X96296558Y-99264718D01*
X96349372Y-99343761D01*
X96416592Y-99410981D01*
X96495635Y-99463795D01*
X96583463Y-99500175D01*
X96676700Y-99518721D01*
X96771764Y-99518721D01*
X96865001Y-99500175D01*
X96952829Y-99463795D01*
X97031872Y-99410981D01*
X97099092Y-99343761D01*
X97151906Y-99264718D01*
X97188286Y-99176890D01*
X97206832Y-99083653D01*
X97206832Y-98988589D01*
X97188286Y-98895352D01*
X97151906Y-98807524D01*
X97127852Y-98771523D01*
X125216455Y-98771523D01*
X125216455Y-98866587D01*
X125235001Y-98959824D01*
X125271381Y-99047652D01*
X125324195Y-99126695D01*
X125391415Y-99193915D01*
X125470458Y-99246729D01*
X125558286Y-99283109D01*
X125651523Y-99301655D01*
X125746587Y-99301655D01*
X125839824Y-99283109D01*
X125927652Y-99246729D01*
X126006695Y-99193915D01*
X126073915Y-99126695D01*
X126126729Y-99047652D01*
X126163109Y-98959824D01*
X126181655Y-98866587D01*
X126181655Y-98771523D01*
X126163109Y-98678286D01*
X126126729Y-98590458D01*
X126073915Y-98511415D01*
X126006695Y-98444195D01*
X125927652Y-98391381D01*
X125839824Y-98355001D01*
X125746587Y-98336455D01*
X125651523Y-98336455D01*
X125558286Y-98355001D01*
X125470458Y-98391381D01*
X125391415Y-98444195D01*
X125324195Y-98511415D01*
X125271381Y-98590458D01*
X125235001Y-98678286D01*
X125216455Y-98771523D01*
X97127852Y-98771523D01*
X97099092Y-98728481D01*
X97031872Y-98661261D01*
X96952829Y-98608447D01*
X96865001Y-98572067D01*
X96771764Y-98553521D01*
X96676700Y-98553521D01*
X96583463Y-98572067D01*
X96495635Y-98608447D01*
X96416592Y-98661261D01*
X96349372Y-98728481D01*
X96296558Y-98807524D01*
X96260178Y-98895352D01*
X96241632Y-98988589D01*
X70250562Y-98988589D01*
X69624032Y-98533351D01*
X69670769Y-98524054D01*
X69758597Y-98487674D01*
X69837640Y-98434860D01*
X69890032Y-98382468D01*
X91317400Y-98382468D01*
X91317400Y-98477532D01*
X91335946Y-98570769D01*
X91372326Y-98658597D01*
X91425140Y-98737640D01*
X91492360Y-98804860D01*
X91571403Y-98857674D01*
X91659231Y-98894054D01*
X91752468Y-98912600D01*
X91847532Y-98912600D01*
X91940769Y-98894054D01*
X92028597Y-98857674D01*
X92107640Y-98804860D01*
X92174860Y-98737640D01*
X92227674Y-98658597D01*
X92264054Y-98570769D01*
X92282600Y-98477532D01*
X92282600Y-98382468D01*
X93857400Y-98382468D01*
X93857400Y-98477532D01*
X93875946Y-98570769D01*
X93912326Y-98658597D01*
X93965140Y-98737640D01*
X94032360Y-98804860D01*
X94111403Y-98857674D01*
X94199231Y-98894054D01*
X94292468Y-98912600D01*
X94387532Y-98912600D01*
X94480769Y-98894054D01*
X94568597Y-98857674D01*
X94647640Y-98804860D01*
X94714860Y-98737640D01*
X94767674Y-98658597D01*
X94804054Y-98570769D01*
X94822600Y-98477532D01*
X94822600Y-98382468D01*
X94804054Y-98289231D01*
X94767674Y-98201403D01*
X94714860Y-98122360D01*
X94647640Y-98055140D01*
X94568597Y-98002326D01*
X94480769Y-97965946D01*
X94413011Y-97952468D01*
X96467400Y-97952468D01*
X96467400Y-98047532D01*
X96485946Y-98140769D01*
X96522326Y-98228597D01*
X96575140Y-98307640D01*
X96642360Y-98374860D01*
X96721403Y-98427674D01*
X96809231Y-98464054D01*
X96902468Y-98482600D01*
X96997532Y-98482600D01*
X97090769Y-98464054D01*
X97178597Y-98427674D01*
X97257640Y-98374860D01*
X97324860Y-98307640D01*
X97377674Y-98228597D01*
X97414054Y-98140769D01*
X97432600Y-98047532D01*
X97432600Y-97952468D01*
X100017400Y-97952468D01*
X100017400Y-98047532D01*
X100035946Y-98140769D01*
X100072326Y-98228597D01*
X100125140Y-98307640D01*
X100192360Y-98374860D01*
X100271403Y-98427674D01*
X100359231Y-98464054D01*
X100452468Y-98482600D01*
X100547532Y-98482600D01*
X100640769Y-98464054D01*
X100728597Y-98427674D01*
X100807640Y-98374860D01*
X100874860Y-98307640D01*
X100927674Y-98228597D01*
X100964054Y-98140769D01*
X100982600Y-98047532D01*
X100982600Y-97952468D01*
X100964054Y-97859231D01*
X100927674Y-97771403D01*
X100874860Y-97692360D01*
X100807640Y-97625140D01*
X100728597Y-97572326D01*
X100640769Y-97535946D01*
X100547532Y-97517400D01*
X100452468Y-97517400D01*
X100359231Y-97535946D01*
X100271403Y-97572326D01*
X100192360Y-97625140D01*
X100125140Y-97692360D01*
X100072326Y-97771403D01*
X100035946Y-97859231D01*
X100017400Y-97952468D01*
X97432600Y-97952468D01*
X97414054Y-97859231D01*
X97377674Y-97771403D01*
X97324860Y-97692360D01*
X97257640Y-97625140D01*
X97178597Y-97572326D01*
X97090769Y-97535946D01*
X96997532Y-97517400D01*
X96902468Y-97517400D01*
X96809231Y-97535946D01*
X96721403Y-97572326D01*
X96642360Y-97625140D01*
X96575140Y-97692360D01*
X96522326Y-97771403D01*
X96485946Y-97859231D01*
X96467400Y-97952468D01*
X94413011Y-97952468D01*
X94387532Y-97947400D01*
X94292468Y-97947400D01*
X94199231Y-97965946D01*
X94111403Y-98002326D01*
X94032360Y-98055140D01*
X93965140Y-98122360D01*
X93912326Y-98201403D01*
X93875946Y-98289231D01*
X93857400Y-98382468D01*
X92282600Y-98382468D01*
X92264054Y-98289231D01*
X92227674Y-98201403D01*
X92174860Y-98122360D01*
X92107640Y-98055140D01*
X92028597Y-98002326D01*
X91940769Y-97965946D01*
X91847532Y-97947400D01*
X91752468Y-97947400D01*
X91659231Y-97965946D01*
X91571403Y-98002326D01*
X91492360Y-98055140D01*
X91425140Y-98122360D01*
X91372326Y-98201403D01*
X91335946Y-98289231D01*
X91317400Y-98382468D01*
X69890032Y-98382468D01*
X69904860Y-98367640D01*
X69957674Y-98288597D01*
X69994054Y-98200769D01*
X70012600Y-98107532D01*
X70012600Y-98012468D01*
X69994054Y-97919231D01*
X69957674Y-97831403D01*
X69904860Y-97752360D01*
X69837640Y-97685140D01*
X69758597Y-97632326D01*
X69670769Y-97595946D01*
X69577532Y-97577400D01*
X69482468Y-97577400D01*
X69389231Y-97595946D01*
X69301403Y-97632326D01*
X69222360Y-97685140D01*
X69155140Y-97752360D01*
X69102326Y-97831403D01*
X69065946Y-97919231D01*
X69047400Y-98012468D01*
X69047400Y-98107532D01*
X69048990Y-98115523D01*
X67668520Y-97112468D01*
X89412400Y-97112468D01*
X89412400Y-97207532D01*
X89430946Y-97300769D01*
X89467326Y-97388597D01*
X89520140Y-97467640D01*
X89587360Y-97534860D01*
X89666403Y-97587674D01*
X89754231Y-97624054D01*
X89847468Y-97642600D01*
X89942532Y-97642600D01*
X90035769Y-97624054D01*
X90123597Y-97587674D01*
X90202640Y-97534860D01*
X90269860Y-97467640D01*
X90322674Y-97388597D01*
X90359054Y-97300769D01*
X90377600Y-97207532D01*
X90377600Y-97112468D01*
X90359054Y-97019231D01*
X90322674Y-96931403D01*
X90269860Y-96852360D01*
X90202640Y-96785140D01*
X90123597Y-96732326D01*
X90035769Y-96695946D01*
X89942532Y-96677400D01*
X89847468Y-96677400D01*
X89754231Y-96695946D01*
X89666403Y-96732326D01*
X89587360Y-96785140D01*
X89520140Y-96852360D01*
X89467326Y-96931403D01*
X89430946Y-97019231D01*
X89412400Y-97112468D01*
X67668520Y-97112468D01*
X66794590Y-96477468D01*
X83697400Y-96477468D01*
X83697400Y-96572532D01*
X83715946Y-96665769D01*
X83752326Y-96753597D01*
X83805140Y-96832640D01*
X83872360Y-96899860D01*
X83951403Y-96952674D01*
X84039231Y-96989054D01*
X84132468Y-97007600D01*
X84227532Y-97007600D01*
X84320769Y-96989054D01*
X84408597Y-96952674D01*
X84487640Y-96899860D01*
X84554860Y-96832640D01*
X84607674Y-96753597D01*
X84644054Y-96665769D01*
X84662600Y-96572532D01*
X84662600Y-96477468D01*
X93222400Y-96477468D01*
X93222400Y-96572532D01*
X93240946Y-96665769D01*
X93277326Y-96753597D01*
X93330140Y-96832640D01*
X93397360Y-96899860D01*
X93476403Y-96952674D01*
X93564231Y-96989054D01*
X93657468Y-97007600D01*
X93752532Y-97007600D01*
X93845769Y-96989054D01*
X93933597Y-96952674D01*
X94012640Y-96899860D01*
X94060032Y-96852468D01*
X99117400Y-96852468D01*
X99117400Y-96947532D01*
X99135946Y-97040769D01*
X99172326Y-97128597D01*
X99225140Y-97207640D01*
X99292360Y-97274860D01*
X99371403Y-97327674D01*
X99459231Y-97364054D01*
X99552468Y-97382600D01*
X99647532Y-97382600D01*
X99740769Y-97364054D01*
X99828597Y-97327674D01*
X99907640Y-97274860D01*
X99974860Y-97207640D01*
X100027674Y-97128597D01*
X100064054Y-97040769D01*
X100082600Y-96947532D01*
X100082600Y-96852468D01*
X101517400Y-96852468D01*
X101517400Y-96947532D01*
X101535946Y-97040769D01*
X101572326Y-97128597D01*
X101625140Y-97207640D01*
X101692360Y-97274860D01*
X101771403Y-97327674D01*
X101859231Y-97364054D01*
X101952468Y-97382600D01*
X102047532Y-97382600D01*
X102140769Y-97364054D01*
X102228597Y-97327674D01*
X102307640Y-97274860D01*
X102374860Y-97207640D01*
X102384997Y-97192468D01*
X122657400Y-97192468D01*
X122657400Y-97287532D01*
X122675946Y-97380769D01*
X122712326Y-97468597D01*
X122765140Y-97547640D01*
X122832360Y-97614860D01*
X122911403Y-97667674D01*
X122999231Y-97704054D01*
X123092468Y-97722600D01*
X123187532Y-97722600D01*
X123280769Y-97704054D01*
X123368597Y-97667674D01*
X123447640Y-97614860D01*
X123514860Y-97547640D01*
X123567674Y-97468597D01*
X123604054Y-97380769D01*
X123622600Y-97287532D01*
X123622600Y-97192468D01*
X123604054Y-97099231D01*
X123567674Y-97011403D01*
X123514860Y-96932360D01*
X123447640Y-96865140D01*
X123368597Y-96812326D01*
X123280769Y-96775946D01*
X123187532Y-96757400D01*
X123092468Y-96757400D01*
X122999231Y-96775946D01*
X122911403Y-96812326D01*
X122832360Y-96865140D01*
X122765140Y-96932360D01*
X122712326Y-97011403D01*
X122675946Y-97099231D01*
X122657400Y-97192468D01*
X102384997Y-97192468D01*
X102427674Y-97128597D01*
X102464054Y-97040769D01*
X102482600Y-96947532D01*
X102482600Y-96852468D01*
X102464054Y-96759231D01*
X102427674Y-96671403D01*
X102374860Y-96592360D01*
X102307640Y-96525140D01*
X102228597Y-96472326D01*
X102140769Y-96435946D01*
X102047532Y-96417400D01*
X101952468Y-96417400D01*
X101859231Y-96435946D01*
X101771403Y-96472326D01*
X101692360Y-96525140D01*
X101625140Y-96592360D01*
X101572326Y-96671403D01*
X101535946Y-96759231D01*
X101517400Y-96852468D01*
X100082600Y-96852468D01*
X100064054Y-96759231D01*
X100027674Y-96671403D01*
X99974860Y-96592360D01*
X99907640Y-96525140D01*
X99828597Y-96472326D01*
X99740769Y-96435946D01*
X99647532Y-96417400D01*
X99552468Y-96417400D01*
X99459231Y-96435946D01*
X99371403Y-96472326D01*
X99292360Y-96525140D01*
X99225140Y-96592360D01*
X99172326Y-96671403D01*
X99135946Y-96759231D01*
X99117400Y-96852468D01*
X94060032Y-96852468D01*
X94079860Y-96832640D01*
X94132674Y-96753597D01*
X94169054Y-96665769D01*
X94187600Y-96572532D01*
X94187600Y-96477468D01*
X94169054Y-96384231D01*
X94132674Y-96296403D01*
X94079860Y-96217360D01*
X94012640Y-96150140D01*
X93933597Y-96097326D01*
X93845769Y-96060946D01*
X93752532Y-96042400D01*
X93657468Y-96042400D01*
X93564231Y-96060946D01*
X93476403Y-96097326D01*
X93397360Y-96150140D01*
X93330140Y-96217360D01*
X93277326Y-96296403D01*
X93240946Y-96384231D01*
X93222400Y-96477468D01*
X84662600Y-96477468D01*
X84644054Y-96384231D01*
X84607674Y-96296403D01*
X84554860Y-96217360D01*
X84487640Y-96150140D01*
X84408597Y-96097326D01*
X84320769Y-96060946D01*
X84227532Y-96042400D01*
X84132468Y-96042400D01*
X84039231Y-96060946D01*
X83951403Y-96097326D01*
X83872360Y-96150140D01*
X83805140Y-96217360D01*
X83752326Y-96296403D01*
X83715946Y-96384231D01*
X83697400Y-96477468D01*
X66794590Y-96477468D01*
X65046731Y-95207468D01*
X83697400Y-95207468D01*
X83697400Y-95302532D01*
X83715946Y-95395769D01*
X83752326Y-95483597D01*
X83805140Y-95562640D01*
X83872360Y-95629860D01*
X83951403Y-95682674D01*
X84039231Y-95719054D01*
X84132468Y-95737600D01*
X84227532Y-95737600D01*
X84320769Y-95719054D01*
X84408597Y-95682674D01*
X84487640Y-95629860D01*
X84554860Y-95562640D01*
X84607674Y-95483597D01*
X84644054Y-95395769D01*
X84662600Y-95302532D01*
X84662600Y-95207468D01*
X84967400Y-95207468D01*
X84967400Y-95302532D01*
X84985946Y-95395769D01*
X85022326Y-95483597D01*
X85075140Y-95562640D01*
X85142360Y-95629860D01*
X85221403Y-95682674D01*
X85309231Y-95719054D01*
X85402468Y-95737600D01*
X85497532Y-95737600D01*
X85590769Y-95719054D01*
X85678597Y-95682674D01*
X85757640Y-95629860D01*
X85824860Y-95562640D01*
X85877674Y-95483597D01*
X85914054Y-95395769D01*
X85932600Y-95302532D01*
X85932600Y-95207468D01*
X86237400Y-95207468D01*
X86237400Y-95302532D01*
X86255946Y-95395769D01*
X86292326Y-95483597D01*
X86345140Y-95562640D01*
X86412360Y-95629860D01*
X86491403Y-95682674D01*
X86579231Y-95719054D01*
X86672468Y-95737600D01*
X86767532Y-95737600D01*
X86860769Y-95719054D01*
X86948597Y-95682674D01*
X87027640Y-95629860D01*
X87094860Y-95562640D01*
X87147674Y-95483597D01*
X87184054Y-95395769D01*
X87202600Y-95302532D01*
X87202600Y-95207468D01*
X91317400Y-95207468D01*
X91317400Y-95302532D01*
X91335946Y-95395769D01*
X91372326Y-95483597D01*
X91425140Y-95562640D01*
X91492360Y-95629860D01*
X91571403Y-95682674D01*
X91659231Y-95719054D01*
X91752468Y-95737600D01*
X91847532Y-95737600D01*
X91940769Y-95719054D01*
X92028597Y-95682674D01*
X92107640Y-95629860D01*
X92174860Y-95562640D01*
X92227674Y-95483597D01*
X92264054Y-95395769D01*
X92282600Y-95302532D01*
X92282600Y-95207468D01*
X93222400Y-95207468D01*
X93222400Y-95302532D01*
X93240946Y-95395769D01*
X93277326Y-95483597D01*
X93330140Y-95562640D01*
X93397360Y-95629860D01*
X93476403Y-95682674D01*
X93564231Y-95719054D01*
X93657468Y-95737600D01*
X93752532Y-95737600D01*
X93845769Y-95719054D01*
X93933597Y-95682674D01*
X94012640Y-95629860D01*
X94079860Y-95562640D01*
X94132674Y-95483597D01*
X94169054Y-95395769D01*
X94187600Y-95302532D01*
X94187600Y-95302468D01*
X94767400Y-95302468D01*
X94767400Y-95397532D01*
X94785946Y-95490769D01*
X94822326Y-95578597D01*
X94875140Y-95657640D01*
X94942360Y-95724860D01*
X95021403Y-95777674D01*
X95109231Y-95814054D01*
X95202468Y-95832600D01*
X95297532Y-95832600D01*
X95390769Y-95814054D01*
X95478597Y-95777674D01*
X95557640Y-95724860D01*
X95624860Y-95657640D01*
X95628315Y-95652468D01*
X95817400Y-95652468D01*
X95817400Y-95747532D01*
X95835946Y-95840769D01*
X95872326Y-95928597D01*
X95925140Y-96007640D01*
X95992360Y-96074860D01*
X96071403Y-96127674D01*
X96159231Y-96164054D01*
X96252468Y-96182600D01*
X96347532Y-96182600D01*
X96440769Y-96164054D01*
X96528597Y-96127674D01*
X96607640Y-96074860D01*
X96674860Y-96007640D01*
X96727674Y-95928597D01*
X96764054Y-95840769D01*
X96782600Y-95747532D01*
X96782600Y-95702468D01*
X103017400Y-95702468D01*
X103017400Y-95797532D01*
X103035946Y-95890769D01*
X103072326Y-95978597D01*
X103125140Y-96057640D01*
X103192360Y-96124860D01*
X103271403Y-96177674D01*
X103359231Y-96214054D01*
X103452468Y-96232600D01*
X103547532Y-96232600D01*
X103640769Y-96214054D01*
X103728597Y-96177674D01*
X103807640Y-96124860D01*
X103874860Y-96057640D01*
X103927674Y-95978597D01*
X103929163Y-95975000D01*
X109406385Y-95975000D01*
X109424805Y-96162017D01*
X109479355Y-96341846D01*
X109567941Y-96507578D01*
X109687157Y-96652843D01*
X109832422Y-96772059D01*
X109998154Y-96860645D01*
X110177983Y-96915195D01*
X110318144Y-96929000D01*
X110961856Y-96929000D01*
X111102017Y-96915195D01*
X111281846Y-96860645D01*
X111447578Y-96772059D01*
X111592843Y-96652843D01*
X111617771Y-96622468D01*
X128527400Y-96622468D01*
X128527400Y-96717532D01*
X128545946Y-96810769D01*
X128582326Y-96898597D01*
X128635140Y-96977640D01*
X128702360Y-97044860D01*
X128781403Y-97097674D01*
X128869231Y-97134054D01*
X128962468Y-97152600D01*
X129057532Y-97152600D01*
X129150769Y-97134054D01*
X129238597Y-97097674D01*
X129317640Y-97044860D01*
X129384860Y-96977640D01*
X129437674Y-96898597D01*
X129474054Y-96810769D01*
X129492600Y-96717532D01*
X129492600Y-96622468D01*
X129474054Y-96529231D01*
X129437674Y-96441403D01*
X129384860Y-96362360D01*
X129317640Y-96295140D01*
X129238597Y-96242326D01*
X129150769Y-96205946D01*
X129057532Y-96187400D01*
X128962468Y-96187400D01*
X128869231Y-96205946D01*
X128781403Y-96242326D01*
X128702360Y-96295140D01*
X128635140Y-96362360D01*
X128582326Y-96441403D01*
X128545946Y-96529231D01*
X128527400Y-96622468D01*
X111617771Y-96622468D01*
X111712059Y-96507578D01*
X111800645Y-96341846D01*
X111855195Y-96162017D01*
X111873615Y-95975000D01*
X111855195Y-95787983D01*
X111800645Y-95608154D01*
X111712059Y-95442422D01*
X111592843Y-95297157D01*
X111447578Y-95177941D01*
X111281846Y-95089355D01*
X111102017Y-95034805D01*
X110961856Y-95021000D01*
X110318144Y-95021000D01*
X110177983Y-95034805D01*
X109998154Y-95089355D01*
X109832422Y-95177941D01*
X109687157Y-95297157D01*
X109567941Y-95442422D01*
X109479355Y-95608154D01*
X109424805Y-95787983D01*
X109406385Y-95975000D01*
X103929163Y-95975000D01*
X103964054Y-95890769D01*
X103982600Y-95797532D01*
X103982600Y-95702468D01*
X103964054Y-95609231D01*
X103927674Y-95521403D01*
X103874860Y-95442360D01*
X103807640Y-95375140D01*
X103728597Y-95322326D01*
X103640769Y-95285946D01*
X103547532Y-95267400D01*
X103452468Y-95267400D01*
X103359231Y-95285946D01*
X103271403Y-95322326D01*
X103192360Y-95375140D01*
X103125140Y-95442360D01*
X103072326Y-95521403D01*
X103035946Y-95609231D01*
X103017400Y-95702468D01*
X96782600Y-95702468D01*
X96782600Y-95652468D01*
X96764054Y-95559231D01*
X96727674Y-95471403D01*
X96674860Y-95392360D01*
X96607640Y-95325140D01*
X96528597Y-95272326D01*
X96440769Y-95235946D01*
X96347532Y-95217400D01*
X96252468Y-95217400D01*
X96159231Y-95235946D01*
X96071403Y-95272326D01*
X95992360Y-95325140D01*
X95925140Y-95392360D01*
X95872326Y-95471403D01*
X95835946Y-95559231D01*
X95817400Y-95652468D01*
X95628315Y-95652468D01*
X95677674Y-95578597D01*
X95714054Y-95490769D01*
X95732600Y-95397532D01*
X95732600Y-95302468D01*
X95714054Y-95209231D01*
X95677674Y-95121403D01*
X95624860Y-95042360D01*
X95557640Y-94975140D01*
X95478597Y-94922326D01*
X95390769Y-94885946D01*
X95297532Y-94867400D01*
X95202468Y-94867400D01*
X95109231Y-94885946D01*
X95021403Y-94922326D01*
X94942360Y-94975140D01*
X94875140Y-95042360D01*
X94822326Y-95121403D01*
X94785946Y-95209231D01*
X94767400Y-95302468D01*
X94187600Y-95302468D01*
X94187600Y-95207468D01*
X94169054Y-95114231D01*
X94132674Y-95026403D01*
X94079860Y-94947360D01*
X94012640Y-94880140D01*
X93933597Y-94827326D01*
X93845769Y-94790946D01*
X93752532Y-94772400D01*
X93657468Y-94772400D01*
X93564231Y-94790946D01*
X93476403Y-94827326D01*
X93397360Y-94880140D01*
X93330140Y-94947360D01*
X93277326Y-95026403D01*
X93240946Y-95114231D01*
X93222400Y-95207468D01*
X92282600Y-95207468D01*
X92264054Y-95114231D01*
X92227674Y-95026403D01*
X92174860Y-94947360D01*
X92107640Y-94880140D01*
X92028597Y-94827326D01*
X91940769Y-94790946D01*
X91847532Y-94772400D01*
X91752468Y-94772400D01*
X91659231Y-94790946D01*
X91571403Y-94827326D01*
X91492360Y-94880140D01*
X91425140Y-94947360D01*
X91372326Y-95026403D01*
X91335946Y-95114231D01*
X91317400Y-95207468D01*
X87202600Y-95207468D01*
X87184054Y-95114231D01*
X87147674Y-95026403D01*
X87094860Y-94947360D01*
X87027640Y-94880140D01*
X86948597Y-94827326D01*
X86860769Y-94790946D01*
X86767532Y-94772400D01*
X86672468Y-94772400D01*
X86579231Y-94790946D01*
X86491403Y-94827326D01*
X86412360Y-94880140D01*
X86345140Y-94947360D01*
X86292326Y-95026403D01*
X86255946Y-95114231D01*
X86237400Y-95207468D01*
X85932600Y-95207468D01*
X85914054Y-95114231D01*
X85877674Y-95026403D01*
X85824860Y-94947360D01*
X85757640Y-94880140D01*
X85678597Y-94827326D01*
X85590769Y-94790946D01*
X85497532Y-94772400D01*
X85402468Y-94772400D01*
X85309231Y-94790946D01*
X85221403Y-94827326D01*
X85142360Y-94880140D01*
X85075140Y-94947360D01*
X85022326Y-95026403D01*
X84985946Y-95114231D01*
X84967400Y-95207468D01*
X84662600Y-95207468D01*
X84644054Y-95114231D01*
X84607674Y-95026403D01*
X84554860Y-94947360D01*
X84487640Y-94880140D01*
X84408597Y-94827326D01*
X84320769Y-94790946D01*
X84227532Y-94772400D01*
X84132468Y-94772400D01*
X84039231Y-94790946D01*
X83951403Y-94827326D01*
X83872360Y-94880140D01*
X83805140Y-94947360D01*
X83752326Y-95026403D01*
X83715946Y-95114231D01*
X83697400Y-95207468D01*
X65046731Y-95207468D01*
X63527076Y-94103282D01*
X81616586Y-94103282D01*
X81616586Y-94198346D01*
X81635132Y-94291583D01*
X81671512Y-94379411D01*
X81724326Y-94458454D01*
X81791546Y-94525674D01*
X81870589Y-94578488D01*
X81958417Y-94614868D01*
X82051654Y-94633414D01*
X82146718Y-94633414D01*
X82239955Y-94614868D01*
X82327783Y-94578488D01*
X82406826Y-94525674D01*
X82474046Y-94458454D01*
X82526860Y-94379411D01*
X82563240Y-94291583D01*
X82581786Y-94198346D01*
X82581786Y-94111654D01*
X117418214Y-94111654D01*
X117418214Y-94206718D01*
X117436760Y-94299955D01*
X117473140Y-94387783D01*
X117525954Y-94466826D01*
X117593174Y-94534046D01*
X117672217Y-94586860D01*
X117760045Y-94623240D01*
X117853282Y-94641786D01*
X117948346Y-94641786D01*
X118041583Y-94623240D01*
X118129411Y-94586860D01*
X118208454Y-94534046D01*
X118275674Y-94466826D01*
X118328488Y-94387783D01*
X118364868Y-94299955D01*
X118383414Y-94206718D01*
X118383414Y-94111654D01*
X118364868Y-94018417D01*
X118328488Y-93930589D01*
X118275674Y-93851546D01*
X118208454Y-93784326D01*
X118129411Y-93731512D01*
X118041583Y-93695132D01*
X117948346Y-93676586D01*
X117853282Y-93676586D01*
X117760045Y-93695132D01*
X117672217Y-93731512D01*
X117593174Y-93784326D01*
X117525954Y-93851546D01*
X117473140Y-93930589D01*
X117436760Y-94018417D01*
X117418214Y-94111654D01*
X82581786Y-94111654D01*
X82581786Y-94103282D01*
X82563240Y-94010045D01*
X82526860Y-93922217D01*
X82474046Y-93843174D01*
X82406826Y-93775954D01*
X82327783Y-93723140D01*
X82239955Y-93686760D01*
X82146718Y-93668214D01*
X82051654Y-93668214D01*
X81958417Y-93686760D01*
X81870589Y-93723140D01*
X81791546Y-93775954D01*
X81724326Y-93843174D01*
X81671512Y-93922217D01*
X81635132Y-94010045D01*
X81616586Y-94103282D01*
X63527076Y-94103282D01*
X62700195Y-93502468D01*
X77217400Y-93502468D01*
X77217400Y-93597532D01*
X77235946Y-93690769D01*
X77272326Y-93778597D01*
X77325140Y-93857640D01*
X77392360Y-93924860D01*
X77471403Y-93977674D01*
X77559231Y-94014054D01*
X77652468Y-94032600D01*
X77747532Y-94032600D01*
X77840769Y-94014054D01*
X77928597Y-93977674D01*
X78007640Y-93924860D01*
X78074860Y-93857640D01*
X78127674Y-93778597D01*
X78164054Y-93690769D01*
X78182600Y-93597532D01*
X78182600Y-93572468D01*
X134207400Y-93572468D01*
X134207400Y-93667532D01*
X134225946Y-93760769D01*
X134262326Y-93848597D01*
X134315140Y-93927640D01*
X134382360Y-93994860D01*
X134461403Y-94047674D01*
X134549231Y-94084054D01*
X134642468Y-94102600D01*
X134737532Y-94102600D01*
X134830769Y-94084054D01*
X134918597Y-94047674D01*
X134997640Y-93994860D01*
X135064860Y-93927640D01*
X135117674Y-93848597D01*
X135154054Y-93760769D01*
X135172600Y-93667532D01*
X135172600Y-93572468D01*
X135154054Y-93479231D01*
X135117674Y-93391403D01*
X135064860Y-93312360D01*
X134997640Y-93245140D01*
X134918597Y-93192326D01*
X134830769Y-93155946D01*
X134737532Y-93137400D01*
X134642468Y-93137400D01*
X134549231Y-93155946D01*
X134461403Y-93192326D01*
X134382360Y-93245140D01*
X134315140Y-93312360D01*
X134262326Y-93391403D01*
X134225946Y-93479231D01*
X134207400Y-93572468D01*
X78182600Y-93572468D01*
X78182600Y-93502468D01*
X78164054Y-93409231D01*
X78127674Y-93321403D01*
X78074860Y-93242360D01*
X78007640Y-93175140D01*
X77928597Y-93122326D01*
X77840769Y-93085946D01*
X77747532Y-93067400D01*
X77652468Y-93067400D01*
X77559231Y-93085946D01*
X77471403Y-93122326D01*
X77392360Y-93175140D01*
X77325140Y-93242360D01*
X77272326Y-93321403D01*
X77235946Y-93409231D01*
X77217400Y-93502468D01*
X62700195Y-93502468D01*
X59424680Y-91122468D01*
X130047400Y-91122468D01*
X130047400Y-91217532D01*
X130065946Y-91310769D01*
X130102326Y-91398597D01*
X130155140Y-91477640D01*
X130222360Y-91544860D01*
X130301403Y-91597674D01*
X130389231Y-91634054D01*
X130482468Y-91652600D01*
X130577532Y-91652600D01*
X130670769Y-91634054D01*
X130758597Y-91597674D01*
X130837640Y-91544860D01*
X130904860Y-91477640D01*
X130957674Y-91398597D01*
X130994054Y-91310769D01*
X131012600Y-91217532D01*
X131012600Y-91122468D01*
X130994054Y-91029231D01*
X130957674Y-90941403D01*
X130904860Y-90862360D01*
X130837640Y-90795140D01*
X130758597Y-90742326D01*
X130670769Y-90705946D01*
X130577532Y-90687400D01*
X130482468Y-90687400D01*
X130389231Y-90705946D01*
X130301403Y-90742326D01*
X130222360Y-90795140D01*
X130155140Y-90862360D01*
X130102326Y-90941403D01*
X130065946Y-91029231D01*
X130047400Y-91122468D01*
X59424680Y-91122468D01*
X58199802Y-90232468D01*
X69707400Y-90232468D01*
X69707400Y-90327532D01*
X69725946Y-90420769D01*
X69762326Y-90508597D01*
X69815140Y-90587640D01*
X69882360Y-90654860D01*
X69961403Y-90707674D01*
X70049231Y-90744054D01*
X70142468Y-90762600D01*
X70237532Y-90762600D01*
X70330769Y-90744054D01*
X70418597Y-90707674D01*
X70497640Y-90654860D01*
X70564860Y-90587640D01*
X70617674Y-90508597D01*
X70654054Y-90420769D01*
X70672600Y-90327532D01*
X70672600Y-90232468D01*
X70654054Y-90139231D01*
X70617674Y-90051403D01*
X70564860Y-89972360D01*
X70497640Y-89905140D01*
X70418597Y-89852326D01*
X70330769Y-89815946D01*
X70237532Y-89797400D01*
X70142468Y-89797400D01*
X70049231Y-89815946D01*
X69961403Y-89852326D01*
X69882360Y-89905140D01*
X69815140Y-89972360D01*
X69762326Y-90051403D01*
X69725946Y-90139231D01*
X69707400Y-90232468D01*
X58199802Y-90232468D01*
X56262751Y-88825000D01*
X109406385Y-88825000D01*
X109424805Y-89012017D01*
X109479355Y-89191846D01*
X109567941Y-89357578D01*
X109687157Y-89502843D01*
X109832422Y-89622059D01*
X109998154Y-89710645D01*
X110177983Y-89765195D01*
X110318144Y-89779000D01*
X110961856Y-89779000D01*
X111102017Y-89765195D01*
X111281846Y-89710645D01*
X111447578Y-89622059D01*
X111592843Y-89502843D01*
X111712059Y-89357578D01*
X111800645Y-89191846D01*
X111806523Y-89172468D01*
X129437400Y-89172468D01*
X129437400Y-89267532D01*
X129455946Y-89360769D01*
X129492326Y-89448597D01*
X129545140Y-89527640D01*
X129612360Y-89594860D01*
X129691403Y-89647674D01*
X129779231Y-89684054D01*
X129872468Y-89702600D01*
X129967532Y-89702600D01*
X130060769Y-89684054D01*
X130148597Y-89647674D01*
X130227640Y-89594860D01*
X130294860Y-89527640D01*
X130347674Y-89448597D01*
X130384054Y-89360769D01*
X130402600Y-89267532D01*
X130402600Y-89172468D01*
X130384054Y-89079231D01*
X130347674Y-88991403D01*
X130294860Y-88912360D01*
X130227640Y-88845140D01*
X130148597Y-88792326D01*
X130060769Y-88755946D01*
X129967532Y-88737400D01*
X129872468Y-88737400D01*
X129779231Y-88755946D01*
X129691403Y-88792326D01*
X129612360Y-88845140D01*
X129545140Y-88912360D01*
X129492326Y-88991403D01*
X129455946Y-89079231D01*
X129437400Y-89172468D01*
X111806523Y-89172468D01*
X111855195Y-89012017D01*
X111873615Y-88825000D01*
X111855195Y-88637983D01*
X111800645Y-88458154D01*
X111712059Y-88292422D01*
X111592843Y-88147157D01*
X111447578Y-88027941D01*
X111281846Y-87939355D01*
X111102017Y-87884805D01*
X110961856Y-87871000D01*
X110318144Y-87871000D01*
X110177983Y-87884805D01*
X109998154Y-87939355D01*
X109832422Y-88027941D01*
X109687157Y-88147157D01*
X109567941Y-88292422D01*
X109479355Y-88458154D01*
X109424805Y-88637983D01*
X109406385Y-88825000D01*
X56262751Y-88825000D01*
X53974663Y-87162468D01*
X84017400Y-87162468D01*
X84017400Y-87257532D01*
X84035946Y-87350769D01*
X84072326Y-87438597D01*
X84125140Y-87517640D01*
X84192360Y-87584860D01*
X84271403Y-87637674D01*
X84359231Y-87674054D01*
X84452468Y-87692600D01*
X84547532Y-87692600D01*
X84640769Y-87674054D01*
X84728597Y-87637674D01*
X84807640Y-87584860D01*
X84818274Y-87574226D01*
X85699158Y-87574226D01*
X85699158Y-87669290D01*
X85717704Y-87762527D01*
X85754084Y-87850355D01*
X85806898Y-87929398D01*
X85874118Y-87996618D01*
X85953161Y-88049432D01*
X86040989Y-88085812D01*
X86134226Y-88104358D01*
X86229290Y-88104358D01*
X86322527Y-88085812D01*
X86410355Y-88049432D01*
X86489398Y-87996618D01*
X86556618Y-87929398D01*
X86609432Y-87850355D01*
X86645812Y-87762527D01*
X86664358Y-87669290D01*
X86664358Y-87652468D01*
X87317400Y-87652468D01*
X87317400Y-87747532D01*
X87335946Y-87840769D01*
X87372326Y-87928597D01*
X87425140Y-88007640D01*
X87492360Y-88074860D01*
X87571403Y-88127674D01*
X87659231Y-88164054D01*
X87752468Y-88182600D01*
X87847532Y-88182600D01*
X87940769Y-88164054D01*
X88028597Y-88127674D01*
X88107640Y-88074860D01*
X88174860Y-88007640D01*
X88227674Y-87928597D01*
X88264054Y-87840769D01*
X88282600Y-87747532D01*
X88282600Y-87652468D01*
X88280786Y-87643345D01*
X113256523Y-87643345D01*
X113256523Y-87738409D01*
X113275069Y-87831646D01*
X113311449Y-87919474D01*
X113364263Y-87998517D01*
X113431483Y-88065737D01*
X113510526Y-88118551D01*
X113598354Y-88154931D01*
X113691591Y-88173477D01*
X113786655Y-88173477D01*
X113879892Y-88154931D01*
X113967720Y-88118551D01*
X114046763Y-88065737D01*
X114113983Y-87998517D01*
X114166797Y-87919474D01*
X114203177Y-87831646D01*
X114221723Y-87738409D01*
X114221723Y-87643345D01*
X114203177Y-87550108D01*
X114166797Y-87462280D01*
X114113983Y-87383237D01*
X114046763Y-87316017D01*
X113967720Y-87263203D01*
X113879892Y-87226823D01*
X113786655Y-87208277D01*
X113691591Y-87208277D01*
X113598354Y-87226823D01*
X113510526Y-87263203D01*
X113431483Y-87316017D01*
X113364263Y-87383237D01*
X113311449Y-87462280D01*
X113275069Y-87550108D01*
X113256523Y-87643345D01*
X88280786Y-87643345D01*
X88264054Y-87559231D01*
X88227674Y-87471403D01*
X88174860Y-87392360D01*
X88107640Y-87325140D01*
X88028597Y-87272326D01*
X87940769Y-87235946D01*
X87847532Y-87217400D01*
X87752468Y-87217400D01*
X87659231Y-87235946D01*
X87571403Y-87272326D01*
X87492360Y-87325140D01*
X87425140Y-87392360D01*
X87372326Y-87471403D01*
X87335946Y-87559231D01*
X87317400Y-87652468D01*
X86664358Y-87652468D01*
X86664358Y-87574226D01*
X86645812Y-87480989D01*
X86609432Y-87393161D01*
X86556618Y-87314118D01*
X86489398Y-87246898D01*
X86410355Y-87194084D01*
X86322527Y-87157704D01*
X86229290Y-87139158D01*
X86134226Y-87139158D01*
X86040989Y-87157704D01*
X85953161Y-87194084D01*
X85874118Y-87246898D01*
X85806898Y-87314118D01*
X85754084Y-87393161D01*
X85717704Y-87480989D01*
X85699158Y-87574226D01*
X84818274Y-87574226D01*
X84874860Y-87517640D01*
X84927674Y-87438597D01*
X84964054Y-87350769D01*
X84982600Y-87257532D01*
X84982600Y-87162468D01*
X84964054Y-87069231D01*
X84927674Y-86981403D01*
X84874860Y-86902360D01*
X84807640Y-86835140D01*
X84728597Y-86782326D01*
X84640769Y-86745946D01*
X84547532Y-86727400D01*
X84452468Y-86727400D01*
X84359231Y-86745946D01*
X84271403Y-86782326D01*
X84192360Y-86835140D01*
X84125140Y-86902360D01*
X84072326Y-86981403D01*
X84035946Y-87069231D01*
X84017400Y-87162468D01*
X53974663Y-87162468D01*
X52763547Y-86282468D01*
X54427400Y-86282468D01*
X54427400Y-86377532D01*
X54445946Y-86470769D01*
X54482326Y-86558597D01*
X54535140Y-86637640D01*
X54602360Y-86704860D01*
X54681403Y-86757674D01*
X54769231Y-86794054D01*
X54862468Y-86812600D01*
X54957532Y-86812600D01*
X55050769Y-86794054D01*
X55138597Y-86757674D01*
X55217640Y-86704860D01*
X55284860Y-86637640D01*
X55337674Y-86558597D01*
X55374054Y-86470769D01*
X55392600Y-86377532D01*
X55392600Y-86282468D01*
X55374054Y-86189231D01*
X55337674Y-86101403D01*
X55284860Y-86022360D01*
X55217640Y-85955140D01*
X55138597Y-85902326D01*
X55050769Y-85865946D01*
X54957532Y-85847400D01*
X54862468Y-85847400D01*
X54769231Y-85865946D01*
X54681403Y-85902326D01*
X54602360Y-85955140D01*
X54535140Y-86022360D01*
X54482326Y-86101403D01*
X54445946Y-86189231D01*
X54427400Y-86282468D01*
X52763547Y-86282468D01*
X51772636Y-85562468D01*
X81207400Y-85562468D01*
X81207400Y-85657532D01*
X81225946Y-85750769D01*
X81262326Y-85838597D01*
X81315140Y-85917640D01*
X81382360Y-85984860D01*
X81461403Y-86037674D01*
X81549231Y-86074054D01*
X81642468Y-86092600D01*
X81737532Y-86092600D01*
X81830769Y-86074054D01*
X81918597Y-86037674D01*
X81997640Y-85984860D01*
X82058072Y-85924428D01*
X85538644Y-85924428D01*
X85538644Y-86019492D01*
X85557190Y-86112729D01*
X85593570Y-86200557D01*
X85646384Y-86279600D01*
X85713604Y-86346820D01*
X85792647Y-86399634D01*
X85880475Y-86436014D01*
X85973712Y-86454560D01*
X86068776Y-86454560D01*
X86162013Y-86436014D01*
X86249841Y-86399634D01*
X86328884Y-86346820D01*
X86393236Y-86282468D01*
X144747400Y-86282468D01*
X144747400Y-86377532D01*
X144765946Y-86470769D01*
X144802326Y-86558597D01*
X144855140Y-86637640D01*
X144922360Y-86704860D01*
X145001403Y-86757674D01*
X145089231Y-86794054D01*
X145182468Y-86812600D01*
X145277532Y-86812600D01*
X145370769Y-86794054D01*
X145458597Y-86757674D01*
X145537640Y-86704860D01*
X145604860Y-86637640D01*
X145657674Y-86558597D01*
X145694054Y-86470769D01*
X145712600Y-86377532D01*
X145712600Y-86282468D01*
X145694054Y-86189231D01*
X145657674Y-86101403D01*
X145604860Y-86022360D01*
X145537640Y-85955140D01*
X145458597Y-85902326D01*
X145370769Y-85865946D01*
X145277532Y-85847400D01*
X145182468Y-85847400D01*
X145089231Y-85865946D01*
X145001403Y-85902326D01*
X144922360Y-85955140D01*
X144855140Y-86022360D01*
X144802326Y-86101403D01*
X144765946Y-86189231D01*
X144747400Y-86282468D01*
X86393236Y-86282468D01*
X86396104Y-86279600D01*
X86448918Y-86200557D01*
X86485298Y-86112729D01*
X86503844Y-86019492D01*
X86503844Y-85924428D01*
X86485298Y-85831191D01*
X86448918Y-85743363D01*
X86396104Y-85664320D01*
X86328884Y-85597100D01*
X86249841Y-85544286D01*
X86162013Y-85507906D01*
X86068776Y-85489360D01*
X85973712Y-85489360D01*
X85880475Y-85507906D01*
X85792647Y-85544286D01*
X85713604Y-85597100D01*
X85646384Y-85664320D01*
X85593570Y-85743363D01*
X85557190Y-85831191D01*
X85538644Y-85924428D01*
X82058072Y-85924428D01*
X82064860Y-85917640D01*
X82117674Y-85838597D01*
X82154054Y-85750769D01*
X82172600Y-85657532D01*
X82172600Y-85562468D01*
X82154054Y-85469231D01*
X82117674Y-85381403D01*
X82064860Y-85302360D01*
X81997640Y-85235140D01*
X81918810Y-85182468D01*
X120617400Y-85182468D01*
X120617400Y-85277532D01*
X120635946Y-85370769D01*
X120672326Y-85458597D01*
X120725140Y-85537640D01*
X120792360Y-85604860D01*
X120871403Y-85657674D01*
X120959231Y-85694054D01*
X121052468Y-85712600D01*
X121147532Y-85712600D01*
X121240769Y-85694054D01*
X121328597Y-85657674D01*
X121407640Y-85604860D01*
X121474860Y-85537640D01*
X121527674Y-85458597D01*
X121564054Y-85370769D01*
X121582600Y-85277532D01*
X121582600Y-85182468D01*
X121564054Y-85089231D01*
X121527674Y-85001403D01*
X121474860Y-84922360D01*
X121407640Y-84855140D01*
X121328597Y-84802326D01*
X121240769Y-84765946D01*
X121147532Y-84747400D01*
X121052468Y-84747400D01*
X120959231Y-84765946D01*
X120871403Y-84802326D01*
X120792360Y-84855140D01*
X120725140Y-84922360D01*
X120672326Y-85001403D01*
X120635946Y-85089231D01*
X120617400Y-85182468D01*
X81918810Y-85182468D01*
X81918597Y-85182326D01*
X81830769Y-85145946D01*
X81737532Y-85127400D01*
X81642468Y-85127400D01*
X81549231Y-85145946D01*
X81461403Y-85182326D01*
X81382360Y-85235140D01*
X81315140Y-85302360D01*
X81262326Y-85381403D01*
X81225946Y-85469231D01*
X81207400Y-85562468D01*
X51772636Y-85562468D01*
X50712910Y-84792468D01*
X74517400Y-84792468D01*
X74517400Y-84887532D01*
X74535946Y-84980769D01*
X74572326Y-85068597D01*
X74625140Y-85147640D01*
X74692360Y-85214860D01*
X74771403Y-85267674D01*
X74859231Y-85304054D01*
X74952468Y-85322600D01*
X75047532Y-85322600D01*
X75140769Y-85304054D01*
X75228597Y-85267674D01*
X75307640Y-85214860D01*
X75374860Y-85147640D01*
X75427674Y-85068597D01*
X75464054Y-84980769D01*
X75482600Y-84887532D01*
X75482600Y-84792468D01*
X75464054Y-84699231D01*
X75427674Y-84611403D01*
X75374860Y-84532360D01*
X75307640Y-84465140D01*
X75303642Y-84462468D01*
X107367400Y-84462468D01*
X107367400Y-84557532D01*
X107385946Y-84650769D01*
X107422326Y-84738597D01*
X107475140Y-84817640D01*
X107542360Y-84884860D01*
X107621403Y-84937674D01*
X107709231Y-84974054D01*
X107802468Y-84992600D01*
X107897532Y-84992600D01*
X107990769Y-84974054D01*
X108078597Y-84937674D01*
X108157640Y-84884860D01*
X108224860Y-84817640D01*
X108277674Y-84738597D01*
X108314054Y-84650769D01*
X108332600Y-84557532D01*
X108332600Y-84462468D01*
X108314054Y-84369231D01*
X108277674Y-84281403D01*
X108224860Y-84202360D01*
X108157640Y-84135140D01*
X108078597Y-84082326D01*
X107990769Y-84045946D01*
X107897532Y-84027400D01*
X107802468Y-84027400D01*
X107709231Y-84045946D01*
X107621403Y-84082326D01*
X107542360Y-84135140D01*
X107475140Y-84202360D01*
X107422326Y-84281403D01*
X107385946Y-84369231D01*
X107367400Y-84462468D01*
X75303642Y-84462468D01*
X75228597Y-84412326D01*
X75140769Y-84375946D01*
X75047532Y-84357400D01*
X74952468Y-84357400D01*
X74859231Y-84375946D01*
X74771403Y-84412326D01*
X74692360Y-84465140D01*
X74625140Y-84532360D01*
X74572326Y-84611403D01*
X74535946Y-84699231D01*
X74517400Y-84792468D01*
X50712910Y-84792468D01*
X49942200Y-84232468D01*
X67987400Y-84232468D01*
X67987400Y-84327532D01*
X68005946Y-84420769D01*
X68042326Y-84508597D01*
X68095140Y-84587640D01*
X68162360Y-84654860D01*
X68241403Y-84707674D01*
X68329231Y-84744054D01*
X68422468Y-84762600D01*
X68517532Y-84762600D01*
X68610769Y-84744054D01*
X68698597Y-84707674D01*
X68777640Y-84654860D01*
X68844860Y-84587640D01*
X68897674Y-84508597D01*
X68934054Y-84420769D01*
X68952600Y-84327532D01*
X68952600Y-84232468D01*
X68934054Y-84139231D01*
X68897674Y-84051403D01*
X68844860Y-83972360D01*
X68777640Y-83905140D01*
X68713776Y-83862468D01*
X93277400Y-83862468D01*
X93277400Y-83957532D01*
X93295946Y-84050769D01*
X93332326Y-84138597D01*
X93385140Y-84217640D01*
X93452360Y-84284860D01*
X93531403Y-84337674D01*
X93619231Y-84374054D01*
X93712468Y-84392600D01*
X93807532Y-84392600D01*
X93900769Y-84374054D01*
X93988597Y-84337674D01*
X94067640Y-84284860D01*
X94134860Y-84217640D01*
X94187674Y-84138597D01*
X94224054Y-84050769D01*
X94242600Y-83957532D01*
X94242600Y-83862468D01*
X94224054Y-83769231D01*
X94187674Y-83681403D01*
X94134860Y-83602360D01*
X94067640Y-83535140D01*
X93988597Y-83482326D01*
X93900769Y-83445946D01*
X93807532Y-83427400D01*
X93712468Y-83427400D01*
X93619231Y-83445946D01*
X93531403Y-83482326D01*
X93452360Y-83535140D01*
X93385140Y-83602360D01*
X93332326Y-83681403D01*
X93295946Y-83769231D01*
X93277400Y-83862468D01*
X68713776Y-83862468D01*
X68698597Y-83852326D01*
X68610769Y-83815946D01*
X68517532Y-83797400D01*
X68422468Y-83797400D01*
X68329231Y-83815946D01*
X68241403Y-83852326D01*
X68162360Y-83905140D01*
X68095140Y-83972360D01*
X68042326Y-84051403D01*
X68005946Y-84139231D01*
X67987400Y-84232468D01*
X49942200Y-84232468D01*
X48704324Y-83333024D01*
X87647341Y-83331477D01*
X87676444Y-83332049D01*
X87695624Y-83328625D01*
X87715027Y-83326713D01*
X87727457Y-83322942D01*
X87740243Y-83320659D01*
X87758395Y-83313555D01*
X87777044Y-83307897D01*
X87788498Y-83301774D01*
X87800592Y-83297041D01*
X87817008Y-83286534D01*
X87834197Y-83277345D01*
X87844235Y-83269106D01*
X87855175Y-83262104D01*
X87869228Y-83248594D01*
X87884292Y-83236230D01*
X87892530Y-83226192D01*
X87901894Y-83217189D01*
X87913038Y-83201201D01*
X87925403Y-83186133D01*
X87931526Y-83174676D01*
X87938952Y-83164022D01*
X87946764Y-83146164D01*
X87955950Y-83128976D01*
X87964403Y-83101108D01*
X88499064Y-81455818D01*
X100518812Y-81455818D01*
X100518812Y-81550882D01*
X100537358Y-81644119D01*
X100573738Y-81731947D01*
X100626552Y-81810990D01*
X100693772Y-81878210D01*
X100772815Y-81931024D01*
X100860643Y-81967404D01*
X100953880Y-81985950D01*
X101048944Y-81985950D01*
X101142181Y-81967404D01*
X101230009Y-81931024D01*
X101309052Y-81878210D01*
X101376272Y-81810990D01*
X101429086Y-81731947D01*
X101465466Y-81644119D01*
X101484012Y-81550882D01*
X101484012Y-81455818D01*
X101465466Y-81362581D01*
X101429086Y-81274753D01*
X101376272Y-81195710D01*
X101309052Y-81128490D01*
X101230009Y-81075676D01*
X101142181Y-81039296D01*
X101048944Y-81020750D01*
X100953880Y-81020750D01*
X100860643Y-81039296D01*
X100772815Y-81075676D01*
X100693772Y-81128490D01*
X100626552Y-81195710D01*
X100573738Y-81274753D01*
X100537358Y-81362581D01*
X100518812Y-81455818D01*
X88499064Y-81455818D01*
X89644030Y-77932468D01*
X92377400Y-77932468D01*
X92377400Y-78027532D01*
X92395946Y-78120769D01*
X92432326Y-78208597D01*
X92485140Y-78287640D01*
X92552360Y-78354860D01*
X92631403Y-78407674D01*
X92719231Y-78444054D01*
X92812468Y-78462600D01*
X92907532Y-78462600D01*
X93000769Y-78444054D01*
X93088597Y-78407674D01*
X93167640Y-78354860D01*
X93234860Y-78287640D01*
X93287674Y-78208597D01*
X93324054Y-78120769D01*
X93342600Y-78027532D01*
X93342600Y-77932468D01*
X93324054Y-77839231D01*
X93287674Y-77751403D01*
X93234860Y-77672360D01*
X93167640Y-77605140D01*
X93088597Y-77552326D01*
X93000769Y-77515946D01*
X92907532Y-77497400D01*
X92812468Y-77497400D01*
X92719231Y-77515946D01*
X92631403Y-77552326D01*
X92552360Y-77605140D01*
X92485140Y-77672360D01*
X92432326Y-77751403D01*
X92395946Y-77839231D01*
X92377400Y-77932468D01*
X89644030Y-77932468D01*
X90011240Y-76802468D01*
X98017400Y-76802468D01*
X98017400Y-76897532D01*
X98035946Y-76990769D01*
X98072326Y-77078597D01*
X98125140Y-77157640D01*
X98192360Y-77224860D01*
X98271403Y-77277674D01*
X98359231Y-77314054D01*
X98452468Y-77332600D01*
X98547532Y-77332600D01*
X98640769Y-77314054D01*
X98728597Y-77277674D01*
X98807640Y-77224860D01*
X98874860Y-77157640D01*
X98927674Y-77078597D01*
X98964054Y-76990769D01*
X98982600Y-76897532D01*
X98982600Y-76802468D01*
X98974644Y-76762468D01*
X99547400Y-76762468D01*
X99547400Y-76857532D01*
X99565946Y-76950769D01*
X99602326Y-77038597D01*
X99655140Y-77117640D01*
X99722360Y-77184860D01*
X99801403Y-77237674D01*
X99889231Y-77274054D01*
X99982468Y-77292600D01*
X100077532Y-77292600D01*
X100170769Y-77274054D01*
X100258597Y-77237674D01*
X100337640Y-77184860D01*
X100404860Y-77117640D01*
X100457674Y-77038597D01*
X100494054Y-76950769D01*
X100512600Y-76857532D01*
X100512600Y-76762468D01*
X100494054Y-76669231D01*
X100457674Y-76581403D01*
X100404860Y-76502360D01*
X100337640Y-76435140D01*
X100258597Y-76382326D01*
X100170769Y-76345946D01*
X100077532Y-76327400D01*
X99982468Y-76327400D01*
X99889231Y-76345946D01*
X99801403Y-76382326D01*
X99722360Y-76435140D01*
X99655140Y-76502360D01*
X99602326Y-76581403D01*
X99565946Y-76669231D01*
X99547400Y-76762468D01*
X98974644Y-76762468D01*
X98964054Y-76709231D01*
X98927674Y-76621403D01*
X98874860Y-76542360D01*
X98807640Y-76475140D01*
X98728597Y-76422326D01*
X98640769Y-76385946D01*
X98547532Y-76367400D01*
X98452468Y-76367400D01*
X98359231Y-76385946D01*
X98271403Y-76422326D01*
X98192360Y-76475140D01*
X98125140Y-76542360D01*
X98072326Y-76621403D01*
X98035946Y-76709231D01*
X98017400Y-76802468D01*
X90011240Y-76802468D01*
X91727056Y-71522468D01*
X92897400Y-71522468D01*
X92897400Y-71617532D01*
X92915946Y-71710769D01*
X92952326Y-71798597D01*
X93005140Y-71877640D01*
X93072360Y-71944860D01*
X93151403Y-71997674D01*
X93239231Y-72034054D01*
X93332468Y-72052600D01*
X93427532Y-72052600D01*
X93520769Y-72034054D01*
X93608597Y-71997674D01*
X93687640Y-71944860D01*
X93754860Y-71877640D01*
X93807674Y-71798597D01*
X93844054Y-71710769D01*
X93862600Y-71617532D01*
X93862600Y-71552468D01*
X106817400Y-71552468D01*
X106817400Y-71647532D01*
X106835946Y-71740769D01*
X106872326Y-71828597D01*
X106925140Y-71907640D01*
X106992360Y-71974860D01*
X107071403Y-72027674D01*
X107159231Y-72064054D01*
X107252468Y-72082600D01*
X107347532Y-72082600D01*
X107440769Y-72064054D01*
X107528597Y-72027674D01*
X107607640Y-71974860D01*
X107674860Y-71907640D01*
X107727674Y-71828597D01*
X107764054Y-71740769D01*
X107782600Y-71647532D01*
X107782600Y-71552468D01*
X107764054Y-71459231D01*
X107727674Y-71371403D01*
X107674860Y-71292360D01*
X107607640Y-71225140D01*
X107528597Y-71172326D01*
X107440769Y-71135946D01*
X107347532Y-71117400D01*
X107252468Y-71117400D01*
X107159231Y-71135946D01*
X107071403Y-71172326D01*
X106992360Y-71225140D01*
X106925140Y-71292360D01*
X106872326Y-71371403D01*
X106835946Y-71459231D01*
X106817400Y-71552468D01*
X93862600Y-71552468D01*
X93862600Y-71522468D01*
X93844054Y-71429231D01*
X93807674Y-71341403D01*
X93754860Y-71262360D01*
X93687640Y-71195140D01*
X93608597Y-71142326D01*
X93520769Y-71105946D01*
X93427532Y-71087400D01*
X93332468Y-71087400D01*
X93239231Y-71105946D01*
X93151403Y-71142326D01*
X93072360Y-71195140D01*
X93005140Y-71262360D01*
X92952326Y-71341403D01*
X92915946Y-71429231D01*
X92897400Y-71522468D01*
X91727056Y-71522468D01*
X92398834Y-69455235D01*
X100501649Y-69455235D01*
X100501649Y-69550299D01*
X100520195Y-69643536D01*
X100556575Y-69731364D01*
X100609389Y-69810407D01*
X100676609Y-69877627D01*
X100755652Y-69930441D01*
X100843480Y-69966821D01*
X100936717Y-69985367D01*
X101031781Y-69985367D01*
X101125018Y-69966821D01*
X101212846Y-69930441D01*
X101291889Y-69877627D01*
X101359109Y-69810407D01*
X101411923Y-69731364D01*
X101448303Y-69643536D01*
X101466849Y-69550299D01*
X101466849Y-69455235D01*
X101448303Y-69361998D01*
X101411923Y-69274170D01*
X101359109Y-69195127D01*
X101291889Y-69127907D01*
X101212846Y-69075093D01*
X101125018Y-69038713D01*
X101031781Y-69020167D01*
X100936717Y-69020167D01*
X100843480Y-69038713D01*
X100755652Y-69075093D01*
X100676609Y-69127907D01*
X100609389Y-69195127D01*
X100556575Y-69274170D01*
X100520195Y-69361998D01*
X100501649Y-69455235D01*
X92398834Y-69455235D01*
X93813332Y-65102468D01*
X94807400Y-65102468D01*
X94807400Y-65197532D01*
X94825946Y-65290769D01*
X94862326Y-65378597D01*
X94915140Y-65457640D01*
X94982360Y-65524860D01*
X95061403Y-65577674D01*
X95149231Y-65614054D01*
X95242468Y-65632600D01*
X95337532Y-65632600D01*
X95430769Y-65614054D01*
X95518597Y-65577674D01*
X95597640Y-65524860D01*
X95664860Y-65457640D01*
X95717674Y-65378597D01*
X95754054Y-65290769D01*
X95772600Y-65197532D01*
X95772600Y-65102468D01*
X95754054Y-65009231D01*
X95717674Y-64921403D01*
X95664860Y-64842360D01*
X95597640Y-64775140D01*
X95518597Y-64722326D01*
X95430769Y-64685946D01*
X95337532Y-64667400D01*
X95242468Y-64667400D01*
X95149231Y-64685946D01*
X95061403Y-64722326D01*
X94982360Y-64775140D01*
X94915140Y-64842360D01*
X94862326Y-64921403D01*
X94825946Y-65009231D01*
X94807400Y-65102468D01*
X93813332Y-65102468D01*
X94765480Y-62172468D01*
X98577400Y-62172468D01*
X98577400Y-62267532D01*
X98595946Y-62360769D01*
X98632326Y-62448597D01*
X98685140Y-62527640D01*
X98752360Y-62594860D01*
X98831403Y-62647674D01*
X98919231Y-62684054D01*
X99012468Y-62702600D01*
X99107532Y-62702600D01*
X99200769Y-62684054D01*
X99288597Y-62647674D01*
X99367640Y-62594860D01*
X99434860Y-62527640D01*
X99487674Y-62448597D01*
X99524054Y-62360769D01*
X99542600Y-62267532D01*
X99542600Y-62172468D01*
X99524054Y-62079231D01*
X99487674Y-61991403D01*
X99434860Y-61912360D01*
X99367640Y-61845140D01*
X99288597Y-61792326D01*
X99200769Y-61755946D01*
X99107532Y-61737400D01*
X99012468Y-61737400D01*
X98919231Y-61755946D01*
X98831403Y-61792326D01*
X98752360Y-61845140D01*
X98685140Y-61912360D01*
X98632326Y-61991403D01*
X98595946Y-62079231D01*
X98577400Y-62172468D01*
X94765480Y-62172468D01*
X98255606Y-51432468D01*
X100397400Y-51432468D01*
X100397400Y-51527532D01*
X100415946Y-51620769D01*
X100452326Y-51708597D01*
X100505140Y-51787640D01*
X100572360Y-51854860D01*
X100651403Y-51907674D01*
X100739231Y-51944054D01*
X100832468Y-51962600D01*
X100927532Y-51962600D01*
X101020769Y-51944054D01*
X101108597Y-51907674D01*
X101187640Y-51854860D01*
X101254860Y-51787640D01*
X101307674Y-51708597D01*
X101344054Y-51620769D01*
X101362600Y-51527532D01*
X101362600Y-51432468D01*
X101344054Y-51339231D01*
X101307674Y-51251403D01*
X101254860Y-51172360D01*
X101187640Y-51105140D01*
X101108597Y-51052326D01*
X101020769Y-51015946D01*
X100927532Y-50997400D01*
X100832468Y-50997400D01*
X100739231Y-51015946D01*
X100651403Y-51052326D01*
X100572360Y-51105140D01*
X100505140Y-51172360D01*
X100452326Y-51251403D01*
X100415946Y-51339231D01*
X100397400Y-51432468D01*
X98255606Y-51432468D01*
X98779243Y-49821108D01*
X98779718Y-49822254D01*
G37*
G04 #@! TD.AperFunction*
M02*
