M48
; DRILL file {KiCad (5.1.9)-1} date 01/19/21 13:28:12
; FORMAT={-:-/ absolute / metric / decimal}
; #@! TF.CreationDate,2021-01-19T13:28:12-05:00
; #@! TF.GenerationSoftware,Kicad,Pcbnew,(5.1.9)-1
FMAT,2
METRIC
T1C0.254
T2C0.600
T3C1.500
%
G90
G05
T1
X54.91Y-86.33
X68.47Y-84.28
X69.53Y-98.06
X70.19Y-90.28
X71.41Y-137.62
X75.0Y-84.84
X75.27Y-132.98
X77.62Y-127.09
X77.7Y-93.55
X78.4Y-131.05
X78.75Y-104.85
X79.66Y-116.19
X79.93Y-101.93
X79.93Y-103.99
X79.96Y-95.95
X79.96Y-98.12
X80.11Y-132.3
X81.69Y-85.61
X82.099Y-94.151
X82.25Y-103.78
X82.26Y-96.23
X82.88Y-100.96
X83.02Y-115.67
X83.763Y-109.397
X84.18Y-95.255
X84.18Y-96.525
X84.18Y-98.43
X84.18Y-99.7
X84.5Y-87.21
X85.45Y-95.255
X85.45Y-99.7
X86.021Y-85.972
X86.05Y-100.5
X86.182Y-87.622
X86.72Y-95.255
X86.72Y-99.7
X87.61Y-126.43
X87.8Y-87.7
X87.99Y-99.7
X88.67Y-120.37
X89.895Y-97.16
X90.53Y-99.7
X91.8Y-95.255
X91.8Y-98.43
X91.8Y-99.7
X92.44Y-102.4
X92.86Y-77.98
X93.07Y-99.7
X93.156Y-105.194
X93.38Y-71.57
X93.705Y-95.255
X93.705Y-96.525
X93.76Y-83.91
X94.171Y-122.741
X94.236Y-106.257
X94.34Y-98.43
X94.34Y-99.7
X95.25Y-95.35
X95.29Y-65.15
X96.3Y-95.7
X96.724Y-99.036
X96.95Y-98.0
X98.5Y-76.85
X98.8Y-105.46
X99.06Y-62.22
X99.6Y-96.9
X100.03Y-76.81
X100.39Y-103.1
X100.5Y-98.0
X100.88Y-51.48
X100.984Y-69.503
X101.001Y-81.503
X101.3Y-92.55
X102.0Y-96.9
X103.05Y-100.4
X103.5Y-95.75
X104.25Y-102.0
X104.25Y-102.8
X104.286Y-108.065
X107.3Y-71.6
X107.85Y-84.51
X107.85Y-108.05
X109.67Y-106.27
X110.76Y-113.4
X111.4Y-120.42
X111.55Y-126.75
X113.739Y-87.691
X113.79Y-83.52
X113.93Y-110.08
X115.34Y-107.89
X116.67Y-119.54
X117.15Y-115.65
X117.21Y-100.96
X117.901Y-94.159
X118.21Y-114.31
X119.2Y-129.55
X120.09Y-83.88
X120.5Y-112.4
X121.1Y-85.23
X121.261Y-104.638
X123.14Y-97.24
X124.36Y-133.54
X124.85Y-124.9
X125.699Y-98.819
X126.166Y-139.314
X128.39Y-137.75
X129.01Y-96.67
X129.92Y-89.22
X130.53Y-91.17
X134.69Y-93.62
X145.23Y-86.33
T3
X100.0Y-49.17
T2
G00X110.365Y-88.825
M15
G01X110.915Y-88.825
M16
G05
G00X110.365Y-95.975
M15
G01X110.915Y-95.975
M16
G05
T0
M30
