G04 #@! TF.GenerationSoftware,KiCad,Pcbnew,(5.1.9)-1*
G04 #@! TF.CreationDate,2021-01-19T13:28:18-05:00*
G04 #@! TF.ProjectId,Star,53746172-2e6b-4696-9361-645f70636258,rev?*
G04 #@! TF.SameCoordinates,Original*
G04 #@! TF.FileFunction,Soldermask,Bot*
G04 #@! TF.FilePolarity,Negative*
%FSLAX46Y46*%
G04 Gerber Fmt 4.6, Leading zero omitted, Abs format (unit mm)*
G04 Created by KiCad (PCBNEW (5.1.9)-1) date 2021-01-19 13:28:18*
%MOMM*%
%LPD*%
G01*
G04 APERTURE LIST*
%ADD10C,3.101599*%
%ADD11O,2.051600X1.501600*%
%ADD12C,1.601600*%
%ADD13C,1.851600*%
%ADD14C,0.100000*%
G04 APERTURE END LIST*
D10*
X121700000Y-99100000D03*
D11*
X110640000Y-88825000D03*
X110640000Y-95975000D03*
D10*
X119000000Y-89750000D03*
D12*
X100000000Y-49170000D03*
D13*
X109673903Y-106269083D03*
X107877852Y-104473032D03*
X107877852Y-108065135D03*
X106081800Y-106269083D03*
X106081800Y-109861186D03*
X104285749Y-108065135D03*
G36*
G01*
X82550800Y-96224600D02*
X82550800Y-97775400D01*
G75*
G02*
X81775400Y-98550800I-775400J0D01*
G01*
X80224600Y-98550800D01*
G75*
G02*
X79449200Y-97775400I0J775400D01*
G01*
X79449200Y-96224600D01*
G75*
G02*
X80224600Y-95449200I775400J0D01*
G01*
X81775400Y-95449200D01*
G75*
G02*
X82550800Y-96224600I0J-775400D01*
G01*
G37*
G36*
G01*
X82550800Y-102224600D02*
X82550800Y-103775400D01*
G75*
G02*
X81775400Y-104550800I-775400J0D01*
G01*
X80224600Y-104550800D01*
G75*
G02*
X79449200Y-103775400I0J775400D01*
G01*
X79449200Y-102224600D01*
G75*
G02*
X80224600Y-101449200I775400J0D01*
G01*
X81775400Y-101449200D01*
G75*
G02*
X82550800Y-102224600I0J-775400D01*
G01*
G37*
D14*
G36*
X79451190Y-103775204D02*
G01*
X79466069Y-103926278D01*
X79510081Y-104071364D01*
X79581549Y-104205073D01*
X79677730Y-104322270D01*
X79794927Y-104418451D01*
X79928636Y-104489919D01*
X80073722Y-104533931D01*
X80224796Y-104548810D01*
X80226422Y-104549975D01*
X80226226Y-104551965D01*
X80224600Y-104552800D01*
X80167334Y-104552800D01*
X80167138Y-104552790D01*
X80022144Y-104538510D01*
X80021759Y-104538434D01*
X79888319Y-104497955D01*
X79887957Y-104497805D01*
X79764989Y-104432077D01*
X79764663Y-104431859D01*
X79656876Y-104343401D01*
X79656599Y-104343124D01*
X79568141Y-104235337D01*
X79567923Y-104235011D01*
X79502195Y-104112043D01*
X79502045Y-104111681D01*
X79461566Y-103978241D01*
X79461490Y-103977856D01*
X79447210Y-103832862D01*
X79447200Y-103832666D01*
X79447200Y-103775400D01*
X79448200Y-103773668D01*
X79450200Y-103773668D01*
X79451190Y-103775204D01*
G37*
G36*
X82551965Y-103773774D02*
G01*
X82552800Y-103775400D01*
X82552800Y-103832666D01*
X82552790Y-103832862D01*
X82538510Y-103977856D01*
X82538434Y-103978241D01*
X82497955Y-104111681D01*
X82497805Y-104112043D01*
X82432077Y-104235011D01*
X82431859Y-104235337D01*
X82343401Y-104343124D01*
X82343124Y-104343401D01*
X82235337Y-104431859D01*
X82235011Y-104432077D01*
X82112043Y-104497805D01*
X82111681Y-104497955D01*
X81978241Y-104538434D01*
X81977856Y-104538510D01*
X81832862Y-104552790D01*
X81832666Y-104552800D01*
X81775400Y-104552800D01*
X81773668Y-104551800D01*
X81773668Y-104549800D01*
X81775204Y-104548810D01*
X81926278Y-104533931D01*
X82071364Y-104489919D01*
X82205073Y-104418451D01*
X82322270Y-104322270D01*
X82418451Y-104205073D01*
X82489919Y-104071364D01*
X82533931Y-103926278D01*
X82548810Y-103775204D01*
X82549975Y-103773578D01*
X82551965Y-103773774D01*
G37*
G36*
X80226332Y-101448200D02*
G01*
X80226332Y-101450200D01*
X80224796Y-101451190D01*
X80073722Y-101466069D01*
X79928636Y-101510081D01*
X79794927Y-101581549D01*
X79677730Y-101677730D01*
X79581549Y-101794927D01*
X79510081Y-101928636D01*
X79466069Y-102073722D01*
X79451190Y-102224796D01*
X79450025Y-102226422D01*
X79448035Y-102226226D01*
X79447200Y-102224600D01*
X79447200Y-102167334D01*
X79447210Y-102167138D01*
X79461490Y-102022144D01*
X79461566Y-102021759D01*
X79502045Y-101888319D01*
X79502195Y-101887957D01*
X79567923Y-101764989D01*
X79568141Y-101764663D01*
X79656599Y-101656876D01*
X79656876Y-101656599D01*
X79764663Y-101568141D01*
X79764989Y-101567923D01*
X79887957Y-101502195D01*
X79888319Y-101502045D01*
X80021759Y-101461566D01*
X80022144Y-101461490D01*
X80167138Y-101447210D01*
X80167334Y-101447200D01*
X80224600Y-101447200D01*
X80226332Y-101448200D01*
G37*
G36*
X81832862Y-101447210D02*
G01*
X81977856Y-101461490D01*
X81978241Y-101461566D01*
X82111681Y-101502045D01*
X82112043Y-101502195D01*
X82235011Y-101567923D01*
X82235337Y-101568141D01*
X82343124Y-101656599D01*
X82343401Y-101656876D01*
X82431859Y-101764663D01*
X82432077Y-101764989D01*
X82497805Y-101887957D01*
X82497955Y-101888319D01*
X82538434Y-102021759D01*
X82538510Y-102022144D01*
X82552790Y-102167138D01*
X82552800Y-102167334D01*
X82552800Y-102224600D01*
X82551800Y-102226332D01*
X82549800Y-102226332D01*
X82548810Y-102224796D01*
X82533931Y-102073722D01*
X82489919Y-101928636D01*
X82418451Y-101794927D01*
X82322270Y-101677730D01*
X82205073Y-101581549D01*
X82071364Y-101510081D01*
X81926278Y-101466069D01*
X81775204Y-101451190D01*
X81773578Y-101450025D01*
X81773774Y-101448035D01*
X81775400Y-101447200D01*
X81832666Y-101447200D01*
X81832862Y-101447210D01*
G37*
G36*
X79451190Y-97775204D02*
G01*
X79466069Y-97926278D01*
X79510081Y-98071364D01*
X79581549Y-98205073D01*
X79677730Y-98322270D01*
X79794927Y-98418451D01*
X79928636Y-98489919D01*
X80073722Y-98533931D01*
X80224796Y-98548810D01*
X80226422Y-98549975D01*
X80226226Y-98551965D01*
X80224600Y-98552800D01*
X80167334Y-98552800D01*
X80167138Y-98552790D01*
X80022144Y-98538510D01*
X80021759Y-98538434D01*
X79888319Y-98497955D01*
X79887957Y-98497805D01*
X79764989Y-98432077D01*
X79764663Y-98431859D01*
X79656876Y-98343401D01*
X79656599Y-98343124D01*
X79568141Y-98235337D01*
X79567923Y-98235011D01*
X79502195Y-98112043D01*
X79502045Y-98111681D01*
X79461566Y-97978241D01*
X79461490Y-97977856D01*
X79447210Y-97832862D01*
X79447200Y-97832666D01*
X79447200Y-97775400D01*
X79448200Y-97773668D01*
X79450200Y-97773668D01*
X79451190Y-97775204D01*
G37*
G36*
X82551965Y-97773774D02*
G01*
X82552800Y-97775400D01*
X82552800Y-97832666D01*
X82552790Y-97832862D01*
X82538510Y-97977856D01*
X82538434Y-97978241D01*
X82497955Y-98111681D01*
X82497805Y-98112043D01*
X82432077Y-98235011D01*
X82431859Y-98235337D01*
X82343401Y-98343124D01*
X82343124Y-98343401D01*
X82235337Y-98431859D01*
X82235011Y-98432077D01*
X82112043Y-98497805D01*
X82111681Y-98497955D01*
X81978241Y-98538434D01*
X81977856Y-98538510D01*
X81832862Y-98552790D01*
X81832666Y-98552800D01*
X81775400Y-98552800D01*
X81773668Y-98551800D01*
X81773668Y-98549800D01*
X81775204Y-98548810D01*
X81926278Y-98533931D01*
X82071364Y-98489919D01*
X82205073Y-98418451D01*
X82322270Y-98322270D01*
X82418451Y-98205073D01*
X82489919Y-98071364D01*
X82533931Y-97926278D01*
X82548810Y-97775204D01*
X82549975Y-97773578D01*
X82551965Y-97773774D01*
G37*
G36*
X80226332Y-95448200D02*
G01*
X80226332Y-95450200D01*
X80224796Y-95451190D01*
X80073722Y-95466069D01*
X79928636Y-95510081D01*
X79794927Y-95581549D01*
X79677730Y-95677730D01*
X79581549Y-95794927D01*
X79510081Y-95928636D01*
X79466069Y-96073722D01*
X79451190Y-96224796D01*
X79450025Y-96226422D01*
X79448035Y-96226226D01*
X79447200Y-96224600D01*
X79447200Y-96167334D01*
X79447210Y-96167138D01*
X79461490Y-96022144D01*
X79461566Y-96021759D01*
X79502045Y-95888319D01*
X79502195Y-95887957D01*
X79567923Y-95764989D01*
X79568141Y-95764663D01*
X79656599Y-95656876D01*
X79656876Y-95656599D01*
X79764663Y-95568141D01*
X79764989Y-95567923D01*
X79887957Y-95502195D01*
X79888319Y-95502045D01*
X80021759Y-95461566D01*
X80022144Y-95461490D01*
X80167138Y-95447210D01*
X80167334Y-95447200D01*
X80224600Y-95447200D01*
X80226332Y-95448200D01*
G37*
G36*
X81832862Y-95447210D02*
G01*
X81977856Y-95461490D01*
X81978241Y-95461566D01*
X82111681Y-95502045D01*
X82112043Y-95502195D01*
X82235011Y-95567923D01*
X82235337Y-95568141D01*
X82343124Y-95656599D01*
X82343401Y-95656876D01*
X82431859Y-95764663D01*
X82432077Y-95764989D01*
X82497805Y-95887957D01*
X82497955Y-95888319D01*
X82538434Y-96021759D01*
X82538510Y-96022144D01*
X82552790Y-96167138D01*
X82552800Y-96167334D01*
X82552800Y-96224600D01*
X82551800Y-96226332D01*
X82549800Y-96226332D01*
X82548810Y-96224796D01*
X82533931Y-96073722D01*
X82489919Y-95928636D01*
X82418451Y-95794927D01*
X82322270Y-95677730D01*
X82205073Y-95581549D01*
X82071364Y-95510081D01*
X81926278Y-95466069D01*
X81775204Y-95451190D01*
X81773578Y-95450025D01*
X81773774Y-95448035D01*
X81775400Y-95447200D01*
X81832666Y-95447200D01*
X81832862Y-95447210D01*
G37*
M02*
